<svg width="852" height="322" viewBox="0 0 852 322" fill="none" xmlns="http://www.w3.org/2000/svg">
<g opacity="0.06">
<path d="M0 260.515H149.267V315.168H212.132V260.515H250.701V207.835H212.132V4.25097H129.83L0 208.745V260.515ZM150.481 207.835H66.2056V205.406L148.052 75.9077H150.481V207.835Z" fill="#E4F7FF" fill-opacity="0.85"/>
<path d="M424.994 322C503.195 322 550.42 262.488 550.571 160.013C550.723 58.297 502.892 0 424.994 0C346.944 0 299.568 58.1451 299.416 160.013C299.112 262.185 346.64 321.848 424.994 322ZM424.994 267.498C389.309 267.498 366.228 231.67 366.381 160.013C366.532 89.4191 389.461 53.8944 424.994 53.8944C460.374 53.8944 483.455 89.4191 483.455 160.013C483.607 231.67 460.526 267.498 424.994 267.498Z" fill="#E4F7FF" fill-opacity="0.85"/>
<path d="M601.299 260.515H750.566V315.168H813.431V260.515H852V207.835H813.431V4.25097H731.129L601.299 208.745V260.515ZM751.781 207.835H667.505V205.406L749.351 75.9077H751.781V207.835Z" fill="#E4F7FF" fill-opacity="0.85"/>
</g>
</svg>
