<svg width="852" height="322" viewBox="0 0 852 322" fill="none" xmlns="http://www.w3.org/2000/svg">
<g opacity="0.06">
<path d="M0 260.515H149.234V315.168H212.086V260.515H250.647V207.835H212.086V4.25097H129.802L0 208.745V260.515ZM150.449 207.835H66.1914V205.406L148.02 75.9077H150.449V207.835Z" fill="#255063"/>
<path d="M424.902 322C503.087 322 550.302 262.488 550.453 160.013C550.605 58.297 502.784 0 424.902 0C346.87 0 299.503 58.1451 299.352 160.013C299.048 262.185 346.565 321.848 424.902 322ZM424.902 267.498C389.226 267.498 366.149 231.67 366.302 160.013C366.454 89.4191 389.377 53.8944 424.902 53.8944C460.275 53.8944 483.351 89.4191 483.351 160.013C483.503 231.67 460.427 267.498 424.902 267.498Z" fill="#255063"/>
<path d="M601.17 260.515H750.405V315.168H813.256V260.515H851.817V207.835H813.256V4.25097H730.972L601.17 208.745V260.515ZM751.619 207.835H667.362V205.406L749.19 75.9077H751.619V207.835Z" fill="#255063"/>
</g>
</svg>
