<svg width="342" height="120" viewBox="0 0 342 120" fill="none" xmlns="http://www.w3.org/2000/svg">
<g clip-path="url(#clip0_25851_2047)">
<rect width="342" height="120" fill="#36A2FF"/>
<g clip-path="url(#clip1_25851_2047)">
<path d="M101.196 41.3762C103.075 66.8303 86.7149 78.8612 72.0486 80.1441C58.4133 81.3368 45.5785 72.9574 44.4525 60.083C43.5237 49.4467 50.0967 44.9185 55.261 44.4671C60.5727 44.0014 65.0361 47.6649 65.4233 52.1004C65.7963 56.365 63.1358 58.306 61.2853 58.4675C59.8219 58.5958 57.981 57.7072 57.8146 55.7995C57.6722 54.1603 58.2946 53.9369 58.1424 52.1955C57.8717 49.0951 55.1684 48.734 53.6884 48.8623C51.8973 49.0191 48.6476 51.1098 49.1037 56.3175C49.5622 61.5703 54.5983 65.7207 61.1998 65.1434C68.3238 64.521 73.2839 58.9735 73.6568 51.1929C73.6534 50.7807 73.7402 50.3729 73.911 49.9979L73.9134 49.9884C73.9901 49.8254 74.0799 49.6689 74.1819 49.5204C74.3339 49.2922 74.5287 49.0404 74.7805 48.7648C74.7828 48.7577 74.7828 48.7577 74.7876 48.7577C74.9705 48.551 75.1914 48.3277 75.4408 48.0877C78.5527 45.1513 89.7603 38.2259 100.36 40.4187C100.584 40.4668 100.786 40.5859 100.937 40.7585C101.088 40.9311 101.179 41.1477 101.196 41.3762Z" fill="white"/>
<path d="M127.497 52.2875V77.4254C127.497 77.46 127.483 77.4934 127.458 77.5178C127.434 77.5423 127.401 77.5561 127.366 77.5561H122.011C121.977 77.5561 121.943 77.5423 121.919 77.5178C121.894 77.4934 121.88 77.46 121.88 77.4254V52.2875C121.88 52.2564 121.893 52.2265 121.915 52.2044C121.937 52.1824 121.967 52.1699 121.998 52.1699H127.379C127.41 52.1699 127.44 52.1824 127.462 52.2044C127.484 52.2265 127.497 52.2564 127.497 52.2875Z" fill="white"/>
<path d="M169.487 43.207C169.459 43.207 169.433 43.2181 169.413 43.2376C169.393 43.2573 169.382 43.2839 169.382 43.3116V47.8191C169.382 47.8503 169.394 47.8802 169.416 47.9023C169.438 47.9243 169.469 47.9367 169.5 47.9367H180.235V77.4254C180.235 77.4601 180.249 77.4933 180.273 77.5177C180.298 77.5422 180.331 77.556 180.366 77.556H185.942C185.977 77.556 186.01 77.5422 186.034 77.5177C186.058 77.4933 186.073 77.4601 186.073 77.4254V47.9367H195.946C195.984 47.9367 196.021 47.9216 196.047 47.8946C196.075 47.8677 196.09 47.8311 196.09 47.793V43.3116C196.09 43.2839 196.078 43.2573 196.058 43.2376C196.04 43.2181 196.012 43.207 195.985 43.207H169.487Z" fill="white"/>
<path d="M171.44 77.4124C171.44 77.4506 171.426 77.4871 171.399 77.514C171.372 77.541 171.335 77.5562 171.297 77.5562H166.074C166.035 77.5562 165.999 77.541 165.971 77.514C165.945 77.4871 165.929 77.4506 165.929 77.4124V62.7661C165.925 62.053 165.868 61.3413 165.76 60.6365C165.394 58.1148 164.453 56.4164 161.085 56.4164H160.941C159.918 56.4538 158.919 56.7361 158.028 57.2395C156.868 57.8507 155.882 58.7506 155.168 59.8525C155.274 60.6671 155.325 61.4876 155.325 62.3088V77.7391C155.325 77.7738 155.311 77.807 155.287 77.8315C155.263 77.8559 155.23 77.8698 155.195 77.8698H150.049C150.011 77.8698 149.974 77.8546 149.948 77.8276C149.921 77.8007 149.905 77.7642 149.905 77.726V64.2686C149.905 61.8776 150.049 59.3168 148.861 57.8928C148.368 57.3594 147.756 56.9502 147.075 56.6981C146.394 56.4461 145.664 56.3585 144.943 56.4424C143.941 56.4869 142.959 56.7359 142.057 57.1742C141.445 57.4298 140.887 57.7976 140.411 58.2585C139.848 58.7921 139.434 59.463 139.209 60.2053V77.4124C139.209 77.4506 139.194 77.4871 139.168 77.514C139.141 77.541 139.104 77.5562 139.066 77.5562H133.842C133.804 77.5562 133.767 77.541 133.74 77.514C133.713 77.4871 133.698 77.4506 133.698 77.4124V52.4575C133.698 52.4228 133.712 52.3896 133.736 52.3651C133.761 52.3406 133.794 52.3268 133.829 52.3268H136.062C136.498 52.3254 136.922 52.4626 137.274 52.7187C137.626 52.9748 137.888 53.3363 138.021 53.751C138.126 54.1168 138.256 54.4304 138.308 54.5872C140.518 52.666 143.361 51.6327 146.288 51.6867C147.417 51.608 148.549 51.7714 149.61 52.1656C150.671 52.5599 151.636 53.1761 152.439 53.973C152.815 54.4221 153.152 54.903 153.444 55.4103C154.561 54.2245 155.915 53.289 157.419 52.6651C158.922 52.0413 160.542 51.7435 162.169 51.7912C164.937 51.7912 171.376 52.7318 171.376 61.4726L171.44 77.4124Z" fill="white"/>
<path d="M248.023 77.6215H242.289C242.262 77.6231 242.234 77.6179 242.21 77.6066C242.185 77.5951 242.163 77.5779 242.146 77.5562C240.945 75.8839 238.384 71.8858 238.11 71.5853L237.993 71.3893C237.092 70.2004 234.963 67.4697 232.115 66.8556L229.961 69.0898V77.4516C229.961 77.4653 229.958 77.479 229.953 77.4916C229.948 77.5044 229.94 77.5158 229.931 77.5256C229.921 77.5353 229.909 77.543 229.897 77.5482C229.884 77.5534 229.87 77.5562 229.857 77.5562H224.529C224.492 77.5529 224.459 77.5364 224.435 77.5097C224.411 77.4832 224.398 77.4484 224.398 77.4124V42.763C224.398 42.7283 224.411 42.6951 224.436 42.6706C224.461 42.6461 224.494 42.6323 224.529 42.6323H229.961C229.989 42.6323 230.016 42.6434 230.035 42.6629C230.055 42.6825 230.066 42.7091 230.066 42.7369V62.3349L240.514 51.6214H240.604H246.573C246.743 51.6214 246.821 51.6214 246.886 51.739C246.952 51.8565 246.886 51.9611 246.886 52.0787L235.891 63.2495C238.333 64.5509 240.433 66.4136 242.015 68.6848L242.133 68.8416C242.498 69.3119 246.599 75.1652 248.153 77.3472C248.19 77.3645 248.218 77.3955 248.232 77.4335C248.245 77.4715 248.243 77.5133 248.225 77.5496C248.207 77.586 248.177 77.6141 248.139 77.6275C248.101 77.641 248.059 77.6388 248.023 77.6215Z" fill="white"/>
<path d="M128.045 45.4152C128.058 46.0839 127.872 46.7414 127.51 47.304C127.148 47.8666 126.628 48.3088 126.014 48.5743C125.4 48.8399 124.722 48.9168 124.064 48.7952C123.407 48.6737 122.8 48.3592 122.322 47.8918C121.844 47.4244 121.515 46.8252 121.378 46.1705C121.241 45.5158 121.302 44.8351 121.553 44.2151C121.804 43.5951 122.234 43.0639 122.787 42.6889C123.341 42.314 123.994 42.1124 124.663 42.1096C125.101 42.1044 125.537 42.1858 125.945 42.3492C126.353 42.5125 126.724 42.7545 127.038 43.0615C127.352 43.3684 127.603 43.7343 127.775 44.1381C127.948 44.542 128.04 44.9759 128.045 45.4152Z" fill="white"/>
<path d="M207.191 51.0986C199.498 51.0986 194.732 56.2073 194.732 64.4384C194.732 72.6696 199.498 77.7781 207.191 77.7781C214.883 77.7781 219.728 72.6565 219.728 64.4254C219.728 56.1942 214.883 51.0986 207.191 51.0986ZM212.167 71.337C211.498 71.9524 210.714 72.4279 209.859 72.7353C209.006 73.0426 208.098 73.1759 207.191 73.1269C201.301 73.1269 200.087 68.2405 200.087 64.164C200.087 58.4806 202.398 55.7107 207.191 55.7107C211.983 55.7107 214.269 58.6243 214.269 64.3993C214.295 67.548 213.577 69.8867 212.167 71.3239V71.337Z" fill="white"/>
<path d="M272.127 69.6778C272.009 69.534 271.76 69.6778 271.644 69.6778L267.033 70.3702C266.955 70.3718 266.879 70.396 266.814 70.4401C266.749 70.4841 266.697 70.546 266.667 70.6185C266.166 71.4472 265.47 72.1411 264.638 72.6397C263.807 73.1383 262.868 73.4267 261.9 73.4798C260.645 73.6572 259.363 73.4839 258.2 72.979C257.036 72.4741 256.035 71.6571 255.306 70.6185C254.494 69.5702 253.987 68.3176 253.843 66.9994V66.9079L267.15 65.0788C267.972 64.9831 268.76 64.6972 269.452 64.2435C270.142 63.7899 270.719 63.1812 271.133 62.4656C271.52 61.7273 271.726 60.9088 271.737 60.0759C271.748 59.2431 271.565 58.4192 271.199 57.6706C269.961 54.9835 267.734 52.8777 264.983 51.7912C263.044 51.0522 260.952 50.8144 258.897 51.1C256.842 51.3854 254.893 52.1849 253.229 53.4244C251.706 54.6397 250.48 56.1847 249.641 57.9432C248.801 59.7016 248.371 61.6276 248.383 63.5762C248.319 64.843 248.39 66.1131 248.593 67.3651C249.521 72.722 253.425 78.131 260.254 78.131C268.404 78.131 271.526 73.1139 272.1 70.1089C272.178 70.0174 272.27 69.7823 272.127 69.6778ZM255.149 58.2716C255.766 57.5035 256.534 56.8697 257.407 56.4091C258.278 55.9486 259.234 55.6709 260.216 55.5933C261.12 55.4158 262.053 55.4586 262.937 55.7178C263.822 55.977 264.63 56.4451 265.296 57.0827C265.819 57.5752 266.26 58.1488 266.603 58.7812C266.7 58.9849 266.752 59.2082 266.752 59.4345C266.752 59.6607 266.7 59.884 266.603 60.0877C266.513 60.2969 266.372 60.4792 266.19 60.6167C266.01 60.7542 265.795 60.842 265.571 60.8716L253.411 62.5701C253.599 60.9992 254.219 59.5111 255.201 58.2716H255.149Z" fill="white"/>
<path d="M298.464 61.8514V77.4124C298.464 77.4505 298.45 77.4871 298.422 77.514C298.396 77.541 298.358 77.5561 298.321 77.5561H293.096C293.062 77.5561 293.029 77.5423 293.004 77.5179C292.979 77.4933 292.966 77.4601 292.966 77.4255V64.4776C292.966 64.4776 292.966 62.3349 292.862 60.3881C292.843 59.7359 292.695 59.094 292.425 58.4996C292.157 57.9053 291.772 57.3703 291.294 56.9259C290.8 56.5352 290.231 56.2531 289.621 56.0978C289.011 55.9425 288.375 55.9175 287.756 56.0243C285.286 56.3427 283.03 57.5901 281.447 59.5127V77.4124C281.447 77.4505 281.433 77.4871 281.405 77.514C281.378 77.541 281.343 77.5561 281.304 77.5561H276.08C276.042 77.5561 276.005 77.541 275.978 77.514C275.951 77.4871 275.936 77.4505 275.936 77.4124V51.9871C275.936 51.949 275.951 51.9124 275.978 51.8854C276.005 51.8585 276.042 51.8434 276.08 51.8434H280.455C280.493 51.8434 280.53 51.8585 280.556 51.8854C280.584 51.9124 280.599 51.949 280.599 51.9871V54.4696C282.807 52.4676 285.652 51.3107 288.63 51.2031C291.138 51.0464 298.464 51.19 298.464 61.8514Z" fill="white"/>
</g>
<path d="M3 0L6 4L3 8L0 4L3 0Z" fill="white"/>
<path d="M9 0L12 4L9 8L6 4L9 0Z" fill="white"/>
<path d="M15 0L18 4L15 8L12 4L15 0Z" fill="white"/>
<path d="M21 0L24 4L21 8L18 4L21 0Z" fill="white"/>
<path d="M27 0L30 4L27 8L24 4L27 0Z" fill="white"/>
<path d="M33 0L36 4L33 8L30 4L33 0Z" fill="white"/>
<path d="M291 112L294 116L291 120L288 116L291 112Z" fill="white"/>
<path d="M297 112L300 116L297 120L294 116L297 112Z" fill="white"/>
<path d="M303 112L306 116L303 120L300 116L303 112Z" fill="white"/>
<path d="M309 112L312 116L309 120L306 116L309 112Z" fill="white"/>
<path d="M315 112L318 116L315 120L312 116L315 112Z" fill="white"/>
<path d="M321 112L324 116L321 120L318 116L321 112Z" fill="white"/>
<path d="M327 112L330 116L327 120L324 116L327 112Z" fill="white"/>
<path d="M333 112L336 116L333 120L330 116L333 112Z" fill="white"/>
<path d="M339 112L342 116L339 120L336 116L339 112Z" fill="white"/>
</g>
<defs>
<clipPath id="clip0_25851_2047">
<rect width="342" height="120" fill="white"/>
</clipPath>
<clipPath id="clip1_25851_2047">
<rect width="254.87" height="44" fill="white" transform="translate(44 38)"/>
</clipPath>
</defs>
</svg>
