<svg width="342" height="120" viewBox="0 0 342 120" fill="none" xmlns="http://www.w3.org/2000/svg">
<rect width="342" height="120" fill="#4A21EF"/>
<path d="M138.777 77.8148C134.633 77.8148 130.064 76.4114 125.072 73.6047V67.5342C129.77 70.7 134.355 72.2829 138.826 72.2829C140.881 72.2829 142.513 71.9076 143.72 71.1569C144.96 70.3736 145.58 69.2966 145.58 67.9259C145.58 66.6857 145.009 65.7066 143.867 64.9885C142.725 64.2379 140.963 63.5688 138.581 62.9814C134.306 61.8717 131.402 60.9253 129.868 60.142C126.475 58.4122 124.778 55.8176 124.778 52.3581C124.778 49.3881 126.034 47.0383 128.547 45.3085C131.059 43.5788 134.159 42.7139 137.847 42.7139C142.35 42.7139 146.412 44.0194 150.035 46.6303V52.7008C145.89 49.6982 141.828 48.1969 137.847 48.1969C135.758 48.1969 134.029 48.5885 132.658 49.3718C131.288 50.1551 130.603 51.2484 130.603 52.6518C130.603 53.5004 130.994 54.2347 131.777 54.8548C132.56 55.4423 133.409 55.8992 134.323 56.2256C135.269 56.5193 136.672 56.8946 138.532 57.3515C140.49 57.8411 142.105 58.3143 143.378 58.7712C144.683 59.2281 146.005 59.8646 147.342 60.6805C148.68 61.4638 149.676 62.4592 150.328 63.6668C151.014 64.8743 151.356 66.3103 151.356 67.9748C151.356 71.0753 150.165 73.4904 147.783 75.2202C145.434 76.9499 142.431 77.8148 138.777 77.8148Z" fill="#F7F6FF"/>
<path d="M163.141 77.8148C161.999 77.8148 160.889 77.6843 159.813 77.4232C158.768 77.1621 157.757 76.7541 156.778 76.1993C155.799 75.6118 154.999 74.7796 154.379 73.7026C153.759 72.5929 153.449 71.3038 153.449 69.8351C153.417 67.1915 154.33 65.1844 156.19 63.8136C158.05 62.4102 160.71 61.7085 164.169 61.7085H172.049V60.142C172.049 58.706 171.462 57.6289 170.287 56.9109C169.112 56.1603 167.595 55.785 165.735 55.785C162.178 55.785 160.106 56.9599 159.519 59.3097L154.135 59.4077C154.2 56.8293 155.326 54.7895 157.512 53.2882C159.731 51.7869 162.439 51.0363 165.637 51.0363C168.868 51.0363 171.625 51.8196 173.909 53.3862C176.226 54.9527 177.385 56.9762 177.385 59.4566V77.4232H172.049V73.5068C171.299 74.5511 170.157 75.5302 168.623 76.4441C167.122 77.3579 165.295 77.8148 163.141 77.8148ZM163.581 73.1641C165.735 73.1641 167.677 72.4297 169.406 70.9611C171.168 69.4924 172.049 67.7627 172.049 65.7718H165.148C163.027 65.7718 161.444 66.1798 160.4 66.9957C159.388 67.779 158.948 68.7744 159.078 69.982C159.176 71.0916 159.666 71.9076 160.547 72.4297C161.428 72.9193 162.439 73.1641 163.581 73.1641Z" fill="#F7F6FF"/>
<path d="M181.69 77.4232L181.592 56.3235V50.5957C181.592 47.4952 182.865 45.1617 185.41 43.5951C187.956 42.0285 191.317 41.7674 195.493 42.8118L195.444 47.1199C192.736 46.4019 190.68 46.4019 189.277 47.1199C187.907 47.8053 187.221 48.9802 187.221 50.6447V51.4769H195.249V56.3235H187.221L187.27 77.4232H181.69Z" fill="#F7F6FF"/>
<path d="M210.048 77.8148C206.328 77.8148 203.179 76.5093 200.601 73.8984C198.023 71.2548 196.734 68.089 196.734 64.4011C196.734 60.6805 198.039 57.531 200.65 54.9527C203.26 52.3418 206.393 51.0363 210.048 51.0363C213.278 51.0363 216.117 52.097 218.564 54.2184C221.044 56.3071 222.562 58.9344 223.117 62.1002C223.443 63.6341 223.459 65.1028 223.166 66.5062H202.314C202.64 68.4317 203.521 69.9657 204.957 71.1079C206.393 72.2176 208.09 72.7724 210.048 72.7724C213.05 72.7724 215.448 71.7117 217.243 69.5903H222.293C222.293 69.5903 221.709 73.0204 217.243 75.9545C214.959 77.1947 212.56 77.8148 210.048 77.8148ZM202.314 62.1491H217.634C217.308 60.4194 216.443 58.9671 215.04 57.7921C213.67 56.6172 211.989 56.0297 209.999 56.0297C208.008 56.0297 206.311 56.6335 204.908 57.8411C203.505 59.016 202.64 60.452 202.314 62.1491Z" fill="#F7F6FF"/>
<path d="M264.04 77.8148C262.898 77.8148 261.789 77.6843 260.712 77.4232C259.668 77.1621 258.656 76.7541 257.677 76.1993C256.698 75.6118 255.899 74.7796 255.279 73.7026C254.659 72.5929 254.349 71.3038 254.349 69.8351C254.316 67.1915 255.23 65.1844 257.09 63.8136C258.95 62.4102 261.609 61.7085 265.068 61.7085H272.949V60.142C272.949 58.706 272.361 57.6289 271.187 56.9109C270.012 56.1603 268.495 55.785 266.635 55.785C263.078 55.785 261.006 56.9599 260.418 59.3097L255.034 59.4077C255.099 56.8293 256.225 54.7895 258.411 53.2882C260.63 51.7869 263.339 51.0363 266.537 51.0363C269.767 51.0363 272.525 51.8196 274.809 53.3862C277.126 54.9527 278.284 56.9762 278.284 59.4566V77.4232H272.949V73.5068C272.198 74.5511 271.056 75.5302 269.522 76.4441C268.021 77.3579 266.194 77.8148 264.04 77.8148ZM264.481 73.1641C266.635 73.1641 268.576 72.4297 270.306 70.9611C272.068 69.4924 272.949 67.7627 272.949 65.7718H266.047C263.926 65.7718 262.344 66.1798 261.299 66.9957C260.288 67.779 259.847 68.7744 259.978 69.982C260.076 71.0916 260.565 71.9076 261.446 72.4297C262.327 72.9193 263.339 73.1641 264.481 73.1641Z" fill="#F7F6FF"/>
<path d="M282.371 77.4232V43.5951H288V77.4232H282.371Z" fill="#F7F6FF"/>
<path fill-rule="evenodd" clip-rule="evenodd" d="M226.437 43.5951H241.317C244.613 43.5951 247.354 44.7211 249.54 46.973C251.726 49.1923 252.819 51.8849 252.819 55.0506C252.819 58.249 251.726 60.9416 249.54 63.1282C247.386 65.2823 244.645 66.3756 241.317 66.4082L232.262 66.4572V77.4232H226.437V43.5951ZM240.925 61.17L232.262 61.219V48.8823L240.925 48.8333C242.85 48.8333 244.368 49.4045 245.477 50.5468C246.619 51.689 247.19 53.1251 247.19 54.8548C247.19 56.6172 246.619 58.1185 245.477 59.3587C244.335 60.5663 242.818 61.17 240.925 61.17Z" fill="#F7F6FF"/>
<path d="M76.7966 34C75.214 34 73.6962 34.6287 72.5771 35.7478L54.9987 53.3266C54.3329 53.9924 54 54.865 54 55.7377C54 56.6103 54.3329 57.483 54.9987 58.1488L66.5184 69.6685V49.2744C66.5184 47.7524 67.7425 46.5186 69.2645 46.5186C75.6945 46.5186 91.3462 46.5186 93.4811 46.5186L106 34.0002L76.7966 34Z" fill="#F7F6FF"/>
<path d="M66.5189 73.4814H90.7259C92.2479 73.4814 93.4817 72.2476 93.4817 70.7256V50.3314L105.001 61.8512C105.667 62.517 106 63.3897 106 64.2623C106 65.135 105.667 66.0076 105.001 66.6734L87.4229 84.2522C86.3039 85.3713 84.7861 86 83.2034 86L54.0005 85.9998L66.5189 73.4814Z" fill="#F7F6FF"/>
</svg>
