<svg width="342" height="120" viewBox="0 0 342 120" fill="none" xmlns="http://www.w3.org/2000/svg">
<rect width="342" height="120" fill="#050505"/>
<path d="M154.424 74.1016C153.065 73.0574 152.324 71.461 152.198 69.3152L157.437 66.74C157.544 67.945 157.855 68.8432 158.377 69.4343C158.899 70.0254 159.663 70.3169 160.676 70.3169C162.004 70.3169 163.037 69.8297 163.766 68.8508C164.495 67.872 165.044 66.3522 165.409 64.2874L168.679 45.749H174.459L171.093 64.8517C170.418 68.6861 169.04 71.4453 166.959 73.1344C164.879 74.823 162.457 75.6675 159.693 75.6675C157.536 75.6715 155.782 75.1494 154.424 74.1016Z" fill="white"/>
<path d="M177.719 59.0249C178.981 57.3632 180.505 56.0811 182.282 55.1829C184.063 54.2851 185.894 53.8359 187.782 53.8359C189.644 53.8359 191.298 54.2851 192.749 55.1829C194.199 56.0811 195.263 57.3632 195.938 59.0249C196.614 60.6871 196.763 62.6023 196.38 64.7745C195.996 66.9472 195.174 68.8624 193.911 70.5241C192.649 72.1863 191.137 73.4602 189.371 74.3433C187.606 75.2259 185.794 75.6714 183.932 75.6714C182.044 75.6714 180.367 75.2299 178.901 74.3433C177.434 73.4602 176.364 72.1863 175.688 70.5241C175.009 68.8624 174.863 66.9472 175.247 64.7745C175.634 62.6023 176.456 60.6871 177.719 59.0249ZM181.591 69.1772C182.316 70.263 183.372 70.8044 184.754 70.8044C186.136 70.8044 187.375 70.263 188.469 69.1772C189.563 68.0908 190.277 66.6248 190.599 64.7745C190.926 62.9247 190.733 61.4506 190.024 60.349C189.314 59.2515 188.266 58.6989 186.884 58.6989C185.502 58.6989 184.255 59.2475 183.146 60.349C182.033 61.447 181.315 62.9207 180.988 64.7745C180.666 66.6248 180.866 68.0908 181.591 69.1772Z" fill="white"/>
<path d="M215.209 54.3579H220.989L207.541 77.9245C206.117 80.4192 204.651 82.2193 203.138 83.3325C201.626 84.4457 199.887 85.0023 197.918 85.0023C196.962 85.0023 196.087 84.8599 195.301 84.58C194.514 84.2997 193.853 83.9159 193.328 83.4359L196.272 79.1721C196.966 79.7632 197.791 80.0547 198.747 80.0547C199.358 80.0547 199.906 79.9279 200.39 79.6745C200.873 79.4175 201.369 78.9759 201.879 78.3468C202.39 77.7172 203.019 76.7845 203.767 75.5526L198.532 54.3619H204.754L207.687 68.7167L215.209 54.3579Z" fill="white"/>
<path d="M226.332 75.1883H220.552L225.741 45.7529H231.521L226.332 75.1883Z" fill="white"/>
<path d="M247.354 45.7529C250.198 45.7529 252.67 46.3288 254.765 47.4841C256.861 48.6394 258.381 50.3168 259.322 52.5315C260.262 54.7423 260.461 57.3753 259.92 60.4341C259.379 63.4894 258.25 66.13 256.531 68.3564C254.808 70.5823 252.705 72.279 250.21 73.4419C247.719 74.6084 245.036 75.1918 242.165 75.1918H232.435L237.624 45.757H247.354V45.7529ZM242.364 70.2021C245.5 70.2021 248.057 69.3581 250.029 67.669C252.002 65.9804 253.265 63.57 253.817 60.4305C254.362 57.3484 253.936 54.9572 252.551 53.2529C251.162 51.5527 248.912 50.7005 245.803 50.7005H242.533L239.094 70.2021H242.364Z" fill="white"/>
<path d="M127.2 58.7061C129.067 58.7061 130.581 57.1926 130.581 55.3248C130.581 53.4576 129.067 51.9436 127.2 51.9436C125.332 51.9436 123.818 53.4576 123.818 55.3248C123.818 57.1926 125.332 58.7061 127.2 58.7061Z" fill="#8CDD00"/>
<path d="M104.436 51.9436C102.743 51.9436 101.369 53.3174 101.369 55.0101C101.369 56.7027 102.743 58.0769 104.436 58.0769C106.128 58.0769 107.502 56.7027 107.502 55.0101C107.498 53.3174 106.128 51.9436 104.436 51.9436Z" fill="#8CDD00"/>
<path d="M113.678 49.4292L110.289 65.5419C109.974 67.0465 108.627 68.1369 107.092 68.1369C106.097 68.1369 105.172 67.6913 104.547 66.9198C104.059 66.3175 103.814 65.5764 103.825 64.8165L97.7032 66.3981C97.9642 68.0021 98.6243 69.534 99.6761 70.8424C101.491 73.0957 104.193 74.3889 107.087 74.3889C111.563 74.3889 115.478 71.2109 116.399 66.8316L120.061 49.4332H113.678V49.4292Z" fill="#C1C1C1"/>
<path d="M142.364 37.9804C140.311 35.4508 137.263 34 134.005 34H126.463L125.146 40.2489H134.005C135.371 40.2489 136.649 40.8552 137.509 41.9182C138.369 42.9777 138.703 44.3555 138.423 45.6913L137.106 51.9438H143.493L144.541 46.9809C145.208 43.7913 144.417 40.5095 142.364 37.9804Z" fill="#8CDD00"/>
<path d="M132.845 72.2023C131.924 76.5776 128.013 79.752 123.542 79.752H116.829L115.512 86.0004H123.542C130.949 86.0004 137.436 80.7384 138.96 73.4879L140.065 68.2295H133.678L132.845 72.2023Z" fill="#8CDD00"/>
<path d="M86.8143 46.5122L85.6707 51.9474H92.0575L92.9289 47.8018C93.8499 43.4265 97.7609 40.2521 102.233 40.2521H108.665L109.982 34.0037H102.233C94.8248 34.0001 88.3381 39.262 86.8143 46.5122Z" fill="#8CDD00"/>
<path d="M88.2649 78.0781C87.4052 77.0186 87.0715 75.6408 87.3514 74.305L88.5183 68.7664L81.763 70.5091L81.2333 73.0194C80.5616 76.2086 81.3564 79.4904 83.4095 82.02C85.4631 84.5491 88.5107 85.9999 91.7693 85.9999H99.0311L100.348 79.7515H91.7693C90.4026 79.7474 89.1247 79.1411 88.2649 78.0781Z" fill="#8CDD00"/>
</svg>
