<svg xmlns="http://www.w3.org/2000/svg" width="342" height="120" viewBox="0 0 342 120">
  <defs></defs>
  <rect width="342" height="120" fill="black" style="" id="object-0"></rect>
  <path d="M 284.864 68.594 L 284.864 45.494 L 289.483 45.494 L 289.483 57.58 L 295.61 50.918 L 300.164 50.918 L 300.531 51.688 L 294.405 58.283 L 301 67.825 L 300.631 68.594 L 296.112 68.594 L 291.358 61.597 L 289.483 63.64 L 289.483 68.594 L 284.864 68.594 Z" fill="white" style="" id="object-1"></path>
  <path d="M 271.196 68.594 L 271.196 53.195 C 272.022 51.677 273.605 50.918 275.949 50.918 L 279.565 50.918 L 281.575 52.425 L 281.575 54.935 L 277.187 54.935 C 276.518 54.935 276.061 55.103 275.816 55.437 L 275.816 68.594 L 271.196 68.594 Z" fill="white" style="" id="object-2"></path>
  <path d="M 251.25 63.171 L 251.25 56.341 C 251.25 52.726 253.057 50.918 256.672 50.918 L 261.359 50.918 C 264.976 50.918 266.783 52.726 266.783 56.341 L 266.783 63.171 C 266.783 66.786 264.976 68.594 261.359 68.594 L 256.672 68.594 C 253.057 68.594 251.25 66.786 251.25 63.171 Z M 255.869 63.505 C 255.869 64.22 256.226 64.577 256.941 64.577 L 261.092 64.577 C 261.805 64.577 262.163 64.22 262.163 63.505 L 262.163 56.007 C 262.163 55.292 261.805 54.935 261.092 54.935 L 256.941 54.935 C 256.226 54.935 255.869 55.292 255.869 56.007 L 255.869 63.505 Z" fill="white" style="" id="object-3"></path>
  <path d="M 222.185 51.621 L 222.687 50.918 L 226.571 50.918 L 229.249 64.577 L 229.483 64.577 L 232.698 50.918 L 237.819 50.918 L 241.067 64.577 L 241.301 64.577 L 243.979 50.918 L 247.863 50.918 L 248.365 51.621 L 244.816 68.594 L 237.92 68.594 L 235.274 56.441 L 232.63 68.594 L 225.734 68.594 L 222.185 51.621 Z" fill="white" style="" id="object-4"></path>
  <path d="M 209.536 63.171 L 209.536 45.494 L 214.156 45.494 L 214.156 50.918 L 219.914 50.918 L 219.914 54.935 L 214.156 54.935 L 214.156 63.505 C 214.156 64.22 214.513 64.577 215.227 64.577 L 220.249 64.577 L 220.249 67.087 L 218.24 68.594 L 214.959 68.594 C 211.344 68.594 209.536 66.786 209.536 63.171 Z" fill="white" style="" id="object-5"></path>
  <path d="M 189.916 63.171 L 189.916 56.341 C 189.916 52.726 191.724 50.918 195.34 50.918 L 199.693 50.918 C 203.308 50.918 205.116 52.726 205.116 56.341 L 205.116 61.464 L 194.537 61.464 L 194.537 63.505 C 194.537 64.22 194.894 64.577 195.608 64.577 L 204.446 64.577 L 204.446 67.087 L 202.437 68.594 L 195.34 68.594 C 191.724 68.594 189.916 66.786 189.916 63.171 Z M 194.537 57.915 L 200.496 57.915 L 200.496 56.007 C 200.496 55.292 200.139 54.935 199.425 54.935 L 195.608 54.935 C 194.894 54.935 194.537 55.292 194.537 56.007 L 194.537 57.915 Z" fill="white" style="" id="object-6"></path>
  <path d="M 165.803 68.594 L 165.803 45.494 L 171.027 45.494 L 180.199 60.66 L 180.199 45.494 L 185.021 45.494 L 185.021 68.594 L 179.798 68.594 L 170.625 53.429 L 170.625 68.594 L 165.803 68.594 Z" fill="white" style="" id="object-7"></path>
  <path d="M 143.758 68.594 L 143.758 53.195 C 144.583 51.677 146.168 50.918 148.511 50.918 L 152.128 50.918 L 154.136 52.425 L 154.136 54.935 L 149.751 54.935 C 149.081 54.935 148.623 55.103 148.378 55.437 L 148.378 68.594 L 143.758 68.594 Z" fill="white" style="" id="object-8"></path>
  <path d="M 124.138 63.171 L 124.138 56.341 C 124.138 52.726 125.946 50.918 129.562 50.918 L 133.913 50.918 C 137.53 50.918 139.337 52.726 139.337 56.341 L 139.337 61.464 L 128.759 61.464 L 128.759 63.505 C 128.759 64.22 129.116 64.577 129.829 64.577 L 138.667 64.577 L 138.667 67.087 L 136.659 68.594 L 129.562 68.594 C 125.946 68.594 124.138 66.786 124.138 63.171 Z M 128.759 57.915 L 134.718 57.915 L 134.718 56.007 C 134.718 55.292 134.361 54.935 133.646 54.935 L 129.829 54.935 C 129.116 54.935 128.759 55.292 128.759 56.007 L 128.759 57.915 Z" fill="white" style="" id="object-9"></path>
  <path d="M 104.658 68.594 L 104.658 45.494 L 109.279 45.494 L 109.279 50.918 L 114.434 50.918 C 118.05 50.918 119.858 52.726 119.858 56.341 L 119.858 63.171 C 119.858 66.786 118.05 68.594 114.434 68.594 L 104.658 68.594 Z M 109.279 64.577 L 114.167 64.577 C 114.881 64.577 115.237 64.22 115.237 63.505 L 115.237 56.007 C 115.237 55.292 114.881 54.935 114.167 54.935 L 109.279 54.935 L 109.279 64.577 Z" fill="white" style="" id="object-10"></path>
  <path d="M 95.11 49.847 L 95.11 45.494 L 99.932 45.494 L 99.932 49.847 L 95.11 49.847 Z M 95.211 68.594 L 95.211 52.313 L 99.831 52.313 L 99.831 68.594 L 95.211 68.594 Z" fill="white" style="" id="object-11"></path>
  <path d="M 75.996 68.594 L 75.996 45.494 L 91.797 45.494 L 91.797 49.847 L 80.817 49.847 L 80.817 55.538 L 90.793 55.538 L 90.793 59.89 L 80.817 59.89 L 80.817 68.594 L 75.996 68.594 Z" fill="white" style="" id="object-12"></path>
  <path fill-rule="evenodd" clip-rule="evenodd" d="M 40.732 44.88 L 62.744 44.88 L 66.929 37.907 L 41.821 37.907 L 40.732 44.88 Z M 42.518 79.056 L 57.165 53.948 L 47.861 53.948 L 49.493 46.276 L 40.51 46.276 L 38.334 60.224 L 46.521 60.224 L 42.518 79.056 Z" fill="white" style="" id="object-13"></path>
</svg>