<svg width="342" height="120" viewBox="0 0 342 120" fill="none" xmlns="http://www.w3.org/2000/svg">
<g clip-path="url(#clip0_25851_1925)">
<rect width="342" height="120" fill="#F8D348"/>
<g opacity="0.3">
<path d="M82.9422 3.92297C90.8251 10.0388 99.6677 14.8183 107.459 19.0497C114.474 22.8528 120.506 26.1248 124.459 29.551C128.663 33.1999 129.92 36.472 128.526 40.1894C122.654 55.693 128.754 65.0637 134.627 74.1432C139.973 82.3832 145.046 90.1778 141.253 102.341C138.785 110.238 131.839 114.658 121.671 114.778C112.463 114.881 101.793 111.489 92.356 105.459C82.0739 98.8804 74.5109 89.9037 71.0378 80.1733C68.2045 72.2074 62.4694 67.6162 53.4897 66.143C51.0449 65.749 48.4401 65.5776 45.7439 65.5776C39.7118 65.5776 33.1312 66.3999 26.2537 67.2394C17.3654 68.3357 8.34 69.4664 0.0229492 68.8839V70.597C8.61419 71.1624 17.7767 70.0317 26.6421 68.9353C46.2009 66.4856 63.1092 64.3956 68.8671 80.6016C76.5444 102.17 102.044 116.491 121.26 116.491C121.42 116.491 121.557 116.491 121.717 116.491C127.087 116.423 131.679 115.275 135.381 113.065C139.356 110.701 142.075 107.223 143.469 102.735C147.445 89.9894 141.961 81.5609 136.66 73.4065C130.971 64.6354 125.076 55.556 130.697 40.6691C134.193 31.4526 122.974 25.3711 108.762 17.6792C101.039 13.4992 92.2874 8.75393 84.5416 2.74093C83.4448 1.85011 82.3024 0.942167 81.1599 0.0170898H78.0525C79.6747 1.35331 81.297 2.65527 82.9422 3.92297Z" fill="white"/>
<path d="M119.363 32.8573C115.913 29.8765 110.155 26.7587 103.506 23.144C95.486 18.7927 86.3921 13.859 78.0979 7.43484C75.0132 5.07075 71.9972 2.55249 69.0496 0.0170898H66.9247C70.1921 2.84371 73.5509 5.63608 76.9554 8.27426C85.3639 14.7841 94.5035 19.7349 102.592 24.1205C109.173 27.7009 114.862 30.7845 118.198 33.6454C121.1 36.1465 120.963 37.3628 120.529 38.4763C113.788 56.2755 120.894 67.2222 127.155 76.867C132.25 84.713 136.272 90.9145 133.164 100.902C131.519 106.161 127.863 108.508 121.305 108.508C114.199 108.508 105.357 105.544 97.6566 100.559C88.7455 94.8032 82.1878 86.9915 79.1946 78.5287C74.6476 65.7661 63.4288 59.2905 45.835 59.2905C39.0945 59.2905 31.9199 60.1814 24.9738 61.0379C18.2105 61.8773 11.2187 62.751 4.91234 62.751C3.19866 62.751 1.59922 62.6825 0.0911865 62.5626V63.7789C1.59922 63.8988 3.19866 63.9673 4.91234 63.9673C11.3329 63.9673 18.3933 63.0936 25.2251 62.2371C32.1027 61.3805 39.2088 60.5068 45.8121 60.5068C62.5833 60.5068 73.2996 66.674 77.618 78.8542C80.7026 87.5396 87.4431 95.5741 96.5827 101.484C104.557 106.641 113.788 109.724 121.283 109.724C128.526 109.724 132.913 106.932 134.695 101.193C137.94 90.7945 133.804 84.4218 128.571 76.3702C122.425 66.9139 115.479 56.1898 122.037 38.8361C122.539 37.4827 122.791 35.821 119.363 32.8573Z" fill="white"/>
<path d="M96.9716 30.3219L96.7203 30.1849C88.3118 25.628 78.7837 20.4544 69.7812 13.4821C64.1832 9.16507 58.8822 4.50543 53.7412 0.0170898H51.6391C51.8904 0.239794 52.1646 0.479628 52.4159 0.702332C57.6027 5.24206 62.9722 9.93597 68.6159 14.3215C77.7327 21.3624 87.3064 26.5702 95.7834 31.1613L96.0348 31.2984C103.118 35.1529 107.117 41.5599 106.431 48.0354C104.923 62.5112 111.458 72.5842 116.713 80.6701C118.29 83.1027 119.501 86.3576 120.323 90.332C120.78 92.5248 119.524 94.649 117.079 95.8825C114.657 97.1159 111.572 97.1844 109.059 96.0538C107.596 95.4028 106.294 94.7176 105.174 93.9809C98.0227 89.3555 92.7445 83.0856 90.3454 76.3017C84.4503 59.7359 68.6388 50.6051 45.7897 50.6051C38.0896 50.6051 30.4351 51.5473 23.032 52.4724C16.7257 53.2604 10.2137 54.0656 4.86705 54.0656C2.92488 54.0656 1.34829 53.9628 0.0458984 53.7915V54.9906C1.39399 55.162 2.97058 55.2476 4.86705 55.2476C10.328 55.2476 16.9314 54.4253 23.3062 53.6373C30.6408 52.7293 38.2267 51.7871 45.7897 51.7871C67.839 51.7871 83.1022 60.5925 88.7916 76.5929C91.2822 83.5995 96.7431 90.0922 104.123 94.8717C105.311 95.6426 106.705 96.3793 108.236 97.0645C109.676 97.7155 111.275 98.0238 112.875 98.0238C114.634 98.0238 116.416 97.6298 117.97 96.8418C120.94 95.3343 122.448 92.7646 121.9 90.1093C121.077 86.0321 119.798 82.6573 118.153 80.1048C112.989 72.1388 106.545 62.2371 108.031 48.0868C108.739 41.2344 104.512 34.4162 96.9716 30.3219Z" fill="white"/>
<path d="M41.425 7.76033C46.7488 12.42 52.2555 17.2509 58.2191 21.8592C68.2041 29.6024 78.3491 35.1015 87.2831 39.9496L87.5344 40.0866C90.5733 41.7312 92.2641 44.455 91.99 47.196V47.2988C91.8529 48.5494 90.8704 49.5772 89.3395 50.074C87.8314 50.5537 86.1863 50.3653 84.9296 49.5772C74.6475 43.1531 61.1209 39.7611 45.812 39.7611C36.9238 39.7611 28.3097 40.8233 20.7009 41.7655L20.5181 41.7826C12.9323 42.7077 5.34637 40.7547 0.0682373 36.8317V38.4934C1.55343 39.4699 3.17571 40.3093 4.95793 41.0117C9.84763 42.9475 15.3314 43.6156 20.7923 42.9646L20.9751 42.9475C28.5153 42.0053 37.0837 40.9603 45.812 40.9603C60.7553 40.9603 73.9392 44.2666 83.9242 50.5023C85.021 51.1876 86.3234 51.5302 87.6715 51.5302C88.4484 51.5302 89.2252 51.4103 90.0021 51.1704C92.0585 50.5194 93.4523 49.0633 93.6351 47.3845V47.2817C93.955 44.1296 92.0128 40.9946 88.5397 39.1102L88.2884 38.9731C79.4001 34.1593 69.3237 28.6945 59.4301 21.0198C53.5122 16.4286 48.0055 11.6319 42.7046 6.9723C39.8027 4.48829 37.1065 2.1756 34.5703 0.0170898H32.4225C35.2558 2.38118 38.2261 4.96796 41.425 7.76033Z" fill="white"/>
<path d="M16.7029 36.5405C17.5711 36.5405 18.4622 36.4891 19.3305 36.3863L19.4676 36.3692C27.3505 35.3927 36.2845 34.2792 45.7669 34.2792C46.5666 34.2792 47.3891 34.2963 48.166 34.2963C50.9079 34.3477 53.307 33.2171 54.4266 31.3327C55.5462 29.414 55.0436 27.3069 53.1014 25.7993L52.9415 25.6794C46.8179 20.9341 41.2427 16.0518 35.8504 11.3236C30.8921 6.98943 26.4823 3.18633 22.4608 0.0170898H20.8842C25.0656 3.27199 29.704 7.26353 34.9821 11.8889C40.3973 16.6171 45.9725 21.5166 52.1189 26.279L52.2788 26.3989C53.8783 27.6495 54.3124 29.3968 53.3756 30.99C52.4616 32.549 50.4738 33.4912 48.2117 33.4398C47.412 33.4226 46.5894 33.4055 45.7669 33.4055C36.1931 33.4055 27.2134 34.519 19.2848 35.4955L19.1477 35.5126C18.3251 35.6154 17.5026 35.6668 16.7029 35.6668C10.8535 35.6668 5.43827 33.08 2.92488 29.0885C1.91952 27.5124 0.959861 25.8678 0.0458984 24.2061V26.416C0.639974 27.4439 1.2569 28.4718 1.89667 29.4654C4.59286 33.7653 10.4194 36.5405 16.7029 36.5405Z" fill="white"/>
<path d="M79.2864 223.938C85.8669 211.038 92.059 198.841 104.146 192.759C119.912 184.793 139.882 185.513 155.945 186.078C168.512 186.523 179.388 186.917 184.758 182.977C187.248 181.144 188.413 178.558 188.299 175.063C187.979 164.698 179.525 157.024 162.503 151.61C149.227 147.396 131.085 144.535 103.643 142.36C74.8537 140.064 63.3149 121.717 53.1242 105.528C47.6176 96.7567 42.408 88.4824 35.0278 83.8227C28.333 79.6085 19.1705 77.45 7.74601 77.3986C5.27831 77.3814 2.71922 77.4842 0.0687256 77.6727V79.3858C2.53642 79.1973 4.93557 79.1117 7.24333 79.1117C18.1423 79.1117 27.1905 81.1331 33.5426 85.1418C40.5344 89.5616 45.6526 97.6646 51.045 106.264C56.3002 114.624 61.7383 123.276 69.7355 130.351C78.9436 138.505 89.9569 142.993 103.392 144.056C130.582 146.214 148.542 149.041 161.589 153.186C177.72 158.309 185.694 165.469 185.991 175.097C186.083 178.095 185.146 180.271 183.135 181.744C178.474 185.153 168.078 184.793 156.036 184.365C139.654 183.782 119.249 183.063 102.867 191.337C90.1854 197.727 83.8562 210.164 77.1614 223.338C71.1978 235.039 64.8229 247.579 53.1471 257.001H56.3231C67.2678 247.527 73.4827 235.347 79.2864 223.938Z" fill="white"/>
<path d="M98.845 186.848C113.423 179.482 130.491 178.643 142.075 178.643C147.079 178.643 151.809 178.814 156.379 178.968C160.24 179.105 163.896 179.242 167.118 179.242C175.435 179.242 177.583 178.283 178.108 177.872C178.565 177.512 178.817 176.536 178.771 175.234C178.657 171.465 177.08 168.398 173.836 165.623C170.568 162.814 165.473 160.312 158.755 158.171C146.371 154.248 129.051 151.541 102.592 149.451C68.5015 146.745 55.1805 125.588 44.4871 108.577C39.4375 100.542 34.6392 92.936 28.8584 89.2871C23.8544 86.1178 16.5884 84.5247 7.266 84.5247C4.9354 84.5247 2.5134 84.6274 0 84.833V86.0322C2.49055 85.8266 4.9354 85.7238 7.266 85.7238C16.2 85.7238 23.1004 87.2314 27.8301 90.2122C33.3596 93.7069 38.0665 101.176 43.0476 109.108C53.9009 126.376 67.4276 147.875 102.409 150.651C128.709 152.741 145.891 155.413 158.115 159.285C164.627 161.357 169.517 163.756 172.625 166.428C175.618 168.981 177.057 171.807 177.172 175.285C177.217 176.45 176.989 176.964 176.92 177.084C176.623 177.238 174.704 178.06 167.118 178.06C163.919 178.06 160.286 177.923 156.447 177.803C151.855 177.632 147.102 177.478 142.053 177.478C130.262 177.478 112.874 178.351 97.931 185.889C82.9421 193.461 76.1331 206.84 68.9128 221.008C63.429 231.783 57.7624 242.918 48.3486 251.21C45.8352 253.42 43.1619 255.338 40.26 257.017H42.8191C45.2183 255.527 47.4575 253.848 49.5824 251.981C59.1791 243.535 64.8913 232.297 70.4208 221.436C77.5497 207.423 84.2902 194.215 98.845 186.848Z" fill="white"/>
<path d="M86.0724 172.648L86.1866 172.579C88.2431 171.551 89.2941 169.77 88.9285 167.937C88.5629 166.104 86.8721 164.63 84.4958 164.082C48.9884 155.876 33.8395 131.807 23.8316 115.858C21.6381 112.381 19.5588 109.074 17.5938 106.402C17.5024 106.265 17.411 106.145 17.3196 106.025C15.3089 103.318 11.4931 101.639 7.38024 101.639H7.266C5.04964 101.639 2.60479 101.794 0 102.085V103.301C2.60479 102.993 5.04964 102.839 7.266 102.839H7.38024C10.899 102.839 14.1893 104.295 15.9258 106.625C16.0172 106.744 16.1086 106.864 16.2 107.001C18.1421 109.657 20.1986 112.929 22.3921 116.406C27.396 124.372 33.6338 134.291 43.299 143.508C54.7692 154.454 68.0902 161.581 84.0388 165.264C85.8439 165.675 87.0778 166.755 87.3519 168.142C87.6261 169.53 86.8493 170.832 85.2955 171.62L85.1584 171.688C64.183 182.292 55.3404 199.612 47.5717 214.91C42.7734 224.332 37.8152 234.062 30.9605 240.11C28.0129 242.714 24.8826 244.512 21.1125 245.78C16.8855 247.202 11.7216 248.007 5.32383 248.23C4.66121 248.247 3.97574 248.264 3.29026 248.264C2.21636 248.264 1.1196 248.23 0.0228491 248.178V249.378C1.1196 249.429 2.21636 249.463 3.29026 249.463C3.99858 249.463 4.70691 249.446 5.39238 249.429C11.9958 249.206 17.3424 248.367 21.7523 246.877C25.7509 245.54 29.064 243.639 32.1486 240.898C39.1861 234.696 44.1901 224.863 49.0569 215.338C56.7799 200.177 65.5082 183.029 86.0724 172.648Z" fill="white"/>
<path d="M5.00414 242.525C10.4422 242.336 14.6921 241.703 18.051 240.572C20.7928 239.647 23.0092 238.362 25.2484 236.392C31.2806 231.081 35.9875 221.813 40.5573 212.837C45.0357 204.031 50.131 194.044 58.0139 184.913C65.3256 176.433 62.995 165.195 52.5987 158.754C33.1999 146.762 22.5979 129.922 15.6061 118.787C14.5322 117.074 12.9556 114.693 11.8132 113.014C9.93954 110.222 5.89526 108.68 1.78243 109.211C1.23405 109.28 0.639974 109.365 0.0458984 109.434V110.65C0.73137 110.547 1.41684 110.462 2.03377 110.393C2.49075 110.342 2.92488 110.307 3.35901 110.307C6.28369 110.307 9.00273 111.524 10.3508 113.545C11.4704 115.224 13.047 117.588 14.1209 119.301C21.1813 130.539 31.8746 147.516 51.5248 159.696C61.3042 165.761 63.4977 176.331 56.6202 184.279C48.6458 193.513 43.5276 203.552 39.0264 212.426C34.5023 221.3 29.8182 230.482 23.9917 235.638C21.9353 237.454 19.8789 238.636 17.3655 239.493C14.2123 240.555 10.1223 241.154 4.91275 241.343C4.38722 241.36 3.83884 241.377 3.31331 241.377C2.23941 241.377 1.14265 241.326 0.0458984 241.257V242.474C1.14265 242.542 2.23941 242.593 3.31331 242.593C3.86169 242.559 4.43292 242.559 5.00414 242.525Z" fill="white"/>
<path d="M228.56 238.207C248.758 229.505 262.171 217.444 269.551 201.358C276.497 186.215 277.457 169.135 277.457 152.929C277.457 132.937 288.721 124.252 301.745 114.178C310.725 107.24 320.893 99.3772 328.41 86.7174C333.505 78.1176 335.973 69.1409 335.516 60.7467C335.105 53.0206 332.271 45.8769 327.359 40.1209C320.573 32.1721 310.336 27.5467 299.277 27.4439C299.095 27.4439 298.912 27.4439 298.706 27.4439C285.431 27.4439 274.692 32.0179 265.918 41.4228C257.601 50.331 250.86 63.5733 244.668 83.0856C243.914 85.4497 243.206 87.7281 242.52 89.9209C237.631 105.562 234.089 116.868 228.057 124.851C221.911 132.988 213.365 137.682 198.513 141.04C191.453 142.633 186.883 142.719 184.118 141.28C180.165 139.241 179.64 134.033 178.931 126.838C178.063 118.136 176.898 106.212 168.329 93.9295C158.961 80.4817 163.394 70.7855 167.667 61.4319C172.419 51.0676 176.898 41.2687 160.538 28.4718C149.228 19.6321 145.206 10.0559 148.542 0.0170898H146.189C144.909 4.09428 144.795 8.15434 145.846 12.1287C147.445 18.2617 151.855 24.1547 158.893 29.6709C174.293 41.7141 170.226 50.6051 165.519 60.9009C161.292 70.1516 156.494 80.6358 166.319 94.7518C174.659 106.726 175.778 117.964 176.669 126.992C177.423 134.667 177.972 140.218 182.839 142.719C186.243 144.466 191.43 144.466 199.199 142.702C214.462 139.241 223.716 134.17 230.09 125.708C236.283 117.502 239.847 106.093 244.805 90.3149C245.491 88.1221 246.199 85.8437 246.953 83.4796C253.077 64.19 259.703 51.1362 267.86 42.3993C276.291 33.3541 286.573 29.02 299.3 29.1399C309.582 29.2427 319.133 33.5768 325.485 41.0288C335.676 52.9692 336.019 69.7747 326.376 86.015C319.019 98.4007 309.422 105.801 300.146 112.979C293.542 118.067 287.327 122.881 282.735 129.014C277.594 135.866 275.217 143.473 275.217 152.929C275.217 184.913 271.539 217.736 227.463 236.717C217.432 241.034 210.555 245.848 207.059 251.021C205.733 252.974 204.888 254.961 204.522 256.983H206.83C208.155 250.148 215.467 243.843 228.56 238.207Z" fill="white"/>
<path d="M289.224 152.93C289.224 186.472 284.997 224.075 234.432 245.866C225.955 249.515 220.563 253.403 218.872 257.001H220.563C222.299 253.798 227.372 250.286 235.209 246.911C286.505 224.795 290.801 186.815 290.801 152.947C290.801 137.032 298.958 130.728 311.319 121.186C321.076 113.648 332.135 105.117 340.612 90.8298C341.389 89.5279 342.097 88.2259 342.76 86.9068V83.3264C341.731 85.6734 340.52 88.0032 339.149 90.333C330.787 104.415 319.819 112.877 310.177 120.347C297.564 130.077 289.224 136.518 289.224 152.93Z" fill="white"/>
<path d="M174.636 76.73C174.248 81.0813 175.55 85.2612 178.749 89.8695C188.437 103.78 189.716 116.748 190.653 126.204C190.79 127.592 190.95 129.168 191.133 130.641C191.224 131.327 191.704 131.943 192.481 132.32C193.235 132.697 194.195 132.817 195.063 132.611H195.086C208.727 129.528 213.891 125.691 217.798 120.517C223.007 113.63 226.366 102.838 231.05 87.8994C231.736 85.7066 232.444 83.4111 233.198 81.047C239.687 60.5754 246.953 46.4423 256.047 36.5919C267.06 24.6687 281.41 18.6043 298.683 18.6043C298.912 18.6043 299.163 18.6043 299.392 18.6043C314.472 18.7413 328.273 24.8571 337.23 35.3413C339.423 37.911 341.251 40.6348 342.736 43.4957V40.4121C341.525 38.4249 340.154 36.5234 338.578 34.6903C329.324 23.8464 315.043 17.5422 299.415 17.4051C299.163 17.4051 298.935 17.4051 298.683 17.4051C280.861 17.4051 266.078 23.6237 254.745 35.9067C245.537 45.8769 238.202 60.13 231.644 80.7558C230.89 83.137 230.182 85.4154 229.474 87.6253C224.835 102.461 221.477 113.168 216.381 119.917C212.68 124.834 207.744 128.466 194.606 131.447L194.835 132.029L194.583 131.464C194.172 131.566 193.715 131.515 193.349 131.327C192.984 131.138 192.755 130.847 192.71 130.521C192.527 129.065 192.367 127.489 192.23 126.102C191.293 116.525 189.991 103.42 180.143 89.287C177.081 84.8843 175.824 80.9099 176.19 76.7985C176.555 72.8241 178.36 68.8668 180.28 64.6868C182.702 59.3762 185.718 52.7807 185.329 45.5C184.85 36.9859 179.891 29.157 170.158 21.5337C165.222 17.6621 162.183 13.7391 161.178 9.85032C160.424 6.95517 160.744 3.90584 162.115 0.805118C162.229 0.531022 162.366 0.274056 162.503 0.0170898H160.789C160.721 0.154138 160.652 0.291187 160.607 0.428235C159.121 3.73453 158.802 6.98943 159.624 10.0902C160.698 14.2016 163.874 18.3473 169.038 22.3731C190.356 39.0588 183.684 53.6544 178.794 64.3099C176.852 68.5756 175.002 72.6014 174.636 76.73Z" fill="white"/>
<path d="M237.311 26.8443C252.643 10.2615 273.87 1.49036 298.729 1.49036C299.072 1.49036 299.392 1.49036 299.735 1.49036C315.775 1.64454 330.741 6.09861 342.782 14.0474V12.4542C330.627 4.74526 315.729 0.445366 299.758 0.291187C299.415 0.291187 299.072 0.291187 298.729 0.291187C273.321 0.291187 251.637 9.2336 236.009 26.1591C225.133 37.9452 216.701 54.0313 209.481 76.7985C208.727 79.1968 207.996 81.4924 207.31 83.7023L207.287 83.7879C206.968 84.7987 205.917 85.227 205.003 85.2955C204.111 85.364 202.946 85.107 202.329 84.182C201.735 83.2398 201.095 82.2804 200.456 81.3553C198.948 79.1797 199.016 78.3403 199.062 77.9291C199.222 76.216 200.547 73.3037 201.964 70.2201C207.287 58.5882 218.346 34.3991 186.723 9.66187C184.758 8.13721 183.936 7.02369 183.707 6.61255C183.73 6.52689 183.776 6.40697 183.844 6.21853C184.416 4.95083 185.627 3.64887 186.289 3.06642L190.471 0.0170898H188.186L185.124 2.24413L185.078 2.29552C184.873 2.46683 183.113 4.07715 182.313 5.85878C182.131 6.25279 182.085 6.50976 182.062 6.64681V6.74959L182.108 6.85238C182.359 7.48623 183.41 8.82245 185.558 10.5013C216.519 34.7075 205.665 58.4511 200.433 69.8433C198.993 72.9954 197.622 75.9933 197.462 77.8606C197.417 78.3745 197.325 79.4367 199.039 81.9207C199.679 82.8286 200.296 83.7708 200.89 84.713C201.667 85.9465 203.357 86.6488 205.163 86.4947C206.968 86.3405 208.407 85.3983 208.818 84.062L208.841 83.9764C209.527 81.7665 210.258 79.4709 211.012 77.0726C218.186 54.4767 226.549 38.5106 237.311 26.8443Z" fill="white"/>
<path d="M314.906 142.514C313.489 144.381 312.05 147.088 312.05 152.929C312.05 179.346 312.05 227.861 253.808 256.983H256.664C313.649 227.415 313.672 179.277 313.672 152.929C313.672 147.362 314.997 144.826 316.3 143.096C318.425 140.27 322.538 137.1 327.724 133.092C332.408 129.477 337.572 125.485 342.782 120.655V118.736C337.207 124.064 331.586 128.398 326.582 132.269C321.304 136.329 317.145 139.55 314.906 142.514Z" fill="white"/>
<path d="M209.824 21.1911C211.515 23.6922 214.759 25.2854 218.484 25.4739C222.208 25.6623 225.681 24.3946 227.806 22.0819L227.92 21.962C236.877 12.2658 247.662 4.89948 259.886 0H256.573C245.171 4.95088 235.095 12.0774 226.595 21.2768L226.481 21.3967C224.676 23.3496 221.728 24.4289 218.575 24.2747C215.422 24.1205 212.68 22.7672 211.24 20.6429C209.938 18.7242 208.453 16.8056 206.853 14.9554C202.855 10.33 203.129 4.36842 207.265 0.0171311H205.345C201.438 4.69391 201.37 10.8097 205.505 15.6064C207.082 17.4394 208.544 19.3238 209.824 21.1911Z" fill="white"/>
<path d="M200.57 100.098C198.627 100.611 197.736 102.684 197.873 106.47C198.079 112.346 200.021 116.132 203.152 116.852C203.471 116.92 203.837 116.972 204.225 116.972C205.619 116.972 207.447 116.372 209.526 114.213C212.337 111.267 209.366 105.579 206.465 102.667C204.363 100.577 202.283 99.6521 200.57 100.098ZM208.247 113.528C206.602 115.241 204.979 116.012 203.654 115.704C201.872 115.293 199.724 112.62 199.496 106.436C199.336 102.033 200.707 101.331 201.118 101.228C201.232 101.194 201.346 101.194 201.461 101.194C202.42 101.194 203.837 102.016 205.208 103.404C208.315 106.556 210.303 111.37 208.247 113.528Z" fill="white"/>
<path d="M277.914 98.6925C278.485 98.7268 279.079 98.7439 279.673 98.7439C283.763 98.7439 288.173 98.0073 292.537 96.6026C300.42 94.0672 307.366 89.5446 312.073 83.8913C317.649 77.2102 320.093 68.9873 319.157 60.1305V60.0791C319.065 59.668 317.009 49.9547 308.715 45.7233C305.15 43.8903 300.946 43.3764 296.262 44.1644C290.892 45.0723 284.7 48.8926 278.828 54.9056C273.436 60.456 268.706 67.4455 265.895 74.1095C264.022 78.5122 263.039 82.6579 263.062 86.1012C263.062 89.99 264.296 92.9879 266.718 94.9922C269.3 97.1508 273.184 98.4356 277.914 98.6925ZM267.426 74.4692C270.191 67.9252 274.829 61.0556 280.13 55.6079C285.774 49.8348 291.623 46.1687 296.627 45.3293C297.93 45.1066 299.164 45.0038 300.375 45.0038C303.117 45.0038 305.607 45.5691 307.823 46.6998C315.364 50.5543 317.489 59.7365 317.58 60.2333C319.614 79.4715 305.653 91.0692 291.921 95.489C282.233 98.6069 272.59 98.093 267.906 94.1871C263.748 90.7437 263.588 83.5487 267.426 74.4692Z" fill="white"/>
<path d="M274.921 89.4242L275.081 89.527C275.881 90.0752 277.617 90.4178 279.651 90.4178C284.426 90.4178 292.309 88.5334 298.867 83.2228C303.665 79.3169 309.195 72.3274 308.167 61.1751L308.144 61.0723C307.961 60.3871 307.253 58.0059 305.745 55.7617C303.551 52.4897 301.632 52.1128 300.398 52.1128C299.895 52.1128 299.347 52.1642 298.73 52.267C297.405 52.4897 293.977 53.9801 289.522 58.1429C285.363 62.0145 281.479 67.0511 278.6 72.3103C276.292 76.5245 274.83 80.5161 274.35 83.8909C273.847 87.437 274.624 88.9274 274.876 89.3043L274.921 89.4242ZM276.589 84.0622C277.046 80.8587 278.463 77.0042 280.702 72.9442C283.512 67.8391 287.26 62.9568 291.304 59.205C295.531 55.282 298.524 54.0486 299.255 53.9287C299.712 53.8602 300.101 53.8088 300.421 53.8088C301.723 53.8088 303.048 55.5047 303.734 56.5155C305.082 58.5198 305.744 60.6612 305.927 61.3464C306.887 71.8478 301.723 78.409 297.245 82.0579C291.19 86.9745 284.015 88.7047 279.697 88.7047C278.097 88.7047 277.183 88.4649 276.818 88.345C276.589 87.9167 276.201 86.6661 276.589 84.0622Z" fill="white"/>
<path d="M261.966 134.547C256.413 134.547 251.912 131.275 250.495 126.222C249.422 122.401 249.65 117.879 251.135 113.51C252.575 109.262 255.042 105.75 257.899 103.848C260.161 102.341 262.628 101.878 265.027 102.495C275.447 105.168 278.6 111.746 275.264 123.806C274.327 127.164 272.522 129.939 270.031 131.823C267.747 133.571 264.868 134.547 261.966 134.547ZM262.971 103.951C261.783 103.951 260.595 104.345 259.407 105.133C254.448 108.422 250.541 117.982 252.735 125.862C253.923 130.093 257.533 132.817 261.966 132.817C265.873 132.817 271.105 130.367 273.025 123.464C276.909 109.399 270.785 105.784 264.296 104.123C263.839 104.02 263.405 103.951 262.971 103.951Z" fill="white"/>
</g>
<path d="M48.5283 54.4648C50.2094 54.4648 51.7654 55.1721 52.9632 56.3573C54.1534 57.5361 54.9892 59.1907 55.2375 61.0938L56.1377 68.018C56.3765 69.8511 55.9444 71.6225 55.0574 73.0031C54.1629 74.3922 52.8078 75.3883 51.2025 75.6645C51.0736 75.6857 50.9466 75.7027 50.8159 75.7154L50.4614 75.7494L50.0028 75.7898L49.5612 75.828L49.1367 75.862L48.8296 75.8853L48.6287 75.9002L48.4335 75.913L48.2421 75.9257L48.0545 75.9363L47.7815 75.9512L47.5162 75.9639L47.2603 75.9746L46.9344 75.9873L46.6994 75.9937L46.4757 75.9979H46.3298L46.1213 76H45.9128L45.7669 75.9979L45.5432 75.9937L45.3878 75.9894L45.0675 75.9788L44.7302 75.9639L44.4648 75.9512L44.1919 75.9363L44.0043 75.9257L43.8129 75.913L43.6177 75.9002L43.4168 75.8853L43.1097 75.862L42.6852 75.828L42.2436 75.7898L41.7849 75.7494L41.4305 75.7154C39.8139 75.5604 38.4019 74.6704 37.4296 73.3493C36.4631 72.0388 35.9324 70.3035 36.0651 68.4556C36.0764 68.309 36.0897 68.1625 36.1086 68.0159L37.0089 61.0917C37.2572 59.1886 38.093 57.534 39.2832 56.3551C40.481 55.1699 41.6518 54.6667 43.3329 54.6667L48.5359 54.4626L48.5283 54.4648Z" fill="url(#paint0_linear_25851_1925)" stroke="#20201E"/>
<path fill-rule="evenodd" clip-rule="evenodd" d="M42.8243 65.241C43.4338 65.241 43.9279 66.5067 43.9279 68.0681C43.9279 69.6295 43.4338 70.8952 42.8243 70.8952C42.2148 70.8952 41.7207 69.6295 41.7207 68.0681C41.7207 66.5067 42.2148 65.241 42.8243 65.241ZM49.4457 65.241C50.0552 65.241 50.5493 66.5067 50.5493 68.0681C50.5493 69.6295 50.0552 70.8952 49.4457 70.8952C48.8363 70.8952 48.3422 69.6295 48.3422 68.0681C48.3422 66.5067 48.8363 65.241 49.4457 65.241Z" fill="#20201E"/>
<path d="M43.3633 44.319C46.7103 43.5746 52.0379 43.8376 57.0459 48.3702C62.142 52.9814 62.0616 54.2731 61.9793 56.9944C61.7841 58.1397 61.5239 58.9288 61.2005 59.3614C60.7565 59.9575 60.1116 60.4814 59.2811 60.9162C57.7253 61.7306 55.4672 62.2482 52.7192 62.4645C50.2219 62.6597 48.7598 62.5557 47.5332 62.4666C47.2921 62.4497 44.9383 62.3797 43.6791 62.6236C42.4046 62.8696 41.4133 63.1984 40.5044 63.4975C38.9811 63.998 37.6779 64.4159 35.8044 64.3438C34.1587 64.2801 32.9014 64.0553 32.0135 63.6099C30.9954 63.1008 30.3945 62.3224 30.163 61.2089C29.7764 59.3487 29.7114 55.2954 34.3041 50.0649C38.4491 45.3477 43.1337 44.3699 43.3633 44.319Z" fill="#20201E"/>
<mask id="mask0_25851_1925" style="mask-type:luminance" maskUnits="userSpaceOnUse" x="29" y="43" width="35" height="23">
<path d="M43.3634 44.319C46.7103 43.5746 52.0379 43.8376 57.0459 48.3702C62.142 52.9814 62.0616 54.2731 61.9793 56.9944C61.7841 58.1397 61.5239 58.9288 61.2005 59.3614C60.7565 59.9575 60.1116 60.4814 59.2811 60.9162C57.7253 61.7306 55.4672 62.2482 52.7192 62.4645C50.2219 62.6597 48.7598 62.5557 47.5332 62.4666C47.2921 62.4497 44.9383 62.3797 43.6791 62.6236C42.4046 62.8696 41.4133 63.1984 40.5044 63.4975C38.9811 63.998 37.6779 64.4159 35.8044 64.3438C34.1587 64.2801 32.9014 64.0553 32.0135 63.6099C30.9954 63.1008 30.3945 62.3224 30.163 61.2089C29.7764 59.3487 29.7114 55.2954 34.3041 50.0649C38.4491 45.3477 43.1337 44.3699 43.3634 44.319Z" fill="white" stroke="#20201E" stroke-width="2"/>
</mask>
<g mask="url(#mask0_25851_1925)">
<path fill-rule="evenodd" clip-rule="evenodd" d="M47.4321 53.6218C49.7251 53.6218 51.5839 54.9466 51.5839 56.5808C51.5839 58.2149 49.7251 59.5397 47.4321 59.5397C45.1392 59.5397 43.2804 58.2149 43.2804 56.5808C43.2804 54.9466 45.1392 53.6218 47.4321 53.6218ZM58.653 48.0062C60.9835 48.0062 62.8727 50.0898 62.8727 52.66C62.8727 55.2303 60.9835 57.3139 58.653 57.3139C56.3225 57.3139 54.4333 55.2303 54.4333 52.66C54.4333 50.0898 56.3225 48.0062 58.653 48.0062ZM35.2335 45.6836C38.1325 45.6836 40.4827 48.2755 40.4827 51.4728C40.4827 54.6701 38.1325 57.262 35.2335 57.262C32.3345 57.262 29.9844 54.6701 29.9844 51.4728C29.9844 48.2755 32.3345 45.6836 35.2335 45.6836Z" fill="white"/>
</g>
<path d="M305.631 70.7085C304.532 70.7085 303.598 70.5447 302.827 70.2171C302.075 69.8702 301.507 69.3306 301.121 68.5984C300.755 67.8468 300.572 66.8641 300.572 65.65V49.3186H304.85V64.9563C304.85 65.4188 304.927 65.7946 305.081 66.0836C305.255 66.3727 305.486 66.575 305.775 66.6906C306.064 66.787 306.392 66.8352 306.758 66.8352H313.522V70.7085H305.631Z" fill="#20201E"/>
<path d="M288.628 70.8828C287.163 70.8828 285.882 70.7479 284.783 70.4781C283.685 70.1891 282.76 69.6688 282.009 68.9173C281.276 68.1465 280.727 67.0481 280.361 65.6221C279.995 64.1961 279.812 62.3365 279.812 60.0434C279.812 57.7502 279.995 55.8906 280.361 54.4647C280.746 53.0194 281.305 51.9114 282.037 51.1406C282.77 50.3697 283.685 49.8398 284.783 49.5508C285.882 49.2617 287.163 49.1172 288.628 49.1172C290.092 49.1172 291.374 49.2617 292.472 49.5508C293.571 49.8398 294.486 50.3697 295.218 51.1406C295.95 51.9114 296.5 53.0194 296.866 54.4647C297.232 55.8906 297.415 57.7502 297.415 60.0434C297.415 62.3365 297.232 64.1961 296.866 65.6221C296.5 67.0481 295.95 68.1465 295.218 68.9173C294.486 69.6688 293.571 70.1891 292.472 70.4781C291.374 70.7479 290.092 70.8828 288.628 70.8828ZM288.628 67.0384C289.495 67.0384 290.218 66.9421 290.796 66.7494C291.374 66.5567 291.827 66.2194 292.154 65.7377C292.501 65.2367 292.752 64.5333 292.906 63.6276C293.06 62.7026 293.137 61.5079 293.137 60.0434C293.137 58.5017 293.06 57.2685 292.906 56.3435C292.752 55.4185 292.501 54.7152 292.154 54.2334C291.827 53.7324 291.374 53.3952 290.796 53.2217C290.218 53.0483 289.495 52.9616 288.628 52.9616C287.799 52.9616 287.096 53.0483 286.518 53.2217C285.94 53.3952 285.467 53.7324 285.101 54.2334C284.755 54.7152 284.494 55.4185 284.321 56.3435C284.167 57.2685 284.09 58.5017 284.09 60.0434C284.09 61.5079 284.157 62.7026 284.292 63.6276C284.446 64.5333 284.697 65.2367 285.044 65.7377C285.39 66.2194 285.853 66.5567 286.431 66.7494C287.028 66.9421 287.761 67.0384 288.628 67.0384Z" fill="#20201E"/>
<path d="M270.904 70.8828C269.652 70.8828 268.543 70.7383 267.58 70.4492C266.636 70.1602 265.826 69.6303 265.152 68.8594C264.497 68.0886 263.996 66.9902 263.649 65.5643C263.321 64.119 263.157 62.2498 263.157 59.9566C263.157 57.7406 263.331 55.9292 263.678 54.5225C264.044 53.0965 264.564 51.9981 265.239 51.2273C265.913 50.4372 266.732 49.888 267.696 49.5797C268.659 49.2713 269.748 49.1172 270.962 49.1172C271.925 49.1172 272.821 49.175 273.65 49.2906C274.498 49.387 275.259 49.5122 275.934 49.6664C276.608 49.8013 277.177 49.9554 277.639 50.1289V53.453C277.292 53.3759 276.82 53.2988 276.223 53.2217C275.645 53.1446 274.98 53.0868 274.228 53.0483C273.477 52.9905 272.687 52.9616 271.858 52.9616C271.049 52.9616 270.355 53.0579 269.777 53.2506C269.218 53.4241 268.765 53.7613 268.418 54.2623C268.091 54.7441 267.84 55.4474 267.667 56.3724C267.513 57.2974 267.435 58.5017 267.435 59.9855C267.435 61.4115 267.503 62.587 267.638 63.512C267.792 64.4369 268.033 65.1596 268.36 65.6799C268.688 66.1809 269.131 66.5374 269.69 66.7494C270.268 66.9421 270.991 67.0384 271.858 67.0384C273.322 67.0384 274.508 67.0095 275.413 66.9517C276.338 66.8939 277.08 66.8264 277.639 66.7494V70.0446C277.119 70.218 276.521 70.3722 275.847 70.507C275.172 70.6227 274.431 70.7094 273.621 70.7672C272.812 70.8443 271.906 70.8828 270.904 70.8828Z" fill="#20201E"/>
<path d="M251.763 70.8828C250.298 70.8828 249.017 70.7479 247.918 70.4781C246.82 70.1891 245.895 69.6688 245.143 68.9173C244.411 68.1465 243.862 67.0481 243.496 65.6221C243.13 64.1961 242.947 62.3365 242.947 60.0434C242.947 57.7502 243.13 55.8906 243.496 54.4647C243.881 53.0194 244.44 51.9114 245.172 51.1406C245.905 50.3697 246.82 49.8398 247.918 49.5508C249.017 49.2617 250.298 49.1172 251.763 49.1172C253.227 49.1172 254.509 49.2617 255.607 49.5508C256.705 49.8398 257.621 50.3697 258.353 51.1406C259.085 51.9114 259.634 53.0194 260.001 54.4647C260.367 55.8906 260.55 57.7502 260.55 60.0434C260.55 62.3365 260.367 64.1961 260.001 65.6221C259.634 67.0481 259.085 68.1465 258.353 68.9173C257.621 69.6688 256.705 70.1891 255.607 70.4781C254.509 70.7479 253.227 70.8828 251.763 70.8828ZM251.763 67.0384C252.63 67.0384 253.352 66.9421 253.931 66.7494C254.509 66.5567 254.961 66.2194 255.289 65.7377C255.636 65.2367 255.886 64.5333 256.041 63.6276C256.195 62.7026 256.272 61.5079 256.272 60.0434C256.272 58.5017 256.195 57.2685 256.041 56.3435C255.886 55.4185 255.636 54.7152 255.289 54.2334C254.961 53.7324 254.509 53.3952 253.931 53.2217C253.352 53.0483 252.63 52.9616 251.763 52.9616C250.934 52.9616 250.231 53.0483 249.653 53.2217C249.074 53.3952 248.602 53.7324 248.236 54.2334C247.889 54.7152 247.629 55.4185 247.456 56.3435C247.302 57.2685 247.225 58.5017 247.225 60.0434C247.225 61.5079 247.292 62.7026 247.427 63.6276C247.581 64.5333 247.832 65.2367 248.178 65.7377C248.525 66.2194 248.988 66.5567 249.566 66.7494C250.163 66.9421 250.895 67.0384 251.763 67.0384Z" fill="#20201E"/>
<path d="M231.152 70.7085V53.163H225.284V49.3186H241.327V53.163H235.43V70.7085H231.152Z" fill="#20201E"/>
<path d="M214.869 70.8828C213.405 70.8828 212.123 70.7479 211.025 70.4781C209.926 70.1891 209.001 69.6688 208.25 68.9173C207.518 68.1465 206.968 67.0481 206.602 65.6221C206.236 64.1961 206.053 62.3365 206.053 60.0434C206.053 57.7502 206.236 55.8906 206.602 54.4647C206.988 53.0194 207.546 51.9114 208.279 51.1406C209.011 50.3697 209.926 49.8398 211.025 49.5508C212.123 49.2617 213.405 49.1172 214.869 49.1172C216.334 49.1172 217.615 49.2617 218.714 49.5508C219.812 49.8398 220.727 50.3697 221.46 51.1406C222.192 51.9114 222.741 53.0194 223.107 54.4647C223.473 55.8906 223.656 57.7502 223.656 60.0434C223.656 62.3365 223.473 64.1961 223.107 65.6221C222.741 67.0481 222.192 68.1465 221.46 68.9173C220.727 69.6688 219.812 70.1891 218.714 70.4781C217.615 70.7479 216.334 70.8828 214.869 70.8828ZM214.869 67.0384C215.736 67.0384 216.459 66.9421 217.037 66.7494C217.615 66.5567 218.068 66.2194 218.396 65.7377C218.742 65.2367 218.993 64.5333 219.147 63.6276C219.301 62.7026 219.378 61.5079 219.378 60.0434C219.378 58.5017 219.301 57.2685 219.147 56.3435C218.993 55.4185 218.742 54.7152 218.396 54.2334C218.068 53.7324 217.615 53.3952 217.037 53.2217C216.459 53.0483 215.736 52.9616 214.869 52.9616C214.041 52.9616 213.337 53.0483 212.759 53.2217C212.181 53.3952 211.709 53.7324 211.343 54.2334C210.996 54.7152 210.736 55.4185 210.562 56.3435C210.408 57.2685 210.331 58.5017 210.331 60.0434C210.331 61.5079 210.398 62.7026 210.533 63.6276C210.688 64.5333 210.938 65.2367 211.285 65.7377C211.632 66.2194 212.094 66.5567 212.672 66.7494C213.27 66.9421 214.002 67.0384 214.869 67.0384Z" fill="#20201E"/>
<path d="M188.48 70.7085V49.3186H197.325C198.172 49.3186 198.963 49.4246 199.695 49.6366C200.427 49.8293 201.073 50.1761 201.631 50.6771C202.19 51.1782 202.624 51.8719 202.932 52.7583C203.26 53.6447 203.424 54.7817 203.424 56.1691C203.424 57.1519 203.327 57.9902 203.135 58.6839C202.942 59.3776 202.682 59.9461 202.354 60.3893C202.046 60.8325 201.689 61.189 201.285 61.4588C200.88 61.7286 200.466 61.9502 200.042 62.1236L204.031 70.7085H199.666L196.226 62.7884C195.995 62.7884 195.725 62.7884 195.417 62.7884C195.128 62.7692 194.829 62.7595 194.521 62.7595C194.212 62.7595 193.904 62.7595 193.596 62.7595C193.288 62.7595 193.008 62.7499 192.758 62.7306V70.7085H188.48ZM192.758 59.3487H196.573C196.958 59.3487 197.305 59.3005 197.614 59.2042C197.922 59.1078 198.192 58.944 198.423 58.7128C198.654 58.4623 198.828 58.1347 198.943 57.73C199.078 57.3253 199.146 56.8051 199.146 56.1691C199.146 55.5718 199.078 55.0804 198.943 54.695C198.828 54.2903 198.654 53.982 198.423 53.77C198.192 53.5388 197.922 53.3846 197.614 53.3075C197.305 53.2112 196.958 53.163 196.573 53.163H192.758V59.3487Z" fill="#20201E"/>
<path d="M170.527 70.7085V49.3186H179.545C180.239 49.3186 180.942 49.4053 181.655 49.5788C182.388 49.7329 183.053 50.0605 183.65 50.5615C184.267 51.0433 184.758 51.7755 185.124 52.7583C185.51 53.7411 185.702 55.0418 185.702 56.6605C185.702 58.2792 185.51 59.5896 185.124 60.5916C184.758 61.5937 184.276 62.3549 183.679 62.8751C183.081 63.3954 182.436 63.7423 181.742 63.9157C181.048 64.0892 180.374 64.1759 179.719 64.1759C179.372 64.1759 178.967 64.1662 178.505 64.147C178.042 64.1084 177.57 64.0603 177.088 64.0025C176.626 63.9446 176.192 63.8965 175.788 63.8579C175.383 63.8001 175.055 63.7519 174.805 63.7134V70.7085H170.527ZM174.805 60.3315H179.054C179.555 60.3315 179.979 60.2159 180.326 59.9846C180.692 59.7341 180.962 59.3487 181.135 58.8284C181.309 58.2889 181.395 57.5759 181.395 56.6894C181.395 55.8223 181.299 55.1382 181.106 54.6372C180.933 54.1169 180.673 53.7411 180.326 53.5099C179.998 53.2786 179.603 53.163 179.141 53.163H174.805V60.3315Z" fill="#20201E"/>
<path d="M151.031 70.853C150.568 70.853 150.038 70.8048 149.441 70.7085C148.844 70.6314 148.265 70.4387 147.707 70.1304C147.167 69.822 146.714 69.3595 146.348 68.7429C146.001 68.107 145.828 67.2398 145.828 66.1414V54.2036C145.828 53.2593 145.972 52.4693 146.261 51.8334C146.55 51.1974 146.936 50.6964 147.418 50.3303C147.899 49.9642 148.429 49.704 149.007 49.5498C149.585 49.3957 150.154 49.3186 150.713 49.3186C152.158 49.3186 153.43 49.3379 154.528 49.3764C155.646 49.415 156.648 49.4631 157.534 49.5209C158.421 49.5595 159.23 49.6173 159.962 49.6944V53.2786H151.985C151.387 53.2786 150.925 53.4231 150.597 53.7122C150.27 54.0012 150.106 54.4445 150.106 55.0418V58.1347L158.575 58.3659V61.7478L150.106 61.9791V64.9274C150.106 65.4284 150.183 65.8235 150.337 66.1125C150.51 66.3823 150.732 66.575 151.002 66.6906C151.291 66.787 151.59 66.8352 151.898 66.8352H159.962V70.4194C159.115 70.5158 158.17 70.5928 157.13 70.6506C156.108 70.7085 155.068 70.7566 154.008 70.7952C152.967 70.8337 151.975 70.853 151.031 70.853Z" fill="#20201E"/>
<path d="M127.705 70.7085V49.3186H136.55C137.398 49.3186 138.188 49.4246 138.921 49.6366C139.653 49.8293 140.298 50.1761 140.857 50.6771C141.416 51.1782 141.85 51.8719 142.158 52.7583C142.486 53.6447 142.649 54.7817 142.649 56.1691C142.649 57.1519 142.553 57.9902 142.36 58.6839C142.168 59.3776 141.907 59.9461 141.58 60.3893C141.272 60.8325 140.915 61.189 140.51 61.4588C140.106 61.7286 139.691 61.9502 139.267 62.1236L143.256 70.7085H138.892L135.452 62.7884C135.221 62.7884 134.951 62.7884 134.643 62.7884C134.354 62.7692 134.055 62.7595 133.747 62.7595C133.438 62.7595 133.13 62.7595 132.822 62.7595C132.513 62.7595 132.234 62.7499 131.983 62.7306V70.7085H127.705ZM131.983 59.3487H135.799C136.184 59.3487 136.531 59.3005 136.839 59.2042C137.148 59.1078 137.417 58.944 137.649 58.7128C137.88 58.4623 138.053 58.1347 138.169 57.73C138.304 57.3253 138.371 56.8051 138.371 56.1691C138.371 55.5718 138.304 55.0804 138.169 54.695C138.053 54.2903 137.88 53.982 137.649 53.77C137.417 53.5388 137.148 53.3846 136.839 53.3075C136.531 53.2112 136.184 53.163 135.799 53.163H131.983V59.3487Z" fill="#20201E"/>
<path d="M115.761 70.8828C114.297 70.8828 113.015 70.7479 111.917 70.4781C110.819 70.1891 109.894 69.6688 109.142 68.9173C108.41 68.1465 107.861 67.0481 107.495 65.6221C107.128 64.1961 106.945 62.3365 106.945 60.0434C106.945 57.7502 107.128 55.8906 107.495 54.4647C107.88 53.0194 108.439 51.9114 109.171 51.1406C109.903 50.3697 110.819 49.8398 111.917 49.5508C113.015 49.2617 114.297 49.1172 115.761 49.1172C117.226 49.1172 118.507 49.2617 119.606 49.5508C120.704 49.8398 121.62 50.3697 122.352 51.1406C123.084 51.9114 123.633 53.0194 123.999 54.4647C124.366 55.8906 124.549 57.7502 124.549 60.0434C124.549 62.3365 124.366 64.1961 123.999 65.6221C123.633 67.0481 123.084 68.1465 122.352 68.9173C121.62 69.6688 120.704 70.1891 119.606 70.4781C118.507 70.7479 117.226 70.8828 115.761 70.8828ZM115.761 67.0384C116.629 67.0384 117.351 66.9421 117.929 66.7494C118.507 66.5567 118.96 66.2194 119.288 65.7377C119.635 65.2367 119.885 64.5333 120.039 63.6276C120.194 62.7026 120.271 61.5079 120.271 60.0434C120.271 58.5017 120.194 57.2685 120.039 56.3435C119.885 55.4185 119.635 54.7152 119.288 54.2334C118.96 53.7324 118.507 53.3952 117.929 53.2217C117.351 53.0483 116.629 52.9616 115.761 52.9616C114.933 52.9616 114.229 53.0483 113.651 53.2217C113.073 53.3952 112.601 53.7324 112.235 54.2334C111.888 54.7152 111.628 55.4185 111.455 56.3435C111.3 57.2685 111.223 58.5017 111.223 60.0434C111.223 61.5079 111.291 62.7026 111.426 63.6276C111.58 64.5333 111.83 65.2367 112.177 65.7377C112.524 66.2194 112.987 66.5567 113.565 66.7494C114.162 66.9421 114.894 67.0384 115.761 67.0384Z" fill="#20201E"/>
<path d="M89.5413 70.7085V49.3186H98.5597C99.2534 49.3186 99.9568 49.4053 100.67 49.5788C101.402 49.7329 102.067 50.0605 102.664 50.5615C103.281 51.0433 103.772 51.7755 104.138 52.7583C104.524 53.7411 104.716 55.0418 104.716 56.6605C104.716 58.2792 104.524 59.5896 104.138 60.5916C103.772 61.5937 103.291 62.3549 102.693 62.8751C102.096 63.3954 101.45 63.7423 100.756 63.9157C100.063 64.0892 99.3883 64.1759 98.7331 64.1759C98.3863 64.1759 97.9816 64.1662 97.5191 64.147C97.0566 64.1084 96.5845 64.0603 96.1027 64.0025C95.6403 63.9446 95.2067 63.8965 94.802 63.8579C94.3973 63.8001 94.0697 63.7519 93.8192 63.7134V70.7085H89.5413ZM93.8192 60.3315H98.0683C98.5693 60.3315 98.9933 60.2159 99.3401 59.9846C99.7063 59.7341 99.976 59.3487 100.149 58.8284C100.323 58.2889 100.41 57.5759 100.41 56.6894C100.41 55.8223 100.313 55.1382 100.121 54.6372C99.9471 54.1169 99.687 53.7411 99.3401 53.5099C99.0125 53.2786 98.6175 53.163 98.155 53.163H93.8192V60.3315Z" fill="#20201E"/>
<path d="M78.9662 70.8822C78.4073 70.8822 77.8292 70.863 77.2318 70.8244C76.6537 70.8051 76.0564 70.7666 75.4397 70.7088C74.8423 70.6317 74.2739 70.5546 73.7343 70.4776C73.1947 70.3812 72.7034 70.2752 72.2601 70.1596V66.7777C72.8383 66.8355 73.4934 66.8837 74.2257 66.9222C74.958 66.9608 75.7191 66.9897 76.5092 67.0089C77.2993 67.0282 78.0508 67.0378 78.7638 67.0378C79.4961 67.0378 80.1224 66.98 80.6427 66.8644C81.1822 66.7295 81.5965 66.5079 81.8856 66.1996C82.1746 65.872 82.3192 65.4288 82.3192 64.8699V64.0895C82.3192 63.4536 82.1265 62.9718 81.7411 62.6442C81.3749 62.2974 80.845 62.1239 80.1513 62.1239H78.3302C76.2876 62.1239 74.7171 61.6807 73.6187 60.7943C72.5396 59.8886 72 58.3566 72 56.1984V55.1578C72 53.0766 72.5974 51.5543 73.7921 50.5908C74.9869 49.6273 76.6923 49.1455 78.9083 49.1455C79.6984 49.1455 80.4789 49.184 81.2497 49.2611C82.0397 49.3382 82.7913 49.4346 83.5043 49.5502C84.2365 49.6465 84.8628 49.7525 85.3831 49.8681V53.25C84.4967 53.1922 83.5043 53.1344 82.4059 53.0766C81.3267 53.0188 80.3247 52.9899 79.3997 52.9899C78.7445 52.9899 78.1568 53.0573 77.6365 53.1922C77.1355 53.3079 76.7501 53.5391 76.4803 53.886C76.2105 54.2328 76.0756 54.7242 76.0756 55.3601V55.9382C76.0756 56.6898 76.2876 57.2293 76.7115 57.5569C77.1355 57.8845 77.7618 58.0483 78.5904 58.0483H80.7005C81.9916 58.0483 83.0514 58.2892 83.88 58.7709C84.7279 59.2334 85.3542 59.879 85.7589 60.7076C86.1828 61.5362 86.3948 62.4804 86.3948 63.5403V64.7543C86.3948 66.4308 86.0768 67.7123 85.4409 68.5987C84.8243 69.4851 83.9571 70.0922 82.8395 70.4197C81.7411 70.7281 80.45 70.8822 78.9662 70.8822Z" fill="#20201E"/>
</g>
<defs>
<linearGradient id="paint0_linear_25851_1925" x1="46" y1="63.9998" x2="45.6223" y2="78.6567" gradientUnits="userSpaceOnUse">
<stop stop-color="white"/>
<stop offset="1" stop-color="#D8D8D8"/>
</linearGradient>
<clipPath id="clip0_25851_1925">
<rect width="342" height="120" fill="white"/>
</clipPath>
</defs>
</svg>
