<svg width="342" height="120" viewBox="0 0 342 120" fill="none" xmlns="http://www.w3.org/2000/svg">
<rect width="342" height="120" fill="#D6EEF8"/>
<g clip-path="url(#clip0_27903_11641)">
<path fill-rule="evenodd" clip-rule="evenodd" d="M267.869 65.2703C269.869 66.4325 272.29 67.0138 275.132 67.0138C277.991 67.0138 280.412 66.4325 282.395 65.2703C284.395 64.1081 285.91 62.4118 286.941 60.1813C287.972 57.9352 288.487 55.2022 288.487 51.9824C288.487 48.7782 287.972 46.0609 286.941 43.8305C285.91 41.5844 284.395 39.8881 282.395 38.7415C280.412 37.5792 277.991 36.9981 275.132 36.9981C272.29 36.9981 269.869 37.5792 267.869 38.7415C265.886 39.8881 264.371 41.5844 263.324 43.8305C262.293 46.0609 261.778 48.7782 261.778 51.9824C261.778 55.2022 262.293 57.9352 263.324 60.1813C264.371 62.4118 265.886 64.1081 267.869 65.2703ZM280.193 59.074C279.053 60.6918 277.366 61.5007 275.132 61.5007C272.93 61.5007 271.251 60.6918 270.095 59.074C268.939 57.4405 268.362 55.0766 268.362 51.9824C268.362 48.9038 268.932 46.5635 270.072 44.9614C271.228 43.3436 272.915 42.5347 275.132 42.5347C277.366 42.5347 279.053 43.3358 280.193 44.9379C281.333 46.54 281.904 48.8881 281.904 51.9824C281.904 55.0766 281.333 57.4405 280.193 59.074ZM228.047 65.93C228.047 66.4642 228.913 66.7311 230.647 66.7311H232.24C232.975 66.7311 233.521 66.6919 233.88 66.6131C234.255 66.5188 234.552 66.2911 234.771 65.93L240.534 56.93L246.087 65.93C246.259 66.244 246.548 66.4562 246.954 66.5659C247.36 66.676 247.899 66.7311 248.57 66.7311H250.187C251.936 66.7311 252.811 66.4642 252.811 65.93C252.811 65.6315 252.686 65.2862 252.436 64.8934L244.119 51.464L251.991 39.0949C252.257 38.6865 252.389 38.3331 252.389 38.0347C252.389 37.5007 251.515 37.2337 249.765 37.2337H248.149C247.477 37.2337 246.938 37.2886 246.532 37.3986C246.142 37.5085 245.829 37.7206 245.595 38.0347L240.605 45.8332L235.848 38.0347C235.536 37.5007 234.708 37.2337 233.365 37.2337H231.655C230.78 37.2337 230.116 37.3122 229.663 37.4693C229.226 37.6106 229.007 37.7991 229.007 38.0347C229.007 38.2546 229.14 38.608 229.405 39.0949L237.043 51.3698L228.445 64.8934C228.179 65.3174 228.047 65.6631 228.047 65.93ZM208.818 66.7311C207.146 66.7311 206.311 66.2911 206.311 65.4117V42.8174H199.704C199.267 42.8174 198.946 42.6525 198.743 42.3227C198.556 41.9928 198.462 41.4588 198.462 40.7206V39.4483C198.462 38.7101 198.556 38.1761 198.743 37.8462C198.946 37.5164 199.267 37.3515 199.704 37.3515H219.408C219.845 37.3515 220.157 37.5164 220.345 37.8462C220.548 38.1761 220.649 38.7101 220.649 39.4483V40.7206C220.649 41.4588 220.548 41.9928 220.345 42.3227C220.157 42.6525 219.845 42.8174 219.408 42.8174H212.777V65.4117C212.777 66.2911 211.941 66.7311 210.27 66.7311H208.818ZM170.049 65.812C171.861 66.6131 174.032 67.0138 176.562 67.0138C179.093 67.0138 181.256 66.6131 183.052 65.812C184.864 65.011 186.246 63.8567 187.199 62.3489C188.152 60.8253 188.628 58.9954 188.628 56.8593V38.6002C188.628 38.1446 188.425 37.807 188.019 37.5871C187.629 37.3515 187.004 37.2337 186.145 37.2337H184.763C183.903 37.2337 183.271 37.3515 182.865 37.5871C182.474 37.807 182.279 38.1446 182.279 38.6002V56.4352C182.279 57.4091 182.037 58.2808 181.553 59.0504C181.069 59.82 180.389 60.4248 179.514 60.8646C178.655 61.2886 177.671 61.5007 176.562 61.5007C175.453 61.5007 174.469 61.2886 173.61 60.8646C172.751 60.4248 172.079 59.82 171.595 59.0504C171.127 58.2808 170.892 57.4091 170.892 56.4352V38.6002C170.892 38.1446 170.689 37.807 170.283 37.5871C169.893 37.3515 169.268 37.2337 168.409 37.2337H167.003C166.144 37.2337 165.512 37.3515 165.105 37.5871C164.699 37.807 164.496 38.1446 164.496 38.6002V56.8593C164.496 58.9954 164.973 60.8253 165.925 62.3489C166.878 63.8567 168.253 65.011 170.049 65.812ZM266.867 95.7927V76.5653H269.402L269.619 77.9585C270.416 77.3825 271.285 76.9645 272.227 76.7044C273.193 76.4258 274.316 76.2867 275.595 76.2867C278.01 76.2867 279.905 76.8065 281.281 77.8469C282.658 78.8689 283.346 80.578 283.346 82.9744C283.346 85.3523 282.658 88.446 281.281 89.6161C279.905 90.7866 277.998 91.3716 275.559 91.3716C273.314 91.3716 271.406 90.954 269.837 90.1179V95.7927H266.867ZM274.762 89.5328C276.694 89.5328 278.106 89.1148 279 88.2787C279.917 87.4241 280.376 84.7763 280.376 82.9744C280.376 81.2468 279.954 80.0115 279.108 79.2681C278.263 78.5066 276.839 78.1255 274.835 78.1255C273.845 78.1255 272.927 78.2556 272.082 78.5157C271.237 78.7758 270.489 79.1754 269.837 79.714V88.2229C270.44 88.6315 271.152 88.9568 271.973 89.1981C272.794 89.4212 273.724 89.5328 274.762 89.5328ZM237.276 93.5848C238.193 93.9708 239.195 94.1638 240.282 94.1638C241.851 94.1638 243.167 93.9708 244.23 93.5848C245.292 93.1988 246.198 92.6198 246.946 91.8477L247.163 93.8019H249.662V82.5835C249.662 80.3639 249.047 78.7596 247.815 77.7704C246.608 76.7813 244.785 76.2867 242.346 76.2867C241.139 76.2867 240.004 76.3832 238.942 76.5762C237.903 76.7451 236.998 76.9743 236.225 77.2638V79.7246C237.07 79.4351 237.976 79.2059 238.942 79.037C239.908 78.8681 240.91 78.7837 241.948 78.7837C243.3 78.7837 244.326 78.9043 245.027 79.1456C245.727 79.3868 246.198 79.7849 246.439 80.3398C246.704 80.8947 246.837 81.6426 246.837 82.5835V83.633H240.861C238.519 83.633 236.829 84.1396 235.791 85.1529C234.753 86.142 234.233 87.4207 234.233 88.9889C234.233 90.1469 234.511 91.1119 235.066 91.8839C235.622 92.6318 236.358 93.1988 237.276 93.5848ZM244.375 91.0878C243.409 91.522 242.298 91.7392 241.042 91.7392C239.859 91.7392 238.918 91.5462 238.217 91.1602C237.517 90.75 237.167 90.0263 237.167 88.9889C237.167 87.9515 237.457 87.1794 238.036 86.6728C238.616 86.1662 239.582 85.9128 240.934 85.9128H246.837V89.2422C246.161 90.0142 245.34 90.6294 244.375 91.0878ZM201.369 93.8019L196.877 76.6486H199.848L203.216 90.4364L207.055 78.639V76.6486H209.337L213.574 90.4364L216.943 76.6486H219.912L215.421 93.8019H212.451L208.431 81.3531L204.338 93.8019H201.369ZM172.571 93.9467C173.585 94.0914 174.647 94.1638 175.758 94.1638C177.931 94.1638 179.61 93.7778 180.793 93.0058C181.976 92.2096 182.567 90.9672 182.567 89.2784C182.567 88.2651 182.374 87.4448 181.988 86.8175C181.602 86.1903 180.998 85.6595 180.177 85.2253C179.356 84.791 178.281 84.3688 176.953 83.9587L174.454 83.1263C173.827 82.8851 173.356 82.6076 173.042 82.294C172.752 81.9562 172.607 81.5099 172.607 80.955C172.607 80.1347 172.933 79.5798 173.585 79.2903C174.261 78.9767 175.348 78.8199 176.845 78.8199C178.245 78.8199 179.706 79.0732 181.227 79.5798V76.9743C180.599 76.7813 179.863 76.6245 179.018 76.5038C178.173 76.3591 177.291 76.2867 176.374 76.2867C174.008 76.2867 172.293 76.6968 171.231 77.5171C170.169 78.3133 169.637 79.4713 169.637 80.9912C169.637 82.0286 169.855 82.8609 170.289 83.4882C170.724 84.0913 171.328 84.5739 172.1 84.9357C172.873 85.2976 173.754 85.6474 174.744 85.9852C175.855 86.3471 176.76 86.6607 177.46 86.9261C178.185 87.1915 178.716 87.4931 179.054 87.8308C179.416 88.1686 179.597 88.6632 179.597 89.3145C179.597 90.2072 179.271 90.8224 178.62 91.1602C177.968 91.4738 176.881 91.6306 175.36 91.6306C174.466 91.6306 173.561 91.5582 172.643 91.4135C171.75 91.2687 170.893 91.0516 170.072 90.7621V93.3677C170.748 93.6089 171.581 93.8019 172.571 93.9467Z" fill="#002EA6"/>
<path d="M58.9114 55.1748L54.6941 56.8872V91.3634C54.6941 93.2369 56.2046 94.756 58.0679 94.756H136.79C137.24 76.2094 127.231 69.1225 122.17 67.8974C125.825 60.2638 135.947 60.5465 140.726 63.3738C144.55 65.6356 149.629 66.201 151.691 66.201C148.767 61.4512 132.104 54.9863 124.138 52.3475C139.658 52.7999 150.473 59.3214 153.94 62.5257C154.499 53.2533 144.783 50.6829 139.42 49.2639L139.32 49.2376C133.979 47.824 128.356 43.8659 125.263 39.0596C122.17 34.2533 117.391 30.8606 105.301 26.9025C93.2118 22.9444 80.1359 24.7883 74.6558 29.1643C68.3788 34.1765 62.8475 47.9182 58.9114 55.1748Z" fill="#2853C4"/>
<path d="M113.64 44.4286C112.795 46.0289 110.207 46.3107 107.86 45.058C105.513 43.8053 103.844 41.716 104.689 40.1157C105.533 38.5154 108.572 38.01 110.919 39.2627C113.266 40.5154 114.484 42.8283 113.64 44.4286Z" fill="white"/>
<path d="M117.113 94.756C118.82 91.3871 119.752 87.7468 119.752 83.9489C119.752 66.6406 100.395 52.6094 76.5167 52.6094C68.5569 52.6094 61.0995 54.1686 54.6941 56.8886V91.3634C54.6941 93.2369 56.2046 94.756 58.0679 94.756H117.113Z" fill="#002EA6"/>
<path fill-rule="evenodd" clip-rule="evenodd" d="M87.5523 25.4711C82.1416 25.9792 77.6257 27.5148 75.0055 29.6071C71.9679 32.0326 69.0624 36.623 66.4009 41.5959C65.0766 44.0702 63.8241 46.6163 62.6537 49.0041L62.5058 49.3057L62.5056 49.3061L62.5054 49.3065C61.6067 51.1402 60.7554 52.877 59.961 54.3993C63.8038 53.2568 67.9182 52.5006 72.2128 52.1958C72.5226 52.1738 72.7915 52.4085 72.8133 52.72C72.8352 53.0316 72.6018 53.3019 72.292 53.3239C66.5378 53.7323 61.1221 54.9657 56.273 56.8559L55.2564 57.2686V91.3633C55.2564 92.8271 56.3628 94.0311 57.7805 94.1759C57.875 94.1857 57.9709 94.1906 58.068 94.1906H64.0351C64.2091 88.0057 67.4507 82.6807 70.0518 78.87C70.4179 78.3336 70.7682 77.8319 71.0951 77.3629C71.9547 76.1306 72.6532 75.1294 73.0556 74.3435C73.3421 73.784 73.3975 73.4783 73.3732 73.3396C73.3664 73.3004 73.3556 73.283 73.328 73.2608C73.2871 73.228 73.1898 73.1737 72.9835 73.1345C71.7891 72.908 71.0112 72.2837 70.6565 71.3651C70.3206 70.495 70.4034 69.4573 70.6759 68.4455C71.2235 66.4129 72.6274 64.1534 73.9185 62.6791C74.1238 62.445 74.4791 62.422 74.7121 62.6286C74.9452 62.8351 74.9677 63.1921 74.7625 63.4266C73.5483 64.8131 72.2513 66.9226 71.7614 68.741C71.5153 69.6552 71.4953 70.4132 71.7049 70.9561C71.8958 71.4503 72.3118 71.8562 73.1921 72.0232C73.5044 72.0824 73.7971 72.1895 74.0314 72.3783C74.2788 72.5778 74.4283 72.8428 74.4809 73.144C74.5755 73.686 74.3461 74.2937 74.0554 74.8614C73.6152 75.7213 72.8477 76.8212 71.966 78.0848C71.6485 78.5398 71.3162 79.0163 70.979 79.5101C68.3911 83.3012 65.3344 88.3759 65.1602 94.1906H117.113H117.119H136.238C136.473 76.2999 126.77 69.5926 122.038 68.447C121.873 68.407 121.735 68.2939 121.662 68.1398C121.589 67.9852 121.59 67.8058 121.664 67.652C123.592 63.6234 127.227 61.7031 130.944 61.1533C134.645 60.6061 138.501 61.4017 141.011 62.8864C144.111 64.7196 148.095 65.4102 150.491 65.5862C149.696 64.749 148.494 63.836 146.975 62.8834C144.906 61.5861 142.324 60.2617 139.572 58.9969C134.068 56.4679 127.931 54.1993 123.962 52.8846C123.697 52.7967 123.536 52.5264 123.584 52.2499C123.633 51.9733 123.875 51.7742 124.155 51.7823C138.633 52.2043 149.081 57.8593 153.392 61.3138C153.239 57.5772 151.207 55.1145 148.54 53.3884C145.596 51.4827 141.928 50.5122 139.247 49.8029L139.177 49.7844C133.705 48.3363 127.962 44.2958 124.791 39.3668C121.804 34.7255 117.177 31.3854 105.127 27.4402C99.1603 25.4866 92.9465 24.9646 87.5523 25.4711ZM58.5137 54.7264L55.8592 55.8043C55.4222 55.9747 54.9896 56.1503 54.5617 56.3311L54.4836 56.3628C54.4688 56.3688 54.4544 56.3754 54.4404 56.3825L54.1318 56.5135V56.8871V91.3633C54.1318 92.4562 54.5724 93.4457 55.2847 94.1619C55.997 94.8785 56.981 95.3215 58.068 95.3215H136.79C137.095 95.3215 137.345 95.0764 137.352 94.7696C137.789 76.759 128.467 69.268 122.989 67.5396C124.777 64.34 127.854 62.7533 131.108 62.272C134.577 61.7593 138.171 62.5185 140.441 63.8612C144.386 66.1946 149.579 66.7665 151.691 66.7665C151.895 66.7665 152.083 66.6553 152.182 66.4762C152.282 66.2968 152.276 66.0778 152.169 65.9032C151.364 64.5956 149.674 63.243 147.57 61.9236C145.444 60.5906 142.814 59.2433 140.039 57.9683C136.094 56.1556 131.833 54.478 128.263 53.1837C141.416 54.5274 150.502 60.1163 153.56 62.9418C153.72 63.0896 153.949 63.1314 154.151 63.05C154.352 62.9682 154.488 62.7775 154.501 62.5596C154.798 57.6365 152.327 54.4944 149.149 52.4375C146.053 50.4338 142.241 49.4254 139.59 48.7242L139.463 48.6908C134.252 47.3116 128.749 43.4359 125.735 38.7524C122.536 33.781 117.604 30.3358 105.475 26.3648C99.3526 24.3602 92.9836 23.8252 87.4477 24.3451C81.9281 24.8635 77.1661 26.4378 74.3061 28.7215C71.0667 31.3081 68.068 36.0948 65.4106 41.0599C64.0755 43.5545 62.8147 46.1178 61.6449 48.5041L61.5025 48.7947C60.4233 50.9966 59.4253 53.0326 58.5137 54.7264ZM112.237 42.5666C112.052 43.6122 110.927 44.2851 109.726 44.0696C108.524 43.8542 107.7 42.832 107.886 41.7865C108.071 40.741 109.196 40.0681 110.397 40.2835C110.416 40.2868 110.434 40.2903 110.452 40.2939C110.432 40.2831 110.412 40.2723 110.392 40.2616C109.442 39.7545 108.339 39.6012 107.403 39.7384C106.426 39.8815 105.869 40.2923 105.682 40.6459C105.539 40.9176 105.518 41.3693 106.002 42.0734C106.48 42.7663 107.327 43.4932 108.388 44.0591C109.389 44.5936 110.399 44.7754 111.192 44.6889C111.994 44.6016 112.451 44.2686 112.646 43.8984C112.842 43.5283 112.86 42.9609 112.483 42.2445C112.401 42.0903 112.304 41.9346 112.191 41.78C112.266 42.0319 112.285 42.2985 112.237 42.5666ZM113.64 44.4286C112.795 46.0289 110.208 46.3107 107.861 45.058C105.514 43.8053 103.844 41.7161 104.689 40.1157C105.533 38.5154 108.572 38.01 110.919 39.2627C113.267 40.5154 114.484 42.8283 113.64 44.4286Z" fill="black"/>
<path d="M127.742 42.197L127.727 42.1951C129.102 43.5145 131.193 46.837 129.544 48.4956C127.894 50.1542 124.983 51.6998 123.733 52.2652C125.733 53.6475 129.544 56.9019 128.794 58.8621C128.628 59.2962 127.767 59.5204 126.857 59.757C125.977 59.9859 125.053 60.2266 124.668 60.6803C124.477 60.9056 124.668 61.0733 124.926 61.3004C125.501 61.8057 126.41 62.6048 124.196 64.9842L124.203 64.9868C128.731 60.4051 136.661 60.9691 140.726 63.3738C144.55 65.6356 149.629 66.201 151.691 66.201C148.767 61.4512 132.104 54.9863 124.138 52.3475C139.658 52.7999 150.473 59.3214 153.94 62.5257C154.499 53.2533 144.783 50.6829 139.42 49.2639L139.32 49.2376C135.197 48.1465 130.907 45.5397 127.742 42.197Z" fill="#FCCD13"/>
<path fill-rule="evenodd" clip-rule="evenodd" d="M127.219 41.9519C127.324 41.7314 127.558 41.6033 127.799 41.6342L127.813 41.6361C127.941 41.6526 128.06 41.7129 128.149 41.8071C131.248 45.0797 135.449 47.6284 139.463 48.6908L139.563 48.7171L139.594 48.7253C142.261 49.4308 146.101 50.447 149.207 52.4756C152.357 54.5332 154.796 57.6675 154.501 62.56C154.488 62.7775 154.352 62.9682 154.151 63.05C153.949 63.1314 153.72 63.0896 153.56 62.9418C150.502 60.1163 141.416 54.5274 128.263 53.1837C131.833 54.478 136.094 56.1556 140.039 57.9684C142.814 59.2433 145.444 60.5906 147.57 61.9236C149.674 63.243 151.364 64.5956 152.169 65.9032C152.276 66.0778 152.282 66.2968 152.182 66.4762C152.083 66.6553 151.895 66.7665 151.691 66.7665C149.579 66.7665 144.386 66.1946 140.441 63.8612C138.514 62.7213 135.626 61.9983 132.662 62.1253C129.703 62.2524 126.739 63.223 124.602 65.3857C124.444 65.5459 124.206 65.596 123.997 65.5131L123.99 65.5104C123.816 65.4415 123.688 65.2911 123.647 65.1086C123.606 64.9258 123.658 64.7347 123.785 64.5978C124.87 63.4322 125.058 62.7842 125.045 62.4623C125.034 62.1724 124.86 61.993 124.556 61.7261C124.549 61.7197 124.54 61.7125 124.532 61.705C124.426 61.6129 124.246 61.4557 124.141 61.2709C124.072 61.1505 124.012 60.984 124.032 60.7854C124.051 60.5886 124.141 60.4309 124.24 60.3134C124.531 59.9709 124.974 59.7564 125.381 59.6044C125.798 59.4487 126.272 59.3253 126.701 59.2137L126.716 59.2097C127.182 59.0885 127.586 58.9822 127.896 58.8583C128.05 58.797 128.154 58.741 128.22 58.6931C128.253 58.6699 128.268 58.6542 128.274 58.6474C128.376 58.3657 128.342 57.972 128.092 57.4404C127.842 56.909 127.414 56.3224 126.878 55.7265C125.807 54.5376 124.391 53.4064 123.415 52.7312C123.247 52.6155 123.155 52.418 123.173 52.2146C123.191 52.0112 123.317 51.8334 123.503 51.7496C124.738 51.1906 127.572 49.679 129.146 48.0958C129.715 47.5234 129.718 46.5873 129.249 45.4319C128.794 44.3111 127.976 43.2154 127.339 42.6042C127.163 42.4355 127.115 42.1724 127.219 41.9519ZM125.786 51.8527C139.418 52.6306 149.245 57.9905 153.392 61.3138C153.24 57.6023 151.234 55.1481 148.594 53.4239C145.653 51.5024 141.972 50.5239 139.277 49.8108L139.177 49.7844C136.181 48.9915 133.11 47.4234 130.425 45.3637C130.828 46.5423 130.92 47.9111 129.941 48.8955C128.817 50.0255 127.156 51.0899 125.786 51.8527ZM126.497 53.7526C126.92 54.1388 127.334 54.5484 127.711 54.9674C128.284 55.6029 128.793 56.2838 129.109 56.9572C129.422 57.6229 129.586 58.3674 129.319 59.0651C129.224 59.3123 129.048 59.4876 128.878 59.6105C128.707 59.7342 128.509 59.8304 128.312 59.9091C127.929 60.0622 127.459 60.1847 127.021 60.2986L126.998 60.3045C126.551 60.4207 126.13 60.531 125.773 60.6644C125.572 60.7395 125.418 60.8127 125.304 60.8818C125.31 60.8867 125.316 60.8918 125.321 60.897C125.602 61.1422 126.137 61.6109 126.169 62.4167C126.174 62.5347 126.168 62.6557 126.15 62.7801C128.132 61.6303 130.401 61.0905 132.614 60.9955C135.764 60.8603 138.873 61.6214 141.011 62.8864C144.111 64.7196 148.095 65.4102 150.491 65.5862C149.696 64.749 148.494 63.836 146.975 62.8834C144.906 61.5862 142.324 60.2617 139.572 58.9969C135.136 56.9587 130.289 55.0895 126.497 53.7526Z" fill="black"/>
</g>
<defs>
<clipPath id="clip0_27903_11641">
<rect width="234.667" height="72" fill="white" transform="translate(54 24)"/>
</clipPath>
</defs>
</svg>
