<svg width="342" height="120" viewBox="0 0 342 120" fill="none" xmlns="http://www.w3.org/2000/svg">
<rect width="342" height="120" fill="black"/>
<path d="M303.379 74.4004V47.904H308.678V61.7668L315.705 54.1252H320.927L321.35 55.0084L314.323 62.5732L321.887 73.5172L321.465 74.4004H316.281L310.828 66.3748L308.678 68.7172V74.4004H303.379Z" fill="white"/>
<path d="M287.7 74.4002V56.7362C288.647 54.9954 290.465 54.125 293.153 54.125H297.3L299.604 55.853V58.733H294.574C293.806 58.733 293.281 58.925 292.999 59.309V74.4002H287.7Z" fill="white"/>
<path d="M264.821 68.1794V60.3458C264.821 56.1986 266.895 54.125 271.042 54.125H276.418C280.565 54.125 282.639 56.1986 282.639 60.3458V68.1794C282.639 72.3266 280.565 74.4002 276.418 74.4002H271.042C266.895 74.4002 264.821 72.3266 264.821 68.1794ZM270.12 68.5634C270.12 69.3826 270.53 69.7922 271.349 69.7922H276.111C276.93 69.7922 277.34 69.3826 277.34 68.5634V59.9618C277.34 59.1426 276.93 58.733 276.111 58.733H271.349C270.53 58.733 270.12 59.1426 270.12 59.9618V68.5634Z" fill="white"/>
<path d="M231.484 54.9314L232.06 54.125H236.514L239.586 69.7922H239.855L243.541 54.125H249.416L253.141 69.7922H253.41L256.482 54.125H260.936L261.512 54.9314L257.442 74.4002H249.532L246.498 60.461L243.464 74.4002H235.554L231.484 54.9314Z" fill="white"/>
<path d="M216.975 68.1791V47.9039H222.274V54.1247H228.879V58.7327H222.274V68.5631C222.274 69.3823 222.684 69.7919 223.503 69.7919H229.263V72.6719L226.959 74.3999H223.196C219.049 74.3999 216.975 72.3263 216.975 68.1791Z" fill="white"/>
<path d="M194.471 68.1794V60.3458C194.471 56.1986 196.545 54.125 200.692 54.125H205.684C209.831 54.125 211.905 56.1986 211.905 60.3458V66.221H199.771V68.5634C199.771 69.3826 200.18 69.7922 200.999 69.7922H211.137V72.6722L208.833 74.4002H200.692C196.545 74.4002 194.471 72.3266 194.471 68.1794ZM199.771 62.1506H206.606V59.9618C206.606 59.1426 206.196 58.733 205.377 58.733H200.999C200.18 58.733 199.771 59.1426 199.771 59.9618V62.1506Z" fill="white"/>
<path d="M166.812 74.3999V47.9039H172.803L183.325 65.2991V47.9039H188.854V74.3999H182.864L172.342 57.0047V74.3999H166.812Z" fill="white"/>
<path d="M141.525 74.4002V56.7362C142.472 54.9954 144.29 54.125 146.978 54.125H151.125L153.429 55.853V58.733H148.399C147.631 58.733 147.106 58.925 146.824 59.309V74.4002H141.525Z" fill="white"/>
<path d="M119.021 68.1794V60.3458C119.021 56.1986 121.095 54.125 125.242 54.125H130.234C134.381 54.125 136.455 56.1986 136.455 60.3458V66.221H124.321V68.5634C124.321 69.3826 124.73 69.7922 125.549 69.7922H135.687V72.6722L133.383 74.4002H125.242C121.095 74.4002 119.021 72.3266 119.021 68.1794ZM124.321 62.1506H131.156V59.9618C131.156 59.1426 130.746 58.733 129.927 58.733H125.549C124.73 58.733 124.321 59.1426 124.321 59.9618V62.1506Z" fill="white"/>
<path d="M96.6785 74.4004V47.904H101.978V54.1252H107.891C112.038 54.1252 114.112 56.1988 114.112 60.346V68.1796C114.112 72.3268 112.038 74.4004 107.891 74.4004H96.6785ZM101.978 69.7924H107.584C108.403 69.7924 108.813 69.3828 108.813 68.5636V59.962C108.813 59.1428 108.403 58.7332 107.584 58.7332H101.978V69.7924Z" fill="white"/>
<path d="M85.7258 52.896V47.904H91.2554V52.896H85.7258ZM85.841 74.4V55.7248H91.1402V74.4H85.841Z" fill="white"/>
<path d="M63.8 74.3999V47.9039H81.9248V52.8959H69.3296V59.4239H80.7728V64.4159H69.3296V74.3999H63.8Z" fill="white"/>
<path fill-rule="evenodd" clip-rule="evenodd" d="M23.3521 47.2H48.6001L53.4001 39.2H24.6001L23.3521 47.2ZM25.4001 86.4L42.2001 57.6H31.5281L33.4001 48.8H23.0961L20.6001 64.8H29.9921L25.4001 86.4Z" fill="white"/>
</svg>
