<?xml version="1.0" encoding="utf-8"?>
<svg viewBox="0 0 342 120" xmlns="http://www.w3.org/2000/svg">
  <defs>
    <filter id="filter0_d_64_1476" x="8" y="8" width="34" height="40" filterUnits="userSpaceOnUse" color-interpolation-filters="sRGB">
      <feFlood flood-opacity="0" result="BackgroundImageFix"/>
      <feColorMatrix in="SourceAlpha" type="matrix" values="0 0 0 0 0 0 0 0 0 0 0 0 0 0 0 0 0 0 127 0" result="hardAlpha"/>
      <feOffset/>
      <feGaussianBlur stdDeviation="2"/>
      <feComposite in2="hardAlpha" operator="out"/>
      <feColorMatrix type="matrix" values="0 0 0 0 0.278431 0 0 0 0 1 0 0 0 0 0.964706 0 0 0 0.2 0"/>
      <feBlend mode="normal" in2="BackgroundImageFix" result="effect1_dropShadow_64_1476"/>
      <feBlend mode="normal" in="SourceGraphic" in2="effect1_dropShadow_64_1476" result="shape"/>
    </filter>
    <linearGradient id="paint0_linear_64_1476" x1="12.963" y1="29.0665" x2="43.7778" y2="28.971" gradientUnits="userSpaceOnUse">
      <stop stop-color="#85FFF9"/>
      <stop offset="0.3922" stop-color="#00FAED"/>
      <stop offset="1" stop-color="#008F88"/>
    </linearGradient>
    <linearGradient id="paint1_linear_64_1476" x1="12.963" y1="29.0665" x2="43.7778" y2="28.971" gradientUnits="userSpaceOnUse">
      <stop stop-color="#85FFF9"/>
      <stop offset="0.3922" stop-color="#00FAED"/>
      <stop offset="1" stop-color="#008F88"/>
    </linearGradient>
  </defs>
  <rect width="342" height="120" fill="black"/>
  <g filter="url(#filter0_d_64_1476)" transform="matrix(1.3208789825439453, 0, 0, 1.3208789825439453, 25.533933639526367, 22.086666107177734)" style="">
    <path d="M38 19.1999V36.8001L25.0009 44L23.5554 43.1999V35.2005L25.0003 34.3999L26.4452 35.2005V39.9997L35.1114 35.1994V20.8001L33.6677 20H33.6666L25.0009 15.1997L22.1111 16.7998L20.6669 15.9997V14.3996L24.9997 12H25.0009L38 19.1999Z" fill="url(#paint0_linear_64_1476)"/>
    <path d="M26.4446 21.4396V30.4002L25.0003 31.1997L14.8891 25.5998V36.8001L13.4449 37.6001L12 36.7995V22.3996L13.4443 21.5996L23.5554 27.1994V21.4402L25.0003 20.6401L26.4446 21.4396Z" fill="url(#paint1_linear_64_1476)"/>
  </g>
  <path fill-rule="evenodd" clip-rule="evenodd" d="M 299.411 69.849 C 299.803 68.778 300 67.595 300 66.299 L 300 51.885 C 300 50.588 299.803 49.419 299.411 48.377 C 299.046 47.306 298.373 46.391 297.39 45.63 C 296.436 44.869 295.103 44.277 293.392 43.854 C 291.708 43.432 289.56 43.22 286.951 43.22 C 284.341 43.22 282.18 43.432 280.468 43.854 C 278.756 44.277 277.409 44.869 276.426 45.63 C 275.473 46.391 274.799 47.306 274.405 48.377 C 274.041 49.419 273.858 50.588 273.858 51.885 L 273.858 66.299 C 273.858 67.595 274.041 68.778 274.405 69.849 C 274.799 70.891 275.473 71.794 276.426 72.554 C 277.409 73.286 278.756 73.865 280.468 74.287 C 282.18 74.71 284.341 74.921 286.951 74.921 C 289.56 74.921 291.708 74.71 293.392 74.287 C 295.103 73.865 296.436 73.286 297.39 72.554 C 298.373 71.794 299.046 70.891 299.411 69.849 Z M 292.351 56.429 C 292.351 58.384 291.289 60.092 289.709 61.005 L 289.709 66.996 L 284.426 66.996 L 284.426 61.005 C 282.846 60.092 281.784 58.384 281.784 56.429 C 281.784 53.51 284.149 51.146 287.067 51.146 C 289.985 51.146 292.351 53.51 292.351 56.429 Z" fill="white" style=""/>
  <path d="M 254.835 52.731 L 252.857 59.155 L 259.465 59.155 L 257.486 52.731 C 257.374 52.477 257.248 52.294 257.108 52.181 C 256.996 52.068 256.855 52.012 256.687 52.012 L 255.634 52.012 C 255.467 52.012 255.312 52.068 255.172 52.181 C 255.06 52.294 254.947 52.477 254.835 52.731 Z M 252.435 72.766 C 252.435 73.301 252.308 73.696 252.056 73.949 C 251.832 74.174 251.452 74.287 250.92 74.287 L 244.732 74.287 C 244.198 74.287 243.806 74.174 243.552 73.949 C 243.329 73.696 243.217 73.301 243.217 72.766 L 243.217 61.607 C 243.217 60.762 243.342 59.789 243.595 58.691 C 243.876 57.592 244.297 56.309 244.857 54.844 L 248.52 45.249 C 248.689 44.77 248.941 44.417 249.278 44.193 C 249.643 43.967 250.106 43.854 250.666 43.854 L 261.99 43.854 C 262.524 43.854 262.96 43.967 263.295 44.193 C 263.661 44.417 263.928 44.77 264.096 45.249 L 267.759 54.844 C 268.32 56.309 268.727 57.592 268.979 58.691 C 269.259 59.789 269.401 60.762 269.401 61.607 L 269.401 72.766 C 269.401 73.301 269.274 73.696 269.021 73.949 C 268.797 74.174 268.418 74.287 267.884 74.287 L 261.528 74.287 C 260.967 74.287 260.545 74.174 260.265 73.949 C 260.013 73.696 259.886 73.301 259.886 72.766 L 259.886 66.848 L 252.435 66.848 L 252.435 72.766 Z" fill="white" style=""/>
  <path d="M 199.622 74.287 L 188.678 74.287 C 188.144 74.287 187.695 74.188 187.33 73.992 C 186.994 73.793 186.727 73.428 186.531 72.893 L 182.405 62.537 C 182.153 61.916 181.943 61.381 181.773 60.931 C 181.606 60.451 181.464 60.001 181.353 59.578 C 181.241 59.155 181.157 58.718 181.1 58.268 C 181.072 57.788 181.058 57.211 181.058 56.535 L 181.058 45.376 C 181.058 44.84 181.17 44.459 181.394 44.235 C 181.648 43.981 182.04 43.854 182.574 43.854 L 189.267 43.854 C 189.8 43.854 190.207 43.981 190.487 44.235 C 190.769 44.459 190.909 44.84 190.909 45.376 L 190.909 57.042 C 190.909 57.323 190.936 57.605 190.993 57.887 C 191.049 58.169 191.133 58.465 191.245 58.775 L 193.224 64.693 C 193.309 64.974 193.406 65.171 193.519 65.284 C 193.631 65.369 193.799 65.411 194.023 65.411 L 194.487 65.411 C 194.711 65.411 194.879 65.369 194.991 65.284 C 195.104 65.171 195.203 64.974 195.286 64.693 L 197.265 58.733 C 197.377 58.422 197.462 58.127 197.518 57.845 C 197.574 57.562 197.602 57.281 197.602 57 L 197.602 45.376 C 197.602 44.84 197.714 44.459 197.938 44.235 C 198.191 43.981 198.584 43.854 199.118 43.854 L 205.726 43.854 C 206.26 43.854 206.639 43.981 206.864 44.235 C 207.116 44.459 207.241 44.84 207.241 45.376 L 207.241 56.535 C 207.241 57.211 207.214 57.788 207.158 58.268 C 207.13 58.718 207.059 59.155 206.947 59.578 C 206.834 60.001 206.694 60.451 206.527 60.931 C 206.358 61.381 206.148 61.916 205.895 62.537 L 201.769 72.893 C 201.573 73.428 201.292 73.793 200.927 73.992 C 200.591 74.188 200.156 74.287 199.622 74.287 Z" fill="white" style=""/>
  <path d="M 160.33 51.463 L 160.33 56.873 L 163.487 56.873 C 164.216 56.873 164.708 56.689 164.96 56.324 C 165.214 55.929 165.339 55.449 165.339 54.886 L 165.339 53.449 C 165.339 52.885 165.214 52.42 164.96 52.054 C 164.708 51.659 164.216 51.463 163.487 51.463 L 160.33 51.463 Z M 158.814 74.287 L 152.332 74.287 C 151.799 74.287 151.406 74.174 151.154 73.949 C 150.93 73.696 150.817 73.301 150.817 72.766 L 150.817 45.376 C 150.817 44.84 150.93 44.459 151.154 44.235 C 151.406 43.981 151.799 43.854 152.332 43.854 L 166.35 43.854 C 169.493 43.854 171.654 44.516 172.832 45.841 C 174.04 47.137 174.643 48.828 174.643 50.913 L 174.643 52.858 C 174.643 54.041 174.46 55.055 174.095 55.901 C 173.758 56.717 173.155 57.309 172.286 57.676 C 173.801 57.845 175.021 58.465 175.947 59.536 C 176.902 60.606 177.379 62.03 177.379 63.805 L 177.379 72.766 C 177.379 73.301 177.252 73.696 177 73.949 C 176.775 74.174 176.396 74.287 175.864 74.287 L 169.339 74.287 C 168.805 74.287 168.413 74.174 168.16 73.949 C 167.936 73.696 167.824 73.301 167.824 72.766 L 167.824 66.299 C 167.824 65.678 167.697 65.228 167.445 64.946 C 167.22 64.636 166.813 64.481 166.224 64.481 L 160.33 64.481 L 160.33 72.766 C 160.33 73.301 160.203 73.696 159.951 73.949 C 159.727 74.174 159.348 74.287 158.814 74.287 Z" fill="white" style=""/>
  <path d="M 144.321 74.287 L 124.789 74.287 C 124.256 74.287 123.862 74.174 123.61 73.949 C 123.385 73.696 123.273 73.301 123.273 72.766 L 123.273 45.376 C 123.273 44.84 123.385 44.459 123.61 44.235 C 123.862 43.981 124.256 43.854 124.789 43.854 L 144.321 43.854 C 144.855 43.854 145.234 43.981 145.459 44.235 C 145.711 44.459 145.838 44.84 145.838 45.376 L 145.838 50.321 C 145.838 50.856 145.711 51.251 145.459 51.505 C 145.234 51.729 144.855 51.843 144.321 51.843 L 132.703 51.843 L 132.703 55.098 L 140.912 55.098 C 141.444 55.098 141.823 55.225 142.048 55.478 C 142.302 55.703 142.427 56.083 142.427 56.619 L 142.427 61.142 C 142.427 61.677 142.302 62.072 142.048 62.326 C 141.823 62.55 141.444 62.664 140.912 62.664 L 132.703 62.664 L 132.703 66.299 L 144.321 66.299 C 144.855 66.299 145.234 66.426 145.459 66.679 C 145.711 66.904 145.838 67.284 145.838 67.82 L 145.838 72.766 C 145.838 73.301 145.711 73.696 145.459 73.949 C 145.234 74.174 144.855 74.287 144.321 74.287 Z" fill="white" style=""/>
  <path d="M 99.407 74.287 L 93.094 74.287 C 92.56 74.287 92.168 74.174 91.914 73.949 C 91.69 73.696 91.577 73.301 91.577 72.766 L 91.577 45.376 C 91.577 44.84 91.69 44.459 91.914 44.235 C 92.168 43.981 92.56 43.854 93.094 43.854 L 97.471 43.854 C 98.005 43.854 98.454 43.939 98.818 44.108 C 99.212 44.277 99.59 44.573 99.956 44.996 L 108.121 54.379 L 108.121 45.376 C 108.121 44.84 108.234 44.459 108.458 44.235 C 108.712 43.981 109.104 43.854 109.638 43.854 L 115.951 43.854 C 116.485 43.854 116.864 43.981 117.089 44.235 C 117.341 44.459 117.466 44.84 117.466 45.376 L 117.466 72.766 C 117.466 73.301 117.341 73.696 117.089 73.949 C 116.864 74.174 116.485 74.287 115.951 74.287 L 109.638 74.287 C 109.104 74.287 108.712 74.174 108.458 73.949 C 108.234 73.696 108.121 73.301 108.121 72.766 L 108.121 67.567 L 100.924 58.817 L 100.924 72.766 C 100.924 73.301 100.797 73.696 100.545 73.949 C 100.32 74.174 99.941 74.287 99.407 74.287 Z" fill="white" style=""/>
  <path d="M 213.846 74.287 L 228.032 74.287 C 231.54 74.287 234.137 73.582 235.82 72.174 C 237.532 70.765 238.388 68.594 238.388 65.665 L 238.388 52.477 C 238.388 49.546 237.532 47.376 235.82 45.968 C 234.137 44.558 231.54 43.854 228.032 43.854 L 213.846 43.854 C 213.313 43.854 212.92 43.981 212.667 44.235 C 212.443 44.459 212.331 44.84 212.331 45.376 L 212.331 51.833 L 226.896 51.833 C 227.57 51.833 228.061 52.097 228.369 52.435 C 228.706 52.744 228.875 53.251 228.875 53.956 L 228.875 64.228 C 228.875 64.932 228.706 65.453 228.369 65.792 C 228.061 66.13 227.57 66.362 226.896 66.362 L 212.331 66.362 L 212.331 72.766 C 212.331 73.301 212.443 73.696 212.667 73.949 C 212.92 74.174 213.313 74.287 213.846 74.287 Z" fill="white" style=""/>
  <path d="M 212.331 54.474 C 212.331 53.744 212.922 53.153 213.652 53.153 L 218.903 53.153 C 219.632 53.153 220.224 53.744 220.224 54.474 L 220.224 63.72 C 220.224 64.45 219.632 65.041 218.903 65.041 L 213.652 65.041 C 212.922 65.041 212.331 64.45 212.331 63.72 L 212.331 54.474 Z" fill="#00FAED" style=""/>
</svg>