<svg width="342" height="120" viewBox="0 0 342 120" fill="none" xmlns="http://www.w3.org/2000/svg">
<rect width="342" height="120" fill="#DDEFE4"/>
<path d="M140.809 65.9476C147.11 64.1417 151.536 59.6963 151.536 52.3137V52.1847C151.536 48.2652 150.196 44.9311 147.815 42.4901C144.927 39.672 140.492 38.005 134.836 38.005H112.271L117.322 45.2189H134.181C140.025 45.2189 143.508 47.8286 143.508 52.6511V52.78C143.508 57.3445 139.906 60.3015 134.25 60.3015H127.92L143.846 82.995H152.955L140.799 65.9576L140.809 65.9476ZM97 50.7756L119.604 82.9752H128.604L106 50.7756H97Z" fill="black"/>
<path d="M100.364 38L131.948 83H140.948L109.364 38H100.364Z" fill="url(#paint0_linear_26733_6918)"/>
<path d="M238.448 83V38H244.955V83H238.448Z" fill="black"/>
<path d="M228.78 83H203.205V38H227.942V43.5849H209.647V57.3866H225.623V62.9715H209.647V77.4151H228.78V83Z" fill="black"/>
<path d="M164.955 38H177.259C186.793 38 192.462 41.7233 192.462 50.8388C192.462 58.3495 187.824 62.4579 182.477 63.164V63.4208C184.41 64.3195 186.02 65.8602 188.082 69.4551L196.006 83H188.211L180.223 68.5563C178.805 65.9886 177.002 64.8973 174.038 64.8973H171.397V83H164.955V38ZM171.397 43.5849V59.505H176.615C182.542 59.505 185.827 57.0656 185.827 51.4165C185.827 45.7675 182.477 43.5849 176.357 43.5849H171.397Z" fill="black"/>
<defs>
<linearGradient id="paint0_linear_26733_6918" x1="121.903" y1="80.6413" x2="119.276" y2="38.2282" gradientUnits="userSpaceOnUse">
<stop stop-color="#01F395"/>
<stop offset="1" stop-color="#01B56A"/>
</linearGradient>
</defs>
</svg>
