<svg width="342" height="120" viewBox="0 0 342 120" fill="none" xmlns="http://www.w3.org/2000/svg">
<rect width="342" height="120" fill="#2827DD"/>
<path fill-rule="evenodd" clip-rule="evenodd" d="M171.254 60.1514C171.773 60.1514 172.255 60.0171 172.698 59.7478C173.141 59.4793 173.498 59.1224 173.766 58.6766C174.033 58.2313 174.168 57.7402 174.168 57.2017C174.168 56.6807 174.033 56.21 173.766 55.7899C173.498 55.3696 173.141 55.0332 172.698 54.781C172.255 54.529 171.773 54.4031 171.254 54.4031H165.905V60.1514H171.254ZM171.581 51.781C172.552 51.781 173.447 52.0205 174.268 52.4995C175.088 52.9784 175.745 53.626 176.24 54.4407C176.733 55.256 176.98 56.1764 176.98 57.2017C176.98 58.2443 176.725 59.1851 176.214 60.0254C175.703 60.8661 175.026 61.534 174.18 62.0301C173.334 62.5256 172.401 62.7737 171.38 62.7737H165.905V69.43H163.192V51.781H171.581Z" fill="white"/>
<path fill-rule="evenodd" clip-rule="evenodd" d="M190.297 54.3994H184.954V60.2155H190.728C191.318 60.2155 191.837 60.0807 192.285 59.8125C192.731 59.5444 193.078 59.1873 193.323 58.7426C193.567 58.2977 193.69 57.8148 193.69 57.2946C193.69 56.7242 193.538 56.2206 193.234 55.7842C192.93 55.3476 192.521 55.008 192.006 54.7643C191.491 54.5212 190.921 54.3994 190.297 54.3994ZM196.526 57.3197C196.526 58.4613 196.18 59.4973 195.487 60.4295C194.795 61.3609 193.909 62.0365 192.829 62.4562L197.387 69.43L194.019 69.4049L189.791 62.8334H184.954V69.4049H182.22V51.781H190.879C191.841 51.781 192.753 52.0119 193.614 52.4733C194.475 52.935 195.175 53.5854 195.716 54.4245C196.256 55.264 196.526 56.2289 196.526 57.3197Z" fill="white"/>
<path fill-rule="evenodd" clip-rule="evenodd" d="M217.485 60.6053C217.485 59.3757 217.197 58.276 216.622 57.3071C216.048 56.3381 215.252 55.5711 214.238 55.0062C213.223 54.4418 212.064 54.1596 210.762 54.1596C209.426 54.1596 208.254 54.4418 207.248 55.0062C206.242 55.5711 205.455 56.3381 204.889 57.3071C204.322 58.276 204.039 59.3757 204.039 60.6053C204.039 61.8356 204.322 62.9353 204.889 63.9042C205.455 64.8737 206.242 65.6402 207.248 66.2046C208.254 66.7695 209.426 67.0517 210.762 67.0517C212.064 67.0517 213.223 66.7695 214.238 66.2046C215.252 65.6402 216.048 64.8692 216.622 63.892C217.197 62.9145 217.485 61.819 217.485 60.6053ZM220.276 60.6053C220.276 61.8863 220.043 63.0789 219.578 64.1825C219.113 65.2865 218.453 66.2511 217.599 67.0771C216.745 67.9029 215.739 68.5475 214.58 69.0108C213.421 69.4737 212.149 69.7059 210.762 69.7059C209.375 69.7059 208.098 69.4737 206.931 69.0108C205.764 68.5475 204.758 67.9029 203.912 67.0771C203.066 66.2511 202.411 65.2865 201.946 64.1825C201.481 63.0789 201.248 61.8863 201.248 60.6053C201.248 59.3252 201.481 58.1331 201.946 57.0288C202.411 55.9252 203.066 54.9602 203.912 54.1342C204.758 53.3091 205.764 52.6645 206.931 52.2005C208.098 51.7371 209.375 51.5054 210.762 51.5054C212.149 51.5054 213.421 51.7371 214.58 52.2005C215.739 52.6645 216.745 53.3091 217.599 54.1342C218.453 54.9602 219.113 55.9252 219.578 57.0288C220.043 58.1331 220.276 59.3252 220.276 60.6053Z" fill="white"/>
<path fill-rule="evenodd" clip-rule="evenodd" d="M228.363 69.43V54.4031H222.758V51.781H236.822V54.4031H231.066V69.43H228.363Z" fill="white"/>
<path fill-rule="evenodd" clip-rule="evenodd" d="M255.541 60.6053C255.541 59.3757 255.253 58.276 254.678 57.3071C254.103 56.3381 253.308 55.5711 252.293 55.0062C251.279 54.4418 250.12 54.1596 248.817 54.1596C247.481 54.1596 246.31 54.4418 245.304 55.0062C244.297 55.5711 243.511 56.3381 242.944 57.3071C242.377 58.276 242.094 59.3757 242.094 60.6053C242.094 61.8356 242.377 62.9353 242.944 63.9042C243.511 64.8737 244.297 65.6402 245.304 66.2046C246.31 66.7695 247.481 67.0517 248.817 67.0517C250.12 67.0517 251.279 66.7695 252.293 66.2046C253.308 65.6402 254.103 64.8692 254.678 63.892C255.253 62.9145 255.541 61.819 255.541 60.6053ZM258.332 60.6053C258.332 61.8863 258.099 63.0789 257.634 64.1825C257.169 65.2865 256.509 66.2511 255.655 67.0771C254.801 67.9029 253.794 68.5475 252.636 69.0108C251.477 69.4737 250.204 69.7059 248.817 69.7059C247.43 69.7059 246.153 69.4737 244.987 69.0108C243.819 68.5475 242.813 67.9029 241.967 67.0771C241.122 66.2511 240.466 65.2865 240.001 64.1825C239.536 63.0789 239.304 61.8863 239.304 60.6053C239.304 59.3252 239.536 58.1331 240.001 57.0288C240.466 55.9252 241.122 54.9602 241.967 54.1342C242.813 53.3091 243.819 52.6645 244.987 52.2005C246.153 51.7371 247.43 51.5054 248.817 51.5054C250.204 51.5054 251.477 51.7371 252.636 52.2005C253.794 52.6645 254.801 53.3091 255.655 54.1342C256.509 54.9602 257.169 55.9252 257.634 57.0288C258.099 58.1331 258.332 59.3252 258.332 60.6053Z" fill="white"/>
<path fill-rule="evenodd" clip-rule="evenodd" d="M278.211 67.0878C277.81 67.4944 277.261 67.8972 276.567 68.295C275.872 68.6932 275.073 69.0284 274.168 69.2993C273.265 69.5701 272.302 69.7059 271.281 69.7059C270.009 69.7059 268.821 69.4898 267.716 69.0579C266.612 68.6255 265.645 68.0112 264.816 67.2145C263.987 66.4186 263.343 65.4565 262.883 64.3296C262.422 63.2029 262.192 61.9447 262.192 60.5545C262.192 59.2503 262.435 58.0468 262.92 56.9452C263.406 55.8436 264.079 54.8865 264.941 54.0728C265.804 53.2594 266.787 52.6286 267.892 52.1788C268.997 51.7305 270.168 51.5054 271.407 51.5054C272.444 51.5054 273.42 51.6542 274.332 51.9503C275.244 52.2471 276.056 52.6239 276.768 53.0815C277.479 53.5392 278.044 54.0221 278.462 54.5303L276.73 56.6152C275.993 55.9199 275.177 55.3484 274.282 54.8988C273.386 54.4503 272.394 54.2252 271.306 54.2252C270.235 54.2252 269.214 54.4796 268.243 54.9879C267.272 55.4961 266.482 56.2251 265.87 57.1741C265.259 58.1236 264.954 59.2503 264.954 60.5545C264.954 61.9785 265.268 63.1645 265.895 64.1133C266.523 65.063 267.343 65.7782 268.356 66.2611C269.369 66.7445 270.461 66.9861 271.633 66.9861C272.821 66.9861 273.851 66.7533 274.722 66.2872C275.591 65.8213 276.311 65.3337 276.88 64.8253L278.211 67.0878Z" fill="white"/>
<path fill-rule="evenodd" clip-rule="evenodd" d="M298.56 60.6053C298.56 59.3757 298.272 58.276 297.697 57.3071C297.122 56.3381 296.328 55.5711 295.312 55.0062C294.298 54.4418 293.139 54.1596 291.837 54.1596C290.501 54.1596 289.329 54.4418 288.322 55.0062C287.316 55.5711 286.53 56.3381 285.963 57.3071C285.397 58.276 285.113 59.3757 285.113 60.6053C285.113 61.8356 285.397 62.9353 285.963 63.9042C286.53 64.8737 287.316 65.6402 288.322 66.2046C289.329 66.7695 290.501 67.0517 291.837 67.0517C293.139 67.0517 294.298 66.7695 295.312 66.2046C296.328 65.6402 297.122 64.8692 297.697 63.892C298.272 62.9145 298.56 61.819 298.56 60.6053ZM301.351 60.6053C301.351 61.8863 301.118 63.0789 300.653 64.1825C300.187 65.2865 299.528 66.2511 298.674 67.0771C297.82 67.9029 296.814 68.5475 295.655 69.0108C294.496 69.4737 293.223 69.7059 291.837 69.7059C290.449 69.7059 289.173 69.4737 288.006 69.0108C286.839 68.5475 285.832 67.9029 284.987 67.0771C284.141 66.2511 283.486 65.2865 283.021 64.1825C282.555 63.0789 282.323 61.8863 282.323 60.6053C282.323 59.3252 282.555 58.1331 283.021 57.0288C283.486 55.9252 284.141 54.9602 284.987 54.1342C285.832 53.3091 286.839 52.6645 288.006 52.2005C289.173 51.7371 290.449 51.5054 291.837 51.5054C293.223 51.5054 294.496 51.7371 295.655 52.2005C296.814 52.6645 297.82 53.3091 298.674 54.1342C299.528 54.9602 300.187 55.9252 300.653 57.0288C301.118 58.1331 301.351 59.3252 301.351 60.6053Z" fill="white"/>
<path fill-rule="evenodd" clip-rule="evenodd" d="M319 66.8079V69.43H306.591V51.781H309.315V66.8079H319Z" fill="white"/>
<path fill-rule="evenodd" clip-rule="evenodd" d="M82.2239 66.165C81.5561 66.5934 80.6973 66.8079 79.6458 66.8079H73.7893V61.6646H79.521C80.0881 61.6646 80.6551 61.7401 81.2229 61.8914C81.7899 62.043 82.2656 62.3037 82.6494 62.6731C83.0333 63.0429 83.225 63.547 83.225 64.1856C83.225 65.0771 82.8911 65.7363 82.2239 66.165ZM73.7893 54.4033H79.0955C79.9965 54.4033 80.7557 54.5796 81.3729 54.9326C81.9901 55.2858 82.2988 55.8741 82.2988 56.6978C82.2988 57.4375 82.0068 58.0087 81.4228 58.4122C80.8386 58.8153 80.163 59.0257 79.396 59.0423H73.7893V54.4033ZM84.2636 60.6562C83.7549 60.2866 83.2 60.0002 82.5995 59.7988C83.4004 59.4627 84.0091 58.9791 84.4264 58.349C84.843 57.7185 85.0519 57.0088 85.0519 56.2188C85.0519 54.7732 84.5679 53.6719 83.6003 52.9152C82.6327 52.1594 81.1979 51.781 79.2959 51.781H71.0864V69.43H79.6958C80.4302 69.43 81.164 69.3509 81.8985 69.1906C82.6327 69.0311 83.3081 68.758 83.926 68.3713C84.543 67.9848 85.0397 67.4553 85.4153 66.7828C85.7907 66.1107 85.9778 65.2617 85.9778 64.2362C85.9778 63.3959 85.8195 62.6814 85.5023 62.0933C85.1852 61.5052 84.7725 61.0262 84.2636 60.6562Z" fill="white"/>
<path fill-rule="evenodd" clip-rule="evenodd" d="M95.019 62.522L96.829 58.2858C97.0634 57.7312 97.29 57.1516 97.5076 56.5462C97.7252 55.9413 97.9518 55.3193 98.1867 54.6804C98.4041 55.3026 98.6224 55.9032 98.84 56.4832C99.0576 57.0632 99.2757 57.6306 99.494 58.185L101.354 62.522H95.019ZM96.8039 51.781L89.287 69.43H92.0774L93.9125 65.1436H102.461L104.271 69.43H107.212L99.745 51.781H96.8039Z" fill="white"/>
<path fill-rule="evenodd" clip-rule="evenodd" d="M125.742 54.4031V57.58V65.2714L114.428 51.781H111.9V54.4031V69.43H114.603V62.0931V56.3146L125.867 69.43H128.446V67.6551V54.4031V51.781H125.742V54.4031Z" fill="white"/>
<path fill-rule="evenodd" clip-rule="evenodd" d="M147.887 63.7194C147.461 64.6521 146.792 65.4004 145.881 65.9635C144.971 66.5269 143.788 66.8079 142.334 66.8079H137.496V54.4031H142.334C143.772 54.4031 144.95 54.6892 145.869 55.2606C146.788 55.8317 147.461 56.5884 147.887 57.5297C148.313 58.4708 148.527 59.4961 148.527 60.6052C148.527 61.7484 148.313 62.7866 147.887 63.7194ZM150.77 57.2141C150.394 56.1471 149.83 55.2057 149.078 54.3902C148.326 53.5755 147.398 52.9367 146.295 52.4743C145.192 52.0122 143.914 51.781 142.459 51.781H134.788V69.43H142.459C144.398 69.43 146.028 69.0309 147.348 68.2326C148.668 67.4346 149.663 66.3668 150.331 65.0305C151 63.6942 151.334 62.219 151.334 60.6052C151.334 59.4121 151.146 58.2819 150.77 57.2141Z" fill="white"/>
<mask id="mask0_25855_2206" style="mask-type:luminance" maskUnits="userSpaceOnUse" x="22" y="38" width="37" height="45">
<path d="M22 38H58.3989V82.9515H22V38Z" fill="white"/>
</mask>
<g mask="url(#mask0_25855_2206)">
<path fill-rule="evenodd" clip-rule="evenodd" d="M53.154 68.6992C53.154 72.4731 50.093 75.5426 46.33 75.5426H33.2462L46.8435 61.9071C50.3632 62.176 53.154 65.102 53.154 68.6992ZM31.3167 61.2898V45.4312H46.33C46.5865 45.4312 46.8395 45.4451 47.0887 45.4731L31.3167 61.2898ZM55.8825 52.2753C55.8825 49.0807 54.3157 46.2467 51.9122 44.5051L58.3988 38L54.5181 38.0222L49.3649 43.1904C48.4109 42.869 47.3905 42.6947 46.33 42.6947H28.5882V67.8955L49.9484 46.4745C51.8724 47.6863 53.154 49.8334 53.154 52.2753C53.154 56.0491 50.093 59.1188 46.33 59.1188H45.765L21.9999 82.9515H25.8584L30.5176 78.2791H46.33C51.5972 78.2791 55.8825 73.9816 55.8825 68.6992C55.8825 65.2155 54.013 62.1695 51.2332 60.4926C54.0158 58.8161 55.8825 55.7605 55.8825 52.2753Z" fill="white"/>
</g>
</svg>
