<svg width="342" height="120" viewBox="0 0 342 120" fill="none" xmlns="http://www.w3.org/2000/svg">
<rect width="342" height="120" fill="#0A0F23"/>
<g clip-path="url(#clip0_27904_746)">
<path d="M156.004 76.3483L152.068 47.0454H156.044L157.755 62.2753L157.834 63.2308H158.151L158.27 62.2753L160.099 47.0454H163.202L165.032 62.2753L165.15 63.2308H165.467L165.546 62.2753L167.257 47.0454H171.234L167.297 76.3483H163.957L161.969 62.4738L161.731 60.7581H161.573L161.336 62.4738L159.347 76.3483H156.007H156.004Z" fill="#8558DD"/>
<path d="M181.135 76.6658C179.942 76.6658 178.919 76.3881 178.063 75.8294C177.207 75.2708 176.553 74.5137 176.096 73.5582C175.639 72.6027 175.411 71.5251 175.411 70.3284V53.0654C175.411 51.8566 175.639 50.7759 176.096 49.8265C176.553 48.8771 177.21 48.1231 178.063 47.5645C178.919 47.0058 179.942 46.728 181.135 46.728C182.329 46.728 183.352 47.0058 184.207 47.5645C185.063 48.1231 185.717 48.8802 186.174 49.8357C186.631 50.7912 186.859 51.8688 186.859 53.0654V70.3284C186.859 71.5251 186.631 72.5997 186.174 73.5582C185.717 74.5167 185.06 75.2738 184.207 75.8294C183.352 76.3881 182.329 76.6658 181.135 76.6658ZM181.135 72.4806C181.665 72.4806 182.036 72.2577 182.249 71.8121C182.462 71.3664 182.566 70.8718 182.566 70.3254V53.0624C182.566 52.519 182.453 52.0214 182.228 51.5757C182.003 51.13 181.637 50.9072 181.135 50.9072C180.633 50.9072 180.283 51.13 180.051 51.5757C179.82 52.0214 179.704 52.5159 179.704 53.0624V70.3254C179.704 70.8718 179.817 71.3664 180.042 71.8121C180.267 72.2577 180.633 72.4806 181.135 72.4806Z" fill="#8558DD"/>
<path d="M192.029 76.3483V47.0454H196.325C198.897 47.0454 200.791 47.7597 202.012 49.1884C203.23 50.6171 203.842 52.7204 203.842 55.4983C203.842 57.1468 203.552 58.5724 202.977 59.7752C202.402 60.9779 201.701 61.8571 200.88 62.4157L203.802 76.3513H199.507L197.08 63.9909H196.325V76.3513H192.029V76.3483ZM196.325 60.0011C197.119 60.0011 197.75 59.824 198.213 59.4729C198.676 59.1219 199.007 58.6182 199.205 57.968C199.403 57.3177 199.504 56.5454 199.504 55.654C199.504 54.2589 199.275 53.1844 198.818 52.4334C198.362 51.6825 197.53 51.307 196.322 51.307V59.998L196.325 60.0011Z" fill="#8558DD"/>
<path d="M208.411 76.3483V47.0454H212.708V72.3614H218.395V76.3483H208.414H208.411Z" fill="#8558DD"/>
<path d="M222.329 76.3483V47.0454H226.705C228.084 47.0454 229.249 47.2713 230.202 47.7231C231.155 48.1749 231.926 48.9472 232.507 50.034C233.089 51.1238 233.513 52.6196 233.771 54.5184C234.03 56.4202 234.158 58.8166 234.158 61.7136C234.158 64.6106 234.03 67.0253 233.771 68.9211C233.513 70.8168 233.092 72.3034 232.507 73.3872C231.923 74.4709 231.155 75.234 230.202 75.6797C229.249 76.1254 228.081 76.3483 226.705 76.3483H222.329ZM226.622 72.0409C227.682 72.0409 228.43 71.6227 228.869 70.7863C229.307 69.9498 229.572 68.7532 229.664 67.1993C229.755 65.6455 229.803 63.7986 229.803 61.6587C229.803 59.5187 229.758 57.6413 229.664 56.1058C229.572 54.5703 229.301 53.395 228.86 52.5769C228.415 51.7588 227.67 51.3497 226.622 51.3497V72.0409Z" fill="#8558DD"/>
<path d="M244.708 76.6657C243.807 76.6657 243.028 76.5222 242.373 76.2383C241.719 75.9514 241.173 75.5484 240.744 75.0234C240.312 74.4983 239.971 73.8725 239.721 73.149C239.469 72.4255 239.288 71.6166 239.185 70.7282C239.079 69.8368 239.027 68.8935 239.027 67.8984H243.241C243.241 68.7501 243.268 69.556 243.32 70.3192C243.371 71.0823 243.506 71.702 243.718 72.1721C243.932 72.6453 244.26 72.8804 244.711 72.8804C245.161 72.8804 245.497 72.6972 245.716 72.3309C245.935 71.9646 246.081 71.5006 246.154 70.9358C246.228 70.3711 246.264 69.7819 246.264 69.1713C246.264 67.5778 246.154 66.3568 245.935 65.5142C245.716 64.6717 245.333 64.0764 244.781 63.7314C244.23 63.3865 243.454 63.1789 242.446 63.1148V59.5279C243.454 59.476 244.203 59.2898 244.693 58.9692C245.183 58.6517 245.509 58.1206 245.667 57.3849C245.826 56.6492 245.905 55.6204 245.905 54.3047C245.905 53.6545 245.88 53.0378 245.835 52.4609C245.789 51.8839 245.673 51.4138 245.488 51.0566C245.302 50.6964 244.991 50.5194 244.553 50.5194C244.142 50.5194 243.831 50.7544 243.618 51.2276C243.405 51.7008 243.262 52.3143 243.192 53.0714C243.119 53.8285 243.083 54.6405 243.083 55.5044H238.868C238.868 54.2284 238.954 53.0561 239.127 51.9847C239.3 50.9162 239.596 49.9882 240.022 49.2036C240.446 48.4191 241.027 47.8116 241.761 47.3781C242.497 46.9477 243.426 46.731 244.553 46.731C245.454 46.731 246.252 46.8989 246.949 47.2408C247.646 47.5796 248.228 48.0467 248.7 48.645C249.168 49.2433 249.525 49.9332 249.762 50.7178C250 51.5023 250.121 52.3388 250.121 53.2302C250.121 54.5581 250.027 55.7578 249.845 56.8293C249.659 57.9008 249.385 58.8044 249.02 59.5401C248.654 60.2788 248.188 60.8314 247.619 61.2038C248.56 61.9212 249.272 62.953 249.756 64.2931C250.241 65.6363 250.481 67.1566 250.481 68.8569C250.481 70.2001 250.265 71.4639 249.836 72.6545C249.403 73.845 248.763 74.8097 247.917 75.5545C247.068 76.2994 246.002 76.6718 244.717 76.6718L244.708 76.6657Z" fill="white"/>
<path d="M145.85 59.999L117.925 32L89.9995 59.999L117.925 87.998L145.85 59.999Z" fill="white"/>
<path d="M122.543 36.6323L100.403 58.8316L100.326 60.6449L104.945 65.2758L122.166 48.0097L126.017 51.8714L109.741 68.1911L109.664 70.0075L114.283 74.6354L131.504 57.3724L135.355 61.234L113.291 83.3539L117.925 88.0001L145.85 60.0007L122.543 36.6323Z" fill="#542B53"/>
<path d="M122.664 36.375L100.523 58.5742L105.142 63.2052L122.363 45.9391L127.082 50.6677L109.861 67.9338L114.48 72.5647L131.701 55.2987L136.432 60.0456L113.426 83.1118L118.045 87.7428L145.971 59.7434L122.664 36.375Z" fill="url(#paint0_radial_27904_746)"/>
</g>
<defs>
<radialGradient id="paint0_radial_27904_746" cx="0" cy="0" r="1" gradientUnits="userSpaceOnUse" gradientTransform="translate(113.18 69.0114) scale(24.6862 24.7513)">
<stop stop-color="#AE508E"/>
<stop offset="1" stop-color="#8558DD"/>
</radialGradient>
<clipPath id="clip0_27904_746">
<rect width="161.356" height="56" fill="white" transform="translate(90 32)"/>
</clipPath>
</defs>
</svg>
