<svg width="342" height="120" viewBox="0 0 342 120" fill="none" xmlns="http://www.w3.org/2000/svg">
<rect width="342" height="120" fill="#E8DAFF"/>
<g clip-path="url(#clip0_26279_5155)">
<path d="M171.271 66.0442L183.453 55.4193L171.271 23.1183L175.033 42.5808L169.811 48.8536L171.271 66.0442Z" fill="#29093E"/>
<path d="M171.271 66.1625C171.256 66.1625 171.241 66.1597 171.227 66.1545C171.206 66.146 171.188 66.1322 171.175 66.1145C171.162 66.0969 171.154 66.076 171.152 66.0541L169.692 48.8635C169.689 48.8327 169.699 48.8021 169.719 48.7783L174.905 42.5486L171.154 23.1408C171.147 23.1111 171.151 23.0799 171.167 23.0537C171.183 23.0275 171.208 23.0083 171.238 23.0001C171.267 22.9919 171.299 22.9953 171.326 23.0097C171.353 23.024 171.373 23.0482 171.383 23.0771L183.565 55.3782C183.573 55.4007 183.575 55.4253 183.569 55.4487C183.563 55.472 183.55 55.4931 183.532 55.509L171.35 66.133C171.329 66.1522 171.3 66.1627 171.271 66.1625ZM169.935 48.8922L171.37 65.7996L183.312 55.3845L171.658 24.4761L175.152 42.5585C175.156 42.5756 175.155 42.5933 175.151 42.6102C175.146 42.6271 175.138 42.6428 175.127 42.6562L169.935 48.8922Z" fill="#29093E"/>
<path d="M169.729 23.1183L157.547 55.4193L169.729 66.0442L164.629 49.187L171.711 42.9447L169.729 23.1183Z" fill="#29093E"/>
<path d="M169.729 66.1625C169.7 66.1626 169.672 66.152 169.65 66.1329L157.468 55.509C157.45 55.493 157.437 55.4719 157.431 55.4485C157.425 55.4252 157.427 55.4006 157.435 55.3781L169.617 23.0771C169.627 23.0523 169.645 23.0315 169.668 23.0179C169.691 23.0043 169.718 22.9988 169.744 23.0022C169.771 23.0056 169.796 23.0177 169.814 23.0367C169.833 23.0556 169.845 23.0802 169.848 23.1066L171.83 42.9331C171.832 42.9517 171.83 42.9706 171.823 42.988C171.816 43.0055 171.805 43.021 171.791 43.0334L164.766 49.2255L169.844 66.0101C169.851 66.0348 169.85 66.0612 169.841 66.0853C169.832 66.1094 169.815 66.1299 169.793 66.1437C169.774 66.1564 169.752 66.163 169.729 66.1625ZM157.685 55.3844L169.491 65.6821L164.514 49.221C164.508 49.1993 164.508 49.1764 164.515 49.1547C164.521 49.133 164.533 49.1135 164.55 49.0982L171.586 42.8963L169.66 23.6381L157.685 55.3844Z" fill="#29093E"/>
<path d="M150.812 86.8887H143.801V84.7745H151.862L150.812 86.8887Z" fill="#29093E"/>
<path d="M150.812 86.9667H143.801C143.78 86.9667 143.76 86.9585 143.745 86.9439C143.73 86.9293 143.722 86.9094 143.722 86.8888V84.7745C143.722 84.7642 143.724 84.754 143.728 84.7444C143.732 84.7349 143.737 84.7262 143.745 84.7188C143.752 84.7115 143.761 84.7057 143.77 84.7017C143.78 84.6977 143.79 84.6957 143.801 84.6957H151.862C151.875 84.6959 151.888 84.6994 151.9 84.7059C151.911 84.7125 151.921 84.7218 151.928 84.733C151.935 84.7443 151.939 84.7571 151.94 84.7703C151.941 84.7835 151.938 84.7967 151.932 84.8086L150.882 86.9228C150.876 86.936 150.866 86.9471 150.854 86.9549C150.841 86.9627 150.827 86.9668 150.812 86.9667ZM143.88 86.8117H150.763L151.734 84.8543H143.88V86.8117Z" fill="#250F3F"/>
<path d="M145.932 96.9131V84.7737H143.801V96.9131H145.932Z" fill="#29093E"/>
<path d="M145.933 96.992H143.801C143.78 96.992 143.76 96.9838 143.745 96.9691C143.73 96.9545 143.722 96.9347 143.722 96.914V84.7745C143.722 84.7642 143.724 84.754 143.728 84.7444C143.732 84.7349 143.737 84.7262 143.745 84.7188C143.752 84.7115 143.761 84.7057 143.77 84.7017C143.78 84.6977 143.79 84.6957 143.801 84.6957H145.933C145.943 84.6957 145.953 84.6977 145.963 84.7017C145.972 84.7057 145.981 84.7115 145.989 84.7188C145.996 84.7262 146.002 84.7349 146.005 84.7444C146.009 84.754 146.011 84.7642 146.011 84.7745V96.914C146.011 96.9347 146.003 96.9545 145.988 96.9691C145.973 96.9838 145.953 96.992 145.933 96.992ZM143.88 96.8351H145.85V84.8525H143.88V96.8351Z" fill="#250F3F"/>
<path d="M149.465 89.7244H143.801V91.8386H149.465V89.7244Z" fill="#29093E"/>
<path d="M149.464 91.9202H143.8C143.779 91.92 143.759 91.9116 143.744 91.8968C143.729 91.882 143.721 91.8621 143.721 91.8414V89.7245C143.721 89.7038 143.729 89.6839 143.744 89.6693C143.759 89.6547 143.779 89.6465 143.8 89.6465H149.464C149.485 89.6465 149.505 89.6547 149.52 89.6693C149.535 89.6839 149.543 89.7038 149.543 89.7245V91.8387C149.543 91.8492 149.541 91.8596 149.538 91.8695C149.534 91.8793 149.528 91.8883 149.521 91.8959C149.514 91.9035 149.505 91.9095 149.495 91.9137C149.485 91.9179 149.475 91.9201 149.464 91.9202ZM143.879 91.7634H149.386V89.8024H143.88L143.879 91.7634Z" fill="#250F3F"/>
<path d="M151.862 96.914H143.801V94.7998H150.812L151.862 96.914Z" fill="#29093E"/>
<path d="M151.862 96.992H143.801C143.78 96.992 143.76 96.9838 143.745 96.9692C143.73 96.9545 143.722 96.9347 143.722 96.914V94.7998C143.722 94.7895 143.724 94.7793 143.728 94.7697C143.732 94.7601 143.737 94.7514 143.745 94.7441C143.752 94.7368 143.761 94.7309 143.77 94.727C143.78 94.723 143.79 94.7209 143.801 94.7209H150.812C150.827 94.7209 150.841 94.725 150.854 94.7328C150.866 94.7405 150.876 94.7517 150.882 94.7649L151.932 96.8791C151.938 96.891 151.941 96.9042 151.941 96.9175C151.94 96.9308 151.936 96.9437 151.929 96.9551C151.922 96.9664 151.912 96.9757 151.9 96.9822C151.888 96.9887 151.875 96.992 151.862 96.992ZM143.88 96.8352H151.734L150.763 94.8778H143.88V96.8352Z" fill="#250F3F"/>
<path d="M169.905 91.6809C171.092 91.2534 172.14 90.195 172.14 88.4876C172.14 86.4559 170.66 84.7665 168.165 84.7665H165.835V86.8834H168.012C169.061 86.8834 169.75 87.5493 169.75 88.4876C169.75 89.426 169.061 90.0928 168.012 90.0928H165.835V92.0735H167.479L169.871 96.9221H172.642L169.905 91.6809Z" fill="#29093E"/>
<path d="M172.642 97H169.871C169.856 97.0001 169.841 96.996 169.829 96.9882C169.816 96.9804 169.806 96.9693 169.799 96.9561L167.429 92.1514H165.835C165.814 92.1514 165.794 92.1432 165.78 92.1286C165.765 92.114 165.757 92.0941 165.757 92.0735V90.0928C165.756 90.0825 165.758 90.0722 165.762 90.0627C165.766 90.0531 165.772 90.0444 165.779 90.0371C165.787 90.0297 165.795 90.0239 165.805 90.0199C165.815 90.016 165.825 90.0139 165.835 90.0139H168.012C169.005 90.0139 169.671 89.4009 169.671 88.4903C169.671 87.5798 169.004 86.9667 168.012 86.9667H165.835C165.814 86.9667 165.794 86.9585 165.78 86.9439C165.765 86.9293 165.757 86.9094 165.757 86.8888V84.7665C165.756 84.7562 165.758 84.7459 165.762 84.7364C165.766 84.7268 165.772 84.7181 165.779 84.7108C165.787 84.7034 165.795 84.6976 165.805 84.6936C165.815 84.6897 165.825 84.6876 165.835 84.6876H168.165C170.552 84.6876 172.22 86.2507 172.22 88.4876C172.22 89.9879 171.398 91.1907 170.014 91.723L172.71 96.8853C172.717 96.8971 172.72 96.9104 172.72 96.9239C172.72 96.9374 172.717 96.9506 172.71 96.9624C172.703 96.974 172.693 96.9835 172.681 96.9901C172.669 96.9967 172.655 97.0001 172.642 97ZM169.92 96.8432H172.512L169.835 91.7168C169.829 91.7068 169.827 91.6959 169.826 91.6847C169.825 91.6735 169.827 91.6624 169.831 91.6519C169.835 91.6415 169.842 91.6321 169.85 91.6242C169.858 91.6164 169.867 91.6104 169.878 91.6065C171.246 91.1136 172.063 89.9485 172.063 88.4876C172.063 86.343 170.461 84.8445 168.167 84.8445H165.915V86.8045H168.012C169.082 86.8045 169.829 87.4964 169.829 88.4876C169.829 89.4789 169.082 90.1717 168.012 90.1717H165.915V91.9946H167.479C167.493 91.9947 167.508 91.9988 167.52 92.0066C167.533 92.0143 167.543 92.0254 167.55 92.0385L169.92 96.8432Z" fill="#250F3F"/>
<path d="M191.099 96.914C188.616 96.914 186.644 95.2398 186.644 92.6865V84.7745H189.007V92.6022C189.007 93.9887 189.82 94.8168 191.099 94.8168C192.377 94.8168 193.207 93.9887 193.207 92.6022V84.7745H195.556V92.6865C195.553 95.2362 193.58 96.914 191.099 96.914Z" fill="#29093E"/>
<path d="M191.099 96.991C188.471 96.991 186.565 95.1806 186.565 92.6891V84.7745C186.565 84.7538 186.573 84.734 186.588 84.7194C186.603 84.7047 186.623 84.6965 186.644 84.6965H189.007C189.028 84.6968 189.048 84.7051 189.062 84.7197C189.077 84.7343 189.085 84.754 189.085 84.7745V92.6022C189.085 93.9205 189.856 94.7397 191.099 94.7397C192.341 94.7397 193.129 93.9205 193.129 92.6022V84.7745C193.129 84.7538 193.137 84.734 193.152 84.7194C193.166 84.7047 193.186 84.6965 193.207 84.6965H195.556C195.577 84.6965 195.597 84.7047 195.612 84.7194C195.626 84.734 195.635 84.7538 195.635 84.7745V92.6864C195.629 95.1806 193.725 96.991 191.099 96.991ZM186.721 84.8525V92.6864C186.721 95.091 188.563 96.836 191.099 96.836C193.634 96.836 195.475 95.091 195.475 92.6864V84.8525H193.285V92.6022C193.285 94.0164 192.447 94.8947 191.099 94.8947C189.75 94.8947 188.93 94.0164 188.93 92.6022V84.8525H186.721Z" fill="#250F3F"/>
<path d="M216.787 96.9202L211.936 89.4609V96.9202H209.542V84.7673H211.676L216.527 92.2061V84.7673H218.92V96.9202H216.787Z" fill="#29093E"/>
<path d="M218.921 96.9991H216.787C216.774 96.999 216.761 96.9957 216.749 96.9895C216.738 96.9832 216.728 96.9742 216.721 96.9632L212.015 89.7279V96.9202C212.015 96.941 212.006 96.9609 211.992 96.9756C211.977 96.9904 211.957 96.9988 211.936 96.9991H209.542C209.521 96.9988 209.501 96.9904 209.486 96.9756C209.472 96.9609 209.463 96.941 209.463 96.9202V84.7673C209.463 84.7466 209.472 84.7268 209.486 84.7122C209.501 84.6975 209.521 84.6893 209.542 84.6893H211.676C211.689 84.6894 211.702 84.6927 211.714 84.6989C211.725 84.7052 211.735 84.7142 211.743 84.7252L216.449 91.9434V84.7673C216.449 84.7466 216.457 84.7268 216.472 84.7122C216.486 84.6975 216.506 84.6893 216.527 84.6893H218.92C218.94 84.6893 218.96 84.6975 218.975 84.7122C218.99 84.7268 218.998 84.7466 218.998 84.7673V96.9202C218.998 96.9407 218.99 96.9603 218.976 96.975C218.961 96.9897 218.942 96.9984 218.921 96.9991ZM216.831 96.8413H218.842V84.8462H216.609V92.2096C216.609 92.2266 216.603 92.243 216.593 92.2566C216.582 92.2702 216.568 92.2801 216.552 92.2849C216.535 92.2901 216.517 92.2897 216.501 92.2836C216.484 92.2776 216.471 92.2664 216.461 92.2517L211.633 84.8462H209.623V96.8413H211.857V89.4609C211.857 89.4439 211.862 89.4275 211.873 89.414C211.883 89.4005 211.897 89.3905 211.913 89.3856C211.93 89.3804 211.948 89.3808 211.964 89.3868C211.981 89.3928 211.995 89.4041 212.004 89.4187L216.831 96.8413Z" fill="#250F3F"/>
<path d="M125.969 86.2928C125.996 86.2928 126.022 86.2848 126.045 86.2699C126.067 86.255 126.085 86.2338 126.095 86.209C126.105 86.1842 126.108 86.157 126.102 86.1307C126.097 86.1044 126.084 86.0803 126.065 86.0614C126.046 86.0425 126.021 86.0297 125.995 86.0246C125.968 86.0195 125.941 86.0223 125.916 86.0327C125.891 86.043 125.87 86.0605 125.855 86.0829C125.84 86.1053 125.832 86.1315 125.832 86.1583C125.832 86.1761 125.836 86.1936 125.843 86.21C125.85 86.2263 125.86 86.2412 125.872 86.2537C125.885 86.2662 125.9 86.2761 125.917 86.2828C125.933 86.2895 125.951 86.2929 125.969 86.2928Z" fill="#29093E"/>
<path d="M123.098 85.7191V85.9674L123.314 85.8437L123.098 85.7191Z" fill="#29093E"/>
<path d="M122.787 85.8437L123.004 85.9674V85.7191L122.787 85.8437Z" fill="#29093E"/>
<path d="M127.066 86.3393C127.066 86.362 127.073 86.3842 127.086 86.4031C127.099 86.4219 127.117 86.4366 127.138 86.4453C127.159 86.454 127.182 86.4563 127.205 86.4518C127.227 86.4474 127.248 86.4365 127.264 86.4204C127.28 86.4044 127.291 86.384 127.295 86.3617C127.3 86.3395 127.298 86.3164 127.289 86.2954C127.28 86.2745 127.265 86.2565 127.246 86.2439C127.227 86.2313 127.205 86.2246 127.182 86.2246C127.151 86.2246 127.122 86.2367 127.1 86.2582C127.079 86.2797 127.066 86.3089 127.066 86.3393Z" fill="#29093E"/>
<path d="M123.145 85.6384L123.361 85.7621V85.5148L123.145 85.6384Z" fill="#29093E"/>
<path d="M127.465 85.4521C127.488 85.4521 127.51 85.4454 127.529 85.4328C127.548 85.4201 127.563 85.4022 127.572 85.3813C127.58 85.3603 127.583 85.3372 127.578 85.315C127.574 85.2927 127.563 85.2723 127.547 85.2563C127.53 85.2402 127.51 85.2293 127.487 85.2249C127.465 85.2204 127.442 85.2227 127.421 85.2314C127.399 85.2401 127.381 85.2548 127.369 85.2736C127.356 85.2925 127.349 85.3147 127.349 85.3374C127.349 85.3678 127.361 85.397 127.383 85.4185C127.405 85.44 127.434 85.4521 127.465 85.4521Z" fill="#29093E"/>
<path d="M123.004 85.5578V85.3096L122.787 85.4333L123.004 85.5578Z" fill="#29093E"/>
<path d="M129.237 87.2481C129.26 87.2481 129.283 87.2414 129.302 87.2288C129.321 87.2162 129.336 87.1983 129.344 87.1773C129.353 87.1563 129.355 87.1333 129.351 87.111C129.346 87.0888 129.335 87.0683 129.319 87.0523C129.303 87.0362 129.282 87.0253 129.26 87.0209C129.238 87.0165 129.214 87.0187 129.193 87.0274C129.172 87.0361 129.154 87.0508 129.141 87.0697C129.129 87.0885 129.122 87.1107 129.122 87.1334C129.122 87.1638 129.134 87.193 129.156 87.2145C129.177 87.236 129.207 87.2481 129.237 87.2481Z" fill="#29093E"/>
<path d="M125.969 85.2881C126.002 85.2843 126.033 85.2685 126.055 85.2437C126.077 85.2189 126.089 85.1868 126.089 85.1536C126.089 85.1204 126.077 85.0884 126.055 85.0636C126.033 85.0388 126.002 85.023 125.969 85.0192C125.95 85.017 125.93 85.0189 125.912 85.0246C125.894 85.0304 125.877 85.0399 125.862 85.0526C125.848 85.0653 125.836 85.0809 125.829 85.0983C125.821 85.1157 125.817 85.1346 125.817 85.1536C125.817 85.1727 125.821 85.1916 125.829 85.209C125.836 85.2264 125.848 85.242 125.862 85.2547C125.877 85.2674 125.894 85.2769 125.912 85.2827C125.93 85.2884 125.95 85.2903 125.969 85.2881Z" fill="#29093E"/>
<path d="M123.098 85.3096V85.5578L123.314 85.4333L123.098 85.3096Z" fill="#29093E"/>
<path d="M122.74 85.5148V85.7621L122.957 85.6384L122.74 85.5148Z" fill="#29093E"/>
<path d="M128.166 86.48L128.221 86.7229L128.405 86.5544L128.166 86.48Z" fill="#29093E"/>
<path d="M127.89 86.6692L128.13 86.7436L128.075 86.5016L127.89 86.6692Z" fill="#29093E"/>
<path d="M128.194 86.3913L128.433 86.4648L128.378 86.2228L128.194 86.3913Z" fill="#29093E"/>
<path d="M128.039 86.3429L127.983 86.1018L127.8 86.2703L128.039 86.3429Z" fill="#29093E"/>
<path d="M128.075 86.0812L128.131 86.3232L128.314 86.1547L128.075 86.0812Z" fill="#29093E"/>
<path d="M127.772 86.359L127.827 86.601L128.01 86.4325L127.772 86.359Z" fill="#29093E"/>
<path d="M129.089 89.5406C129.089 89.5636 129.096 89.586 129.108 89.6052C129.121 89.6243 129.139 89.6393 129.161 89.6482C129.182 89.657 129.205 89.6594 129.228 89.655C129.251 89.6505 129.272 89.6395 129.288 89.6233C129.304 89.607 129.316 89.5864 129.32 89.5639C129.324 89.5413 129.322 89.518 129.313 89.4969C129.304 89.4757 129.289 89.4577 129.27 89.445C129.251 89.4324 129.228 89.4257 129.205 89.4259C129.174 89.4261 129.145 89.4383 129.123 89.4598C129.102 89.4812 129.089 89.5103 129.089 89.5406Z" fill="#29093E"/>
<path d="M128.318 88.2716C128.295 88.2716 128.272 88.2783 128.253 88.2909C128.234 88.3035 128.219 88.3215 128.211 88.3424C128.202 88.3634 128.2 88.3865 128.204 88.4087C128.209 88.431 128.22 88.4514 128.236 88.4674C128.252 88.4835 128.273 88.4944 128.295 88.4988C128.317 88.5033 128.341 88.501 128.362 88.4923C128.383 88.4836 128.401 88.4689 128.414 88.4501C128.426 88.4312 128.433 88.409 128.433 88.3863C128.433 88.3559 128.421 88.3267 128.399 88.3052C128.378 88.2837 128.348 88.2716 128.318 88.2716Z" fill="#29093E"/>
<path d="M127.627 89.2646C127.597 89.2646 127.567 89.2767 127.546 89.2982C127.524 89.3198 127.512 89.3489 127.512 89.3794C127.512 89.4098 127.524 89.439 127.546 89.4605C127.567 89.482 127.597 89.4941 127.627 89.4941C127.658 89.4941 127.687 89.482 127.709 89.4605C127.731 89.439 127.743 89.4098 127.743 89.3794C127.743 89.3489 127.731 89.3198 127.709 89.2982C127.687 89.2767 127.658 89.2646 127.627 89.2646Z" fill="#29093E"/>
<path d="M127.782 90.1645C127.773 90.1439 127.758 90.1265 127.739 90.1142C127.721 90.1019 127.699 90.0954 127.676 90.0955C127.653 90.0955 127.631 90.1022 127.612 90.1148C127.593 90.1274 127.578 90.1453 127.569 90.1663C127.561 90.1872 127.558 90.2103 127.563 90.2326C127.567 90.2548 127.578 90.2752 127.594 90.2913C127.611 90.3073 127.631 90.3183 127.654 90.3227C127.676 90.3271 127.699 90.3248 127.72 90.3162C127.742 90.3075 127.76 90.2928 127.772 90.2739C127.785 90.255 127.792 90.2329 127.792 90.2102C127.792 90.1945 127.789 90.1789 127.783 90.1645H127.782Z" fill="#29093E"/>
<path d="M129.435 88.1104C129.412 88.1104 129.39 88.1171 129.371 88.1297C129.352 88.1423 129.337 88.1602 129.328 88.1812C129.32 88.2021 129.317 88.2252 129.322 88.2475C129.326 88.2697 129.337 88.2901 129.353 88.3062C129.37 88.3222 129.39 88.3332 129.413 88.3376C129.435 88.342 129.458 88.3397 129.479 88.3311C129.501 88.3224 129.519 88.3077 129.531 88.2888C129.544 88.2699 129.551 88.2478 129.551 88.2251C129.551 88.1946 129.539 88.1655 129.517 88.144C129.495 88.1224 129.466 88.1104 129.435 88.1104Z" fill="#29093E"/>
<path d="M126.257 84.6912H122.041C122.03 84.6912 122.02 84.6954 122.012 84.703C122.004 84.7105 122 84.7208 122 84.7315V96.9588C122 96.9687 122.004 96.9783 122.011 96.9854C122.018 96.9924 122.028 96.9964 122.038 96.9964H124.106C124.116 96.9964 124.126 96.9924 124.133 96.9854C124.14 96.9783 124.144 96.9687 124.144 96.9588V86.5885H126.149C127.121 86.5885 127.738 87.2006 127.738 88.0888C127.747 88.4381 127.632 88.7795 127.412 89.0522C127.165 89.3517 127.027 89.7251 127.02 90.1119C127.013 90.4988 127.138 90.8766 127.374 91.1844L127.432 91.2605C127.445 91.2772 127.463 91.2897 127.483 91.2961C127.503 91.3025 127.524 91.3026 127.544 91.2964C129.029 90.8312 129.881 89.5559 129.881 88.0879C129.881 86.2372 128.525 84.6912 126.257 84.6912ZM129.435 88.4329C129.38 88.4322 129.327 88.41 129.288 88.3711C129.25 88.3322 129.228 88.2798 129.227 88.225C129.228 88.2003 129.233 88.176 129.243 88.1533L129.115 88.1076C129.106 88.104 129.098 88.0977 129.093 88.0897L128.991 87.9427C128.996 88.0126 129.002 88.0825 129.002 88.1542C129.002 88.3416 128.983 88.5286 128.947 88.7125C128.936 88.9398 128.991 89.1655 129.106 89.3623C129.137 89.344 129.172 89.3338 129.208 89.3327C129.249 89.3326 129.29 89.3447 129.325 89.3676C129.36 89.3904 129.387 89.423 129.403 89.4612C129.419 89.4994 129.423 89.5415 129.415 89.5821C129.407 89.6227 129.387 89.66 129.357 89.6892C129.328 89.7185 129.29 89.7384 129.249 89.7464C129.208 89.7544 129.166 89.7502 129.127 89.7343C129.089 89.7184 129.056 89.6915 129.033 89.657C129.01 89.6225 128.998 89.582 128.998 89.5407C128.999 89.5008 129.012 89.4622 129.035 89.4295C128.953 89.2995 128.896 89.1554 128.866 89.0047C128.702 89.5063 128.345 89.9234 127.872 90.1653C127.877 90.1799 127.88 90.195 127.881 90.2101C127.881 90.2515 127.869 90.2919 127.846 90.3264C127.823 90.3609 127.79 90.3878 127.752 90.4037C127.714 90.4197 127.671 90.4239 127.63 90.416C127.589 90.408 127.552 90.3882 127.522 90.359C127.493 90.3299 127.473 90.2926 127.464 90.2521C127.456 90.2116 127.46 90.1695 127.476 90.1313C127.492 90.0931 127.519 90.0605 127.554 90.0375C127.588 90.0145 127.629 90.0022 127.671 90.0022C127.702 90.0025 127.732 90.0097 127.76 90.0232C127.788 90.0366 127.812 90.0561 127.832 90.0802C128.272 89.8557 128.607 89.47 128.766 89.0047C128.68 89.1471 128.559 89.2645 128.413 89.3448C128.266 89.4251 128.102 89.4655 127.935 89.4618C127.897 89.4618 127.856 89.4618 127.816 89.4546C127.798 89.5033 127.761 89.5435 127.715 89.5673C127.668 89.5911 127.614 89.597 127.563 89.5837C127.512 89.5705 127.468 89.5391 127.439 89.4955C127.41 89.452 127.398 89.3994 127.406 89.3478C127.414 89.2962 127.441 89.2493 127.481 89.2161C127.522 89.1829 127.573 89.1657 127.626 89.1678C127.678 89.17 127.728 89.1913 127.766 89.2277C127.804 89.2641 127.826 89.313 127.83 89.365C128.564 89.4286 128.796 88.812 128.856 88.5745C128.861 88.5416 128.868 88.509 128.877 88.4768L128.884 88.4697C128.894 88.3675 128.899 88.2626 128.899 88.1524C128.899 88.078 128.894 88.0054 128.888 87.9337L128.755 88.2456L128.733 88.268L128.524 88.372C128.524 88.3782 128.524 88.3845 128.524 88.3908C128.524 88.4322 128.512 88.4727 128.489 88.5072C128.465 88.5416 128.433 88.5685 128.394 88.5844C128.356 88.6004 128.313 88.6046 128.272 88.5965C128.231 88.5885 128.194 88.5686 128.164 88.5394C128.135 88.5101 128.115 88.4728 128.107 88.4322C128.099 88.3916 128.103 88.3496 128.119 88.3114C128.135 88.2732 128.162 88.2406 128.197 88.2177C128.232 88.1948 128.272 88.1827 128.314 88.1829C128.349 88.1834 128.384 88.1929 128.415 88.2105C128.446 88.228 128.471 88.2531 128.489 88.2833L128.67 88.1936L128.866 87.7616C128.826 87.5259 128.747 87.2982 128.633 87.0877L128.606 87.3807L128.593 87.4085L128.486 87.5215C128.51 87.5546 128.524 87.5943 128.525 87.6353C128.525 87.6767 128.513 87.7172 128.489 87.7516C128.466 87.7861 128.434 87.813 128.395 87.8289C128.357 87.8448 128.314 87.8491 128.273 87.841C128.232 87.833 128.195 87.8131 128.165 87.7838C128.136 87.7546 128.116 87.7173 128.108 87.6767C128.099 87.6361 128.104 87.594 128.12 87.5558C128.136 87.5177 128.163 87.485 128.198 87.4622C128.232 87.4393 128.273 87.4272 128.315 87.4274C128.351 87.4282 128.386 87.4384 128.417 87.4569L128.514 87.3557L128.552 86.9452C128.497 86.8626 128.436 86.7836 128.371 86.7086L128.208 86.8475C128.208 86.8475 128.199 86.8475 128.195 86.8529C128.19 86.8582 128.189 86.8529 128.186 86.8582H128.178H128.161L127.782 86.722C127.774 86.7195 127.767 86.715 127.762 86.7088C127.756 86.7026 127.753 86.6951 127.751 86.6871L127.674 86.2838C127.672 86.2762 127.672 86.2681 127.674 86.2605C127.677 86.2531 127.682 86.2464 127.687 86.2407L127.755 86.1834C127.47 86.0107 127.159 85.8845 126.834 85.8097L127.117 86.0131C127.126 86.0196 127.132 86.0292 127.135 86.04L127.16 86.1386C127.167 86.1366 127.175 86.1351 127.182 86.1341C127.224 86.1346 127.264 86.1474 127.299 86.1709C127.333 86.1943 127.359 86.2273 127.375 86.2657C127.39 86.3041 127.394 86.3462 127.385 86.3866C127.376 86.427 127.356 86.464 127.326 86.4928C127.296 86.5215 127.258 86.5409 127.217 86.5483C127.176 86.5557 127.134 86.5509 127.096 86.5345C127.057 86.5181 127.025 86.4908 127.002 86.456C126.98 86.4213 126.968 86.3807 126.969 86.3393C126.969 86.3046 126.979 86.2706 126.996 86.2405C127.013 86.2103 127.038 86.1851 127.068 86.1673L127.045 86.0776L126.608 85.7657C126.387 85.7276 126.163 85.7084 125.939 85.7084H124.725L125.086 86.1144H125.746C125.756 86.0638 125.784 86.0185 125.824 85.9858C125.865 85.9532 125.915 85.9353 125.967 85.9351C126.025 85.9388 126.08 85.9644 126.12 86.0068C126.161 86.0491 126.183 86.1051 126.183 86.1632C126.183 86.2214 126.161 86.2773 126.12 86.3197C126.08 86.3621 126.025 86.3877 125.967 86.3913C125.915 86.3909 125.865 86.373 125.825 86.3403C125.785 86.3077 125.757 86.2624 125.747 86.2121H125.072L125.036 86.1959L124.604 85.7129H123.455V85.85C123.456 85.8578 123.454 85.8655 123.45 85.8724C123.45 85.8724 123.45 85.8724 123.445 85.8778C123.442 85.8825 123.438 85.8865 123.433 85.8894L123.342 85.9405V86.6207C123.339 86.63 123.333 86.6381 123.325 86.6438C123.317 86.6494 123.307 86.6525 123.297 86.6525C123.287 86.6525 123.278 86.6494 123.27 86.6438C123.262 86.6381 123.255 86.63 123.252 86.6207V85.9934L123.102 86.083V86.9792C123.099 86.989 123.093 86.9975 123.085 87.0036C123.077 87.0097 123.067 87.013 123.057 87.013C123.047 87.013 123.037 87.0097 123.029 87.0036C123.021 86.9975 123.015 86.989 123.012 86.9792V86.083L122.864 85.9988V86.6261C122.861 86.6359 122.855 86.6444 122.847 86.6505C122.839 86.6566 122.829 86.6599 122.819 86.6599C122.808 86.6599 122.798 86.6566 122.79 86.6505C122.782 86.6444 122.776 86.6359 122.773 86.6261V85.9477L122.683 85.8948C122.678 85.8916 122.674 85.8877 122.671 85.8831L122.666 85.8778C122.661 85.8711 122.659 85.8633 122.66 85.8554V85.4449C122.659 85.437 122.662 85.4292 122.666 85.4225C122.67 85.4156 122.676 85.4097 122.683 85.4055L123.044 85.2011C123.051 85.1967 123.06 85.1944 123.068 85.1944C123.076 85.1944 123.084 85.1967 123.091 85.2011L123.453 85.4055C123.46 85.4095 123.466 85.4154 123.47 85.4225C123.473 85.4294 123.475 85.4371 123.475 85.4449V85.6241H124.583C124.583 85.6241 124.583 85.6241 124.583 85.6179L125.032 85.1088L125.067 85.0927H125.751C125.766 85.0396 125.799 84.9937 125.846 84.9635C125.892 84.9333 125.948 84.921 126.003 84.9288C126.058 84.9366 126.108 84.964 126.144 85.0059C126.18 85.0478 126.199 85.1013 126.198 85.1563C126.198 85.2168 126.174 85.2748 126.131 85.3176C126.088 85.3604 126.03 85.3846 125.969 85.3848C125.913 85.3844 125.86 85.3639 125.819 85.3273C125.778 85.2907 125.751 85.2404 125.745 85.1859H125.088L124.71 85.6134H125.943C126.171 85.6134 126.399 85.6326 126.624 85.6707L127.118 85.5946L127.286 85.4395C127.266 85.4089 127.256 85.3735 127.255 85.3373C127.255 85.2963 127.268 85.2561 127.291 85.2221C127.314 85.188 127.347 85.1615 127.385 85.1459C127.424 85.1303 127.466 85.1263 127.506 85.1344C127.547 85.1425 127.584 85.1624 127.613 85.1915C127.643 85.2206 127.662 85.2577 127.67 85.298C127.678 85.3383 127.674 85.3801 127.658 85.418C127.642 85.456 127.616 85.4884 127.581 85.5112C127.547 85.534 127.506 85.5462 127.465 85.5462C127.424 85.5452 127.384 85.5317 127.351 85.5076L127.17 85.6725L127.145 85.6851L126.889 85.7236C127.222 85.8042 127.539 85.9367 127.83 86.1162L128 85.971C128.006 85.9657 128.014 85.9621 128.022 85.9605C128.03 85.959 128.039 85.9595 128.047 85.962L128.437 86.0947C128.445 86.0972 128.452 86.1017 128.457 86.1079C128.463 86.114 128.466 86.1216 128.468 86.1296L128.544 86.5329C128.546 86.5406 128.546 86.5486 128.544 86.5562C128.542 86.5635 128.537 86.57 128.531 86.575L128.452 86.6423C128.522 86.7238 128.587 86.81 128.645 86.9004L128.942 87.0805L129.032 87.0868C129.044 87.0371 129.074 86.9933 129.116 86.9639C129.158 86.9345 129.209 86.9215 129.26 86.9273C129.311 86.9331 129.359 86.9573 129.393 86.9954C129.427 87.0335 129.446 87.0828 129.446 87.1338C129.446 87.1849 129.427 87.2341 129.393 87.2722C129.359 87.3103 129.311 87.3346 129.26 87.3404C129.209 87.3462 129.158 87.3332 129.116 87.3038C129.074 87.2743 129.044 87.2306 129.032 87.1809L128.925 87.1701C128.917 87.1694 128.91 87.1673 128.904 87.1639L128.731 87.0644C128.843 87.2751 128.92 87.502 128.96 87.7366L129.159 88.0242L129.293 88.0717C129.318 88.0482 129.349 88.0312 129.382 88.022C129.415 88.0129 129.45 88.012 129.483 88.0193C129.517 88.0267 129.548 88.0421 129.574 88.0643C129.6 88.0864 129.62 88.1146 129.633 88.1464C129.646 88.1781 129.65 88.2124 129.646 88.2463C129.642 88.2801 129.63 88.3125 129.61 88.3406C129.591 88.3686 129.565 88.3914 129.534 88.4071C129.504 88.4227 129.47 88.4307 129.435 88.4302V88.4329Z" fill="#29093E"/>
<path d="M128.318 87.5205C128.295 87.5203 128.272 87.527 128.253 87.5396C128.233 87.5523 128.218 87.5703 128.209 87.5915C128.2 87.6126 128.198 87.6359 128.202 87.6585C128.207 87.681 128.218 87.7017 128.234 87.7179C128.251 87.7341 128.272 87.7451 128.294 87.7496C128.317 87.754 128.34 87.7516 128.362 87.7428C128.383 87.7339 128.401 87.7189 128.414 87.6998C128.427 87.6806 128.433 87.6582 128.433 87.6352C128.433 87.6048 128.421 87.5756 128.399 87.5541C128.378 87.5326 128.348 87.5205 128.318 87.5205Z" fill="#29093E"/>
</g>
<defs>
<clipPath id="clip0_26279_5155">
<rect width="97" height="74" fill="white" transform="translate(122 23)"/>
</clipPath>
</defs>
</svg>
