<svg width="342" height="120" viewBox="0 0 342 120" fill="none" xmlns="http://www.w3.org/2000/svg">
<rect width="342" height="120" fill="#191A1E"/>
<path d="M71.4072 66.9407C73.1872 67.3502 74.6862 65.8323 74.6862 64.0059C74.6862 62.6009 73.5241 61.4974 72.1778 61.0959C71.342 60.8466 70.5434 60.4728 69.8103 59.9829C68.367 59.0185 67.2422 57.6478 66.5779 56.0442C65.9136 54.4405 65.7398 52.6758 66.0784 50.9734C66.4171 49.2709 67.253 47.7071 68.4804 46.4797C69.7078 45.2523 71.2716 44.4164 72.974 44.0777C74.6765 43.7391 76.4412 43.9129 78.0448 44.5772C79.6486 45.2414 81.0192 46.3664 81.9836 47.8096C82.4734 48.5427 82.8473 49.3413 83.0966 50.1771C83.4981 51.5234 84.6017 52.6856 86.0066 52.6856C87.833 52.6856 89.3508 51.1865 88.9414 49.4065C88.5456 47.6859 87.8395 46.0422 86.8485 44.559C85.2412 42.1535 82.9567 40.2787 80.2839 39.1716C77.6111 38.0645 74.6701 37.7748 71.8326 38.3392C68.9951 38.9036 66.3888 40.2967 64.3431 42.3424C62.2974 44.3881 60.9043 46.9944 60.3399 49.8319C59.7755 52.6693 60.0652 55.6104 61.1723 58.2832C62.2794 60.956 64.1542 63.2405 66.5597 64.8478C68.0428 65.8388 69.6866 66.5449 71.4072 66.9407Z" fill="url(#paint0_linear_27903_11609)"/>
<path d="M69.6014 57.4182C70.5706 58.9664 72.7038 58.9531 73.9953 57.6616C74.9887 56.6682 74.9473 55.0661 74.2792 53.8301C73.8645 53.0629 73.5642 52.2339 73.3922 51.3691C73.0536 49.6667 73.2273 47.902 73.8916 46.2983C74.5559 44.6946 75.6808 43.3239 77.1241 42.3596C78.5673 41.3952 80.2642 40.8805 82 40.8805C83.7358 40.8805 85.4326 41.3952 86.8759 42.3596C88.3192 43.3239 89.4441 44.6946 90.1084 46.2983C90.7726 47.902 90.9464 49.6667 90.6078 51.3691C90.4358 52.2339 90.1355 53.0629 89.7207 53.8301C89.0527 55.0661 89.0112 56.6682 90.0047 57.6616C91.2962 58.9531 93.4294 58.9664 94.3985 57.4182C95.3353 55.9217 95.9983 54.2601 96.3464 52.5106C96.9107 49.6732 96.621 46.7321 95.5139 44.0593C94.4069 41.3864 92.532 39.102 90.1266 37.4947C87.7211 35.8874 84.893 35.0295 82 35.0295C79.107 35.0295 76.2789 35.8874 73.8734 37.4947C71.468 39.102 69.5931 41.3864 68.486 44.0593C67.3789 46.7321 67.0892 49.6732 67.6536 52.5106C68.0016 54.2601 68.6647 55.9217 69.6014 57.4182Z" fill="url(#paint1_linear_27903_11609)"/>
<path d="M75.0585 49.4073C74.6491 51.1873 76.1669 52.6863 77.9933 52.6863C79.3983 52.6863 80.5018 51.5242 80.9034 50.1779C81.1526 49.342 81.5265 48.5435 82.0163 47.8104C82.9807 46.3671 84.3514 45.2422 85.9551 44.5779C87.5587 43.9137 89.3234 43.7398 91.0259 44.0785C92.7283 44.4172 94.2922 45.253 95.5196 46.4804C96.747 47.7078 97.5829 49.2716 97.9215 50.9741C98.2601 52.6766 98.0864 54.4412 97.4221 56.0449C96.7578 57.6486 95.6329 59.0193 94.1896 59.9836C93.4565 60.4735 92.658 60.8473 91.8221 61.0966C90.4758 61.4982 89.3137 62.6017 89.3137 64.0066C89.3137 65.8331 90.8127 67.3509 92.5927 66.9415C94.3133 66.5457 95.9571 65.8396 97.4402 64.8485C99.8457 63.2413 101.721 60.9568 102.828 58.284C103.935 55.6112 104.224 52.6701 103.66 49.8326C103.096 46.9952 101.703 44.3888 99.6568 42.3432C97.6111 40.2975 95.0048 38.9044 92.1674 38.34C89.3299 37.7756 86.3889 38.0652 83.716 39.1724C81.0432 40.2795 78.7587 42.1543 77.1514 44.5597C76.1605 46.0429 75.4543 47.6867 75.0585 49.4073Z" fill="url(#paint2_linear_27903_11609)"/>
<path d="M84.5819 47.6028C83.0337 48.5719 83.047 50.7051 84.3385 51.9966C85.332 52.99 86.9339 52.9486 88.1699 52.2806C88.9372 51.8658 89.7662 51.5655 90.631 51.3935C92.3334 51.0548 94.0981 51.2287 95.7018 51.8929C97.3054 52.5572 98.6761 53.6821 99.6405 55.1254C100.605 56.5687 101.12 58.2655 101.12 60.0013C101.12 61.7371 100.605 63.434 99.6405 64.8772C98.6761 66.3205 97.3054 67.4454 95.7018 68.1097C94.0981 68.774 92.3334 68.9477 90.631 68.6091C89.7662 68.4371 88.9372 68.1368 88.1699 67.7221C86.9339 67.054 85.332 67.0125 84.3385 68.006C83.047 69.2975 83.0337 71.4307 84.5819 72.3998C86.0784 73.3366 87.74 73.9997 89.4895 74.3476C92.3269 74.9121 95.268 74.6224 97.9409 73.5153C100.614 72.4081 102.898 70.5333 104.505 68.1278C106.113 65.7224 106.971 62.8943 106.971 60.0013C106.971 57.1083 106.113 54.2802 104.505 51.8747C102.898 49.4693 100.614 47.5944 97.9409 46.4873C95.268 45.3802 92.3269 45.0906 89.4895 45.6549C87.74 46.003 86.0784 46.666 84.5819 47.6028Z" fill="url(#paint3_linear_27903_11609)"/>
<path d="M92.5927 53.0593C90.8127 52.6499 89.3137 54.1677 89.3137 55.9942C89.3137 57.3991 90.4758 58.5026 91.8221 58.9041C92.658 59.1534 93.4565 59.5273 94.1896 60.0171C95.6329 60.9815 96.7578 62.3522 97.4221 63.9559C98.0864 65.5596 98.2601 67.3242 97.9215 69.0267C97.5829 70.7292 96.747 72.293 95.5196 73.5204C94.2922 74.7478 92.7283 75.5836 91.0259 75.9223C89.3234 76.2609 87.5587 76.0871 85.9551 75.4228C84.3514 74.7586 82.9807 73.6337 82.0163 72.1904C81.5265 71.4573 81.1526 70.6588 80.9034 69.823C80.5018 68.4766 79.3983 67.3145 77.9933 67.3145C76.1669 67.3145 74.6491 68.8136 75.0585 70.5935C75.4543 72.3141 76.1605 73.9579 77.1514 75.441C78.7587 77.8465 81.0432 79.7214 83.716 80.8284C86.3889 81.9355 89.3299 82.2252 92.1674 81.6608C95.0048 81.0964 97.6111 79.7033 99.6568 77.6576C101.703 75.612 103.096 73.0056 103.66 70.1681C104.224 67.3307 103.935 64.3896 102.828 61.7168C101.721 59.044 99.8457 56.7595 97.4402 55.1522C95.9571 54.1612 94.3133 53.4551 92.5927 53.0593Z" fill="url(#paint4_linear_27903_11609)"/>
<path d="M94.3985 62.5818C93.4294 61.0337 91.2962 61.0469 90.0047 62.3384C89.0112 63.3318 89.0527 64.9339 89.7207 66.1698C90.1355 66.9371 90.4358 67.7661 90.6078 68.6309C90.9464 70.3333 90.7726 72.098 90.1084 73.7017C89.4441 75.3054 88.3192 76.6761 86.8759 77.6404C85.4326 78.6048 83.7358 79.1195 82 79.1195C80.2642 79.1195 78.5673 78.6048 77.1241 77.6404C75.6808 76.6761 74.5559 75.3054 73.8916 73.7017C73.2273 72.098 73.0536 70.3333 73.3922 68.6309C73.5642 67.7661 73.8645 66.9371 74.2792 66.1698C74.9473 64.9339 74.9887 63.3318 73.9953 62.3384C72.7038 61.0469 70.5706 61.0337 69.6014 62.5818C68.6647 64.0783 68.0016 65.7399 67.6536 67.4894C67.0892 70.3268 67.3789 73.2679 68.486 75.9407C69.5931 78.6136 71.468 80.898 73.8734 82.5053C76.2789 84.1126 79.107 84.9705 82 84.9705C84.893 84.9705 87.7211 84.1126 90.1266 82.5053C92.532 80.898 94.4069 78.6136 95.5139 75.9407C96.621 73.2679 96.9107 70.3268 96.3464 67.4894C95.9983 65.7399 95.3353 64.0783 94.3985 62.5818Z" fill="url(#paint5_linear_27903_11609)"/>
<path d="M88.9414 70.5926C89.3508 68.8127 87.8331 67.3136 86.0066 67.3136C84.6016 67.3136 83.4982 68.4757 83.0966 69.8221C82.8473 70.6579 82.4735 71.4564 81.9836 72.1895C81.0193 73.6328 79.6486 74.7577 78.0449 75.422C76.4412 76.0863 74.6765 76.26 72.9741 75.9214C71.2716 75.5828 69.7078 74.7469 68.4804 73.5195C67.2529 72.2921 66.4171 70.7283 66.0785 69.0258C65.7398 67.3233 65.9136 65.5587 66.5779 63.955C67.2421 62.3513 68.3671 60.9806 69.8104 60.0162C70.5435 59.5264 71.342 59.1526 72.1778 58.9033C73.5242 58.5017 74.6863 57.3982 74.6863 55.9933C74.6863 54.1668 73.1872 52.649 71.4073 53.0585C69.6867 53.4543 68.0428 54.1604 66.5597 55.1514C64.1542 56.7587 62.2794 59.0431 61.1723 61.716C60.0652 64.3888 59.7755 67.3298 60.3399 70.1673C60.9043 73.0047 62.2975 75.6111 64.3431 77.6567C66.3888 79.7024 68.9952 81.0955 71.8326 81.66C74.67 82.2244 77.6111 81.9347 80.2839 80.8276C82.9567 79.7205 85.2412 77.8456 86.8485 75.4402C87.8395 73.957 88.5456 72.3132 88.9414 70.5926Z" fill="url(#paint6_linear_27903_11609)"/>
<path d="M79.4183 72.3973C80.9664 71.4281 80.9532 69.2949 79.6616 68.0034C78.6682 67.01 77.0661 67.0514 75.8302 67.7195C75.0629 68.1342 74.2339 68.4346 73.3691 68.6065C71.6667 68.9452 69.9021 68.7714 68.2983 68.1071C66.6947 67.4428 65.3239 66.3179 64.3596 64.8747C63.3953 63.4314 62.8805 61.7345 62.8805 59.9987C62.8805 58.2629 63.3953 56.5661 64.3596 55.1228C65.3239 53.6795 66.6947 52.5546 68.2983 51.8904C69.9021 51.2261 71.6667 51.0523 73.3691 51.391C74.2339 51.5629 75.0629 51.8633 75.8302 52.278C77.0661 52.9461 78.6682 52.9875 79.6616 51.994C80.9532 50.7025 80.9664 48.5693 79.4183 47.6002C77.9217 46.6634 76.2601 46.0004 74.5106 45.6524C71.6732 45.088 68.7321 45.3777 66.0593 46.4848C63.3865 47.5919 61.102 49.4667 59.4947 51.8722C57.8874 54.2776 57.0295 57.1057 57.0295 59.9987C57.0295 62.8918 57.8874 65.7198 59.4947 68.1253C61.102 70.5307 63.3865 72.4056 66.0593 73.5127C68.7321 74.6198 71.6732 74.9095 74.5106 74.3451C76.2601 73.9971 77.9217 73.334 79.4183 72.3973Z" fill="url(#paint7_linear_27903_11609)"/>
<path d="M71.4072 66.9407C73.1872 67.3502 74.6862 65.8323 74.6862 64.0059C74.6862 62.6009 73.5241 61.4974 72.1778 61.0959C71.342 60.8466 70.5434 60.4728 69.8103 59.9829C68.367 59.0185 67.2422 57.6478 66.5779 56.0442C65.9136 54.4405 65.7398 52.6758 66.0784 50.9734C66.4171 49.2709 67.253 47.7071 68.4804 46.4797C69.7078 45.2523 71.2716 44.4164 72.974 44.0777L71.8326 38.3392C68.9951 38.9036 66.3888 40.2967 64.3431 42.3424C62.2974 44.3881 60.9043 46.9944 60.3399 49.8319C59.7755 52.6693 60.0652 55.6104 61.1723 58.2832C62.2794 60.956 64.1542 63.2406 66.5597 64.8478C68.0428 65.8388 69.6866 66.5449 71.4072 66.9407Z" fill="url(#paint8_linear_27903_11609)"/>
<path d="M69.6014 57.4182C70.5706 58.9664 72.7038 58.9531 73.9953 57.6616C74.9887 56.6682 74.9473 55.0661 74.2792 53.8301C73.8645 53.0629 73.5642 52.2339 73.3922 51.3691C73.0535 49.6667 73.2273 47.902 73.8916 46.2983C74.5559 44.6946 75.6808 43.3239 77.1241 42.3596L73.8734 37.4947C71.468 39.102 69.5931 41.3864 68.486 44.0593C67.3789 46.7321 67.0892 49.6732 67.6536 52.5106C68.0016 54.2601 68.6647 55.9217 69.6014 57.4182Z" fill="url(#paint9_linear_27903_11609)"/>
<path fill-rule="evenodd" clip-rule="evenodd" d="M267.519 47.9828C267.519 46.6552 266.441 45.5789 265.111 45.5789C263.781 45.5789 262.702 46.6498 262.702 47.9775V63.7438C262.702 68.3286 266.8 74.4212 273.837 74.4212C279.744 74.4212 284.533 69.6406 284.533 63.7438C284.533 57.8468 279.744 53.0665 273.837 53.0665C271.473 53.0665 269.289 53.8316 267.519 55.1274V47.9828ZM280.381 63.7438C280.381 67.3514 277.451 70.2762 273.837 70.2762C270.223 70.2762 267.293 67.3514 267.293 63.7438C267.293 60.1358 270.223 57.2111 273.837 57.2111C277.451 57.2111 280.381 60.1358 280.381 63.7438ZM143.41 49.6918C143.41 48.3121 144.531 47.1936 145.913 47.1935C147.295 47.1935 148.416 48.312 148.416 49.6918V71.5992C148.416 72.9788 147.295 74.0974 145.913 74.0974C144.531 74.0974 143.41 72.9788 143.41 71.5992V62.5672H129.472V71.5992C129.472 72.9788 128.352 74.0974 126.97 74.0974C125.588 74.0974 124.467 72.9788 124.467 71.5992V49.6918C124.467 48.312 125.587 47.1936 126.97 47.1935C128.352 47.1935 129.472 48.312 129.472 49.6918V58.301H143.41V49.6918ZM224.756 49.6918C224.756 48.3121 225.876 47.1936 227.258 47.1935C228.641 47.1935 229.761 48.312 229.761 49.6918V71.5992C229.761 72.9788 228.641 74.0974 227.258 74.0974C225.876 74.0974 224.756 72.9788 224.756 71.5992V62.5672H210.818V71.5992C210.818 72.9788 209.697 74.0974 208.315 74.0974C206.933 74.0974 205.813 72.9788 205.813 71.5992V49.6918C205.813 48.312 206.933 47.1936 208.315 47.1935C209.697 47.1935 210.818 48.312 210.818 49.6918V58.301H224.756V49.6918ZM246.397 70.0901C243.514 70.0901 241.177 67.7574 241.177 64.88V55.9736C241.177 54.6476 240.1 53.5727 238.772 53.5727C237.443 53.5727 236.367 54.6476 236.367 55.9736V64.4088C236.367 69.9381 240.857 74.4206 246.397 74.4206C251.936 74.4206 256.426 69.9381 256.426 64.4088V55.9736C256.426 54.6476 255.35 53.5727 254.021 53.5727C252.693 53.5727 251.616 54.6476 251.616 55.9736V64.88C251.616 67.7574 249.279 70.0901 246.397 70.0901ZM185.041 73.0192C186.761 73.916 188.763 74.3644 191.047 74.3644C192.844 74.3644 194.435 74.0826 195.822 73.5189C196.821 73.1017 197.698 72.5627 198.452 71.9019C199.014 71.41 199.086 70.5877 198.725 69.9344C198.137 68.8686 196.588 68.6073 195.512 69.1789C195.061 69.4183 194.624 69.6192 194.281 69.7524C193.357 70.1111 192.318 70.2904 191.163 70.2904C189.828 70.2904 188.647 70.0343 187.62 69.5216C186.594 69.0092 185.798 68.2789 185.233 67.3311C184.877 66.7336 184.634 66.0801 184.502 65.3709H200.634C200.66 65.1403 200.673 64.8969 200.673 64.6406C200.699 64.3845 200.711 64.1539 200.711 63.9488C200.711 61.7965 200.262 59.9261 199.364 58.3375C198.465 56.7488 197.233 55.519 195.667 54.6478C194.102 53.7766 192.318 53.341 190.316 53.341C188.262 53.341 186.427 53.7894 184.81 54.6862C183.218 55.583 181.961 56.8257 181.037 58.4143C180.138 59.9773 179.689 61.7837 179.689 63.8335C179.689 65.8578 180.151 67.6642 181.075 69.2528C182.025 70.8414 183.347 72.0968 185.041 73.0192ZM184.459 62.1809C184.564 61.411 184.784 60.7192 185.118 60.1054C185.631 59.183 186.324 58.4656 187.197 57.9531C188.095 57.4407 189.135 57.1844 190.316 57.1844C191.471 57.1844 192.485 57.4407 193.357 57.9531C194.256 58.4656 194.961 59.1702 195.475 60.067C195.838 60.7012 196.066 61.4058 196.16 62.1809H184.459ZM159.832 64.88C159.832 67.7574 162.169 70.0901 165.052 70.0901C167.934 70.0901 170.271 67.7574 170.271 64.88V55.9736C170.271 54.6476 171.348 53.5727 172.676 53.5727C174.005 53.5727 175.082 54.6476 175.082 55.9736V64.4088C175.082 69.9381 170.591 74.4206 165.052 74.4206C159.512 74.4206 155.022 69.9381 155.022 64.4088V55.9736C155.022 54.6476 156.099 53.5727 157.427 53.5727C158.756 53.5727 159.832 54.6476 159.832 55.9736V64.88ZM274.044 61.8065L273.618 60.949L273.192 61.8065C273.041 62.1099 272.689 62.2555 272.367 62.1474L271.458 61.842L271.764 62.7493C271.873 63.0703 271.727 63.4218 271.423 63.5723L270.564 63.9978L271.423 64.4234C271.727 64.5741 271.873 64.9255 271.764 65.2465L271.458 66.1538L272.367 65.8483C272.689 65.7402 273.041 65.886 273.192 66.1892L273.618 67.0467L274.044 66.1892C274.195 65.886 274.547 65.7402 274.869 65.8483L275.778 66.1538L275.472 65.2465C275.364 64.9255 275.509 64.5741 275.813 64.4234L276.672 63.9978L275.813 63.5723C275.509 63.4218 275.364 63.0703 275.472 62.7493L275.778 61.842L274.869 62.1474C274.547 62.2555 274.195 62.1099 274.044 61.8065Z" fill="url(#paint10_linear_27903_11609)"/>
<defs>
<linearGradient id="paint0_linear_27903_11609" x1="64.3432" y1="42.3424" x2="76.5555" y2="54.9935" gradientUnits="userSpaceOnUse">
<stop stop-color="#FF2295"/>
<stop offset="1" stop-color="#FF7A1F"/>
</linearGradient>
<linearGradient id="paint1_linear_27903_11609" x1="82" y1="35.0295" x2="82.0261" y2="52.0396" gradientUnits="userSpaceOnUse">
<stop stop-color="#FA1F1F"/>
<stop offset="1" stop-color="#FF7A1F"/>
</linearGradient>
<linearGradient id="paint2_linear_27903_11609" x1="99.6569" y1="42.3431" x2="86.3852" y2="54.965" gradientUnits="userSpaceOnUse">
<stop stop-color="#FAA714"/>
<stop offset="1" stop-color="#FF7A1F"/>
</linearGradient>
<linearGradient id="paint3_linear_27903_11609" x1="106.97" y1="60.0013" x2="90.6269" y2="60.0274" gradientUnits="userSpaceOnUse">
<stop stop-color="#FFE601"/>
<stop offset="1" stop-color="#FF7A1F"/>
</linearGradient>
<linearGradient id="paint4_linear_27903_11609" x1="99.6568" y1="77.6576" x2="84.94" y2="65.124" gradientUnits="userSpaceOnUse">
<stop stop-color="#99E200"/>
<stop offset="1" stop-color="#FF7A1F"/>
</linearGradient>
<linearGradient id="paint5_linear_27903_11609" x1="82" y1="84.9705" x2="80.5926" y2="65.643" gradientUnits="userSpaceOnUse">
<stop stop-color="#15DEDD"/>
<stop offset="1" stop-color="#FF7A1F"/>
</linearGradient>
<linearGradient id="paint6_linear_27903_11609" x1="64.3431" y1="77.6567" x2="77.1876" y2="64.8123" gradientUnits="userSpaceOnUse">
<stop stop-color="#0E5AE9"/>
<stop offset="1" stop-color="#FF7A1F"/>
</linearGradient>
<linearGradient id="paint7_linear_27903_11609" x1="57.0295" y1="59.9987" x2="77.1114" y2="59.9987" gradientUnits="userSpaceOnUse">
<stop stop-color="#AA12EA"/>
<stop offset="1" stop-color="#FF7A1F"/>
</linearGradient>
<linearGradient id="paint8_linear_27903_11609" x1="64.3428" y1="42.332" x2="76.1226" y2="55.3747" gradientUnits="userSpaceOnUse">
<stop stop-color="#FF2295"/>
<stop offset="1" stop-color="#FF7A1F"/>
</linearGradient>
<linearGradient id="paint9_linear_27903_11609" x1="82.0166" y1="35.024" x2="82.0557" y2="52.0199" gradientUnits="userSpaceOnUse">
<stop stop-color="#FA1F1F"/>
<stop offset="1" stop-color="#FF7A1F"/>
</linearGradient>
<linearGradient id="paint10_linear_27903_11609" x1="124.467" y1="60" x2="284.533" y2="60" gradientUnits="userSpaceOnUse">
<stop stop-color="#FF6955"/>
<stop offset="0.2" stop-color="#F8E116"/>
<stop offset="0.4" stop-color="#18D737"/>
<stop offset="0.61" stop-color="#3FE2E3"/>
<stop offset="0.815" stop-color="#7298E2"/>
<stop offset="1" stop-color="#C36DE1"/>
</linearGradient>
</defs>
</svg>
