<svg width="342" height="120" viewBox="0 0 342 120" fill="none" xmlns="http://www.w3.org/2000/svg">
<rect width="342" height="120" fill="url(#paint0_linear_25851_1891)"/>
<mask id="mask0_25851_1891" style="mask-type:luminance" maskUnits="userSpaceOnUse" x="101" y="35" width="140" height="50">
<path d="M240.246 35.4207H101.001V84.5342H240.246V35.4207Z" fill="white"/>
</mask>
<g mask="url(#mask0_25851_1891)">
<path d="M123.117 70.4963C132.771 70.4963 140.672 62.6087 140.672 52.9575C140.672 48.928 139.445 45.4129 137.163 42.4367C139.273 40.8567 140.672 38.2234 140.672 35.4187H123.117C113.463 35.4187 105.563 43.3063 105.563 52.9575C105.563 62.6087 113.463 70.4963 123.117 70.4963ZM123.117 43.49C128.38 43.49 132.6 47.7032 132.6 52.9575C132.6 58.2241 128.392 62.4251 123.117 62.4251C117.842 62.4251 113.635 58.2241 113.635 52.9575C113.635 47.691 117.855 43.49 123.117 43.49Z" fill="#00DF9B"/>
<path d="M145.59 75.2348C144.535 72.6015 142.425 70.6786 139.616 69.7969C135.053 74.1816 129.091 76.4596 123.301 76.4596C117.326 76.4596 111.536 74.1816 106.973 69.7969C104.164 70.6786 102.054 72.6015 100.999 75.2348C106.973 81.371 115.045 84.531 123.117 84.531C131.201 84.531 139.273 81.371 145.59 75.2348Z" fill="#2471FE"/>
<path d="M238.979 41.7034H233.593C232.894 41.7034 232.33 42.2668 232.33 42.9649V49.0153C230.772 48.3539 229.067 47.9865 227.263 47.9865C220.111 47.9865 214.285 53.7919 214.285 60.9447V62.7329C214.285 69.8733 220.099 75.691 227.263 75.691C229.067 75.691 230.784 75.3235 232.354 74.6499C232.465 75.2379 232.98 75.691 233.593 75.691H238.979C239.678 75.691 240.242 75.1276 240.242 74.4294V42.9771C240.242 42.279 239.678 41.7034 238.979 41.7034ZM227.263 67.7911C224.466 67.7911 222.197 65.5252 222.197 62.7329V60.9447C222.197 58.1521 224.466 55.8862 227.263 55.8862C230.06 55.8862 232.33 58.1521 232.33 60.9447V62.7329C232.33 65.5252 230.06 67.7911 227.263 67.7911Z" fill="#121314"/>
<path d="M207.992 75.6811H202.607C201.908 75.6811 201.344 75.1177 201.344 74.4195V53.7208C201.344 53.0226 201.908 52.4592 202.607 52.4592H207.992C208.692 52.4592 209.256 53.0226 209.256 53.7208V74.4318C209.256 75.1177 208.692 75.6811 207.992 75.6811Z" fill="#121314"/>
<path d="M182.07 41.7034H176.685C175.985 41.7034 175.421 42.2668 175.421 42.9649V49.0153C173.863 48.3539 172.158 47.9865 170.355 47.9865C163.203 47.9865 157.376 53.7919 157.376 60.9447V62.7329C157.376 69.8733 163.191 75.691 170.355 75.691C172.158 75.691 173.875 75.3235 175.446 74.6499C175.556 75.2379 176.071 75.691 176.685 75.691H182.07C182.769 75.691 183.333 75.1276 183.333 74.4294V62.7329V60.9447V42.9771C183.333 42.279 182.769 41.7034 182.07 41.7034ZM170.355 67.7911C167.558 67.7911 165.288 65.5252 165.288 62.7329V60.9447C165.288 58.1521 167.558 55.8862 170.355 55.8862C173.152 55.8862 175.421 58.1521 175.421 60.9447V62.7329C175.421 65.5252 173.152 67.7911 170.355 67.7911Z" fill="#121314"/>
<path d="M195.039 75.6787H189.653C188.954 75.6787 188.39 75.1153 188.39 74.4171V69.0404C188.39 68.3423 188.954 67.7788 189.653 67.7788H195.039C195.738 67.7788 196.302 68.3423 196.302 69.0404V74.4171C196.302 75.1153 195.738 75.6787 195.039 75.6787Z" fill="#121314"/>
<path d="M207.993 49.6039H202.608C201.909 49.6039 201.344 49.0405 201.344 48.3424V42.9778C201.344 42.2797 201.909 41.7163 202.608 41.7163H207.993C208.692 41.7163 209.257 42.2797 209.257 42.9778V48.3546C209.257 49.0405 208.692 49.6039 207.993 49.6039Z" fill="#121314"/>
</g>
<defs>
<linearGradient id="paint0_linear_25851_1891" x1="171" y1="0" x2="171" y2="120" gradientUnits="userSpaceOnUse">
<stop stop-color="#999999"/>
<stop offset="0.0001" stop-color="white"/>
<stop offset="1" stop-color="#98EEFD"/>
</linearGradient>
</defs>
</svg>
