<svg width="342" height="120" viewBox="0 0 342 120" fill="none" xmlns="http://www.w3.org/2000/svg">
<rect width="342" height="120" fill="#F6F6F6"/>
<path d="M151.517 73.9637C149.058 73.9637 146.799 73.3829 144.742 72.2212C142.684 71.0592 141.053 69.4554 139.848 67.4096C138.644 65.3383 138.041 63.0021 138.041 60.4004C138.041 57.8242 138.644 55.5133 139.848 53.4671C141.053 51.3962 142.684 49.7796 144.742 48.6179C146.799 47.4558 149.058 46.875 151.517 46.875C154.002 46.875 156.26 47.4558 158.293 48.6179C160.35 49.7796 161.969 51.3962 163.149 53.4671C164.353 55.5133 164.955 57.8242 164.955 60.4004C164.955 63.0021 164.353 65.3383 163.149 67.4096C161.969 69.4554 160.35 71.0592 158.293 72.2212C156.235 73.3829 153.977 73.9637 151.517 73.9637ZM151.517 69.2279C153.098 69.2279 154.491 68.8746 155.696 68.1671C156.9 67.435 157.841 66.3992 158.518 65.0604C159.196 63.7221 159.535 62.1687 159.535 60.4004C159.535 58.6325 159.196 57.0917 158.518 55.7783C157.841 54.4396 156.9 53.4167 155.696 52.7096C154.491 52.0025 153.098 51.6488 151.517 51.6488C149.936 51.6488 148.531 52.0025 147.301 52.7096C146.097 53.4167 145.155 54.4396 144.478 55.7783C143.8 57.0917 143.462 58.6325 143.462 60.4004C143.462 62.1687 143.8 63.7221 144.478 65.0604C145.155 66.3992 146.097 67.435 147.301 68.1671C148.531 68.8746 149.936 69.2279 151.517 69.2279Z" fill="black"/>
<path d="M178.55 52.4062C181.035 52.4062 183.042 53.2021 184.573 54.7933C186.104 56.3592 186.869 58.5567 186.869 61.3854V73.6988H181.599V62.1054C181.599 60.4383 181.185 59.1629 180.357 58.2788C179.529 57.3696 178.4 56.915 176.969 56.915C175.514 56.915 174.359 57.3696 173.506 58.2788C172.678 59.1629 172.264 60.4383 172.264 62.1054V73.6988H166.994V52.7096H172.264V55.3237C172.967 54.4146 173.857 53.7071 174.937 53.2021C176.041 52.6717 177.245 52.4062 178.55 52.4062Z" fill="black"/>
<path d="M209.76 62.7496C209.76 63.5071 209.71 64.1892 209.61 64.7954H194.365C194.49 66.3108 195.017 67.4979 195.946 68.3567C196.874 69.2154 198.016 69.645 199.371 69.645C201.329 69.645 202.721 68.7987 203.55 67.1062H209.234C208.631 69.1271 207.477 70.7942 205.77 72.1075C204.064 73.3954 201.968 74.0396 199.484 74.0396C197.477 74.0396 195.67 73.5975 194.064 72.7137C192.483 71.8046 191.241 70.5287 190.337 68.8871C189.459 67.2454 189.02 65.3508 189.02 63.2042C189.02 61.0321 189.459 59.125 190.337 57.4833C191.215 55.8417 192.445 54.5787 194.026 53.6946C195.607 52.8104 197.426 52.3687 199.484 52.3687C201.467 52.3687 203.236 52.7979 204.792 53.6567C206.373 54.5154 207.59 55.7404 208.443 57.3317C209.321 58.8975 209.76 60.7037 209.76 62.7496ZM204.302 61.2342C204.277 59.87 203.788 58.7842 202.834 57.9758C201.881 57.1421 200.714 56.7254 199.334 56.7254C198.028 56.7254 196.924 57.1296 196.021 57.9379C195.143 58.7208 194.603 59.8196 194.402 61.2342H204.302Z" fill="black"/>
<path d="M227.309 73.6988L217.748 61.9158V73.6988H212.478V47.2538H217.748V59.1125L227.309 47.2538H233.671L222.829 60.3625L233.971 73.6988H227.309Z" fill="black"/>
<path d="M252.683 62.7496C252.683 63.5071 252.633 64.1892 252.532 64.7954H237.287C237.413 66.3108 237.94 67.4979 238.868 68.3567C239.797 69.2154 240.938 69.645 242.293 69.645C244.251 69.645 245.644 68.7987 246.472 67.1062H252.156C251.554 69.1271 250.399 70.7942 248.693 72.1075C246.986 73.3954 244.891 74.0396 242.406 74.0396C240.399 74.0396 238.592 73.5975 236.986 72.7137C235.405 71.8046 234.163 70.5287 233.259 68.8871C232.381 67.2454 231.942 65.3508 231.942 63.2042C231.942 61.0321 232.381 59.125 233.259 57.4833C234.138 55.8417 235.367 54.5787 236.948 53.6946C238.529 52.8104 240.349 52.3687 242.406 52.3687C244.389 52.3687 246.158 52.7979 247.714 53.6567C249.295 54.5154 250.512 55.7404 251.366 57.3317C252.244 58.8975 252.683 60.7037 252.683 62.7496ZM247.225 61.2342C247.2 59.87 246.71 58.7842 245.757 57.9758C244.803 57.1421 243.636 56.7254 242.256 56.7254C240.951 56.7254 239.847 57.1296 238.943 57.9379C238.065 58.7208 237.526 59.8196 237.325 61.2342H247.225Z" fill="black"/>
<path d="M274.598 52.7096L261.687 83.625H256.078L260.595 73.1683L252.239 52.7096H258.148L263.531 67.3717L268.989 52.7096H274.598Z" fill="black"/>
<path d="M128.037 60C128.037 80.7108 118.744 90 98.0248 90C77.3056 90 68.0125 80.7108 68.0125 60C68.0125 39.2893 77.3056 30 98.0248 30C118.744 30 128.037 39.2893 128.037 60Z" fill="#44D62C"/>
<path d="M100.736 42.7213H92.3871L90.9224 47.1483H95.5597V56.4742H100.736V42.7213Z" fill="black"/>
<path fill-rule="evenodd" clip-rule="evenodd" d="M107.547 67.7608C107.547 73.0175 103.284 77.2787 98.0248 77.2787C92.7659 77.2787 88.5029 73.0175 88.5029 67.7608C88.5029 62.5042 92.7659 58.2429 98.0248 58.2429C103.284 58.2429 107.547 62.5042 107.547 67.7608ZM103.224 67.7608C103.224 70.6313 100.896 72.9579 98.0248 72.9579C95.1536 72.9579 92.826 70.6313 92.826 67.7608C92.826 64.8908 95.1536 62.5638 98.0248 62.5638C100.896 62.5638 103.224 64.8908 103.224 67.7608Z" fill="black"/>
</svg>
