<svg width="342" height="120" viewBox="0 0 342 120" fill="none" xmlns="http://www.w3.org/2000/svg">
<rect width="342" height="120" fill="white"/>
<g clip-path="url(#clip0_25851_2154)">
<path d="M234.404 86.2217V89.9991H260.329V72.9632H256.552V86.2217H234.404ZM234.404 30V33.7774H256.552V47.0368H260.329V30H234.404ZM221.034 59.2224V50.4449H226.96C229.849 50.4449 230.887 51.4076 230.887 54.0376V55.5929C230.887 58.2964 229.886 59.2224 226.96 59.2224H221.034ZM230.441 60.7776C233.145 60.074 235.033 57.5551 235.033 54.5558C235.033 52.6671 234.293 50.963 232.886 49.5924C231.108 47.8884 228.737 47.0368 225.663 47.0368H217.33V72.9623H221.034V62.6296H226.59C229.442 62.6296 230.59 63.8146 230.59 66.7781V72.9632H234.367V67.3706C234.367 63.2965 233.405 61.7412 230.441 61.2966V60.7776ZM199.257 61.6292H210.665V58.222H199.257V50.444H211.776V47.0368H195.479V72.9623H212.331V69.5551H199.257V61.6292ZM186.85 62.9998V64.7773C186.85 68.518 185.479 69.7406 182.035 69.7406H181.22C177.775 69.7406 176.109 68.6291 176.109 63.4811V56.518C176.109 51.3332 177.85 50.2585 181.294 50.2585H182.034C185.405 50.2585 186.478 51.5179 186.515 54.9995H190.589C190.219 49.8883 186.812 46.6666 181.701 46.6666C179.219 46.6666 177.145 47.4447 175.59 48.9255C173.257 51.1109 171.96 54.8148 171.96 59.9996C171.96 64.9996 173.072 68.7035 175.368 70.9992C176.923 72.5177 179.072 73.3325 181.183 73.3325C183.405 73.3325 185.442 72.4433 186.478 70.5178H186.997V72.9623H190.404V59.5926H180.367V62.9998H186.85ZM154.184 50.444H158.221C162.037 50.444 164.111 51.4067 164.111 56.5924V63.4067C164.111 68.5915 162.037 69.5551 158.221 69.5551H154.184V50.444ZM158.554 72.9632C165.628 72.9632 168.257 67.5929 168.257 60.0004C168.257 52.2969 165.443 47.0377 158.48 47.0377H150.479V72.9632H158.554ZM132.592 61.6292H143.999V58.222H132.592V50.444H145.11V47.0368H128.814V72.9623H145.666V69.5551H132.592V61.6292ZM110.74 47.0368H106.963V72.9623H124V69.5551H110.74V47.0368ZM81 72.9632V90H106.925V86.2217H84.7774V72.9632H81ZM81 30V47.0368H84.7774V33.7774H106.925V30L81 30Z" fill="black"/>
</g>
<defs>
<clipPath id="clip0_25851_2154">
<rect width="179.33" height="60" fill="white" transform="translate(81 30)"/>
</clipPath>
</defs>
</svg>
