<svg xmlns="http://www.w3.org/2000/svg" width="342" height="120" viewBox="0 0 342 120" xmlns:bx="https://boxy-svg.com">
  <defs>
  </defs>
  <rect width="342" height="120" fill="black" style=""></rect>
  <path d="M 205.735 96.801 C 205.484 96.801 205.262 96.712 205.071 96.536 C 204.894 96.358 204.805 96.145 204.805 95.894 L 204.805 82.659 C 204.805 81.627 205.395 81.11 206.576 81.11 L 206.576 95.23 L 213.657 95.23 C 214.13 95.23 214.484 95.37 214.72 95.651 C 214.971 95.916 215.096 96.3 215.096 96.801 L 205.735 96.801 Z" fill="white" style=""></path>
  <path d="M 190.556 97 C 190.187 96.897 189.892 96.72 189.671 96.469 C 189.464 96.204 189.361 95.894 189.361 95.54 C 189.361 95.348 189.413 95.112 189.516 94.831 L 194.894 81.664 C 195.041 81.295 195.329 81.11 195.757 81.11 C 196.156 81.11 196.436 81.295 196.598 81.664 L 201.954 94.831 C 202.057 95.053 202.109 95.289 202.109 95.54 C 202.109 95.879 202.005 96.182 201.799 96.447 C 201.592 96.712 201.304 96.897 200.936 97 L 199.032 92.22 L 192.482 92.22 L 190.556 97 Z M 198.457 90.671 L 195.447 83.036 L 195.315 83.08 L 195.646 83.965 L 193.035 90.671 L 198.457 90.671 Z" fill="white" style=""></path>
  <path d="M 177.314 96.801 C 177.063 96.801 176.849 96.72 176.672 96.558 C 176.495 96.396 176.407 96.196 176.407 95.96 L 176.407 82.151 C 176.407 81.914 176.495 81.715 176.672 81.553 C 176.849 81.391 177.063 81.31 177.314 81.31 L 183.555 81.31 C 184.78 81.31 185.753 81.693 186.476 82.46 C 187.214 83.213 187.583 84.231 187.583 85.514 C 187.583 86.223 187.391 86.894 187.007 87.528 C 186.624 88.148 186.137 88.598 185.547 88.878 L 185.547 88.923 C 186.402 89.173 187.059 89.609 187.517 90.228 C 187.988 90.833 188.225 91.586 188.225 92.486 C 188.225 93.327 188.048 94.079 187.693 94.743 C 187.354 95.392 186.875 95.901 186.255 96.27 C 185.636 96.624 184.927 96.801 184.13 96.801 L 177.314 96.801 Z M 183.511 88.281 C 184.16 88.281 184.713 88.015 185.171 87.484 C 185.643 86.953 185.879 86.304 185.879 85.537 C 185.879 84.681 185.665 84.017 185.237 83.545 C 184.824 83.073 184.248 82.837 183.511 82.837 L 178.155 82.837 L 178.155 88.281 L 183.511 88.281 Z M 183.953 95.274 C 184.765 95.274 185.392 95.031 185.835 94.544 C 186.292 94.057 186.521 93.379 186.521 92.508 C 186.521 91.652 186.292 90.988 185.835 90.516 C 185.392 90.044 184.765 89.808 183.953 89.808 L 178.155 89.808 L 178.155 95.274 L 183.953 95.274 Z" fill="white" style=""></path>
  <path d="M 167.402 97 C 166.178 97 165.086 96.757 164.127 96.27 C 163.183 95.783 162.438 95.119 161.892 94.278 C 161.361 93.422 161.095 92.471 161.095 91.424 L 161.095 86.643 C 161.095 85.596 161.361 84.651 161.892 83.81 C 162.423 82.97 163.161 82.313 164.105 81.841 C 165.064 81.354 166.163 81.11 167.402 81.11 C 168.642 81.11 169.741 81.354 170.7 81.841 C 171.659 82.313 172.404 82.97 172.935 83.81 C 173.466 84.637 173.732 85.581 173.732 86.643 L 173.732 91.424 C 173.732 92.485 173.466 93.437 172.935 94.278 C 172.404 95.119 171.652 95.783 170.678 96.27 C 169.719 96.757 168.627 97 167.402 97 Z M 167.402 95.451 C 168.863 95.451 169.992 95.09 170.788 94.367 C 171.6 93.629 172.006 92.641 172.006 91.401 L 172.006 86.665 C 172.006 85.441 171.607 84.467 170.81 83.744 C 170.014 83.021 168.878 82.659 167.402 82.659 C 165.957 82.659 164.828 83.021 164.016 83.744 C 163.22 84.467 162.821 85.441 162.821 86.665 L 162.821 91.401 C 162.821 92.641 163.22 93.629 164.016 94.367 C 164.828 95.09 165.957 95.451 167.402 95.451 Z" fill="white" style=""></path>
  <path d="M 151.38 96.801 C 151.129 96.801 150.908 96.712 150.716 96.536 C 150.539 96.358 150.45 96.145 150.45 95.894 L 150.45 82.659 C 150.45 81.627 151.041 81.11 152.221 81.11 L 152.221 95.23 L 159.303 95.23 C 159.775 95.23 160.129 95.37 160.365 95.651 C 160.616 95.916 160.741 96.3 160.741 96.801 L 151.38 96.801 Z" fill="white" style=""></path>
  <path d="M 141.257 97 C 140.033 97 138.934 96.779 137.96 96.337 C 137 95.879 136.255 95.245 135.724 94.433 C 135.193 93.622 134.928 92.7 134.928 91.667 L 134.928 86.4 C 134.928 85.367 135.193 84.452 135.724 83.656 C 136.255 82.859 136.993 82.239 137.937 81.797 C 138.882 81.339 139.959 81.11 141.169 81.11 C 142.379 81.11 143.456 81.31 144.4 81.708 C 145.344 82.092 146.082 82.63 146.613 83.324 C 147.144 84.017 147.409 84.806 147.409 85.691 C 147.409 86.09 147.277 86.407 147.011 86.643 C 146.746 86.864 146.399 86.975 145.971 86.975 C 145.838 86.975 145.735 86.968 145.661 86.953 C 145.691 86.806 145.706 86.555 145.706 86.2 C 145.706 85.507 145.514 84.895 145.13 84.364 C 144.746 83.818 144.208 83.397 143.515 83.102 C 142.836 82.807 142.054 82.659 141.169 82.659 C 140.298 82.659 139.524 82.822 138.845 83.146 C 138.166 83.456 137.635 83.899 137.251 84.474 C 136.883 85.035 136.698 85.677 136.698 86.4 L 136.698 91.667 C 136.698 92.405 136.89 93.061 137.274 93.637 C 137.657 94.212 138.196 94.662 138.889 94.986 C 139.583 95.297 140.372 95.451 141.257 95.451 C 142.128 95.451 142.902 95.304 143.581 95.009 C 144.274 94.699 144.813 94.271 145.196 93.725 C 145.58 93.179 145.772 92.56 145.772 91.866 L 145.772 90.427 L 142.651 90.427 C 142.238 90.427 141.906 90.288 141.655 90.007 C 141.405 89.727 141.279 89.365 141.279 88.923 L 146.679 88.923 C 146.93 88.923 147.129 89.004 147.277 89.166 C 147.439 89.314 147.52 89.513 147.52 89.764 L 147.52 91.866 C 147.52 92.869 147.255 93.762 146.723 94.544 C 146.192 95.311 145.454 95.916 144.51 96.358 C 143.566 96.786 142.482 97 141.257 97 Z" fill="white" style=""></path>
  <path fill-rule="evenodd" clip-rule="evenodd" d="M 238.561 30.251 C 238.561 32.925 240.728 35.092 243.402 35.092 L 261.959 35.092 C 262.405 35.092 262.766 35.454 262.766 35.899 L 262.766 54.313 L 262.766 54.457 L 262.768 54.457 C 262.845 57.064 264.982 59.154 267.607 59.154 C 270.233 59.154 272.37 57.064 272.447 54.457 L 272.449 54.457 L 272.449 54.313 L 272.449 35.092 L 272.449 28.637 C 272.449 26.855 271.004 25.41 269.221 25.41 L 262.766 25.41 L 243.402 25.41 C 240.728 25.41 238.561 27.577 238.561 30.251 Z" fill="white" style=""></path>
  <path fill-rule="evenodd" clip-rule="evenodd" d="M 262.766 63.995 C 262.766 61.321 260.599 59.153 257.925 59.153 L 239.368 59.153 C 238.922 59.153 238.561 58.792 238.561 58.347 L 238.561 39.933 L 238.561 39.789 L 238.559 39.789 C 238.482 37.182 236.345 35.092 233.719 35.092 C 231.094 35.092 228.957 37.182 228.881 39.789 L 228.878 39.789 L 228.878 39.933 L 228.878 59.153 L 228.878 65.609 C 228.878 67.391 230.323 68.836 232.106 68.836 L 238.561 68.836 L 257.925 68.836 C 260.599 68.836 262.766 66.669 262.766 63.995 Z" fill="white" style=""></path>
  <path fill-rule="evenodd" clip-rule="evenodd" d="M 178.43 67.373 C 180.321 69.264 183.386 69.264 185.277 67.373 L 198.399 54.251 C 198.714 53.936 199.225 53.936 199.54 54.251 L 212.56 67.271 L 212.662 67.373 L 212.664 67.372 C 214.561 69.161 217.55 69.128 219.407 67.271 C 221.263 65.415 221.296 62.426 219.507 60.528 L 219.508 60.527 L 219.407 60.425 L 205.816 46.834 L 201.252 42.27 C 199.991 41.01 197.948 41.01 196.687 42.27 L 192.123 46.834 L 178.43 60.527 C 176.539 62.417 176.539 65.483 178.43 67.373 Z" fill="#FF7201" style=""></path>
  <path fill-rule="evenodd" clip-rule="evenodd" d="M 178.379 26.536 C 180.27 24.645 183.335 24.645 185.226 26.536 L 198.348 39.658 C 198.663 39.973 199.174 39.973 199.489 39.658 L 212.509 26.638 L 212.611 26.536 L 212.613 26.537 C 214.51 24.748 217.499 24.781 219.356 26.638 C 221.212 28.494 221.246 31.483 219.456 33.381 L 219.458 33.382 L 219.356 33.484 L 205.765 47.075 L 201.2 51.639 C 199.94 52.9 197.897 52.9 196.636 51.639 L 192.072 47.075 L 178.379 33.382 C 176.488 31.492 176.488 28.426 178.379 26.536 Z" fill="#FF7201" style=""></path>
  <path fill-rule="evenodd" clip-rule="evenodd" d="M 126.645 30.061 C 126.645 32.735 128.813 34.902 131.487 34.902 L 143.128 34.902 C 143.574 34.902 143.935 35.263 143.935 35.709 L 143.933 63.969 L 143.933 64.114 L 143.935 64.114 C 144.012 66.721 146.148 68.811 148.774 68.811 C 151.4 68.811 153.537 66.721 153.613 64.114 L 153.615 64.114 L 153.615 63.969 L 153.617 34.902 L 153.617 28.448 C 153.617 26.665 152.173 25.22 150.39 25.22 L 143.935 25.22 L 131.487 25.22 C 128.813 25.22 126.645 27.388 126.645 30.061 Z" fill="#FF7201" style=""></path>
  <path d="M 164.066 25.22 C 166.74 25.22 168.907 27.388 168.907 30.061 C 168.907 32.735 166.74 34.902 164.066 34.902 C 161.392 34.902 159.225 32.735 159.225 30.061 C 159.225 27.388 161.392 25.22 164.066 25.22 Z" fill="#FF7201" style=""></path>
  <path fill-rule="evenodd" clip-rule="evenodd" d="M 120.597 30.032 L 120.597 30.036 L 120.597 30.039 L 120.596 54.287 L 120.596 54.431 L 120.594 54.431 C 120.518 57.038 118.38 59.128 115.755 59.128 C 113.129 59.128 110.992 57.038 110.916 54.431 L 110.914 54.431 L 110.914 54.289 L 110.914 54.287 L 110.914 54.286 L 110.915 30.036 L 110.915 29.889 L 110.916 29.889 C 110.994 27.283 113.131 25.194 115.756 25.194 C 118.38 25.194 120.517 27.283 120.594 29.889 L 120.597 29.889 L 120.597 30.032 Z" fill="white" style=""></path>
  <path fill-rule="evenodd" clip-rule="evenodd" d="M 110.914 63.969 C 110.914 61.296 108.746 59.128 106.073 59.128 L 87.515 59.128 C 87.069 59.128 86.708 58.767 86.708 58.321 L 86.708 30.226 L 86.708 30.081 L 86.706 30.081 C 86.63 27.475 84.493 25.385 81.867 25.385 C 79.242 25.385 77.104 27.475 77.028 30.081 L 77.026 30.081 L 77.026 30.226 L 77.026 59.128 L 77.026 65.583 C 77.026 67.366 78.471 68.811 80.254 68.811 L 86.708 68.811 L 106.073 68.811 C 108.746 68.811 110.914 66.643 110.914 63.969 Z" fill="white" style=""></path>
</svg>