<svg width="342" height="120" viewBox="0 0 342 120" fill="none" xmlns="http://www.w3.org/2000/svg">
<rect width="342" height="120" fill="black"/>
<path fill-rule="evenodd" clip-rule="evenodd" d="M84.6175 32H62.0012V52.5183H73.6085V43.5509H86.898C92.1342 43.5771 97.1489 45.3072 100.853 48.3676C104.587 51.451 106.685 55.634 106.685 59.9954C106.685 64.3568 104.587 68.5398 100.853 71.6232C97.1197 74.7067 92.0573 76.4398 86.7766 76.4398V76.4275H73.6085V67.4817H62.0012V87.9523H84.413V87.9739C93.3983 87.9739 102.015 85.0242 108.369 79.7755C114.723 74.5283 118.292 67.4095 118.292 59.9862C118.292 52.5644 114.723 45.4456 108.369 40.1968C102.064 34.9881 93.529 32.0446 84.6175 32Z" fill="white"/>
<path d="M124.879 75.3364V41.6755L140.669 41.8539L142.379 42.4076C144.215 42.9366 145.747 43.7532 146.974 44.8559C148.807 46.406 150.049 48.4668 150.701 51.0381C150.948 52.1008 151.101 53.4372 151.163 55.0489C151.224 56.6605 151.255 57.8539 151.255 58.629C151.255 60.0977 151.194 61.4433 151.071 62.6644C150.746 65.7693 150.074 68.1884 149.053 69.9231C148.032 71.6548 146.44 72.9896 144.28 73.9277C143.013 74.5029 141.358 74.892 139.316 75.0965C137.277 75.298 134.299 75.3979 130.384 75.3979L124.879 75.3364ZM140.73 50.9151C140.238 50.629 138.993 50.4845 136.997 50.4845H134.056V66.0969L136.874 65.9739C138.218 65.9339 139.073 65.8816 139.439 65.8201C139.808 65.7586 140.197 65.6263 140.607 65.4202C141.218 65.0558 141.647 64.6067 141.893 64.0731C142.134 63.6271 142.276 63.1288 142.317 62.5783C142.357 62.0246 142.379 60.4622 142.379 57.8908C142.379 55.2826 142.357 53.714 142.317 53.185C142.276 52.6529 142.134 52.2222 141.893 51.8931C141.647 51.4871 141.259 51.1611 140.73 50.9151Z" fill="white"/>
<path d="M163.252 41.1834C163.821 41.0204 164.36 40.9174 164.869 40.8759C165.381 40.8359 165.964 40.8143 166.616 40.8143C167.308 40.8143 168.166 40.8359 169.188 40.8759C172.288 40.9174 174.204 41.0404 174.939 41.2449C176.288 41.6509 177.542 42.2938 178.703 43.1704C179.867 44.0485 180.735 45.0389 181.305 46.1415C181.957 47.3641 182.416 49.0066 182.683 51.0689C182.949 53.1281 183.083 55.6486 183.083 58.629C183.083 63.0335 182.846 66.1954 182.376 68.1146C181.908 70.0339 181.019 71.6871 179.712 73.0727C178.367 74.3768 176.655 75.2749 174.576 75.7671C173.678 76.0085 171.717 76.13 168.695 76.13C165.677 76.13 163.759 76.0285 162.944 75.8286C160.29 75.2134 158.291 73.5817 156.947 70.932C156.295 69.6648 155.907 68.5022 155.784 67.4441C155.661 66.383 155.6 63.3626 155.6 58.383C155.6 54.0569 155.661 51.2319 155.784 49.9062C155.907 48.5775 156.253 47.3641 156.824 46.2646C158.172 43.6117 160.314 41.9185 163.252 41.1834ZM165.146 66.7059H173.352V50.792L169.495 50.7305C166.882 50.7305 165.474 50.7721 165.269 50.8536C165.186 50.9366 165.146 52.3653 165.146 55.1411C165.146 56.0762 165.146 57.1573 165.146 58.383V66.7059Z" fill="white"/>
<path d="M188.225 42.0385C188.262 41.8755 189.932 41.7924 193.238 41.7924C193.893 41.7924 195.608 41.8032 198.381 41.8232C201.156 41.8447 203.135 41.937 204.317 42.1C207.786 42.6752 210.112 43.8378 211.298 45.5879C212.032 46.569 212.488 47.5594 212.67 48.559C212.854 49.5602 212.947 50.386 212.947 51.0381C212.947 51.6502 212.885 52.2607 212.762 52.8712C212.561 53.6094 212.338 54.243 212.092 54.772C211.886 55.1381 211.558 55.6071 211.107 56.1807C210.66 56.7513 210.212 57.1803 209.766 57.4664L208.973 58.0754L209.889 58.629C211.317 59.5271 212.295 60.6698 212.824 62.0554C213.356 63.4426 213.623 64.6667 213.623 65.7278C213.623 66.749 213.459 67.8501 213.131 69.0312C212.438 71.398 211.172 73.1127 209.336 74.1738C207.503 75.2365 204.341 75.767 199.851 75.767H188.225L188.164 58.8751C188.164 47.8147 188.184 42.203 188.225 42.0385ZM204.077 50.183L203.954 49.6909H197.71V51.8316L197.772 53.9785H199.543C201.052 53.9785 202.153 53.794 202.846 53.4249C203.543 53.0558 203.954 52.4637 204.077 51.6471C204.154 51.3641 204.193 51.0996 204.193 50.8535C204.193 50.6075 204.154 50.3845 204.077 50.183ZM203.646 62.6644C203.157 62.546 202.067 62.486 200.374 62.486C198.679 62.486 197.812 62.546 197.772 62.6644C197.73 62.7874 197.71 63.1365 197.71 63.7101C197.71 63.9931 197.71 64.3191 197.71 64.6882L197.772 66.8289H200.521C202.034 66.8289 203.025 66.7367 203.492 66.5521C203.96 66.3676 204.317 65.8678 204.563 65.0512C204.603 64.8097 204.624 64.5867 204.624 64.3807C204.624 64.0946 204.572 63.7886 204.47 63.4641C204.367 63.1365 204.092 62.8705 203.646 62.6644Z" fill="white"/>
<path d="M218.46 42.0385C218.497 41.8755 220.167 41.7924 223.473 41.7924C224.128 41.7924 225.843 41.8032 228.615 41.8232C231.391 41.8447 233.37 41.937 234.551 42.1C238.02 42.6752 240.347 43.8378 241.533 45.5879C242.266 46.569 242.723 47.5594 242.904 48.559C243.089 49.5602 243.181 50.386 243.181 51.0381C243.181 51.6502 243.12 52.2607 242.997 52.8712C242.795 53.6094 242.572 54.243 242.326 54.772C242.12 55.1381 241.793 55.6071 241.342 56.1807C240.895 56.7513 240.447 57.1803 240.001 57.4664L239.208 58.0754L240.124 58.629C241.551 59.5271 242.529 60.6698 243.058 62.0554C243.59 63.4426 243.858 64.6667 243.858 65.7278C243.858 66.749 243.693 67.8501 243.366 69.0312C242.672 71.398 241.407 73.1127 239.57 74.1738C237.737 75.2365 234.576 75.767 230.085 75.767H218.46L218.398 58.8751C218.398 47.8147 218.418 42.203 218.46 42.0385ZM234.311 50.183L234.188 49.6909H227.945V51.8316L228.006 53.9785H229.778C231.286 53.9785 232.387 53.794 233.081 53.4249C233.778 53.0558 234.188 52.4637 234.311 51.6471C234.388 51.3641 234.428 51.0996 234.428 50.8535C234.428 50.6075 234.388 50.3845 234.311 50.183ZM233.881 62.6644C233.392 62.546 232.301 62.486 230.608 62.486C228.914 62.486 228.046 62.546 228.006 62.6644C227.965 62.7874 227.945 63.1365 227.945 63.7101C227.945 63.9931 227.945 64.3191 227.945 64.6882L228.006 66.8289H230.756C232.269 66.8289 233.259 66.7367 233.727 66.5521C234.194 66.3676 234.551 65.8678 234.797 65.0512C234.837 64.8097 234.859 64.5867 234.859 64.3807C234.859 64.0946 234.806 63.7886 234.705 63.4641C234.602 63.1365 234.327 62.8705 233.881 62.6644Z" fill="white"/>
<path d="M249.734 42.0385C252.182 40.6944 253.506 40.0208 253.708 40.0208C253.954 40.0623 254.361 40.5114 254.932 41.368C255.83 42.5906 256.422 43.4072 256.709 43.8163C256.791 43.9808 257.178 44.5221 257.872 45.4403C258.564 46.3553 259.116 47.1411 259.527 47.7963C260.831 49.6294 261.687 50.772 262.098 51.2226L262.584 51.8932L263.562 50.546C264.787 48.9143 265.524 47.9162 265.77 47.5502C266.828 46.1231 267.929 44.6129 269.073 43.0166C270.336 41.1434 271.019 40.2053 271.122 40.2053C271.223 40.2053 272.592 40.8497 275.224 42.1369C277.857 43.421 279.173 44.0839 279.173 44.1238C279.173 44.4898 276.009 48.8759 269.682 57.2819L267.665 59.9762V75.644H257.38V59.9147L255.916 57.8293C254.689 56.1561 253.383 54.4245 251.998 52.6313C247.958 47.3257 245.939 44.5098 245.939 44.1853C245.939 44.1454 245.939 44.1238 245.939 44.1238C245.979 44.1238 247.244 43.4287 249.734 42.0385Z" fill="white"/>
<path d="M81.4778 53.5917H96.2836V66.3114H81.4778V53.5917Z" fill="#FA7C1F"/>
</svg>
