<svg width="342" height="120" viewBox="0 0 342 120" fill="none" xmlns="http://www.w3.org/2000/svg">
<rect width="342" height="120" fill="#5F5FFF"/>
<path d="M109.909 55.1892C109.46 54.3541 108.812 53.722 107.963 53.2924C107.137 52.8392 106.158 52.6124 105.026 52.6124C103.068 52.6124 101.5 53.2685 100.321 54.5808C99.1412 55.8692 98.5515 57.599 98.5515 59.7702C98.5515 62.0846 99.1648 63.8979 100.391 65.2102C101.641 66.4986 103.351 67.1428 105.521 67.1428C107.007 67.1428 108.258 66.7609 109.272 65.9974C110.31 65.2339 111.064 64.1365 111.536 62.7049H103.859V58.1955H117.02V63.886C116.572 65.413 115.805 66.8325 114.72 68.1449C113.659 69.457 112.303 70.5188 110.652 71.33C109.001 72.1412 107.137 72.5468 105.061 72.5468C102.609 72.5468 100.415 72.01 98.4808 70.9363C96.5703 69.8388 95.0725 68.3237 93.9875 66.3912C92.9261 64.4586 92.3955 62.2516 92.3955 59.7702C92.3955 57.2888 92.9261 55.082 93.9875 53.1492C95.0725 51.1929 96.5703 49.6778 98.4808 48.6041C100.391 47.5066 102.573 46.9578 105.026 46.9578C107.998 46.9578 110.498 47.6854 112.527 49.141C114.579 50.5964 115.935 52.6124 116.595 55.1892H109.909Z" fill="white"/>
<path d="M130.633 52.1472V57.2293H138.735V61.9535H130.633V67.465H139.796V72.368H124.583V47.2441H139.796V52.1472H130.633Z" fill="white"/>
<path d="M165.803 47.2441V52.1472H159.222V72.368H153.172V52.1472H146.592V47.2441H165.803Z" fill="white"/>
<path d="M188.088 59.484C189.527 59.7942 190.682 60.5219 191.555 61.667C192.428 62.7884 192.865 64.0768 192.865 65.5324C192.865 67.6319 192.134 69.3022 190.671 70.5427C189.231 71.7596 187.215 72.368 184.621 72.368H173.051V47.2441H184.231C186.755 47.2441 188.724 47.8288 190.14 48.9979C191.579 50.1669 192.298 51.7537 192.298 53.7579C192.298 55.237 191.909 56.4658 191.131 57.444C190.375 58.4223 189.361 59.1023 188.088 59.484ZM179.101 57.4082H183.064C184.055 57.4082 184.809 57.1935 185.328 56.764C185.871 56.3107 186.142 55.6546 186.142 54.7956C186.142 53.9367 185.871 53.2807 185.328 52.8272C184.809 52.3739 184.055 52.1472 183.064 52.1472H179.101V57.4082ZM183.559 67.4291C184.573 67.4291 185.352 67.2024 185.894 66.7491C186.46 66.2719 186.743 65.5919 186.743 64.7091C186.743 63.8263 186.449 63.1345 185.859 62.6335C185.293 62.1324 184.503 61.8819 183.488 61.8819H179.101V67.4291H183.559Z" fill="white"/>
<path d="M206.634 67.6438H214.56V72.368H200.585V47.2441H206.634V67.6438Z" fill="white"/>
<path d="M233.405 72.6185C231.07 72.6185 228.923 72.0697 226.965 70.9722C225.031 69.8747 223.486 68.3478 222.33 66.3912C221.198 64.411 220.632 62.1921 220.632 59.7345C220.632 57.277 221.198 55.07 222.33 53.1137C223.486 51.1572 225.031 49.6302 226.965 48.5325C228.923 47.4351 231.07 46.8862 233.405 46.8862C235.74 46.8862 237.873 47.4351 239.807 48.5325C241.765 49.6302 243.3 51.1572 244.408 53.1137C245.539 55.07 246.106 57.277 246.106 59.7345C246.106 62.1921 245.539 64.411 244.408 66.3912C243.275 68.3478 241.743 69.8747 239.807 70.9722C237.873 72.0697 235.74 72.6185 233.405 72.6185ZM233.405 67.0354C235.386 67.0354 236.965 66.3675 238.145 65.0312C239.347 63.6952 239.949 61.9296 239.949 59.7345C239.949 57.5156 239.347 55.75 238.145 54.4377C236.965 53.1016 235.386 52.4337 233.405 52.4337C231.4 52.4337 229.796 53.0897 228.593 54.4021C227.413 55.7142 226.823 57.4918 226.823 59.7345C226.823 61.9535 227.413 63.731 228.593 65.067C229.796 66.3794 231.4 67.0354 233.405 67.0354Z" fill="white"/>
<path d="M252.657 59.7702C252.657 57.2888 253.189 55.082 254.25 53.1492C255.311 51.1929 256.785 49.6778 258.671 48.6041C260.582 47.5066 262.74 46.9578 265.147 46.9578C268.095 46.9578 270.618 47.7452 272.718 49.3199C274.817 50.8945 276.22 53.042 276.928 55.7618H270.277C269.782 54.712 269.073 53.9127 268.153 53.3641C267.258 52.8152 266.231 52.5408 265.075 52.5408C263.211 52.5408 261.702 53.1971 260.546 54.5092C259.391 55.8215 258.813 57.5753 258.813 59.7702C258.813 61.9653 259.391 63.719 260.546 65.0311C261.702 66.3435 263.211 66.9995 265.075 66.9995C266.231 66.9995 267.258 66.7251 268.153 66.1765C269.073 65.6277 269.782 64.8284 270.277 63.7786H276.928C276.22 66.4986 274.817 68.6458 272.718 70.2205C270.618 71.7714 268.095 72.5468 265.147 72.5468C262.74 72.5468 260.582 72.01 258.671 70.9363C256.785 69.8388 255.311 68.3237 254.25 66.3912C253.189 64.4586 252.657 62.2516 252.657 59.7702Z" fill="white"/>
<path d="M299.245 72.368L290.894 61.2735V72.368H284.844V47.2441H290.894V58.2672L299.174 47.2441H306.285L296.661 59.5556L306.639 72.368H299.245Z" fill="white"/>
<path d="M55.7811 59.7523V83.9999L35 72.1235V47.876L55.7811 59.7523Z" fill="white"/>
<path opacity="0.25" d="M55.7811 59.7523L76.5623 47.876V72.1235L55.7811 83.9999V59.7523Z" fill="white"/>
<path opacity="0.5" d="M55.7811 36L76.5623 47.8765L55.7811 59.7528L35 47.8765L55.7811 36Z" fill="white"/>
</svg>
