<svg width="1312" height="304" viewBox="0 0 1312 304" fill="none" xmlns="http://www.w3.org/2000/svg">
<path d="M725.298 140.149C725.298 178.339 694.339 209.298 656.149 209.298C617.959 209.298 587 178.339 587 140.149C587 101.959 617.959 71 656.149 71C694.339 71 725.298 101.959 725.298 140.149ZM620.295 140.149C620.295 159.951 636.347 176.003 656.149 176.003C675.951 176.003 692.003 159.951 692.003 140.149C692.003 120.347 675.951 104.295 656.149 104.295C636.347 104.295 620.295 120.347 620.295 140.149ZM672.797 17.6489C672.797 26.8439 665.344 34.2979 656.149 34.2979C646.954 34.2979 639.5 26.8439 639.5 17.6489C639.5 8.45398 646.954 1 656.149 1C665.344 1 672.797 8.45398 672.797 17.6489ZM760.298 52.6489C760.298 61.8439 752.844 69.2979 743.649 69.2979C734.454 69.2979 727 61.8439 727 52.6489C727 43.454 734.454 36 743.649 36C752.844 36 760.298 43.454 760.298 52.6489ZM585.298 52.6489C585.298 61.8439 577.844 69.2979 568.649 69.2979C559.454 69.2979 552 61.8439 552 52.6489C552 43.454 559.454 36 568.649 36C577.844 36 585.298 43.454 585.298 52.6489ZM656.149 246C665.344 246 672.797 253.454 672.797 262.649C672.797 271.844 665.344 279.298 656.149 279.298C646.954 279.298 639.5 271.844 639.5 262.649C639.5 253.454 646.954 246 656.149 246ZM743.649 211C752.844 211 760.298 218.454 760.298 227.649C760.298 236.844 752.844 244.298 743.649 244.298C734.454 244.298 727 236.844 727 227.649C727 218.454 734.454 211 743.649 211ZM568.649 211C577.844 211 585.298 218.454 585.298 227.649C585.298 236.844 577.844 244.298 568.649 244.298C559.454 244.298 552 236.844 552 227.649C552 218.454 559.454 211 568.649 211ZM550.298 140.149C550.298 149.344 542.844 156.797 533.649 156.797C524.454 156.797 517 149.344 517 140.149C517 130.954 524.454 123.5 533.649 123.5C542.844 123.5 550.298 130.954 550.298 140.149ZM795.298 140.149C795.298 149.344 787.844 156.797 778.649 156.797C769.454 156.797 762 149.344 762 140.149C762 130.954 769.454 123.5 778.649 123.5C787.844 123.5 795.298 130.954 795.298 140.149Z" fill="#071C27" stroke="#3D535B" stroke-width="2"/>
<rect width="1312" height="243" transform="translate(0.000732422 61)" fill="url(#paint0_linear_26325_243)"/>
<defs>
<linearGradient id="paint0_linear_26325_243" x1="656" y1="0" x2="656" y2="243" gradientUnits="userSpaceOnUse">
<stop stop-opacity="0"/>
<stop offset="0.025" stop-color="#071C27" stop-opacity="0.1"/>
<stop offset="0.45" stop-color="#071C27"/>
</linearGradient>
</defs>
</svg>
