<svg width="1312" height="223" viewBox="0 0 1312 223" fill="none" xmlns="http://www.w3.org/2000/svg">
<path d="M704.597 208.937C696.11 207.883 687.69 205.149 679.818 200.604C648.329 182.424 637.54 142.16 655.72 110.671C673.9 142.16 714.165 152.949 745.653 134.768C753.514 130.23 760.084 124.316 765.237 117.505C762.771 157.627 738.744 191.919 704.597 208.937Z" fill="#00F5A3"/>
<path d="M765.242 117.502C760.09 124.313 753.519 130.227 745.658 134.766C714.17 152.945 673.906 142.157 655.726 110.668C692.085 110.668 721.561 81.1926 721.561 44.8327C721.561 35.7508 719.722 27.0983 716.396 19.2277C745.964 38.8851 765.451 72.5006 765.451 110.668C765.451 112.963 765.381 115.242 765.242 117.502Z" fill="#0FE9A0"/>
<path d="M716.392 19.231C719.718 27.1017 721.557 35.7541 721.557 44.8361C721.557 81.1959 692.082 110.672 655.722 110.672C673.902 79.183 663.113 38.9186 631.624 20.7387C623.753 16.1938 615.332 13.4595 606.845 12.4061C621.563 5.07151 638.161 0.945816 655.722 0.945816C678.154 0.945816 699.015 7.67747 716.392 19.231Z" fill="#54F9C2"/>
<path d="M606.853 12.4061C615.34 13.4595 623.76 16.1939 631.633 20.7387C663.121 38.9186 673.91 79.183 655.73 110.672C637.55 79.183 597.286 68.3942 565.797 86.5741C557.936 91.1124 551.366 97.0271 546.214 103.838C548.679 63.7149 572.707 29.4235 606.853 12.4061Z" fill="#88FFD8"/>
<path d="M546.21 103.838C551.362 97.0276 557.932 91.1129 565.793 86.5746C597.281 68.3947 637.546 79.1835 655.726 110.672C619.366 110.672 589.89 140.148 589.89 176.507C589.89 185.589 591.729 194.242 595.055 202.113C565.487 182.455 546 148.84 546 110.672C546 108.377 546.071 106.099 546.21 103.838Z" fill="#00CE88"/>
<path d="M595.05 202.112C591.724 194.241 589.885 185.589 589.885 176.507C589.885 140.147 619.361 110.672 655.721 110.672C637.541 142.16 648.33 182.424 679.818 200.604C687.69 205.149 696.111 207.884 704.598 208.937C689.879 216.272 673.282 220.397 655.721 220.397C633.288 220.397 612.428 213.666 595.05 202.112Z" fill="#00E096"/>
<rect width="1312" height="172" transform="translate(0.00500488 50.8531)" fill="url(#paint0_linear_26329_278)"/>
<defs>
<linearGradient id="paint0_linear_26329_278" x1="656" y1="0" x2="656" y2="172" gradientUnits="userSpaceOnUse">
<stop stop-color="#071C27" stop-opacity="0"/>
<stop offset="0.51" stop-color="#071C27"/>
</linearGradient>
</defs>
</svg>
