<svg width="1440" height="804" viewBox="0 0 1440 804" fill="none" xmlns="http://www.w3.org/2000/svg">
<path d="M64.5684 321.212H0V337.451H64.5684V321.212ZM64.5684 340.548H46.1649V384.173H64.5684V340.548ZM679.372 7.99414H658.239V144.029H679.372V7.99414ZM192.224 287.978V274.216H80.7105V287.978H192.224Z" fill="#E4F7FF" fill-opacity="0.03"/>
<path d="M1369.9 114.683H1378.22V168.182H1369.9V114.683Z" fill="#E4F7FF" fill-opacity="0.03"/>
<path d="M1016.02 69.1659H1032.63V73.0881H1016.02V69.1659ZM998.159 102.194H1032.7V106.116H998.159V102.194ZM1016.02 135.429H1032.63V139.351H1016.02V135.429ZM534.171 60.9777V47.4223H538.226V60.9777H534.171ZM568.795 75.5652V47.3535H572.928V75.5652H568.795ZM603.652 60.9777V47.4223H607.707V60.9777H603.652ZM893.508 221.784H878.146V242.427H893.508V221.784ZM942.948 199.559H927.586V242.427H942.948V199.559ZM991.999 221.784H976.636V242.427H991.999V221.784Z" fill="#E4F7FF" fill-opacity="0.03"/>
<path d="M1211.12 27.0547H1176.81V46.9405H1211.12V27.0547Z" fill="#E4F7FF" fill-opacity="0.03"/>
<path d="M1248.07 85.8193H1176.83V104.578H1248.07V85.8193ZM1211.13 145.664H1176.83V164.422H1211.13V145.664ZM975.554 401.594H945.231V410.486H975.554V401.594ZM974.619 379.136L972.436 376.929L967.759 372.256L935.487 394.779L942.425 401.594L974.619 379.136ZM1065.2 182.337L1112.44 150.207L1108.85 146.962L1061.77 178.961L1065.2 182.337ZM1118.67 177.728H1074.71V182.337H1118.67V177.728ZM1199.04 264.899H1216.43V260.485C1216.27 247.244 1230.38 235.496 1246.44 235.496H1251.66V220.827H1246.44C1220.71 220.632 1198.73 239.066 1198.97 260.55L1199.04 264.899ZM1276.45 220.892V235.561H1281.75C1297.81 235.431 1311.84 247.114 1311.68 260.55V264.964H1329.14V260.615C1329.38 239.131 1307.32 220.697 1281.67 220.892H1276.45ZM428.954 327.601V337.531H432.618C443.531 337.467 453.275 345.515 453.275 354.667V357.653H465.358V354.667C465.514 339.933 450.313 327.341 432.54 327.471L428.954 327.601ZM465.28 371.932H453.119V374.982C453.197 384.199 443.609 392.184 432.462 392.119H428.798V402.114H432.384C450.157 402.244 465.358 389.652 465.202 374.918V371.932H465.28ZM410.012 49.6009H352.405V61.7386H410.012V49.6009ZM412.584 115.352L409.077 118.078L408.843 118.273C405.101 121.259 400.658 123.66 395.747 125.218H395.591L395.123 125.348C390.368 126.776 385.379 127.49 380.39 127.555H380.234C375.401 127.49 370.568 126.776 365.969 125.543L365.579 125.478L365.735 125.543C361.214 123.985 357.005 121.908 353.185 119.376L350.145 117.364L340.011 125.867L343.519 128.399C353.809 135.733 366.904 139.757 380.468 139.757C394.499 139.692 408.063 135.344 418.665 127.62L421.705 125.348L412.584 115.352ZM884.272 348.759H837.579V358.625H884.272V348.759ZM835.552 305.271L838.359 303.064L838.515 302.935C841.555 300.533 845.14 298.586 849.116 297.352H849.272L849.662 297.223C853.481 296.054 857.535 295.47 861.588 295.405H861.666C865.564 295.47 869.539 296.054 873.203 297.028L873.515 297.093L873.359 297.028C877.023 298.261 880.453 299.949 883.493 302.026L885.987 303.649L894.172 296.768L891.366 294.691C883.025 288.785 872.424 285.539 861.432 285.474C850.051 285.539 839.06 289.044 830.486 295.275L828.069 297.093L835.552 305.271ZM596.006 313.904H569.112V402.373H596.006V313.904ZM714.805 310.009L720.807 315.332L721.197 315.656C727.823 321.433 733.045 328.248 736.553 335.778V335.972L736.787 336.686C739.905 343.956 741.542 351.615 741.698 359.339V359.534C741.542 366.998 739.983 374.398 737.177 381.473L736.943 381.992L737.099 381.732C733.669 388.677 729.07 395.103 723.457 400.945L719.014 405.618L737.801 421.131L743.413 415.744C759.627 399.906 768.514 379.85 768.592 359.015C768.358 337.4 758.848 316.565 741.698 300.338L736.709 295.665L714.805 310.009ZM638.412 212.064V204.665L635.527 204.795C625.004 205.314 616.273 212.908 616.273 221.67C616.273 230.433 625.082 238.092 635.605 238.481L638.412 238.546V231.212L635.839 231.082C629.915 230.693 625.394 226.603 625.238 221.67C625.394 216.738 629.915 212.648 635.839 212.194L638.412 212.064ZM625.472 242.051H616.507V244.258C616.429 253.215 625.783 261.004 636.697 261.004C646.986 261.004 655.795 254.189 656.964 245.167L657.276 242.7H648.078L647.922 244.842C647.532 250.035 642.153 253.929 635.995 253.605C630.071 253.28 625.472 249.256 625.472 244.323V242.051ZM356.849 283.982V267.106L350.301 267.43C326.213 268.599 306.414 285.929 306.414 305.855C306.414 325.782 326.447 343.307 350.379 344.086L356.849 344.281V327.534L351.002 327.21C337.594 326.236 327.149 317.019 326.915 305.855C327.227 294.562 337.672 285.28 351.158 284.241L356.849 283.982ZM148.171 138.864V177.728L163.251 176.981C218.721 174.29 264.32 134.38 264.32 88.4902C264.32 42.6007 218.184 2.24125 163.071 0.447861L148.171 0V38.5647L161.635 39.3118C192.512 41.5544 216.568 62.7797 217.106 88.4902C216.388 114.499 192.332 135.875 161.276 138.266L148.171 138.864ZM1085.15 275.284V252.177L1076.19 252.631C1043.22 254.254 1016.01 277.945 1016.01 305.271C1016.01 332.597 1043.45 356.613 1076.35 357.716L1085.15 358.041V335.064L1077.13 334.674C1058.73 333.376 1044.46 320.719 1044.07 305.336C1044.46 289.888 1058.81 277.101 1077.28 275.673L1085.15 275.284ZM839.762 29.6744H812.712V36.2949C812.323 69.9819 846.076 98.6709 885.987 98.6709C925.899 98.6709 959.34 70.0468 959.106 36.2949V29.6744H931.901V36.4247C932.135 57.7793 910.776 76.213 885.909 76.213C861.043 76.213 839.372 57.9091 839.684 36.4247L839.762 29.6744ZM514.935 122.362C492.293 122.362 473.231 138.387 473.231 157.391V161.284H488.825V157.391C488.825 145.472 500.876 135.316 514.935 135.316C528.995 135.316 541.046 145.533 541.046 157.391V161.284H556.64V157.391C556.64 138.387 537.577 122.362 514.935 122.362ZM488.861 180.197H473.231V184.09C473.231 203.155 492.293 219.119 514.935 219.119C537.577 219.119 556.64 203.124 556.64 184.09V180.197H541.046V184.09C541.046 196.009 528.995 206.226 514.935 206.226C500.876 206.226 488.825 196.009 488.825 184.09V180.197H488.861ZM763.079 150.81L729.134 175.382L735.834 181.799L769.776 157.227L763.079 150.81ZM735.868 183.434L729.168 189.851L763.113 214.423L769.815 208.006L735.868 183.434Z" fill="#E4F7FF" fill-opacity="0.03"/>
<path d="M114.945 403.038L108.354 408.094L133.577 433.695L140.169 428.639L114.945 403.038ZM166.952 403.045L141.729 428.646L148.32 433.702L173.543 408.101L166.952 403.045ZM1440 365.319H1425.89V414.999H1440V365.319ZM1440 417.27H1370.91V429.724H1440V417.27Z" fill="#E4F7FF" fill-opacity="0.03"/>
<path d="M277.144 384.31H221.076V389.333H277.144V384.31ZM286.814 384.31H280.809V445H286.814V384.31ZM1162.54 385.824H1148.04V404.884H1162.54V385.824ZM1216.35 353.415H1186.33V365.938H1216.35V353.415ZM1253.94 385.824H1239.43V404.884H1253.94V385.824ZM104.104 113.898L60.1788 81.3734L52.2013 89.7605L96.1274 122.286L104.104 113.898ZM50.23 121.592V41.5791H37.8208V121.592H50.23Z" fill="#E4F7FF" fill-opacity="0.03"/>
</svg>
