<svg width="18" height="18" viewBox="0 0 18 18" fill="none" xmlns="http://www.w3.org/2000/svg">
<path d="M15.4676 2.90835C15.44 2.80339 15.385 2.70764 15.3082 2.63088C15.2314 2.55412 15.1357 2.49911 15.0307 2.47146C13.7735 2.14493 12.4497 2.1801 11.2116 2.57292C9.97357 2.96574 8.87162 3.70024 8.03266 4.69184L7.34938 5.50315L5.75304 5.11798C5.36495 4.98269 4.94101 4.99238 4.55951 5.14529C4.17801 5.29819 3.86472 5.58397 3.6775 5.94985L2.32912 8.33989C2.28187 8.42361 2.25499 8.51727 2.25063 8.61329C2.24627 8.70932 2.26457 8.80503 2.30404 8.89268C2.34351 8.98033 2.40305 9.05746 2.47784 9.11785C2.55264 9.17824 2.64059 9.22018 2.73459 9.24029L4.61772 9.64396C4.4582 10.1296 4.34429 10.629 4.27748 11.1357C4.26537 11.2288 4.2748 11.3234 4.30505 11.4123C4.33529 11.5012 4.38555 11.5819 4.45193 11.6483L6.35182 13.5482C6.4087 13.6051 6.47625 13.6503 6.55059 13.6811C6.62494 13.7119 6.70463 13.7277 6.7851 13.7277C6.80276 13.7277 6.82042 13.7268 6.83837 13.7253C7.35644 13.6788 7.8682 13.5781 8.36532 13.425L8.7598 15.2655C8.77996 15.3595 8.82193 15.4474 8.88232 15.5222C8.94272 15.597 9.01985 15.6565 9.10749 15.6959C9.19512 15.7354 9.29081 15.7537 9.38683 15.7494C9.48284 15.745 9.57649 15.7182 9.66022 15.671L12.0536 14.3211C12.3904 14.1165 12.6535 13.8101 12.805 13.4462C12.9564 13.0823 12.9884 12.6797 12.8962 12.2965L12.4864 10.6056L13.2445 9.90849C14.2398 9.07189 14.9772 7.96987 15.3707 6.73065C15.7643 5.49142 15.7979 4.16593 15.4676 2.90835ZM3.80588 8.2163L4.75956 6.52499C4.81879 6.41017 4.91971 6.32237 5.04162 6.27958C5.16353 6.23679 5.29719 6.24226 5.41519 6.29488L6.4677 6.54994L6.06935 7.02293C5.69169 7.47557 5.36505 7.96843 5.09534 8.49261L3.80588 8.2163ZM11.4482 13.2552L9.78382 14.1939L9.52061 12.9654C10.0542 12.6993 10.5513 12.3656 10.9996 11.9727L11.4553 11.5537L11.7026 12.5738C11.7346 12.6998 11.7275 12.8326 11.682 12.9543C11.6365 13.0761 11.555 13.1811 11.4482 13.2552ZM12.4375 8.98657L10.1794 11.0618C9.28562 11.8348 8.18315 12.3261 7.01075 12.4739L5.53729 11.0005C5.73519 9.82501 6.24311 8.72365 7.00866 7.80998L8.03722 6.58877C8.05436 6.57085 8.07035 6.55186 8.0851 6.53192L8.9645 5.48782C9.61471 4.71986 10.4571 4.13822 11.4056 3.80228C12.3541 3.46634 13.3748 3.38814 14.3634 3.57567C14.5555 4.56739 14.4781 5.59247 14.1394 6.54413C13.8007 7.49579 13.213 8.33922 12.4375 8.98657ZM11.8718 5.20913C11.69 5.20913 11.5123 5.26304 11.3611 5.36405C11.21 5.46506 11.0921 5.60863 11.0225 5.77661C10.953 5.94458 10.9348 6.12942 10.9702 6.30774C11.0057 6.48606 11.0933 6.64986 11.2218 6.77842C11.3504 6.90698 11.5142 6.99453 11.6925 7.03C11.8708 7.06547 12.0557 7.04727 12.2236 6.97769C12.3916 6.90811 12.5352 6.79029 12.6362 6.63912C12.7372 6.48794 12.7911 6.31021 12.7911 6.1284C12.7911 6.00767 12.7673 5.88813 12.7212 5.77659C12.675 5.66505 12.6072 5.56371 12.5219 5.47834C12.4365 5.39298 12.3352 5.32527 12.2236 5.27907C12.1121 5.23288 11.9926 5.20912 11.8718 5.20913Z" fill="#637F8A"/>
</svg>
