<svg width="28" height="28" viewBox="0 0 28 28" fill="none" xmlns="http://www.w3.org/2000/svg">
<rect width="28" height="28" rx="8" fill="#07A972" fill-opacity="0.1"/>
<path d="M23.7231 18.3379V9.57212C23.7227 9.18782 23.6213 8.81038 23.4289 8.47767C23.2366 8.14495 22.9602 7.86866 22.6274 7.67651L14.9573 3.2936C14.6241 3.10126 14.2462 3 13.8616 3C13.4769 3 13.099 3.10126 12.7658 3.2936L5.09573 7.67651C4.76291 7.86866 4.48648 8.14495 4.29416 8.47767C4.10184 8.81038 4.00039 9.18782 4 9.57212V18.3379C4.00039 18.7222 4.10184 19.0997 4.29416 19.4324C4.48648 19.7651 4.76291 20.0414 5.09573 20.2336L12.7658 24.6165C13.099 24.8088 13.4769 24.9101 13.8616 24.9101C14.2462 24.9101 14.6241 24.8088 14.9573 24.6165L22.6274 20.2336C22.9602 20.0414 23.2366 19.7651 23.4289 19.4324C23.6213 19.0997 23.7227 18.7222 23.7231 18.3379Z" stroke="#07A972" stroke-width="2" stroke-linecap="round" stroke-linejoin="round"/>
<path d="M4.2959 8.43237L13.8616 13.9658L23.4273 8.43237" stroke="#07A972" stroke-width="2" stroke-linecap="round" stroke-linejoin="round"/>
<path d="M13.8616 25V13.9551" stroke="#07A972" stroke-width="2" stroke-linecap="round" stroke-linejoin="round"/>
</svg>
