<svg width="18" height="18" viewBox="0 0 18 18" fill="none" xmlns="http://www.w3.org/2000/svg">
<path fill-rule="evenodd" clip-rule="evenodd" d="M8.25 5.2787V2.71191C8.02031 2.50594 7.875 2.2078 7.875 1.875C7.875 1.25368 8.37868 0.75 9 0.75C9.62132 0.75 10.125 1.25368 10.125 1.875C10.125 2.2078 9.97969 2.50594 9.75 2.71191V5.2787C13.54 5.57033 16.5 8.04852 16.5 11.0625C16.5 14.2727 13.1421 16.875 9 16.875C4.85786 16.875 1.5 14.2727 1.5 11.0625C1.5 8.04852 4.46001 5.57033 8.25 5.2787ZM3 11.0625C3 9.01401 5.30815 6.75 9 6.75C12.6918 6.75 15 9.01401 15 11.0625C15 13.111 12.6918 15.375 9 15.375C5.30815 15.375 3 13.111 3 11.0625Z" fill="currentColor"/>
<path fill-rule="evenodd" clip-rule="evenodd" d="M6 10.125C6.62132 10.125 7.125 10.6287 7.125 11.25C7.125 11.8713 6.62132 12.375 6 12.375C5.37868 12.375 4.875 11.8713 4.875 11.25C4.875 10.6287 5.37868 10.125 6 10.125Z" fill="currentColor"/>
<path fill-rule="evenodd" clip-rule="evenodd" d="M13.125 11.25C13.125 10.6287 12.6213 10.125 12 10.125C11.3787 10.125 10.875 10.6287 10.875 11.25C10.875 11.8713 11.3787 12.375 12 12.375C12.6213 12.375 13.125 11.8713 13.125 11.25Z" fill="currentColor"/>
</svg>
