<svg width="24" height="24" viewBox="0 0 24 24" fill="none" xmlns="http://www.w3.org/2000/svg">
<path d="M21 4H15.6C14.6452 4 13.7295 4.37928 13.0544 5.05442C12.3793 5.72955 12 6.64522 12 7.6V20.2C12 19.4839 12.2845 18.7972 12.7908 18.2908C13.2972 17.7845 13.9839 17.5 14.7 17.5H21V4Z" stroke="#637F8A" stroke-width="2" stroke-linecap="round" stroke-linejoin="round"/>
<path d="M3 4H8.4C9.35478 4 10.2705 4.37928 10.9456 5.05442C11.6207 5.72955 12 6.64522 12 7.6V20.2C12 19.4839 11.7155 18.7972 11.2092 18.2908C10.7028 17.7845 10.0161 17.5 9.3 17.5H3V4Z" stroke="#637F8A" stroke-width="2" stroke-linecap="round" stroke-linejoin="round"/>
</svg>
