<svg width="18" height="18" viewBox="0 0 18 18" fill="none" xmlns="http://www.w3.org/2000/svg">
<path fill-rule="evenodd" clip-rule="evenodd" d="M2.25 2.25C1.83579 2.25 1.5 2.58579 1.5 3V13.125C1.5 13.5392 1.83579 13.875 2.25 13.875H6.975C7.31315 13.875 7.63745 14.0093 7.87656 14.2484C8.11567 14.4875 8.25 14.8118 8.25 15.15C8.25 15.5642 8.58579 15.9 9 15.9C9.41421 15.9 9.75 15.5642 9.75 15.15C9.75 14.8118 9.88433 14.4875 10.1234 14.2484C10.3625 14.0093 10.6868 13.875 11.025 13.875H15.75C16.1642 13.875 16.5 13.5392 16.5 13.125V3C16.5 2.58579 16.1642 2.25 15.75 2.25H11.7C10.785 2.25 9.90748 2.61348 9.26048 3.26048C9.16775 3.35321 9.08085 3.45068 9 3.55231C8.91916 3.45068 8.83225 3.35321 8.73952 3.26048C8.09252 2.61348 7.215 2.25 6.3 2.25H2.25ZM9.75 12.6852C10.1405 12.4832 10.5772 12.375 11.025 12.375H15V3.75H11.7C11.1828 3.75 10.6868 3.95545 10.3211 4.32114C9.95545 4.68684 9.75 5.18283 9.75 5.7V12.6852ZM8.25 12.6852V5.7C8.25 5.18283 8.04455 4.68684 7.67886 4.32114C7.31316 3.95545 6.81717 3.75 6.3 3.75H3V12.375H6.975C7.42282 12.375 7.85948 12.4832 8.25 12.6852Z" fill="#637F8A"/>
</svg>
