<svg width="24" height="24" viewBox="0 0 24 24" fill="none" xmlns="http://www.w3.org/2000/svg">
<path d="M18.063 7.06274L17.3559 7.76985L18.063 7.06274ZM14.9375 3.93726L15.6446 3.23015V3.23015L14.9375 3.93726ZM8.2002 21V20V21ZM15.8002 21V22V21ZM5.21799 19.908L6.10899 19.454L5.21799 19.908ZM6.0918 20.782L6.54579 19.891L6.0918 20.782ZM6.0918 3.21799L6.54579 4.10899L6.54579 4.10899L6.0918 3.21799ZM5.21799 4.09204L4.32698 3.63805L4.32698 3.63805L5.21799 4.09204ZM14.2168 3.29474L13.6943 4.14738L14.2168 3.29474ZM13.6388 3.05526L13.8722 2.08289L13.6388 3.05526ZM18.9443 8.36151L19.9167 8.12807L18.9443 8.36151ZM18.705 7.78343L17.8524 8.30593L18.705 7.78343ZM18.7822 19.908L19.6732 20.362L18.7822 19.908ZM17.9078 20.782L17.4538 19.891L17.9078 20.782ZM14.7071 12.2929C14.3166 11.9024 13.6834 11.9024 13.2929 12.2929C12.9024 12.6834 12.9024 13.3166 13.2929 13.7071L14.7071 12.2929ZM16 15L16.7071 15.7071C17.0976 15.3166 17.0976 14.6834 16.7071 14.2929L16 15ZM13.2929 16.2929C12.9024 16.6834 12.9024 17.3166 13.2929 17.7071C13.6834 18.0976 14.3166 18.0976 14.7071 17.7071L13.2929 16.2929ZM9.29289 17.7071C9.68342 18.0976 10.3166 18.0976 10.7071 17.7071C11.0976 17.3166 11.0976 16.6834 10.7071 16.2929L9.29289 17.7071ZM8 15L7.29289 14.2929C7.10536 14.4804 7 14.7348 7 15C7 15.2652 7.10536 15.5196 7.29289 15.7071L8 15ZM10.7071 13.7071C11.0976 13.3166 11.0976 12.6834 10.7071 12.2929C10.3166 11.9024 9.68342 11.9024 9.29289 12.2929L10.7071 13.7071ZM19.0002 10C19.5525 10 20.0002 9.55228 20.0002 9C20.0002 8.44772 19.5525 8 19.0002 8V10ZM16.2002 9V8V9ZM14 3C14 2.44772 13.5523 2 13 2C12.4477 2 12 2.44772 12 3H14ZM14.0918 8.78198L14.5458 7.89098H14.5458L14.0918 8.78198ZM13.218 7.90797L14.109 7.45398V7.45398L13.218 7.90797ZM20 17.8V9.3255H18V17.8H20ZM18.7701 6.35563L15.6446 3.23015L14.2304 4.64436L17.3559 7.76985L18.7701 6.35563ZM12.6747 2H8.2002V4H12.6747V2ZM4 6.20001V17.8H6V6.20001H4ZM8.2002 22H15.8002V20H8.2002V22ZM4 17.8C4 18.3436 3.99922 18.8114 4.03057 19.195C4.06287 19.5904 4.13419 19.9836 4.32698 20.362L6.10899 19.454C6.0838 19.4045 6.04612 19.3038 6.02393 19.0322C6.00078 18.7488 6 18.3766 6 17.8H4ZM8.2002 20C7.62367 20 7.25127 19.9992 6.96782 19.9761C6.69598 19.9538 6.59519 19.9161 6.54579 19.891L5.63781 21.673C6.01623 21.8658 6.40959 21.9371 6.80496 21.9694C7.18873 22.0008 7.65662 22 8.2002 22V20ZM4.32698 20.362C4.61449 20.9262 5.07311 21.3853 5.63781 21.673L6.54579 19.891C6.35784 19.7952 6.20498 19.6424 6.10899 19.454L4.32698 20.362ZM8.2002 2C7.65663 2 7.18874 1.99922 6.80498 2.03057C6.40962 2.06286 6.01624 2.13416 5.63781 2.32698L6.54579 4.10899C6.59517 4.08383 6.69595 4.04613 6.9678 4.02393C7.25126 4.00078 7.62365 4 8.2002 4V2ZM6 6.20001C6 5.62346 6.00078 5.25119 6.02393 4.96785C6.04612 4.69619 6.0838 4.59548 6.10899 4.54603L4.32698 3.63805C4.13419 4.01643 4.06287 4.40964 4.03057 4.80499C3.99922 5.18866 4 5.65646 4 6.20001H6ZM5.63781 2.32698C5.07306 2.61473 4.61447 3.07382 4.32698 3.63805L6.10899 4.54603C6.205 4.35761 6.35788 4.20474 6.54579 4.10899L5.63781 2.32698ZM15.6446 3.23015C15.3323 2.91784 15.0655 2.642 14.7393 2.4421L13.6943 4.14738C13.7718 4.19485 13.8509 4.26487 14.2304 4.64436L15.6446 3.23015ZM12.6747 4C13.2115 4 13.317 4.00643 13.4053 4.02763L13.8722 2.08289C13.5002 1.99357 13.1163 2 12.6747 2V4ZM14.7393 2.4421C14.471 2.27768 14.1784 2.15641 13.8722 2.08289L13.4053 4.02763C13.5072 4.0521 13.6047 4.09248 13.6943 4.14738L14.7393 2.4421ZM20 9.3255C20 8.88249 20.0059 8.49976 19.9167 8.12807L17.972 8.59496C17.9933 8.68361 18 8.79015 18 9.3255H20ZM17.3559 7.76985C17.7345 8.1485 17.8048 8.22822 17.8524 8.30593L19.5577 7.26093C19.3579 6.93498 19.0832 6.66879 18.7701 6.35563L17.3559 7.76985ZM19.9167 8.12807C19.8433 7.8224 19.7224 7.52973 19.5577 7.26093L17.8524 8.30593C17.907 8.39502 17.9474 8.49248 17.972 8.59496L19.9167 8.12807ZM18 17.8C18 18.3767 17.9993 18.7489 17.9762 19.0323C17.954 19.304 17.9164 19.4046 17.8912 19.454L19.6732 20.362C19.8661 19.9835 19.9373 19.5902 19.9696 19.1949C20.0008 18.8113 20 18.3435 20 17.8H18ZM15.8002 22C16.3438 22 16.8115 22.0008 17.1951 21.9694C17.5904 21.9371 17.9835 21.8657 18.3618 21.673L17.4538 19.891C17.4043 19.9162 17.3036 19.9539 17.0321 19.9761C16.7489 19.9992 16.3767 20 15.8002 20V22ZM17.8912 19.454C17.7956 19.6417 17.6424 19.7949 17.4538 19.891L18.3618 21.673C18.9258 21.3856 19.3854 20.9269 19.6732 20.362L17.8912 19.454ZM13.2929 13.7071L15.2929 15.7071L16.7071 14.2929L14.7071 12.2929L13.2929 13.7071ZM15.2929 14.2929L13.2929 16.2929L14.7071 17.7071L16.7071 15.7071L15.2929 14.2929ZM10.7071 16.2929L8.70711 14.2929L7.29289 15.7071L9.29289 17.7071L10.7071 16.2929ZM8.70711 15.7071L10.7071 13.7071L9.29289 12.2929L7.29289 14.2929L8.70711 15.7071ZM19.0002 8H16.2002V10H19.0002V8ZM14 5.8V3H12V5.8H14ZM16.2002 8C15.6237 8 15.2513 7.99922 14.9678 7.97606C14.696 7.95385 14.5952 7.91615 14.5458 7.89098L13.6378 9.67299C14.0162 9.8658 14.4096 9.93711 14.805 9.96942C15.1887 10.0008 15.6566 10 16.2002 10V8ZM12 5.8C12 6.34355 11.9992 6.81135 12.0306 7.19502C12.0629 7.59037 12.1342 7.98358 12.327 8.36196L14.109 7.45398C14.0838 7.40453 14.0461 7.30381 14.0239 7.03216C14.0008 6.74882 14 6.37655 14 5.8H12ZM14.5458 7.89098C14.3578 7.79521 14.205 7.64236 14.109 7.45398L12.327 8.36196C12.6145 8.92623 13.0731 9.38526 13.6378 9.67299L14.5458 7.89098Z" fill="#637F8A"/>
</svg>
