<svg width="18" height="18" viewBox="0 0 18 18" fill="none" xmlns="http://www.w3.org/2000/svg">
<path fill-rule="evenodd" clip-rule="evenodd" d="M9.05827 15.6527C12.7001 15.6527 15.6524 12.7004 15.6524 9.05851C15.6524 5.41666 12.7001 2.46436 9.05827 2.46436C5.41642 2.46436 2.46411 5.41666 2.46411 9.05851C2.46411 12.7004 5.41642 15.6527 9.05827 15.6527ZM7.35018 4.25778C5.60394 4.87913 4.29667 6.42623 4.01893 8.30851H6.01398C6.15346 6.87104 6.61208 5.48776 7.35018 4.25778ZM10.7664 4.25778C11.5045 5.48775 11.9631 6.87104 12.1026 8.30851H14.0976C13.8199 6.42622 12.5126 4.87913 10.7664 4.25778ZM10.5942 8.30851C10.4313 6.89233 9.90147 5.54332 9.05827 4.39541C8.21506 5.54332 7.68523 6.89233 7.52233 8.30851H10.5942ZM7.52233 9.80851H10.5942C10.4313 11.2247 9.90147 12.5737 9.05827 13.7216C8.21506 12.5737 7.68523 11.2247 7.52233 9.80851ZM6.01398 9.80851H4.01893C4.29667 11.6908 5.60394 13.2379 7.35018 13.8592C6.61208 12.6293 6.15346 11.246 6.01398 9.80851ZM10.7664 13.8592C11.5045 12.6293 11.9631 11.246 12.1026 9.80851H14.0976C13.8199 11.6908 12.5126 13.2379 10.7664 13.8592Z" fill="#637F8A"/>
</svg>
