<svg width="28" height="28" viewBox="0 0 28 28" fill="none" xmlns="http://www.w3.org/2000/svg">
<rect width="28" height="28" rx="8" fill="#07A972" fill-opacity="0.1"/>
<path d="M23.0224 20.0188H16.8351C16.6856 19.5989 16.4445 19.2176 16.1294 18.9024C15.8142 18.5873 15.4328 18.3462 15.013 18.1967V15.013H22.0212C22.2867 15.013 22.5414 14.9075 22.7291 14.7197C22.9169 14.532 23.0224 14.2773 23.0224 14.0118C23.0224 13.7462 22.9169 13.4916 22.7291 13.3038C22.5414 13.1161 22.2867 13.0106 22.0212 13.0106H21.02V7.00353C21.02 6.20695 20.7036 5.44299 20.1403 4.87971C19.577 4.31644 18.8131 4 18.0165 4H10.0071C9.21048 4 8.44652 4.31644 7.88325 4.87971C7.31998 5.44299 7.00353 6.20695 7.00353 7.00353V13.0106H6.00236C5.73683 13.0106 5.48217 13.1161 5.29442 13.3038C5.10666 13.4916 5.00118 13.7462 5.00118 14.0118C5.00118 14.2773 5.10666 14.532 5.29442 14.7197C5.48217 14.9075 5.73683 15.013 6.00236 15.013H13.0106V18.1967C12.5907 18.3462 12.2094 18.5873 11.8942 18.9024C11.579 19.2176 11.338 19.5989 11.1885 20.0188H5.00118C4.73565 20.0188 4.481 20.1243 4.29324 20.3121C4.10548 20.4998 4 20.7545 4 21.02C4 21.2855 4.10548 21.5402 4.29324 21.728C4.481 21.9157 4.73565 22.0212 5.00118 22.0212H11.1885C11.3989 22.601 11.7828 23.102 12.2879 23.456C12.793 23.8101 13.3949 24 14.0118 24C14.6286 24 15.2305 23.8101 15.7356 23.456C16.2408 23.102 16.6246 22.601 16.8351 22.0212H23.0224C23.2879 22.0212 23.5426 21.9157 23.7303 21.728C23.9181 21.5402 24.0236 21.2855 24.0236 21.02C24.0236 20.7545 23.9181 20.4998 23.7303 20.3121C23.5426 20.1243 23.2879 20.0188 23.0224 20.0188ZM9.00589 13.0106V7.00353C9.00589 6.738 9.11137 6.48335 9.29913 6.29559C9.48688 6.10784 9.74154 6.00236 10.0071 6.00236H18.0165C18.282 6.00236 18.5367 6.10784 18.7244 6.29559C18.9122 6.48335 19.0177 6.738 19.0177 7.00353V13.0106H9.00589ZM14.0118 22.0212C13.8138 22.0212 13.6202 21.9625 13.4556 21.8525C13.2909 21.7425 13.1626 21.5861 13.0868 21.4032C13.011 21.2202 12.9912 21.0189 13.0298 20.8247C13.0685 20.6305 13.1638 20.4521 13.3038 20.3121C13.4439 20.1721 13.6222 20.0767 13.8165 20.0381C14.0107 19.9994 14.212 20.0193 14.3949 20.0951C14.5779 20.1708 14.7342 20.2992 14.8442 20.4638C14.9542 20.6284 15.013 20.822 15.013 21.02C15.013 21.2855 14.9075 21.5402 14.7197 21.728C14.532 21.9157 14.2773 22.0212 14.0118 22.0212Z" fill="#07A972"/>
</svg>
