<svg width="24" height="24" viewBox="0 0 24 24" fill="none" xmlns="http://www.w3.org/2000/svg">
<path d="M12 2.24707C9.6255 2.24717 7.32849 3.09218 5.51999 4.63092C3.71149 6.16965 2.50953 8.30169 2.12916 10.6456C1.74879 12.9894 2.21485 15.3921 3.44393 17.4238C4.67301 19.4555 6.58491 20.9836 8.83755 21.7346C9.33755 21.8221 9.52505 21.5221 9.52505 21.2596C9.52505 21.0221 9.51254 20.2346 9.51254 19.3971C7.00003 19.8596 6.35003 18.7846 6.15003 18.2221C5.9281 17.675 5.5763 17.1902 5.12503 16.8096C4.77503 16.6221 4.27503 16.1596 5.11252 16.1471C5.4323 16.1818 5.73901 16.2931 6.00666 16.4715C6.2743 16.6499 6.49499 16.8902 6.65003 17.1721C6.7868 17.4178 6.97071 17.6341 7.19122 17.8086C7.41173 17.9831 7.6645 18.1123 7.93506 18.189C8.20562 18.2656 8.48864 18.2881 8.76791 18.2552C9.04717 18.2222 9.3172 18.1345 9.56251 17.9971C9.6058 17.4887 9.83237 17.0134 10.2 16.6596C7.97503 16.4096 5.65003 15.5471 5.65003 11.7221C5.63597 10.7282 6.00271 9.76668 6.67503 9.0346C6.36931 8.17082 6.40508 7.22288 6.77503 6.3846C6.77503 6.3846 7.6125 6.12209 9.52503 7.4096C11.1613 6.95957 12.8887 6.95957 14.525 7.4096C16.4375 6.1096 17.275 6.3846 17.275 6.3846C17.645 7.22287 17.6808 8.17083 17.375 9.0346C18.0494 9.76542 18.4164 10.7278 18.4 11.7221C18.4 15.5596 16.0625 16.4096 13.8375 16.6596C14.0762 16.9015 14.26 17.1919 14.3764 17.5111C14.4929 17.8303 14.5393 18.1709 14.5125 18.5096C14.5125 19.8471 14.5 20.9221 14.5 21.2596C14.5 21.5221 14.6875 21.8346 15.1875 21.7346C17.4362 20.9775 19.3426 19.4458 20.5664 17.4131C21.7903 15.3804 22.2519 12.9789 21.8689 10.6373C21.4859 8.29572 20.2832 6.16644 18.4755 4.62958C16.6678 3.09272 14.3727 2.24831 12 2.24707V2.24707Z" fill="#363B45"/>
</svg>
