<svg width="18" height="18" viewBox="0 0 18 18" fill="none" xmlns="http://www.w3.org/2000/svg">
<path fill-rule="evenodd" clip-rule="evenodd" d="M6.12356 1.57495L9.50821 1.57495C9.5984 1.57495 9.6814 1.57495 9.7561 1.57563C9.97442 1.57762 10.1766 1.58464 10.3866 1.63505C10.6086 1.68835 10.8207 1.77627 11.0152 1.89547C11.2365 2.03108 11.4204 2.21528 11.6385 2.43364C11.6523 2.44749 11.6663 2.46147 11.6804 2.4756L14.0245 4.81971C14.0378 4.83304 14.051 4.84622 14.0641 4.85928C14.2839 5.0788 14.4683 5.26289 14.6043 5.48484C14.7237 5.6797 14.8113 5.89188 14.8646 6.11351C14.9121 6.31174 14.9212 6.50299 14.9238 6.70827C14.9247 6.72206 14.9251 6.73596 14.9251 6.74995C14.9251 6.75954 14.9249 6.76909 14.9245 6.77858C14.9249 6.8447 14.925 6.91673 14.925 6.99408V13.379C14.925 13.7756 14.925 14.1134 14.9023 14.3909C14.8785 14.6824 14.8263 14.9661 14.6881 15.2374C14.4794 15.6469 14.1462 15.9795 13.7372 16.1879C13.4658 16.3262 13.182 16.3784 12.8901 16.4023C12.6123 16.425 12.2739 16.425 11.8764 16.425H6.12383C5.72628 16.425 5.38774 16.425 5.10978 16.4023C4.81788 16.3784 4.53383 16.3262 4.26236 16.1879C3.85296 15.9793 3.52046 15.6465 3.31201 15.2374C3.1737 14.9659 3.12148 14.682 3.09763 14.3901C3.07493 14.1123 3.07494 13.7739 3.07495 13.3765V4.62341C3.07494 4.22601 3.07493 3.88762 3.09763 3.6098C3.12148 3.31793 3.1737 3.03399 3.31201 2.76254C3.52045 2.35346 3.85293 2.02063 4.26236 1.81201C4.53385 1.67368 4.8179 1.62147 5.1098 1.59763C5.38769 1.57493 5.72615 1.57494 6.12356 1.57495ZM13.363 6.07495C13.308 6.01425 13.2207 5.92507 13.0699 5.7743L10.7258 3.43019C10.5748 3.27919 10.4856 3.19176 10.425 3.13677V4.34995C10.425 4.78113 10.4255 5.06391 10.4431 5.28018C10.4602 5.48856 10.4897 5.57507 10.5149 5.62448C10.594 5.77986 10.7202 5.90599 10.8752 5.98501C10.9246 6.01017 11.0112 6.03971 11.2197 6.05675C11.4361 6.07442 11.7189 6.07495 12.1501 6.07495H13.363ZM9.07495 2.92495L9.07495 4.37651C9.07494 4.77391 9.07493 5.11229 9.09763 5.39011C9.12148 5.68198 9.1737 5.96592 9.31201 6.23737C9.52046 6.64648 9.85296 6.97927 10.2624 7.18787C10.5338 7.32619 10.8179 7.37841 11.1098 7.40226C11.3877 7.42497 11.7263 7.42496 12.1239 7.42495L13.575 7.42495V13.3524C13.575 13.7828 13.5744 14.065 13.5568 14.2809C13.5398 14.4889 13.5103 14.5752 13.4852 14.6245C13.4063 14.7794 13.2799 14.9058 13.1243 14.985C13.0749 15.0102 12.9884 15.0397 12.7802 15.0567C12.564 15.0744 12.2813 15.075 11.8501 15.075H6.1501C5.71894 15.075 5.43606 15.0744 5.21971 15.0567C5.0112 15.0397 4.92463 15.0102 4.87524 14.985C4.72016 14.906 4.59404 14.7799 4.51487 14.6245C4.48969 14.5751 4.46017 14.4886 4.44315 14.2802C4.42548 14.0639 4.42495 13.7811 4.42495 13.35V4.64996C4.42495 4.21878 4.42548 3.936 4.44315 3.71973C4.46017 3.51135 4.48969 3.42485 4.51487 3.37543C4.59406 3.22002 4.72018 3.09388 4.87524 3.01487C4.92462 2.98971 5.01118 2.96018 5.21969 2.94315C5.43605 2.92548 5.71893 2.92495 6.1501 2.92495H9.07495ZM7.97725 9.27266C8.24085 9.53626 8.24085 9.96365 7.97725 10.2272L6.95455 11.25L7.97725 12.2727C8.24085 12.5363 8.24085 12.9636 7.97725 13.2272C7.71365 13.4909 7.28626 13.4909 7.02266 13.2272L5.52266 11.7272C5.39607 11.6007 5.32495 11.429 5.32495 11.25C5.32495 11.0709 5.39607 10.8992 5.52266 10.7727L7.02266 9.27266C7.28626 9.00905 7.71365 9.00905 7.97725 9.27266ZM10.0227 9.27266C10.2863 9.00905 10.7136 9.00905 10.9772 9.27266L12.4772 10.7727C12.7409 11.0363 12.7409 11.4636 12.4772 11.7272L10.9772 13.2272C10.7136 13.4909 10.2863 13.4909 10.0227 13.2272C9.75905 12.9636 9.75905 12.5363 10.0227 12.2727L11.0454 11.25L10.0227 10.2272C9.75905 9.96365 9.75905 9.53626 10.0227 9.27266Z" fill="#637F8A"/>
</svg>
