<svg width="18" height="18" viewBox="0 0 18 18" fill="none" xmlns="http://www.w3.org/2000/svg">
<path fill-rule="evenodd" clip-rule="evenodd" d="M14.1618 1.21401C13.1895 0.774026 12.1062 0.640808 11.0563 0.832107C10.0064 1.0234 9.03967 1.53013 8.28504 2.28476C7.53041 3.03939 7.02368 4.00608 6.83238 5.056C6.67284 5.93159 6.73901 6.83039 7.02056 7.66865L2.18474 12.5045C1.74572 12.9435 1.49908 13.5389 1.49908 14.1598C1.49908 14.7807 1.74572 15.3761 2.18474 15.8151C2.62377 16.2542 3.21921 16.5008 3.84007 16.5008C4.46094 16.5008 5.05638 16.2542 5.4954 15.8151L10.3312 10.9793C11.1695 11.2609 12.0683 11.327 12.9439 11.1675C13.9938 10.9762 14.9605 10.4695 15.7151 9.71484C16.4697 8.96021 16.9765 7.99352 17.1678 6.9436C17.3591 5.89368 17.2259 4.81039 16.7859 3.8381C16.6844 3.61379 16.4792 3.45358 16.237 3.40945C15.9948 3.36532 15.7463 3.44288 15.5722 3.61697L12.7501 6.43914L11.5607 5.2498L14.3829 2.42763C14.557 2.25354 14.6346 2.00508 14.5904 1.76286C14.5463 1.52064 14.3861 1.31551 14.1618 1.21401ZM11.3252 2.30781C11.6879 2.24172 12.0562 2.22986 12.4184 2.27079L10.4947 4.19447L10.4895 4.1998C10.2146 4.48019 10.0607 4.85717 10.0607 5.2498C10.0607 5.64243 10.2146 6.01941 10.4895 6.2998L10.4947 6.30513L11.6947 7.50513L11.7001 7.51041C11.9805 7.78525 12.3574 7.9392 12.7501 7.9392C13.1427 7.9392 13.5197 7.78525 13.8001 7.51041L13.8054 7.50513L15.7291 5.58145C15.77 5.94367 15.7582 6.31199 15.6921 6.67472C15.5554 7.42467 15.1935 8.11516 14.6545 8.65418C14.1154 9.1932 13.4249 9.55515 12.675 9.69179C11.9251 9.82843 11.1513 9.73328 10.4568 9.41901C10.1724 9.29031 9.83798 9.35123 9.61724 9.57197L4.43474 14.7545C4.27703 14.9122 4.06312 15.0008 3.84007 15.0008C3.61703 15.0008 3.40312 14.9122 3.2454 14.7545C3.08769 14.5968 2.99908 14.3828 2.99908 14.1598C2.99908 13.9368 3.08769 13.7228 3.2454 13.5651L8.42791 8.38263C8.64864 8.16189 8.70957 7.82751 8.58087 7.5431C8.2666 6.8486 8.17144 6.07483 8.30808 5.32488C8.44473 4.57494 8.80667 3.88444 9.3457 3.34542C9.88472 2.8064 10.5752 2.44445 11.3252 2.30781Z" fill="#0C865C"/>
</svg>
