<svg width="18" height="18" viewBox="0 0 18 18" fill="none" xmlns="http://www.w3.org/2000/svg">
<path d="M13.725 5.7H13.05V5.025C13.05 4.48794 12.8367 3.97287 12.4569 3.59311C12.0771 3.21335 11.5621 3 11.025 3H4.275C3.73794 3 3.22287 3.21335 2.84311 3.59311C2.46335 3.97287 2.25 4.48794 2.25 5.025V5.025V13.125C2.25 13.6621 2.46335 14.1771 2.84311 14.5569C3.22287 14.9367 3.73794 15.15 4.275 15.15H13.725C14.2621 15.15 14.7771 14.9367 15.1569 14.5569C15.5367 14.1771 15.75 13.6621 15.75 13.125V7.725C15.75 7.18794 15.5367 6.67287 15.1569 6.29311C14.7771 5.91335 14.2621 5.7 13.725 5.7ZM4.275 4.35H11.025C11.204 4.35 11.3757 4.42112 11.5023 4.5477C11.6289 4.67429 11.7 4.84598 11.7 5.025V5.7H4.275C4.09598 5.7 3.92429 5.62888 3.7977 5.5023C3.67112 5.37571 3.6 5.20402 3.6 5.025C3.6 4.84598 3.67112 4.67429 3.7977 4.5477C3.92429 4.42112 4.09598 4.35 4.275 4.35V4.35ZM14.4 11.1H13.725C13.546 11.1 13.3743 11.0289 13.2477 10.9023C13.1211 10.7757 13.05 10.604 13.05 10.425C13.05 10.246 13.1211 10.0743 13.2477 9.9477C13.3743 9.82112 13.546 9.75 13.725 9.75H14.4V11.1ZM14.4 8.4H13.725C13.1879 8.4 12.6729 8.61335 12.2931 8.99311C11.9133 9.37287 11.7 9.88794 11.7 10.425C11.7 10.9621 11.9133 11.4771 12.2931 11.8569C12.6729 12.2367 13.1879 12.45 13.725 12.45H14.4V13.125C14.4 13.304 14.3289 13.4757 14.2023 13.6023C14.0757 13.7289 13.904 13.8 13.725 13.8H4.275C4.09598 13.8 3.92429 13.7289 3.7977 13.6023C3.67112 13.4757 3.6 13.304 3.6 13.125V6.93525C3.81686 7.01154 4.04512 7.05034 4.275 7.05H13.725C13.904 7.05 14.0757 7.12112 14.2023 7.2477C14.3289 7.37429 14.4 7.54598 14.4 7.725V8.4Z" fill="#637F8A"/>
</svg>
