<svg width="28" height="28" viewBox="0 0 28 28" fill="none" xmlns="http://www.w3.org/2000/svg">
<rect width="28" height="28" rx="8" fill="#07A972" fill-opacity="0.1"/>
<path d="M18.9849 8.08728C20.9949 9.497 22.3819 11.7384 22.6633 14.3245" stroke="#07A972" stroke-width="2" stroke-linecap="round" stroke-linejoin="round"/>
<path d="M5.44751 14.3752C5.70882 11.7992 7.07566 9.5578 9.06563 8.13794" stroke="#07A972" stroke-width="2" stroke-linecap="round" stroke-linejoin="round"/>
<path d="M10.1709 23.0669C11.3367 23.6653 12.6634 23.9999 14.0604 23.9999C15.4071 23.9999 16.6735 23.6957 17.8091 23.1379" stroke="#07A972" stroke-width="2" stroke-linecap="round" stroke-linejoin="round"/>
<path d="M14.0606 9.63888C15.6037 9.63888 16.8546 8.37657 16.8546 6.81944C16.8546 5.26231 15.6037 4 14.0606 4C12.5175 4 11.2666 5.26231 11.2666 6.81944C11.2666 8.37657 12.5175 9.63888 14.0606 9.63888Z" stroke="#07A972" stroke-width="2" stroke-linecap="round" stroke-linejoin="round"/>
<path d="M6.79399 22.0324C8.33707 22.0324 9.58798 20.7701 9.58798 19.213C9.58798 17.6559 8.33707 16.3936 6.79399 16.3936C5.25091 16.3936 4 17.6559 4 19.213C4 20.7701 5.25091 22.0324 6.79399 22.0324Z" stroke="#07A972" stroke-width="2" stroke-linecap="round" stroke-linejoin="round"/>
<path d="M21.2061 22.0324C22.7492 22.0324 24.0001 20.7701 24.0001 19.213C24.0001 17.6559 22.7492 16.3936 21.2061 16.3936C19.663 16.3936 18.4121 17.6559 18.4121 19.213C18.4121 20.7701 19.663 22.0324 21.2061 22.0324Z" stroke="#07A972" stroke-width="2" stroke-linecap="round" stroke-linejoin="round"/>
</svg>
