<svg width="18" height="19" viewBox="0 0 18 19" fill="none" xmlns="http://www.w3.org/2000/svg">
<path d="M3.45911 4.45911C3.57846 4.33977 3.74032 4.27273 3.90909 4.27273H9.63636C9.80514 4.27273 9.967 4.33977 10.0863 4.45911C10.2057 4.57846 10.2727 4.74032 10.2727 4.90909V5.54545C10.2727 5.89691 10.5576 6.18182 10.9091 6.18182C11.2605 6.18182 11.5455 5.89691 11.5455 5.54545V4.90909C11.5455 4.40277 11.3443 3.91718 10.9863 3.55916C10.6283 3.20114 10.1427 3 9.63636 3H3.90909C3.40277 3 2.91718 3.20114 2.55916 3.55916C2.20114 3.91718 2 4.40277 2 4.90909V10.6364C2 11.1427 2.20114 11.6283 2.55916 11.9863C2.91718 12.3443 3.40277 12.5455 3.90909 12.5455H4.54545C4.89691 12.5455 5.18182 12.2605 5.18182 11.9091C5.18182 11.5576 4.89691 11.2727 4.54545 11.2727H3.90909C3.74032 11.2727 3.57846 11.2057 3.45911 11.0863C3.33977 10.967 3.27273 10.8051 3.27273 10.6364V4.90909C3.27273 4.74032 3.33977 4.57846 3.45911 4.45911Z" fill="#18EFB1"/>
<path fill-rule="evenodd" clip-rule="evenodd" d="M8.36364 7.45455C7.30927 7.45455 6.45455 8.30927 6.45455 9.36364V15.0909C6.45455 16.1453 7.30927 17 8.36364 17H14.0909C15.1453 17 16 16.1453 16 15.0909V9.36364C16 8.30927 15.1453 7.45455 14.0909 7.45455H8.36364ZM7.72727 9.36364C7.72727 9.01218 8.01218 8.72727 8.36364 8.72727H14.0909C14.4424 8.72727 14.7273 9.01218 14.7273 9.36364V15.0909C14.7273 15.4424 14.4424 15.7273 14.0909 15.7273H8.36364C8.01218 15.7273 7.72727 15.4424 7.72727 15.0909V9.36364Z" fill="#18EFB1"/>
</svg>
