<svg width="24" height="24" viewBox="0 0 24 24" fill="none" xmlns="http://www.w3.org/2000/svg">
<path d="M3 13H21V11H3V13ZM12 20C7.58172 20 4 16.4183 4 12H2C2 17.5228 6.47715 22 12 22V20ZM4 12C4 7.58172 7.58172 4 12 4V2C6.47715 2 2 6.47715 2 12H4ZM12 4C16.4183 4 20 7.58172 20 12H22C22 6.47715 17.5228 2 12 2V4ZM20 12C20 16.4183 16.4183 20 12 20V22C17.5228 22 22 17.5228 22 12H20ZM12 20C11.7731 20 11.4816 19.9007 11.1324 19.5683C10.778 19.2311 10.4134 18.6958 10.0854 17.9578C9.43054 16.4844 9 14.3789 9 12H7C7 14.5917 7.46489 16.9861 8.25776 18.7701C8.65364 19.6608 9.15092 20.4435 9.75363 21.0171C10.3615 21.5956 11.1223 22 12 22V20ZM9 12C9 9.62114 9.43054 7.51558 10.0854 6.04218C10.4134 5.30422 10.778 4.76892 11.1324 4.43166C11.4816 4.0993 11.7731 4 12 4V2C11.1223 2 10.3615 2.40438 9.75363 2.98287C9.15092 3.55645 8.65364 4.33918 8.25776 5.2299C7.46489 7.01386 7 9.40829 7 12H9ZM12 4C12.2269 4 12.5184 4.0993 12.8676 4.43166C13.222 4.76892 13.5866 5.30422 13.9146 6.04218C14.5695 7.51558 15 9.62114 15 12H17C17 9.40829 16.5351 7.01386 15.7422 5.2299C15.3464 4.33918 14.8491 3.55645 14.2464 2.98287C13.6385 2.40438 12.8777 2 12 2V4ZM15 12C15 14.3789 14.5695 16.4844 13.9146 17.9578C13.5866 18.6958 13.222 19.2311 12.8676 19.5683C12.5184 19.9007 12.2269 20 12 20V22C12.8777 22 13.6385 21.5956 14.2464 21.0171C14.8491 20.4435 15.3464 19.6608 15.7422 18.7701C16.5351 16.9861 17 14.5917 17 12H15Z" fill="#363B45"/>
</svg>
