<svg width="18" height="18" viewBox="0 0 18 18" fill="none" xmlns="http://www.w3.org/2000/svg">
<path d="M14.5535 4.08873C13.5178 3.58012 12.4104 3.21046 11.2526 3C11.1104 3.26982 10.9443 3.63273 10.8298 3.92144C9.599 3.72717 8.37955 3.72717 7.17144 3.92144C7.05692 3.63273 6.88703 3.26982 6.74357 3C5.58453 3.21046 4.47583 3.58147 3.44013 4.09143C1.3511 7.40484 0.784793 10.6359 1.06794 13.8212C2.4535 14.9072 3.79627 15.5669 5.11639 15.9987C5.44233 15.5278 5.73303 15.0273 5.98346 14.4998C5.50651 14.3096 5.04969 14.0748 4.61804 13.8023C4.73256 13.7133 4.84456 13.6202 4.95279 13.5244C7.58547 14.8168 10.4459 14.8168 13.0472 13.5244C13.1566 13.6202 13.2686 13.7133 13.3819 13.8023C12.949 14.0762 12.4909 14.3109 12.014 14.5011C12.2644 15.0273 12.5538 15.5292 12.881 16C14.2024 15.5683 15.5464 14.9086 16.932 13.8212C17.2642 10.1287 16.3644 6.92725 14.5535 4.08873ZM6.34212 11.8623C5.55181 11.8623 4.90371 11.0879 4.90371 10.1449C4.90371 9.20185 5.53797 8.42611 6.34212 8.42611C7.14627 8.42611 7.79437 9.2005 7.78053 10.1449C7.78179 11.0879 7.14627 11.8623 6.34212 11.8623ZM11.6578 11.8623C10.8675 11.8623 10.2194 11.0879 10.2194 10.1449C10.2194 9.20185 10.8537 8.42611 11.6578 8.42611C12.462 8.42611 13.1101 9.2005 13.0962 10.1449C13.0962 11.0879 12.462 11.8623 11.6578 11.8623Z" fill="#262A2E"/>
</svg>
