<svg width="18" height="18" viewBox="0 0 18 18" fill="none" xmlns="http://www.w3.org/2000/svg">
<path fill-rule="evenodd" clip-rule="evenodd" d="M9.34473 1.55762C9.60454 1.56954 9.86097 1.5938 10.1133 1.63184L10.5605 1.1543L10.79 1.76758C11.041 1.8298 11.2871 1.90419 11.5273 1.99121L12.0615 1.6084L12.167 2.25781C12.3996 2.36764 12.6259 2.48864 12.8447 2.62109L13.4453 2.34766L13.4209 3.00781C13.6265 3.15994 13.824 3.32218 14.0127 3.49414L14.6572 3.34277L14.5049 3.98633C14.6767 4.17484 14.8382 4.37275 14.9902 4.57812L15.6523 4.55469L15.3779 5.1543C15.5104 5.37308 15.6314 5.59939 15.7412 5.83203L16.3916 5.93848L16.0078 6.47168C16.0949 6.71197 16.1692 6.95803 16.2314 7.20898L16.8457 7.43945L16.3672 7.88574C16.4052 8.13806 16.4295 8.39447 16.4414 8.6543L17 9L16.4414 9.34473C16.4295 9.60456 16.4052 9.86095 16.3672 10.1133L16.8457 10.5605L16.2314 10.79C16.1692 11.041 16.0948 11.287 16.0078 11.5273L16.3916 12.0615L15.7412 12.167C15.6314 12.3997 15.5104 12.6259 15.3779 12.8447L15.6523 13.4453L14.9902 13.4209C14.8382 13.6263 14.6767 13.8241 14.5049 14.0127L14.6572 14.6572L14.0127 14.5049C13.824 14.6769 13.6265 14.8391 13.4209 14.9912L13.4453 15.6523L12.8447 15.3779C12.6259 15.5104 12.3997 15.6314 12.167 15.7412L12.0615 16.3916L11.5273 16.0078C11.287 16.0949 11.041 16.1692 10.79 16.2314L10.5605 16.8457L10.1133 16.3672C9.86094 16.4052 9.60457 16.4295 9.34473 16.4414L9 17L8.6543 16.4414C8.39445 16.4295 8.13808 16.4052 7.88574 16.3672L7.43945 16.8457L7.20898 16.2314C6.95801 16.1692 6.712 16.0949 6.47168 16.0078L5.93848 16.3916L5.83203 15.7412C5.59936 15.6314 5.3731 15.5104 5.1543 15.3779L4.55469 15.6523L4.57812 14.9922C4.37238 14.8399 4.17418 14.678 3.98535 14.5059L3.34277 14.6572L3.49316 14.0137C3.32117 13.825 3.15996 13.6265 3.00781 13.4209L2.34766 13.4453L2.62012 12.8457C2.48752 12.6267 2.36676 12.3999 2.25684 12.167L1.6084 12.0615L1.99023 11.5283C1.903 11.2875 1.82892 11.0406 1.7666 10.7891L1.1543 10.5605L1.63086 10.1143C1.59277 9.86166 1.56856 9.60485 1.55664 9.34473L1 9L1.55664 8.6543C1.56859 8.39418 1.59275 8.13736 1.63086 7.88477L1.1543 7.43945L1.7666 7.20996C1.82893 6.95841 1.903 6.71155 1.99023 6.4707L1.6084 5.93848L2.25684 5.83203C2.36676 5.59913 2.48752 5.37233 2.62012 5.15332L2.34766 4.55469L3.00684 4.57812C3.15923 4.37218 3.32086 4.17337 3.49316 3.98438L3.34277 3.34277L3.98438 3.49316C4.17337 3.32087 4.37217 3.15922 4.57812 3.00684L4.55469 2.34766L5.15332 2.62012C5.37221 2.48761 5.59925 2.36767 5.83203 2.25781L5.93848 1.6084L6.4707 1.99121C6.71127 1.90409 6.95771 1.82985 7.20898 1.76758L7.43945 1.1543L7.88574 1.63184C8.13804 1.59383 8.39447 1.56954 8.6543 1.55762L9 1L9.34473 1.55762ZM7.63086 10.6611H9.07324C9.1283 10.6611 9.16684 10.6725 9.16699 10.7227V12.4668C9.16681 12.5185 9.12828 12.5283 9.07324 12.5283H4.14453C4.30486 12.7456 4.47999 12.9516 4.66797 13.1455L5.68164 12.9287C5.92259 12.8769 6.15875 13.0306 6.21094 13.2715L6.45703 14.4199C7.24432 14.7855 8.10172 14.9764 8.96973 14.9805C9.83772 14.9845 10.6966 14.8015 11.4873 14.4434L11.7334 13.2959C11.7854 13.0549 12.0226 12.9004 12.2637 12.9521L13.2998 13.1738C13.5006 12.972 13.6871 12.7564 13.8574 12.5283H11.3135C10.9116 12.5282 10.5344 11.9605 10.4414 11.6768C10.3484 11.4229 10.2119 10.6314 10.1504 10.3887C9.95333 9.59741 9.33327 9.55664 9.19141 9.55664H7.63281L7.63086 10.6611ZM12.6172 13.5713C12.5516 13.5694 12.4859 13.5807 12.4248 13.6045C12.3639 13.6283 12.3086 13.6644 12.2617 13.71C12.2147 13.7557 12.1769 13.8107 12.1514 13.8711C12.126 13.9314 12.1133 13.9961 12.1133 14.0615C12.1133 14.1915 12.1649 14.3163 12.2568 14.4082C12.3488 14.5001 12.4736 14.5518 12.6035 14.5518C12.7334 14.5516 12.8584 14.5 12.9502 14.4082C13.0419 14.3163 13.0937 14.1914 13.0938 14.0615C13.0938 13.934 13.0439 13.8112 12.9551 13.7197C12.8662 13.6282 12.7447 13.575 12.6172 13.5713ZM5.3584 13.5498C5.29283 13.5479 5.22714 13.5592 5.16602 13.583C5.10501 13.6068 5.04891 13.6419 5.00195 13.6875C4.95495 13.7332 4.9181 13.7883 4.89258 13.8486C4.86706 13.9091 4.85349 13.9744 4.85352 14.04C4.85363 14.1699 4.90523 14.2949 4.99707 14.3867C5.08895 14.4785 5.21385 14.5302 5.34375 14.5303C5.47362 14.5303 5.59852 14.4785 5.69043 14.3867C5.78227 14.2949 5.83387 14.1699 5.83398 14.04C5.83404 13.9124 5.7842 13.7898 5.69531 13.6982C5.60648 13.6068 5.48585 13.5536 5.3584 13.5498ZM9.26562 3.82324C9.08749 3.99492 8.80594 3.98667 8.63574 3.80859L7.87988 3.01758C6.57624 3.26396 5.38976 3.93335 4.50488 4.92188H10.9053C11.0661 4.92188 11.6621 4.99298 12.2012 5.34766C12.5842 5.60144 13.1464 6.11838 13.1465 6.93945C13.1465 7.69926 12.5161 8.26869 11.9092 8.65332C12.3978 9.03952 12.7075 9.26159 12.8936 10.3066C12.9377 10.4989 13.2854 10.6679 13.6006 10.6318C13.9316 10.5956 14.3086 10.4486 14.3086 9.78027V9.49609C14.3087 9.43645 14.3342 9.39551 14.3955 9.39551H15.0146C15.0408 9.04695 15.0365 8.69646 15.002 8.34863L13.8896 7.85547C13.6659 7.75462 13.563 7.49001 13.6621 7.26465L14.2412 5.95898C13.8075 5.19836 13.2132 4.54114 12.5 4.0332C11.7869 3.52537 10.9718 3.17881 10.1113 3.01758L9.26562 3.82324ZM4.28418 7.2373C4.38507 7.46272 4.28304 7.72626 4.05762 7.82715L3.00195 8.29688C2.91807 9.06988 2.98435 9.85179 3.19727 10.5996H4.92188V6.74707H4.06738L4.28418 7.2373ZM7.63086 7.9248H9.51953C9.9214 7.9248 10.4099 7.78314 10.4102 7.3877C10.4102 6.91016 9.77379 6.78814 9.66797 6.78809H7.63281L7.63086 7.9248ZM14.832 6.66895C14.7665 6.66705 14.7008 6.67836 14.6396 6.70215C14.5789 6.72587 14.5234 6.76124 14.4766 6.80664C14.4295 6.85233 14.3917 6.90738 14.3662 6.96777C14.3407 7.0282 14.3271 7.09359 14.3271 7.15918C14.3272 7.28908 14.3798 7.414 14.4717 7.50586C14.5635 7.59742 14.6877 7.64929 14.8174 7.64941C14.9472 7.64941 15.0722 7.59754 15.1641 7.50586C15.2559 7.414 15.3075 7.28908 15.3076 7.15918C15.3077 7.03173 15.2586 6.90889 15.1699 6.81738C15.081 6.72584 14.9596 6.67264 14.832 6.66895ZM3.14355 6.64648C3.07799 6.64459 3.0123 6.6559 2.95117 6.67969C2.89012 6.70347 2.8341 6.73949 2.78711 6.78516C2.74021 6.83081 2.7032 6.88599 2.67773 6.94629C2.65231 7.0066 2.63865 7.07126 2.63867 7.13672C2.63867 7.26667 2.69039 7.39147 2.78223 7.4834C2.8741 7.57527 2.99898 7.62688 3.12891 7.62695C3.25887 7.62695 3.38366 7.57527 3.47559 7.4834C3.56752 7.39146 3.61914 7.26674 3.61914 7.13672C3.61918 7.00913 3.56935 6.88645 3.48047 6.79492C3.39164 6.70359 3.27091 6.65022 3.14355 6.64648ZM8.98828 2.21094C8.92286 2.20907 8.85788 2.22043 8.79688 2.24414C8.73575 2.26793 8.67985 2.3039 8.63281 2.34961C8.58586 2.39527 8.54795 2.44944 8.52246 2.50977C8.49694 2.57019 8.48435 2.63558 8.48438 2.70117C8.48445 2.83109 8.53605 2.95598 8.62793 3.04785C8.71984 3.13961 8.84472 3.19141 8.97461 3.19141C9.10452 3.19133 9.22942 3.13972 9.32129 3.04785C9.41315 2.95598 9.46477 2.83109 9.46484 2.70117C9.46489 2.57332 9.4151 2.44998 9.32617 2.3584C9.23724 2.26681 9.11569 2.21424 8.98828 2.21094Z" fill="currentColor"/>
</svg>
