<svg width="24" height="24" viewBox="0 0 24 24" fill="none" xmlns="http://www.w3.org/2000/svg">
<path d="M16.4866 6.67859C18.2956 7.94734 19.5439 9.96457 19.7972 12.2921" stroke="#637F8A" stroke-width="2" stroke-linecap="round" stroke-linejoin="round"/>
<path d="M4.30298 12.3377C4.53816 10.0192 5.76832 8.002 7.5593 6.72412" stroke="#637F8A" stroke-width="2" stroke-linecap="round" stroke-linejoin="round"/>
<path d="M8.55396 20.1603C9.60321 20.6988 10.7972 21 12.0545 21C13.2666 21 14.4063 20.7262 15.4284 20.2242" stroke="#637F8A" stroke-width="2" stroke-linecap="round" stroke-linejoin="round"/>
<path d="M12.0546 8.07502C13.4434 8.07502 14.5692 6.93894 14.5692 5.53751C14.5692 4.13608 13.4434 3 12.0546 3C10.6659 3 9.54004 4.13608 9.54004 5.53751C9.54004 6.93894 10.6659 8.07502 12.0546 8.07502Z" stroke="#637F8A" stroke-width="2" stroke-linecap="round" stroke-linejoin="round"/>
<path d="M5.5146 19.2293C6.90338 19.2293 8.02921 18.0932 8.02921 16.6918C8.02921 15.2904 6.90338 14.1543 5.5146 14.1543C4.12583 14.1543 3 15.2904 3 16.6918C3 18.0932 4.12583 19.2293 5.5146 19.2293Z" stroke="#637F8A" stroke-width="2" stroke-linecap="round" stroke-linejoin="round"/>
<path d="M18.4856 19.2293C19.8743 19.2293 21.0002 18.0932 21.0002 16.6918C21.0002 15.2904 19.8743 14.1543 18.4856 14.1543C17.0968 14.1543 15.9709 15.2904 15.9709 16.6918C15.9709 18.0932 17.0968 19.2293 18.4856 19.2293Z" stroke="#637F8A" stroke-width="2" stroke-linecap="round" stroke-linejoin="round"/>
</svg>
