<svg width="28" height="28" viewBox="0 0 28 28" fill="none" xmlns="http://www.w3.org/2000/svg">
<rect width="28" height="28" rx="8" fill="#07A972" fill-opacity="0.1"/>
<path d="M18.8993 5.65562C18.0632 4.96801 17.0842 4.47572 16.0337 4.21465C14.9831 3.95359 13.8875 3.93035 12.8269 4.14662C11.4146 4.43189 10.1188 5.13026 9.10408 6.15312C8.08932 7.17597 7.40126 8.47721 7.12721 9.89174C6.92708 10.9523 6.96345 12.044 7.23372 13.0889C7.50398 14.1339 8.00149 15.1063 8.69076 15.9368C9.33043 16.6587 9.69709 17.5818 9.72706 18.5458V21.2729C9.72706 21.9962 10.0144 22.6898 10.5258 23.2012C11.0372 23.7127 11.7309 24 12.4542 24H16.0903C16.8136 24 17.5073 23.7127 18.0187 23.2012C18.5301 22.6898 18.8174 21.9962 18.8174 21.2729V18.7185C18.8479 17.6542 19.239 16.6317 19.9265 15.8187C21.131 14.3285 21.6989 12.4232 21.5065 10.5168C21.3142 8.61039 20.3772 6.8569 18.8993 5.63744V5.65562ZM16.9994 21.2729C16.9994 21.514 16.9036 21.7452 16.7331 21.9157C16.5626 22.0862 16.3314 22.1819 16.0903 22.1819H12.4542C12.2131 22.1819 11.9819 22.0862 11.8114 21.9157C11.6409 21.7452 11.5451 21.514 11.5451 21.2729V20.3638H16.9994V21.2729ZM18.5175 14.6915C17.6034 15.7756 17.0701 17.1295 16.9994 18.5458H15.1813V15.8187C15.1813 15.5776 15.0855 15.3464 14.915 15.1759C14.7446 15.0054 14.5133 14.9096 14.2722 14.9096C14.0312 14.9096 13.7999 15.0054 13.6295 15.1759C13.459 15.3464 13.3632 15.5776 13.3632 15.8187V18.5458H11.5451C11.5212 17.1532 11.006 15.8139 10.0907 14.7642C9.48675 14.0406 9.08064 13.1728 8.91194 12.2456C8.74324 11.3183 8.81771 10.3631 9.12808 9.47315C9.43846 8.58322 9.97416 7.7889 10.6829 7.16765C11.3917 6.54639 12.2494 6.11941 13.1723 5.92833C13.9655 5.76502 14.7851 5.78038 15.5716 5.9733C16.3581 6.16622 17.0918 6.53186 17.7194 7.04368C18.3469 7.55549 18.8527 8.20063 19.1998 8.93226C19.547 9.66389 19.7269 10.4637 19.7265 11.2735C19.7332 12.5187 19.3057 13.7274 18.5175 14.6915V14.6915Z" fill="#07A972"/>
</svg>
