<svg width="24" height="24" viewBox="0 0 24 24" fill="none" xmlns="http://www.w3.org/2000/svg">
<path d="M20.6235 3.8778C20.5866 3.73785 20.5133 3.61018 20.4109 3.50784C20.3086 3.4055 20.1809 3.33215 20.041 3.29528C18.3647 2.8599 16.5996 2.9068 14.9489 3.43056C13.2981 3.95432 11.8288 4.93365 10.7102 6.25579L9.79918 7.33753L7.67072 6.82398C7.15326 6.64358 6.58801 6.65651 6.07934 6.86038C5.57068 7.06425 5.15296 7.44529 4.90333 7.93313L3.10549 11.1199C3.0425 11.2315 3.00665 11.3564 3.00084 11.4844C2.99503 11.6124 3.01943 11.74 3.07205 11.8569C3.12468 11.9738 3.20407 12.0766 3.30379 12.1571C3.40352 12.2376 3.52079 12.2936 3.64612 12.3204L6.15695 12.8586C5.94426 13.5061 5.79239 14.1719 5.70331 14.8476C5.68716 14.9717 5.69973 15.0979 5.74006 15.2164C5.78039 15.3349 5.8474 15.4425 5.93591 15.531L8.46909 18.0642C8.54494 18.1401 8.635 18.2003 8.73413 18.2414C8.83325 18.2825 8.9395 18.3036 9.0468 18.3036C9.07035 18.3036 9.09389 18.3024 9.11783 18.3005C9.80858 18.2384 10.4909 18.1042 11.1538 17.9001L11.6797 20.354C11.7066 20.4793 11.7626 20.5966 11.8431 20.6963C11.9236 20.7959 12.0265 20.8753 12.1433 20.9279C12.2602 20.9805 12.3877 21.0049 12.5158 20.9992C12.6438 20.9934 12.7687 20.9576 12.8803 20.8947L16.0714 19.0948C16.5205 18.8219 16.8714 18.4134 17.0733 17.9282C17.2752 17.443 17.3178 16.9062 17.195 16.3953L16.6485 14.1408L17.6594 13.2113C18.9865 12.0958 19.9696 10.6265 20.4943 8.9742C21.019 7.3219 21.0638 5.55457 20.6235 3.8778ZM5.0745 10.9551L6.34608 8.69999C6.42506 8.5469 6.55962 8.42982 6.72216 8.37277C6.88471 8.31572 7.06292 8.32302 7.22026 8.39317L8.62361 8.73326L8.09247 9.36391C7.58892 9.96742 7.1534 10.6246 6.79379 11.3235L5.0745 10.9551ZM15.2643 17.6736L13.0451 18.9252L12.6941 17.2872C13.4056 16.9324 14.0683 16.4875 14.6662 15.9635L15.2738 15.4049L15.6034 16.7651C15.6462 16.9331 15.6366 17.1101 15.576 17.2724C15.5154 17.4348 15.4066 17.5748 15.2643 17.6736ZM16.5833 11.9821L13.5726 14.7491C12.3808 15.7797 10.9109 16.4348 9.34767 16.6319L7.38305 14.6673C7.64692 13.1 8.32415 11.6315 9.34488 10.4133L10.7163 8.78503C10.7391 8.76113 10.7605 8.73581 10.7801 8.70923L11.9527 7.3171C12.8196 6.29315 13.9428 5.51762 15.2075 5.0697C16.4722 4.62178 17.8331 4.51752 19.1512 4.76756C19.4073 6.08985 19.3042 7.45662 18.8525 8.72551C18.4009 9.99439 17.6173 11.119 16.5833 11.9821ZM15.8291 6.9455C15.5867 6.9455 15.3497 7.01739 15.1482 7.15207C14.9466 7.28675 14.7895 7.47818 14.6967 7.70214C14.604 7.92611 14.5797 8.17256 14.627 8.41032C14.6743 8.64808 14.791 8.86648 14.9624 9.03789C15.1338 9.20931 15.3522 9.32605 15.59 9.37334C15.8278 9.42063 16.0742 9.39636 16.2982 9.30359C16.5221 9.21082 16.7136 9.05372 16.8483 8.85215C16.9829 8.65059 17.0548 8.41362 17.0548 8.1712C17.0548 8.01023 17.0231 7.85084 16.9615 7.70212C16.8999 7.5534 16.8097 7.41828 16.6958 7.30446C16.582 7.19064 16.4469 7.10035 16.2982 7.03876C16.1495 6.97717 15.9901 6.94547 15.8291 6.94549L15.8291 6.9455Z" fill="#637F8A"/>
</svg>
