<svg width="18" height="18" viewBox="0 0 18 18" fill="none" xmlns="http://www.w3.org/2000/svg">
<path d="M11.4316 15V13.667C11.4316 13.1477 11.2344 12.6559 10.8936 12.2988C10.554 11.9431 10.1012 11.7501 9.63672 11.75H4.5459C4.08129 11.75 3.62777 11.943 3.28809 12.2988C2.94726 12.6559 2.75 13.1477 2.75 13.667V15C2.75 15.4142 2.41421 15.75 2 15.75C1.58579 15.75 1.25 15.4142 1.25 15V13.667C1.25 12.7719 1.58934 11.9068 2.20312 11.2637C2.81816 10.6193 3.66033 10.25 4.5459 10.25H9.63672C10.5222 10.2501 11.3636 10.6194 11.9785 11.2637C12.5924 11.9068 12.9316 12.7719 12.9316 13.667V15C12.9316 15.4142 12.5959 15.75 12.1816 15.75C11.7675 15.7499 11.4316 15.4142 11.4316 15ZM15.25 15V13.667C15.2496 13.2338 15.1115 12.817 14.8633 12.4814C14.6154 12.1465 14.2736 11.9129 13.8955 11.8105C13.4957 11.7024 13.259 11.2905 13.3672 10.8906C13.4755 10.4909 13.8874 10.2542 14.2871 10.3623C15.0009 10.5554 15.6263 10.9901 16.0693 11.5889C16.512 12.1871 16.7494 12.9178 16.75 13.666V15C16.75 15.4142 16.4142 15.75 16 15.75C15.5858 15.75 15.25 15.4142 15.25 15ZM8.88672 5.66699C8.88672 4.57518 8.04993 3.75 7.09082 3.75C6.13175 3.75005 5.2959 4.57522 5.2959 5.66699C5.29606 6.75861 6.13185 7.58296 7.09082 7.58301C8.04983 7.58301 8.88655 6.75864 8.88672 5.66699ZM12.71 5.66992C12.7099 5.23568 12.5713 4.81761 12.3223 4.48145C12.0737 4.14596 11.7306 3.91332 11.3516 3.81152C10.9515 3.70422 10.7141 3.2926 10.8213 2.89258C10.9286 2.49251 11.3402 2.25499 11.7402 2.3623C12.4557 2.55433 13.083 2.98836 13.5273 3.58789C13.9714 4.18716 14.2099 4.92002 14.21 5.66992C14.21 6.41985 13.9714 7.15267 13.5273 7.75195C13.083 8.35152 12.4557 8.7855 11.7402 8.97754C11.3402 9.08485 10.9286 8.84734 10.8213 8.44727C10.7142 8.04729 10.9516 7.63658 11.3516 7.5293C11.7307 7.42753 12.0737 7.19394 12.3223 6.8584C12.5713 6.52223 12.71 6.10415 12.71 5.66992ZM10.3867 5.66699C10.3865 7.52056 8.94324 9.08301 7.09082 9.08301C5.23844 9.08296 3.79607 7.52053 3.7959 5.66699C3.7959 3.81331 5.23834 2.25005 7.09082 2.25C8.94335 2.25 10.3867 3.81328 10.3867 5.66699Z" fill="currentColor"/>
</svg>
