<svg width="24" height="24" viewBox="0 0 24 24" fill="none" xmlns="http://www.w3.org/2000/svg">
<path fill-rule="evenodd" clip-rule="evenodd" d="M19.8096 8.77888C21.3531 11.2741 21.8866 13.9417 21.2541 16.0017C21.022 16.7576 20.6329 17.4317 20.0792 17.9855L15.3411 13.2474L8.23403 20.3544C6.92564 21.6628 4.80433 21.6628 3.49594 20.3544C2.18755 19.046 2.18755 16.9247 3.49594 15.6163L10.603 8.50927L5.86489 3.77118C6.41867 3.2174 7.09277 2.82832 7.84866 2.59623C9.90869 1.96371 12.5762 2.49722 15.0715 4.04079L15.3411 3.77118C15.7772 3.33505 16.4843 3.33505 16.9204 3.77118L20.0792 6.92991C20.5153 7.36604 20.5153 8.07314 20.0792 8.50927L19.8096 8.77888ZM16.8865 8.54317C16.6521 8.26419 16.4002 7.989 16.1308 7.71959C15.8613 7.45018 15.5862 7.19828 15.3072 6.96381L13.7618 8.50917L15.3412 10.0885L16.8865 8.54317ZM16.9204 11.668L19.2806 14.0282C19.2714 13.7095 19.2322 13.3641 19.1577 12.9915C18.9947 12.1766 18.6689 11.2964 18.1778 10.4106L16.9204 11.668ZM13.7617 11.668L12.1823 10.0886L5.0753 17.1957C4.63917 17.6318 4.63917 18.3389 5.0753 18.775C5.51143 19.2112 6.21854 19.2112 6.65467 18.775L13.7617 11.668ZM12.1824 6.92981L13.4398 5.6725C12.5539 5.1814 11.6738 4.85565 10.8588 4.69266C10.4863 4.61815 10.1408 4.5789 9.82214 4.5697L12.1824 6.92981Z" fill="#637F8A"/>
</svg>
