<svg width="24" height="24" viewBox="0 0 24 24" fill="none" xmlns="http://www.w3.org/2000/svg">
<path d="M18.3 7.6H17.4V6.7C17.4 5.98392 17.1155 5.29716 16.6092 4.79081C16.1028 4.28446 15.4161 4 14.7 4H5.7C4.98392 4 4.29716 4.28446 3.79081 4.79081C3.28446 5.29716 3 5.98392 3 6.7V17.5C3 18.2161 3.28446 18.9028 3.79081 19.4092C4.29716 19.9155 4.98392 20.2 5.7 20.2H18.3C19.0161 20.2 19.7028 19.9155 20.2092 19.4092C20.7155 18.9028 21 18.2161 21 17.5V10.3C21 9.58392 20.7155 8.89716 20.2092 8.39081C19.7028 7.88446 19.0161 7.6 18.3 7.6ZM5.7 5.8H14.7C14.9387 5.8 15.1676 5.89482 15.3364 6.0636C15.5052 6.23239 15.6 6.46131 15.6 6.7V7.6H5.7C5.46131 7.6 5.23239 7.50518 5.0636 7.3364C4.89482 7.16761 4.8 6.93869 4.8 6.7C4.8 6.46131 4.89482 6.23239 5.0636 6.0636C5.23239 5.89482 5.46131 5.8 5.7 5.8ZM19.2 14.8H18.3C18.0613 14.8 17.8324 14.7052 17.6636 14.5364C17.4948 14.3676 17.4 14.1387 17.4 13.9C17.4 13.6613 17.4948 13.4324 17.6636 13.2636C17.8324 13.0948 18.0613 13 18.3 13H19.2V14.8ZM19.2 11.2H18.3C17.5839 11.2 16.8972 11.4845 16.3908 11.9908C15.8845 12.4972 15.6 13.1839 15.6 13.9C15.6 14.6161 15.8845 15.3028 16.3908 15.8092C16.8972 16.3155 17.5839 16.6 18.3 16.6H19.2V17.5C19.2 17.7387 19.1052 17.9676 18.9364 18.1364C18.7676 18.3052 18.5387 18.4 18.3 18.4H5.7C5.46131 18.4 5.23239 18.3052 5.0636 18.1364C4.89482 17.9676 4.8 17.7387 4.8 17.5V9.247C5.08914 9.34872 5.39349 9.40045 5.7 9.4H18.3C18.5387 9.4 18.7676 9.49482 18.9364 9.6636C19.1052 9.83239 19.2 10.0613 19.2 10.3V11.2Z" fill="#637F8A"/>
</svg>
