<svg width="18" height="18" viewBox="0 0 18 18" fill="none" xmlns="http://www.w3.org/2000/svg">
<path fill-rule="evenodd" clip-rule="evenodd" d="M14.4545 16.5C13.3249 16.5 12.4091 15.5842 12.4091 14.4545C12.4091 13.5639 12.9783 12.8063 13.7727 12.5255V9H9.68182V12.5255C10.4763 12.8063 11.0455 13.5639 11.0455 14.4545C11.0455 15.5842 10.1297 16.5 9 16.5C7.87033 16.5 6.95455 15.5842 6.95455 14.4545C6.95455 13.5639 7.52373 12.8063 8.31818 12.5255V9H4.22727V12.5255C5.02172 12.8063 5.59091 13.5639 5.59091 14.4545C5.59091 15.5842 4.67513 16.5 3.54545 16.5C2.41578 16.5 1.5 15.5842 1.5 14.4545C1.5 13.5639 2.06919 12.8063 2.86364 12.5255V9C2.86364 8.24688 3.47416 7.63636 4.22727 7.63636H8.31818V5.47452C7.52373 5.19372 6.95455 4.43606 6.95455 3.54545C6.95455 2.41578 7.87033 1.5 9 1.5C10.1297 1.5 11.0455 2.41578 11.0455 3.54545C11.0455 4.43606 10.4763 5.19372 9.68182 5.47452V7.63636H13.7727C14.5258 7.63636 15.1364 8.24688 15.1364 9V12.5255C15.9308 12.8063 16.5 13.5639 16.5 14.4545C16.5 15.5842 15.5842 16.5 14.4545 16.5ZM14.4545 15.1364C14.078 15.1364 13.7727 14.8311 13.7727 14.4545C13.7727 14.078 14.078 13.7727 14.4545 13.7727C14.8311 13.7727 15.1364 14.078 15.1364 14.4545C15.1364 14.8311 14.8311 15.1364 14.4545 15.1364ZM8.31818 3.54545C8.31818 3.92201 8.62344 4.22727 9 4.22727C9.37656 4.22727 9.68182 3.92201 9.68182 3.54545C9.68182 3.1689 9.37656 2.86364 9 2.86364C8.62344 2.86364 8.31818 3.1689 8.31818 3.54545ZM8.31818 14.4545C8.31818 14.8311 8.62344 15.1364 9 15.1364C9.37656 15.1364 9.68182 14.8311 9.68182 14.4545C9.68182 14.078 9.37656 13.7727 9 13.7727C8.62344 13.7727 8.31818 14.078 8.31818 14.4545ZM2.86364 14.4545C2.86364 14.8311 3.1689 15.1364 3.54545 15.1364C3.92201 15.1364 4.22727 14.8311 4.22727 14.4545C4.22727 14.078 3.92201 13.7727 3.54545 13.7727C3.1689 13.7727 2.86364 14.078 2.86364 14.4545Z" fill="currentColor"/>
</svg>
