<svg width="28" height="28" viewBox="0 0 28 28" fill="none" xmlns="http://www.w3.org/2000/svg">
<rect width="28" height="28" rx="8" fill="#07A972" fill-opacity="0.1"/>
<path d="M18.5422 6.34749C15.956 4.46388 12.9877 3.68215 10.465 4.11743C10.1535 4.17118 10.157 4.58348 10.4583 4.67899C12.5731 5.34927 14.733 6.52252 16.7311 8.15866L18.5422 6.34749Z" stroke="#07A972" stroke-width="1.5" stroke-linecap="round" stroke-linejoin="round"/>
<path d="M19.8413 11.2689C21.4775 13.267 22.6508 15.4269 23.3211 17.5418C23.4166 17.8431 23.8289 17.8466 23.8827 17.5351C24.318 15.0123 23.5362 12.044 21.6525 9.45773L19.8413 11.2689Z" stroke="#07A972" stroke-width="1.5" stroke-linecap="round" stroke-linejoin="round"/>
<path d="M17.3297 8.89306L19.1069 10.6703L14.6637 15.1136L12.8864 13.3363L17.3297 8.89306Z" stroke="#07A972" stroke-width="1.5" stroke-linecap="round" stroke-linejoin="round"/>
<path d="M12.4421 12.892L15.108 15.5579L6.66593 24L4 21.3341L12.4421 12.892Z" stroke="#07A972" stroke-width="1.5" stroke-linecap="round" stroke-linejoin="round"/>
<path d="M18.8848 6.00497L21.995 9.11522L19.5513 11.559L16.441 8.44874L18.8848 6.00497Z" stroke="#07A972" stroke-width="1.5" stroke-linecap="round" stroke-linejoin="round"/>
</svg>
