<svg width="28" height="28" viewBox="0 0 28 28" fill="none" xmlns="http://www.w3.org/2000/svg">
<rect width="28" height="28" rx="8" fill="#07A972" fill-opacity="0.1"/>
<path d="M21 9H20V8C20 7.20435 19.6839 6.44129 19.1213 5.87868C18.5587 5.31607 17.7956 5 17 5H7C6.20435 5 5.44129 5.31607 4.87868 5.87868C4.31607 6.44129 4 7.20435 4 8V8V20C4 20.7956 4.31607 21.5587 4.87868 22.1213C5.44129 22.6839 6.20435 23 7 23H21C21.7956 23 22.5587 22.6839 23.1213 22.1213C23.6839 21.5587 24 20.7956 24 20V12C24 11.2044 23.6839 10.4413 23.1213 9.87868C22.5587 9.31607 21.7956 9 21 9ZM7 7H17C17.2652 7 17.5196 7.10536 17.7071 7.29289C17.8946 7.48043 18 7.73478 18 8V9H7C6.73478 9 6.48043 8.89464 6.29289 8.70711C6.10536 8.51957 6 8.26522 6 8C6 7.73478 6.10536 7.48043 6.29289 7.29289C6.48043 7.10536 6.73478 7 7 7V7ZM22 17H21C20.7348 17 20.4804 16.8946 20.2929 16.7071C20.1054 16.5196 20 16.2652 20 16C20 15.7348 20.1054 15.4804 20.2929 15.2929C20.4804 15.1054 20.7348 15 21 15H22V17ZM22 13H21C20.2044 13 19.4413 13.3161 18.8787 13.8787C18.3161 14.4413 18 15.2044 18 16C18 16.7956 18.3161 17.5587 18.8787 18.1213C19.4413 18.6839 20.2044 19 21 19H22V20C22 20.2652 21.8946 20.5196 21.7071 20.7071C21.5196 20.8946 21.2652 21 21 21H7C6.73478 21 6.48043 20.8946 6.29289 20.7071C6.10536 20.5196 6 20.2652 6 20V10.83C6.32127 10.943 6.65943 11.0005 7 11H21C21.2652 11 21.5196 11.1054 21.7071 11.2929C21.8946 11.4804 22 11.7348 22 12V13Z" fill="#07A972"/>
</svg>
