<svg width="18" height="18" viewBox="0 0 18 18" fill="none" xmlns="http://www.w3.org/2000/svg">
<path d="M13 5.12012L12.8438 13L8.73926 9.50098L10.8252 9.5332L10.9141 5.08789L13 5.12012Z" fill="#637F8A"/>
<path d="M9.26074 8.49902L7.1748 8.4668L7.08594 12.9121L5 12.8799L5.15625 5L9.26074 8.49902Z" fill="#637F8A"/>
<path fill-rule="evenodd" clip-rule="evenodd" d="M9 1C13.4183 1 17 4.58172 17 9C17 13.4183 13.4183 17 9 17C4.58172 17 1 13.4183 1 9C1 4.58172 4.58172 1 9 1ZM9 2.5C5.41015 2.5 2.5 5.41015 2.5 9C2.5 12.5899 5.41015 15.5 9 15.5C12.5899 15.5 15.5 12.5899 15.5 9C15.5 5.41015 12.5899 2.5 9 2.5Z" fill="#637F8A"/>
</svg>
