<svg width="18" height="18" viewBox="0 0 18 18" fill="none" xmlns="http://www.w3.org/2000/svg">
<path d="M3.51074 11.6484L3.5127 11.6475L3.51367 11.6455L3.51074 11.6484ZM14.7285 11.6318L14.7275 11.6338L14.7236 11.6367C14.7212 11.6391 14.7186 11.6419 14.7158 11.6445C14.7101 11.65 14.7036 11.6565 14.6963 11.6631C14.6817 11.6763 14.6637 11.6916 14.6426 11.709C14.6002 11.7439 14.5442 11.786 14.4736 11.833C14.3322 11.9273 14.1333 12.0396 13.8662 12.1465C13.3306 12.3607 12.5347 12.5498 11.4004 12.5498C10.1859 12.5498 9.18272 12.1405 8.32129 11.7959C7.43285 11.4405 6.68522 11.1504 5.7998 11.1504C4.83446 11.1504 4.22994 11.3106 3.89062 11.4463C3.83743 11.4676 3.7912 11.4901 3.75 11.5098V16C3.75 16.4142 3.41421 16.75 3 16.75C2.58579 16.75 2.25 16.4142 2.25 16V2.7002C2.25 2.50133 2.32914 2.31056 2.46973 2.16992C2.47656 2.16309 2.48438 2.15527 2.4707 2.16895L2.47168 2.16797L2.47266 2.16602L2.47656 2.16309C2.47901 2.16069 2.48153 2.15798 2.48438 2.15527C2.49007 2.14984 2.49662 2.14334 2.50391 2.13672C2.51843 2.12352 2.53656 2.10816 2.55762 2.09082C2.59996 2.05596 2.65609 2.01378 2.72656 1.9668C2.868 1.87252 3.06693 1.76014 3.33398 1.65332C3.86961 1.43909 4.66547 1.25002 5.7998 1.25C7.01428 1.25 8.01748 1.65934 8.87891 2.00391C9.7673 2.35926 10.515 2.65039 11.4004 2.65039C12.3654 2.65035 12.9692 2.48921 13.3086 2.35352C13.4787 2.28547 13.5861 2.22252 13.6416 2.18555C13.6694 2.16698 13.6853 2.15475 13.6895 2.15137L13.6875 2.15332C13.6859 2.15477 13.6835 2.15652 13.6807 2.15918L13.6729 2.16699L13.6709 2.16797C13.8854 1.95425 14.2075 1.89093 14.4873 2.00684C14.7675 2.12296 14.9502 2.39691 14.9502 2.7002V11.0996C14.9502 11.2984 14.8709 11.4893 14.7305 11.6299L14.7285 11.6318ZM5.7998 2.75C4.83446 2.75002 4.22994 2.91017 3.89062 3.0459C3.83727 3.06724 3.79129 3.09063 3.75 3.11035V9.91113C4.2573 9.76227 4.92861 9.65041 5.7998 9.65039C7.01428 9.65039 8.01748 10.0587 8.87891 10.4033C9.76739 10.7587 10.5149 11.0498 11.4004 11.0498C12.3652 11.0498 12.9692 10.8896 13.3086 10.7539C13.3623 10.7324 13.4087 10.7083 13.4502 10.6885V3.8877C12.9429 4.03662 12.2718 4.15036 11.4004 4.15039C10.1859 4.15039 9.18272 3.74106 8.32129 3.39648C7.43276 3.04107 6.68529 2.75 5.7998 2.75Z" fill="currentColor"/>
</svg>
