<svg width="18" height="18" viewBox="0 0 18 18" fill="none" xmlns="http://www.w3.org/2000/svg">
<path fill-rule="evenodd" clip-rule="evenodd" d="M16.5 3.54545C16.5 4.67513 15.5842 5.59091 14.4545 5.59091C13.5639 5.59091 12.8063 5.02172 12.5255 4.22727H9V8.31818H12.5255C12.8063 7.52373 13.5639 6.95455 14.4545 6.95455C15.5842 6.95455 16.5 7.87033 16.5 9C16.5 10.1297 15.5842 11.0455 14.4545 11.0455C13.5639 11.0455 12.8063 10.4763 12.5255 9.68182H9V13.7727H12.5255C12.8063 12.9783 13.5639 12.4091 14.4545 12.4091C15.5842 12.4091 16.5 13.3249 16.5 14.4545C16.5 15.5842 15.5842 16.5 14.4545 16.5C13.5639 16.5 12.8063 15.9308 12.5255 15.1364H9C8.24688 15.1364 7.63636 14.5258 7.63636 13.7727V9.68182H5.47452C5.19372 10.4763 4.43606 11.0455 3.54545 11.0455C2.41578 11.0455 1.5 10.1297 1.5 9C1.5 7.87033 2.41578 6.95455 3.54545 6.95455C4.43606 6.95455 5.19372 7.52373 5.47452 8.31818H7.63636V4.22727C7.63636 3.47416 8.24688 2.86364 9 2.86364H12.5255C12.8063 2.06919 13.5639 1.5 14.4545 1.5C15.5842 1.5 16.5 2.41578 16.5 3.54545ZM15.1364 3.54545C15.1364 3.92201 14.8311 4.22727 14.4545 4.22727C14.078 4.22727 13.7727 3.92201 13.7727 3.54545C13.7727 3.1689 14.078 2.86364 14.4545 2.86364C14.8311 2.86364 15.1364 3.1689 15.1364 3.54545ZM3.54545 9.68182C3.92201 9.68182 4.22727 9.37656 4.22727 9C4.22727 8.62344 3.92201 8.31818 3.54545 8.31818C3.1689 8.31818 2.86364 8.62344 2.86364 9C2.86364 9.37656 3.1689 9.68182 3.54545 9.68182ZM14.4545 9.68182C14.8311 9.68182 15.1364 9.37656 15.1364 9C15.1364 8.62344 14.8311 8.31818 14.4545 8.31818C14.078 8.31818 13.7727 8.62344 13.7727 9C13.7727 9.37656 14.078 9.68182 14.4545 9.68182ZM14.4545 15.1364C14.8311 15.1364 15.1364 14.8311 15.1364 14.4545C15.1364 14.078 14.8311 13.7727 14.4545 13.7727C14.078 13.7727 13.7727 14.078 13.7727 14.4545C13.7727 14.8311 14.078 15.1364 14.4545 15.1364Z" fill="#637F8A"/>
</svg>
