<svg width="18" height="18" viewBox="0 0 18 18" fill="none" xmlns="http://www.w3.org/2000/svg">
<path fill-rule="evenodd" clip-rule="evenodd" d="M0.750102 4.48699C0.74998 4.49439 0.749968 4.50179 0.750064 4.50919V13.5C0.750064 14.7392 1.76085 15.75 3.00006 15.75H15.0001C16.2393 15.75 17.2501 14.7392 17.2501 13.5V4.50927C17.2502 4.50181 17.2502 4.49435 17.25 4.48688C17.2429 3.25366 16.2349 2.25 15.0001 2.25H3.00006C1.76519 2.25 0.757145 3.25372 0.750102 4.48699ZM2.33 4.16546C2.45403 3.92019 2.70909 3.75 3.00006 3.75H15.0001C15.291 3.75 15.5461 3.92019 15.6701 4.16546L9.00006 8.83451L2.33 4.16546ZM15.7501 5.94049V13.5C15.7501 13.9108 15.4109 14.25 15.0001 14.25H3.00006C2.58928 14.25 2.25006 13.9108 2.25006 13.5V5.94049L8.56997 10.3644C8.82821 10.5452 9.17192 10.5452 9.43016 10.3644L15.7501 5.94049Z" fill="#262A2E"/>
</svg>
