<svg width="18" height="18" viewBox="0 0 18 18" fill="none" xmlns="http://www.w3.org/2000/svg">
<path fill-rule="evenodd" clip-rule="evenodd" d="M8.00566 1.77971C8.32371 1.59646 8.68434 1.5 9.05142 1.5C9.41852 1.5 9.77917 1.59647 10.0972 1.77973L10.0988 1.78064L14.8055 4.47016C15.0618 4.61817 15.2832 4.81841 15.4557 5.05701C15.4993 5.1013 15.538 5.15178 15.5706 5.20808C15.5985 5.25634 15.6205 5.30643 15.6367 5.35747C15.7783 5.64452 15.8525 5.96082 15.8528 6.28213V11.6627C15.8525 12.0301 15.7555 12.3908 15.5717 12.7089C15.3878 13.0269 15.1236 13.291 14.8055 13.4747L14.8026 13.4764L10.0988 16.1642L10.0974 16.165C9.87979 16.2904 9.64218 16.3752 9.3962 16.4163C9.29298 16.4698 9.17575 16.5 9.05145 16.5C8.92717 16.5 8.80995 16.4698 8.70674 16.4163C8.46074 16.3753 8.22312 16.2905 8.00544 16.165L8.00404 16.1642L3.30028 13.4763L3.29738 13.4747C2.97925 13.291 2.71502 13.0269 2.53118 12.7089C2.34735 12.3908 2.25038 12.0301 2.25 11.6627V6.28213C2.25033 5.96041 2.32475 5.64371 2.46673 5.35636C2.48289 5.3057 2.50472 5.25599 2.53244 5.20808C2.56482 5.1521 2.60333 5.10187 2.64663 5.05776C2.8192 4.81883 3.04076 4.61833 3.29738 4.47017L3.30027 4.4685L8.00566 1.77971ZM9.80145 14.6065L14.0555 12.1756L14.0566 12.175C14.1464 12.1229 14.221 12.0481 14.273 11.9582C14.3251 11.8681 14.3527 11.7658 14.3528 11.6617L14.3528 6.77895L9.80145 9.41177V14.6065ZM8.30145 9.41169V14.6065L4.04738 12.1756L4.04623 12.175C3.95642 12.1229 3.88181 12.0481 3.82983 11.9582C3.77769 11.868 3.75016 11.7657 3.75 11.6615V6.77884L8.30145 9.41169ZM9.3517 3.08135L13.5762 5.49533L9.05152 8.1127L4.52676 5.49528L8.75115 3.08135L8.75404 3.07968C8.84446 3.02748 8.94702 3 9.05142 3C9.15582 3 9.25839 3.02748 9.3488 3.07968L9.3517 3.08135Z" fill="#637F8A"/>
</svg>
