<svg width="18" height="18" viewBox="0 0 18 18" fill="none" xmlns="http://www.w3.org/2000/svg">
<path d="M6 5.25C6 4.83579 6.33579 4.5 6.75 4.5H11.625C12.0392 4.5 12.375 4.83579 12.375 5.25C12.375 5.66421 12.0392 6 11.625 6H6.75C6.33579 6 6 5.66421 6 5.25Z" fill="#637F8A"/>
<path d="M6.75 7.5C6.33579 7.5 6 7.83579 6 8.25C6 8.66421 6.33579 9 6.75 9H9.75C10.1642 9 10.5 8.66421 10.5 8.25C10.5 7.83579 10.1642 7.5 9.75 7.5H6.75Z" fill="#637F8A"/>
<path fill-rule="evenodd" clip-rule="evenodd" d="M15.3 2.25C15.3 1.83579 14.9642 1.5 14.55 1.5H5.4375C4.79103 1.5 4.17105 1.75681 3.71393 2.21393C3.25681 2.67105 3 3.29103 3 3.9375V14.0625C3 14.709 3.25681 15.329 3.71393 15.7861C4.17105 16.2432 4.79103 16.5 5.4375 16.5H14.55C14.9642 16.5 15.3 16.1642 15.3 15.75V2.25ZM4.77459 3.27459C4.9504 3.09877 5.18886 3 5.4375 3H13.8V11.625H5.4375C5.11253 11.625 4.79426 11.6899 4.5 11.8125V3.9375C4.5 3.68886 4.59877 3.4504 4.77459 3.27459ZM4.5 14.0625C4.5 14.3111 4.59877 14.5496 4.77459 14.7254C4.9504 14.9012 5.18886 15 5.4375 15H13.8V13.125H5.4375C5.18886 13.125 4.9504 13.2238 4.77459 13.3996C4.59877 13.5754 4.5 13.8139 4.5 14.0625Z" fill="#637F8A"/>
</svg>
