<svg width="28" height="28" viewBox="0 0 28 28" fill="none" xmlns="http://www.w3.org/2000/svg">
<rect width="28" height="28" rx="8" fill="#07A972" fill-opacity="0.1"/>
<path fill-rule="evenodd" clip-rule="evenodd" d="M11.8156 6.32433C8.76414 7.21682 6.45959 9.85877 6.06119 13.0909H9.5074C9.71717 10.6743 10.513 8.35273 11.8156 6.32433ZM16.3663 6.32433C17.6689 8.35273 18.4646 10.6743 18.6744 13.0909H22.1206C21.7222 9.85877 19.4177 7.21682 16.3663 6.32433ZM16.6657 13.0909C16.4274 10.717 15.5355 8.45565 14.0909 6.55896C12.6463 8.45565 11.7544 10.717 11.5161 13.0909H16.6657ZM11.5161 15.0909H16.6657C16.4274 17.4648 15.5355 19.7262 14.0909 21.6229C12.6463 19.7262 11.7544 17.4648 11.5161 15.0909ZM9.5074 15.0909H6.06119C6.45959 18.323 8.76414 20.965 11.8156 21.8575C10.513 19.8291 9.71717 17.5075 9.5074 15.0909ZM16.3663 21.8575C17.6689 19.8291 18.4646 17.5075 18.6744 15.0909H22.1206C21.7222 18.323 19.4177 20.965 16.3663 21.8575ZM14.0909 24.1818C19.664 24.1818 24.1818 19.664 24.1818 14.0909C24.1818 8.51785 19.664 4 14.0909 4C8.51785 4 4 8.51785 4 14.0909C4 19.664 8.51785 24.1818 14.0909 24.1818Z" fill="#07A972"/>
</svg>
