<svg width="18" height="18" viewBox="0 0 18 18" fill="none" xmlns="http://www.w3.org/2000/svg">
<path fill-rule="evenodd" clip-rule="evenodd" d="M12.5787 2.21672C12.1606 2.15243 11.7324 2.15755 11.3116 2.23422C10.5467 2.3736 9.84235 2.74278 9.29255 3.29259C8.74275 3.84239 8.37356 4.54669 8.23419 5.31163C8.09481 6.07658 8.19187 6.86583 8.51243 7.57421C8.62826 7.83018 8.57343 8.13113 8.37476 8.3298L3.19226 13.5123C3.02048 13.6841 2.92397 13.9171 2.92397 14.16C2.92397 14.4029 3.02048 14.6359 3.19226 14.8077C3.36404 14.9795 3.59703 15.076 3.83996 15.076C4.0829 15.076 4.31589 14.9795 4.48767 14.8077L9.67017 9.6252C9.86883 9.42654 10.1698 9.3717 10.4257 9.48753C11.1341 9.80809 11.9234 9.90515 12.6883 9.76577C13.4533 9.6264 14.1576 9.25721 14.7074 8.70741C15.2572 8.15761 15.6264 7.45331 15.7657 6.68836C15.8424 6.26753 15.8475 5.83934 15.7832 5.42131L13.7475 7.45707C13.4811 7.71817 13.123 7.86439 12.75 7.86439C12.377 7.86439 12.0188 7.71814 11.7525 7.45704L11.7476 7.45232L10.5429 6.24752C10.2818 5.98115 10.1356 5.623 10.1356 5.25C10.1356 4.877 10.2818 4.51887 10.5429 4.2525L10.5476 4.24768L12.5787 2.21672ZM11.0696 0.906087C12.1045 0.717522 13.1723 0.848836 14.1307 1.28253C14.3326 1.37389 14.4768 1.55851 14.5165 1.7765C14.5563 1.9945 14.4864 2.21811 14.3298 2.37479L11.5059 5.19867C11.4928 5.21256 11.4856 5.23091 11.4856 5.25C11.4856 5.26909 11.4928 5.28744 11.5059 5.30133L12.6986 6.49408C12.7125 6.50711 12.7309 6.51439 12.75 6.51439C12.7691 6.51439 12.7874 6.50711 12.8013 6.49408L15.6252 3.6702C15.7819 3.51352 16.0055 3.44371 16.2235 3.48343C16.4415 3.52315 16.6261 3.66733 16.7174 3.86921C17.1511 4.82761 17.2824 5.89543 17.0939 6.93035C16.9053 7.96527 16.4058 8.91815 15.662 9.662C14.9181 10.4059 13.9652 10.9053 12.9303 11.0939C12.0519 11.254 11.1499 11.1836 10.3111 10.8935L5.44226 15.7623C5.01731 16.1872 4.44094 16.426 3.83996 16.426C3.23899 16.426 2.66262 16.1872 2.23767 15.7623C1.81271 15.3373 1.57397 14.761 1.57397 14.16C1.57397 13.559 1.81271 12.9827 2.23767 12.5577L7.10651 7.68886C6.8164 6.8501 6.74601 5.94802 6.90605 5.06964C7.09462 4.03472 7.59411 3.08184 8.33796 2.33799C9.08181 1.59414 10.0347 1.09465 11.0696 0.906087Z" fill="#637F8A"/>
</svg>
