<svg width="28" height="28" viewBox="0 0 28 28" fill="none" xmlns="http://www.w3.org/2000/svg"><rect width="28" height="28" rx="8" fill="#07A972" fill-opacity="0.1"/><path d="M23.5817 4.97534C23.5407 4.81983 23.4592 4.67798 23.3455 4.56427C23.2318 4.45056 23.0899 4.36906 22.9344 4.32809C21.0719 3.84434 19.1107 3.89644 17.2765 4.4784C15.4423 5.06035 13.8098 6.1485 12.5669 7.61754L11.5546 8.81948L9.18969 8.24887C8.61474 8.04842 7.98668 8.06279 7.42149 8.28931C6.85631 8.51584 6.39218 8.93921 6.11481 9.48126L4.11721 13.0221C4.04722 13.1461 4.00739 13.2848 4.00093 13.4271C3.99448 13.5694 4.02159 13.7112 4.08006 13.841C4.13854 13.9709 4.22674 14.0851 4.33755 14.1746C4.44835 14.2641 4.57865 14.3262 4.71791 14.356L7.50773 14.954C7.2714 15.6734 7.10266 16.4133 7.00368 17.164C6.98573 17.3019 6.9997 17.4421 7.04451 17.5738C7.08932 17.7054 7.16377 17.825 7.26213 17.9234L10.0768 20.738C10.161 20.8224 10.2611 20.8893 10.3712 20.9349C10.4814 20.9806 10.5994 21.0041 10.7187 21.004C10.7448 21.004 10.771 21.0027 10.7976 21.0005C11.5651 20.9315 12.3233 20.7824 13.0597 20.5556L13.6441 23.2823C13.674 23.4215 13.7362 23.5517 13.8257 23.6625C13.9151 23.7733 14.0294 23.8614 14.1592 23.9199C14.2891 23.9784 14.4308 24.0055 14.5731 23.9991C14.7153 23.9927 14.8541 23.9529 14.9781 23.883L18.5238 21.8831C19.0228 21.5799 19.4126 21.126 19.637 20.5869C19.8614 20.0478 19.9087 19.4514 19.7722 18.8836L19.165 16.3787L20.2882 15.3459C21.7627 14.1065 22.8551 12.4739 23.4381 10.638C24.0211 8.80211 24.0709 6.83841 23.5817 4.97534V4.97534ZM6.305 12.839L7.71787 10.3333C7.80562 10.1632 7.95513 10.0331 8.13574 9.96974C8.31634 9.90635 8.51436 9.91446 8.68918 9.99241L10.2485 10.3703L9.6583 11.071C9.0988 11.7416 8.61489 12.4718 8.21532 13.2483L6.305 12.839ZM17.627 20.3041L15.1612 21.6947L14.7713 19.8747C15.5617 19.4804 16.2982 18.9861 16.9624 18.4039L17.6375 17.7832L18.0038 19.2946C18.0513 19.4812 18.0407 19.6779 17.9733 19.8583C17.906 20.0387 17.7851 20.1942 17.627 20.3041V20.3041ZM19.0926 13.9801L15.7473 17.0545C14.4231 18.1997 12.7898 18.9275 11.053 19.1466L8.87005 16.9636C9.16324 15.2222 9.91572 13.5906 11.0499 12.237L12.5737 10.4278C12.5991 10.4013 12.6227 10.3731 12.6446 10.3436L13.9474 8.79678C14.9107 7.65906 16.1586 6.79736 17.5639 6.29967C18.9691 5.80198 20.4812 5.68613 21.9458 5.96395C22.2303 7.43317 22.1157 8.9518 21.6139 10.3617C21.1121 11.7715 20.2414 13.0211 19.0926 13.9801V13.9801ZM18.2546 8.38389C17.9852 8.38389 17.7219 8.46376 17.498 8.61341C17.274 8.76306 17.0994 8.97575 16.9964 9.2246C16.8933 9.47345 16.8663 9.74728 16.9189 10.0115C16.9714 10.2756 17.1011 10.5183 17.2916 10.7088C17.482 10.8992 17.7247 11.0289 17.9889 11.0815C18.2531 11.134 18.5269 11.1071 18.7758 11.004C19.0246 10.9009 19.2373 10.7264 19.3869 10.5024C19.5366 10.2784 19.6165 10.0151 19.6165 9.74577C19.6165 9.56692 19.5813 9.38982 19.5128 9.22458C19.4444 9.05934 19.3441 8.9092 19.2176 8.78273C19.0911 8.65626 18.941 8.55595 18.7757 8.48751C18.6105 8.41908 18.4334 8.38386 18.2545 8.38387L18.2546 8.38389Z" fill="#07A972"/></svg>
