<svg width="18" height="18" viewBox="0 0 18 18" fill="none" xmlns="http://www.w3.org/2000/svg">
<path fill-rule="evenodd" clip-rule="evenodd" d="M9.04098 1.5C7.57879 1.5 6.40503 2.69427 6.40503 4.15313C6.40503 5.61199 7.57879 6.80626 9.04098 6.80626C10.5032 6.80626 11.6769 5.61199 11.6769 4.15313C11.6769 2.69427 10.5032 1.5 9.04098 1.5ZM7.90503 4.15313C7.90503 3.50985 8.42001 3 9.04098 3C9.66196 3 10.1769 3.50985 10.1769 4.15313C10.1769 4.79641 9.66196 5.30626 9.04098 5.30626C8.42001 5.30626 7.90503 4.79641 7.90503 4.15313Z" fill="#637F8A"/>
<path d="M12.7956 4.3949C12.4564 4.15706 11.9887 4.23917 11.7509 4.5783C11.5131 4.91742 11.5952 5.38514 11.9343 5.62298C13.1186 6.45355 13.9362 7.77441 14.1023 9.30024C14.1471 9.71202 14.5172 10.0095 14.929 9.96471C15.3408 9.9199 15.6383 9.54976 15.5935 9.13798C15.3796 7.17245 14.3249 5.46747 12.7956 4.3949Z" fill="#637F8A"/>
<path fill-rule="evenodd" clip-rule="evenodd" d="M6.10509 5.65361C6.44227 5.41303 6.52058 4.94466 6.28 4.60748C6.03942 4.27029 5.57104 4.19198 5.23386 4.43257C3.71988 5.51281 2.67982 7.21819 2.48106 9.17757C2.43926 9.58966 2.73944 9.95762 3.15154 9.99943C3.20461 10.0048 3.25694 10.0045 3.30794 9.99905C2.25484 10.3492 1.5 11.3489 1.5 12.5189C1.5 13.9777 2.67376 15.172 4.13595 15.172C5.59815 15.172 6.77191 13.9777 6.77191 12.5189C6.77191 11.06 5.59815 9.86572 4.13595 9.86572C3.93292 9.86572 3.73544 9.88875 3.5459 9.93232C3.77635 9.82391 3.94583 9.60077 3.9734 9.32895C4.12742 7.81066 4.9326 6.4902 6.10509 5.65361ZM4.13595 11.3657C3.51498 11.3657 3 11.8756 3 12.5189C3 13.1621 3.51498 13.672 4.13595 13.672C4.75693 13.672 5.27191 13.1621 5.27191 12.5189C5.27191 11.8756 4.75693 11.3657 4.13595 11.3657Z" fill="#637F8A"/>
<path d="M5.74822 14.7777C5.93736 14.4092 6.38942 14.2638 6.75793 14.453C7.44013 14.8031 8.21836 15 9.04088 15C9.83507 15 10.5768 14.821 11.2407 14.4949C11.6125 14.3123 12.0619 14.4657 12.2445 14.8375C12.4271 15.2093 12.2737 15.6587 11.9019 15.8413C11.0327 16.2683 10.0648 16.5 9.04088 16.5C7.97744 16.5 6.9647 16.2451 6.073 15.7875C5.70449 15.5983 5.55908 15.1463 5.74822 14.7777Z" fill="#637F8A"/>
<path fill-rule="evenodd" clip-rule="evenodd" d="M13.8642 9.86572C12.402 9.86572 11.2282 11.06 11.2282 12.5189C11.2282 13.9777 12.402 15.172 13.8642 15.172C15.3264 15.172 16.5001 13.9777 16.5001 12.5189C16.5001 11.06 15.3264 9.86572 13.8642 9.86572ZM12.7282 12.5189C12.7282 11.8756 13.2432 11.3657 13.8642 11.3657C14.4851 11.3657 15.0001 11.8756 15.0001 12.5189C15.0001 13.1621 14.4851 13.672 13.8642 13.672C13.2432 13.672 12.7282 13.1621 12.7282 12.5189Z" fill="#637F8A"/>
</svg>
