<svg width="18" height="18" viewBox="0 0 18 18" fill="none" xmlns="http://www.w3.org/2000/svg">
<path fill-rule="evenodd" clip-rule="evenodd" d="M13.9839 9.21068L14.4059 8.90922V10.7191C14.4059 11.1333 14.7417 11.4691 15.1559 11.4691C15.5702 11.4691 15.9059 11.1333 15.9059 10.7191V7.34791C16.1181 6.61908 15.8814 5.78302 15.196 5.29341L10.1116 1.66175C9.45971 1.19608 8.58394 1.19608 7.932 1.66175L2.84768 5.29341C1.80077 6.0412 1.80077 7.59712 2.84768 8.34491L3.70908 8.9602V12.8174C3.70908 13.5207 4.10267 14.1648 4.72849 14.4858L8.14519 16.2379C8.70194 16.5234 9.36442 16.5124 9.91137 16.2086L13.0195 14.4818C13.6147 14.1511 13.9839 13.5237 13.9839 12.8428V9.21068ZM9.23979 2.88235C9.1094 2.78922 8.93425 2.78922 8.80386 2.88235L3.71954 6.51401C3.51015 6.66357 3.51015 6.97475 3.71954 7.12431L8.80386 10.756C8.93425 10.8491 9.1094 10.8491 9.23979 10.756L14.3241 7.12431C14.3564 7.10128 14.3836 7.07442 14.4059 7.04491V6.81918C14.4059 6.7537 14.4143 6.69018 14.4301 6.62963C14.4044 6.58576 14.3691 6.54615 14.3241 6.51401L9.23979 2.88235ZM12.4839 10.2821L10.1116 11.9766C9.45971 12.4422 8.58394 12.4422 7.932 11.9766L5.20908 10.0316V12.8174C5.20908 12.958 5.2878 13.0869 5.41297 13.151L8.82967 14.9032C8.94102 14.9603 9.07351 14.9581 9.1829 14.8973L12.291 13.1706C12.4101 13.1045 12.4839 12.979 12.4839 12.8428V10.2821Z" fill="#637F8A"/>
</svg>
