<svg width="18" height="18" viewBox="0 0 18 18" fill="none" xmlns="http://www.w3.org/2000/svg">
<path d="M12.8182 13.6667H5.18182C4.6755 13.6667 4.18991 13.456 3.83189 13.0809C3.47386 12.7058 3.27273 12.1971 3.27273 11.6667V6.33333C3.27273 6.15652 3.20568 5.98695 3.08634 5.86193C2.967 5.7369 2.80514 5.66667 2.63636 5.66667C2.46759 5.66667 2.30573 5.7369 2.18639 5.86193C2.06705 5.98695 2 6.15652 2 6.33333V11.6667C2 12.5507 2.33523 13.3986 2.93193 14.0237C3.22739 14.3332 3.57815 14.5787 3.96419 14.7463C4.35022 14.9138 4.76398 15 5.18182 15H12.8182C12.987 15 13.1488 14.9298 13.2682 14.8047C13.3875 14.6797 13.4545 14.5101 13.4545 14.3333C13.4545 14.1565 13.3875 13.987 13.2682 13.8619C13.1488 13.7369 12.987 13.6667 12.8182 13.6667ZM10.2727 8.33333H7.72727C7.5585 8.33333 7.39664 8.40357 7.2773 8.5286C7.15795 8.65362 7.09091 8.82319 7.09091 9C7.09091 9.17681 7.15795 9.34638 7.2773 9.4714C7.39664 9.59643 7.5585 9.66667 7.72727 9.66667H10.2727C10.4415 9.66667 10.6034 9.59643 10.7227 9.4714C10.842 9.34638 10.9091 9.17681 10.9091 9C10.9091 8.82319 10.842 8.65362 10.7227 8.5286C10.6034 8.40357 10.4415 8.33333 10.2727 8.33333ZM16 7.62667C15.9934 7.56542 15.9806 7.50509 15.9618 7.44667V7.38667C15.9312 7.31812 15.8904 7.25511 15.8409 7.2L12.0227 3.2C11.9701 3.14814 11.91 3.10539 11.8445 3.07333H11.7873C11.7226 3.03449 11.6512 3.00956 11.5773 3H6.45455C5.94822 3 5.46264 3.21071 5.10461 3.58579C4.74659 3.96086 4.54545 4.46957 4.54545 5V10.3333C4.54545 10.8638 4.74659 11.3725 5.10461 11.7475C5.46264 12.1226 5.94822 12.3333 6.45455 12.3333H14.0909C14.5972 12.3333 15.0828 12.1226 15.4408 11.7475C15.7989 11.3725 16 10.8638 16 10.3333V7.66667C16 7.66667 16 7.66667 16 7.62667ZM12.1818 5.27333L13.83 7H12.8182C12.6494 7 12.4875 6.92976 12.3682 6.80474C12.2489 6.67971 12.1818 6.51014 12.1818 6.33333V5.27333ZM14.7273 10.3333C14.7273 10.5101 14.6602 10.6797 14.5409 10.8047C14.4215 10.9298 14.2597 11 14.0909 11H6.45455C6.28577 11 6.12391 10.9298 6.00457 10.8047C5.88523 10.6797 5.81818 10.5101 5.81818 10.3333V5C5.81818 4.82319 5.88523 4.65362 6.00457 4.5286C6.12391 4.40357 6.28577 4.33333 6.45455 4.33333H10.9091V6.33333C10.9091 6.86377 11.1102 7.37247 11.4683 7.74755C11.8263 8.12262 12.3119 8.33333 12.8182 8.33333H14.7273V10.3333ZM7.72727 7H9C9.16877 7 9.33064 6.92976 9.44998 6.80474C9.56932 6.67971 9.63636 6.51014 9.63636 6.33333C9.63636 6.15652 9.56932 5.98695 9.44998 5.86193C9.33064 5.7369 9.16877 5.66667 9 5.66667H7.72727C7.5585 5.66667 7.39664 5.7369 7.2773 5.86193C7.15795 5.98695 7.09091 6.15652 7.09091 6.33333C7.09091 6.51014 7.15795 6.67971 7.2773 6.80474C7.39664 6.92976 7.5585 7 7.72727 7Z" fill="currentColor"/>
</svg>
