<svg width="24" height="24" viewBox="0 0 24 24" fill="none" xmlns="http://www.w3.org/2000/svg">
<path fill-rule="evenodd" clip-rule="evenodd" d="M12.3197 3.84313C12.1459 3.71896 11.9123 3.71896 11.7385 3.84313L4.95938 8.68535C4.68021 8.88476 4.68021 9.29967 4.95938 9.49908L11.7385 14.3413C11.9123 14.4655 12.1459 14.4655 12.3197 14.3413L19.0988 9.49908C19.1418 9.46838 19.1782 9.43256 19.2079 9.39322V9.09225C19.2079 9.00493 19.2191 8.92024 19.2401 8.83951C19.2059 8.78102 19.1588 8.72821 19.0988 8.68535L12.3197 3.84313ZM18.6452 12.2809L19.2079 11.879V14.2921C19.2079 14.8444 19.6556 15.2921 20.2079 15.2921C20.7602 15.2921 21.2079 14.8444 21.2079 14.2921V9.79722C21.4908 8.82544 21.1752 7.7107 20.2613 7.05788L13.4822 2.21567C12.6129 1.59478 11.4452 1.59478 10.576 2.21567L3.7969 7.05788C2.40103 8.05493 2.40103 10.1295 3.7969 11.1265L4.94545 11.9469V17.0898C4.94545 18.0276 5.47023 18.8864 6.30465 19.3144L10.8603 21.6506C11.6026 22.0312 12.4859 22.0166 13.2152 21.6114L17.3593 19.3091C18.153 18.8682 18.6452 18.0316 18.6452 17.1237V12.2809ZM16.6452 13.7095L13.4822 15.9688C12.613 16.5896 11.4452 16.5896 10.576 15.9688L6.94545 13.3755V17.0898C6.94545 17.2774 7.0504 17.4491 7.21729 17.5347L11.7729 19.8709C11.9214 19.9471 12.098 19.9441 12.2439 19.8631L16.388 17.5608C16.5467 17.4726 16.6452 17.3053 16.6452 17.1237V13.7095Z" fill="#637F8A"/>
</svg>
