<svg width="18" height="18" viewBox="0 0 18 18" fill="none" xmlns="http://www.w3.org/2000/svg">
<path d="M8.99991 0.75C9.28537 0.75 9.54641 0.911991 9.67276 1.16797L11.8153 5.50977L16.6083 6.20996C16.8906 6.25123 17.1257 6.44935 17.2138 6.7207C17.3018 6.99221 17.2278 7.29109 17.0233 7.49023L13.5556 10.8672L14.3739 15.6387C14.422 15.9199 14.3069 16.2043 14.0761 16.3721C13.8451 16.5398 13.5387 16.5615 13.286 16.4287L8.99991 14.1738L4.71378 16.4287C4.46112 16.5615 4.15468 16.5398 3.92374 16.3721C3.69294 16.2043 3.57782 15.9199 3.62589 15.6387L4.44327 10.8672L0.976473 7.49023C0.772009 7.29109 0.69801 6.99221 0.786043 6.7207C0.874151 6.44935 1.1092 6.25123 1.39151 6.20996L6.1835 5.50977L8.32706 1.16797L8.38077 1.07617C8.51924 0.87381 8.75023 0.75 8.99991 0.75ZM7.35538 6.52734C7.24621 6.74841 7.03489 6.90184 6.79093 6.9375L3.11124 7.47461L5.77335 10.0674C5.95017 10.2396 6.03078 10.4882 5.98917 10.7314L5.36026 14.3936L8.65128 12.6641L8.73428 12.626C8.93365 12.5505 9.15728 12.5636 9.34854 12.6641L12.6386 14.3936L12.0107 10.7314C11.969 10.4882 12.0496 10.2396 12.2265 10.0674L14.8876 7.47461L11.2089 6.9375C10.9649 6.90184 10.7536 6.74841 10.6444 6.52734L8.99991 3.19531L7.35538 6.52734Z" fill="currentColor"/>
</svg>
