<svg width="18" height="18" viewBox="0 0 18 18" fill="none" xmlns="http://www.w3.org/2000/svg">
<path fill-rule="evenodd" clip-rule="evenodd" d="M14.8572 6.5841C16.0148 8.45553 16.415 10.4562 15.9406 12.0012C15.7665 12.5681 15.4747 13.0737 15.0594 13.489L11.5058 9.93546L6.17552 15.2657C5.19423 16.247 3.60325 16.247 2.62195 15.2657C1.64066 14.2845 1.64066 12.6935 2.62195 11.7122L7.95223 6.38189L4.39867 2.82832C4.814 2.41299 5.31958 2.12118 5.8865 1.94711C7.43152 1.47272 9.43216 1.87285 11.3036 3.03053L11.5058 2.82832C11.8329 2.50123 12.3632 2.50123 12.6903 2.82832L15.0594 5.19737C15.3865 5.52447 15.3865 6.0548 15.0594 6.38189L14.8572 6.5841ZM12.6649 6.40732C12.489 6.19808 12.3001 5.99169 12.0981 5.78963C11.896 5.58758 11.6896 5.39865 11.4804 5.2228L10.3214 6.38182L11.5059 7.56634L12.6649 6.40732ZM12.6903 8.75094L14.4605 10.5211C14.4536 10.2821 14.4241 10.023 14.3683 9.74358C14.246 9.13235 14.0017 8.47226 13.6334 7.80788L12.6903 8.75094ZM10.3213 8.75094L9.13676 7.56642L3.80648 12.8967C3.47938 13.2238 3.47938 13.7541 3.80648 14.0812C4.13357 14.4083 4.6639 14.4083 4.991 14.0812L10.3213 8.75094ZM9.13683 5.1973L10.0798 4.25431C9.41543 3.88599 8.75534 3.64168 8.14411 3.51943C7.86469 3.46355 7.60562 3.43411 7.36661 3.42722L9.13683 5.1973Z" fill="#637F8A"/>
</svg>
