<svg width="28" height="28" viewBox="0 0 28 28" fill="none" xmlns="http://www.w3.org/2000/svg">
<rect width="28" height="28" rx="8" fill="#07A972" fill-opacity="0.1"/>
<path d="M20.5144 8.51416L19.8073 9.22126L19.8073 9.22126L20.5144 8.51416ZM17.0417 5.0414L17.7488 4.33429L17.7488 4.33429L17.0417 5.0414ZM9.55577 24L9.55577 23L9.55577 23L9.55577 24ZM18.0002 24L18.0002 25L18.0002 25L18.0002 24ZM6.24221 22.7866L7.13321 22.3326L7.13321 22.3326L6.24221 22.7866ZM7.21311 23.7578L7.6671 22.8668L7.6671 22.8668L7.21311 23.7578ZM7.21311 4.24221L7.6671 5.13321L7.6671 5.13321L7.21311 4.24221ZM6.24221 5.21338L5.3512 4.75939L5.3512 4.75939L6.24221 5.21338ZM16.2409 4.32749L15.7184 5.18013L16.2409 4.32749ZM15.5986 4.0614L15.8321 3.08903L15.8321 3.08903L15.5986 4.0614ZM21.4937 9.95723L22.4661 9.72379L22.4661 9.72379L21.4937 9.95723ZM21.2278 9.31493L20.3752 9.83742L20.3752 9.83742L21.2278 9.31493ZM21.3136 22.7866L22.2046 23.2406L22.2046 23.2406L21.3136 22.7866ZM20.342 23.7578L19.888 22.8668L19.888 22.8668L20.342 23.7578ZM16.7071 14.404C16.3166 14.0135 15.6834 14.0135 15.2929 14.404C14.9024 14.7945 14.9024 15.4277 15.2929 15.8182L16.7071 14.404ZM18.2222 17.3333L18.9293 18.0404C19.3199 17.6499 19.3199 17.0168 18.9293 16.6262L18.2222 17.3333ZM15.2929 18.8484C14.9024 19.239 14.9024 19.8721 15.2929 20.2627C15.6834 20.6532 16.3166 20.6532 16.7071 20.2627L15.2929 18.8484ZM10.8484 20.2627C11.239 20.6532 11.8721 20.6532 12.2627 20.2627C12.6532 19.8721 12.6532 19.239 12.2627 18.8484L10.8484 20.2627ZM9.33333 17.3333L8.62623 16.6262C8.43869 16.8138 8.33333 17.0681 8.33333 17.3333C8.33333 17.5986 8.43869 17.8529 8.62623 18.0404L9.33333 17.3333ZM12.2627 15.8182C12.6532 15.4277 12.6532 14.7945 12.2627 14.404C11.8721 14.0135 11.239 14.0135 10.8484 14.404L12.2627 15.8182ZM21.5558 11.6667C22.1081 11.6667 22.5558 11.219 22.5558 10.6667C22.5558 10.1144 22.1081 9.66667 21.5558 9.66667V11.6667ZM18.4447 10.6667L18.4447 9.66667L18.4447 9.66667L18.4447 10.6667ZM15.8889 4C15.8889 3.44772 15.4412 3 14.8889 3C14.3366 3 13.8889 3.44772 13.8889 4H15.8889ZM16.102 10.4244L16.556 9.53342L16.556 9.53342L16.102 10.4244ZM15.1311 9.4533L16.0221 8.99931L16.0221 8.99931L15.1311 9.4533ZM22.5556 20.4445V11.0283H20.5556V20.4445H22.5556ZM21.2215 7.80705L17.7488 4.33429L16.3346 5.7485L19.8073 9.22126L21.2215 7.80705ZM14.5275 3H9.55577V5H14.5275V3ZM5 7.55557V20.4445H7V7.55557H5ZM9.55577 25H18.0002V23H9.55577V25ZM5 20.4445C5 21.0502 4.99922 21.5647 5.0336 21.9854C5.06893 22.4178 5.1463 22.8385 5.3512 23.2406L7.13321 22.3326C7.09591 22.2594 7.05218 22.1313 7.02695 21.8226C7.00078 21.5022 7 21.0832 7 20.4445H5ZM9.55577 23C8.91702 23 8.49794 22.9992 8.17742 22.973C7.86851 22.9478 7.74027 22.904 7.6671 22.8668L6.75912 24.6488C7.16131 24.8537 7.58212 24.9311 8.01456 24.9664C8.4354 25.0008 8.94997 25 9.55577 25L9.55577 23ZM5.3512 23.2406C5.66002 23.8467 6.1526 24.3397 6.75912 24.6488L7.6671 22.8668C7.43734 22.7497 7.2505 22.5628 7.13321 22.3326L5.3512 23.2406ZM9.55577 3C8.94998 3 8.43541 2.99922 8.01458 3.0336C7.58215 3.06892 7.16132 3.14627 6.75912 3.3512L7.6671 5.13321C7.74025 5.09594 7.86848 5.05219 8.1774 5.02696C8.49792 5.00078 8.917 5 9.55577 5V3ZM7 7.55557C7 6.91679 7.00078 6.49785 7.02695 6.17746C7.05218 5.86874 7.09591 5.74058 7.13321 5.66737L5.3512 4.75939C5.1463 5.16153 5.06893 5.58219 5.0336 6.01459C4.99922 6.43532 5 6.94979 5 7.55557H7ZM6.75912 3.3512C6.15256 3.66026 5.65999 4.15335 5.3512 4.75939L7.13321 5.66737C7.25052 5.43714 7.43738 5.25026 7.6671 5.13321L6.75912 3.3512ZM17.7488 4.33429C17.398 3.98355 17.112 3.68849 16.7634 3.47485L15.7184 5.18013C15.8183 5.24134 15.9166 5.33058 16.3346 5.7485L17.7488 4.33429ZM14.5275 5C15.1186 5 15.2513 5.00643 15.3652 5.03377L15.8321 3.08903C15.4344 2.99357 15.0234 3 14.5275 3V5ZM16.7634 3.47485C16.4752 3.29825 16.161 3.16799 15.8321 3.08903L15.3652 5.03377C15.4897 5.06368 15.6089 5.11305 15.7184 5.18013L16.7634 3.47485ZM22.5556 11.0283C22.5556 10.531 22.5615 10.1211 22.4661 9.72379L20.5213 10.1907C20.5488 10.3049 20.5556 10.4386 20.5556 11.0283H22.5556ZM19.8073 9.22126C20.2244 9.63835 20.3138 9.73729 20.3752 9.83742L22.0805 8.79243C21.867 8.44405 21.5731 8.15864 21.2215 7.80705L19.8073 9.22126ZM22.4661 9.72379C22.3872 9.39544 22.2574 9.08111 22.0805 8.79243L20.3752 9.83742C20.442 9.94639 20.4913 10.0655 20.5213 10.1907L22.4661 9.72379ZM20.5556 20.4445C20.5556 21.0833 20.5548 21.5023 20.5287 21.8227C20.5035 22.1315 20.4598 22.2595 20.4226 22.3326L22.2046 23.2406C22.4096 22.8384 22.4868 22.4176 22.5221 21.9853C22.5564 21.5646 22.5556 21.0501 22.5556 20.4445H20.5556ZM18.0002 25C18.606 25 19.1204 25.0008 19.541 24.9664C19.9734 24.931 20.3939 24.8536 20.796 24.6488L19.888 22.8668C19.8147 22.9041 19.6866 22.9478 19.3781 22.973C19.0578 22.9992 18.639 23 18.0002 23L18.0002 25ZM20.4226 22.3326C20.3056 22.5622 20.1184 22.7493 19.888 22.8668L20.796 24.6488C21.4018 24.3401 21.8954 23.8474 22.2046 23.2406L20.4226 22.3326ZM15.2929 15.8182L17.5151 18.0404L18.9293 16.6262L16.7071 14.404L15.2929 15.8182ZM17.5151 16.6262L15.2929 18.8484L16.7071 20.2627L18.9293 18.0404L17.5151 16.6262ZM12.2627 18.8484L10.0404 16.6262L8.62623 18.0404L10.8484 20.2627L12.2627 18.8484ZM10.0404 18.0404L12.2627 15.8182L10.8484 14.404L8.62623 16.6262L10.0404 18.0404ZM21.5558 9.66667H18.4447V11.6667H21.5558V9.66667ZM15.8889 7.11111V4H13.8889V7.11111H15.8889ZM18.4447 9.66667C17.8059 9.66667 17.3868 9.66588 17.0663 9.63969C16.7574 9.61446 16.6292 9.5707 16.556 9.53342L15.648 11.3154C16.0502 11.5204 16.471 11.5977 16.9035 11.6331C17.3243 11.6674 17.8389 11.6667 18.4447 11.6667L18.4447 9.66667ZM13.8889 7.11111C13.8889 7.71689 13.8881 8.23136 13.9225 8.65209C13.9578 9.08449 14.0352 9.50514 14.2401 9.90729L16.0221 8.99931C15.9848 8.92609 15.9411 8.79794 15.9158 8.48922C15.8897 8.16883 15.8889 7.74989 15.8889 7.11111H13.8889ZM16.556 9.53342C16.3262 9.41635 16.1394 9.2295 16.0221 8.99931L14.2401 9.90729C14.5489 10.5134 15.0415 11.0064 15.648 11.3154L16.556 9.53342Z" fill="#07A972"/>
</svg>
