<svg width="24" height="24" viewBox="0 0 24 24" fill="none" xmlns="http://www.w3.org/2000/svg">
<path fill-rule="evenodd" clip-rule="evenodd" d="M9.8004 5.677C7.47208 6.50547 5.72906 8.56826 5.35874 11.078H8.0188C8.20478 9.16135 8.81626 7.31697 9.8004 5.677ZM14.3553 5.677C15.3394 7.31697 15.9509 9.16135 16.1369 11.078H18.797C18.4266 8.56826 16.6836 6.50546 14.3553 5.677ZM14.1258 11.078C13.9086 9.18973 13.2021 7.39105 12.0779 5.86051C10.9536 7.39105 10.2471 9.18973 10.0299 11.078H14.1258ZM10.0299 13.078H14.1258C13.9086 14.9662 13.2021 16.7649 12.0779 18.2954C10.9536 16.7649 10.2471 14.9662 10.0299 13.078ZM8.0188 13.078H5.35874C5.72906 15.5877 7.47208 17.6505 9.8004 18.4789C8.81627 16.839 8.20478 14.9946 8.0188 13.078ZM14.3553 18.4789C15.3394 16.839 15.9509 14.9946 16.1369 13.078H18.797C18.4266 15.5877 16.6836 17.6505 14.3553 18.4789ZM12.0779 20.8702C16.9337 20.8702 20.8701 16.9338 20.8701 12.078C20.8701 7.22217 16.9337 3.28577 12.0779 3.28577C7.22205 3.28577 3.28564 7.22217 3.28564 12.078C3.28564 16.9338 7.22205 20.8702 12.0779 20.8702Z" fill="#637F8A"/>
</svg>
