<svg width="24" height="24" viewBox="0 0 24 24" fill="none" xmlns="http://www.w3.org/2000/svg">
<path d="M20.1371 15.5493V8.3772C20.1368 8.06278 20.0538 7.75396 19.8964 7.48174C19.7391 7.20952 19.5129 6.98346 19.2406 6.82625L12.9651 3.24022C12.6925 3.08285 12.3833 3 12.0686 3C11.7538 3 11.4446 3.08285 11.1721 3.24022L4.89651 6.82625C4.6242 6.98346 4.39803 7.20952 4.24068 7.48174C4.08332 7.75396 4.00032 8.06278 4 8.3772V15.5493C4.00032 15.8637 4.08332 16.1725 4.24068 16.4447C4.39803 16.7169 4.6242 16.943 4.89651 17.1002L11.1721 20.6862C11.4446 20.8436 11.7538 20.9265 12.0686 20.9265C12.3833 20.9265 12.6925 20.8436 12.9651 20.6862L19.2406 17.1002C19.5129 16.943 19.7391 16.7169 19.8964 16.4447C20.0538 16.1725 20.1368 15.8637 20.1371 15.5493Z" stroke="#637F8A" stroke-width="2" stroke-linecap="round" stroke-linejoin="round"/>
<path d="M4.24219 7.44482L12.0687 11.9722L19.8952 7.44482" stroke="#637F8A" stroke-width="2" stroke-linecap="round" stroke-linejoin="round"/>
<path d="M12.0686 21V11.9633" stroke="#637F8A" stroke-width="2" stroke-linecap="round" stroke-linejoin="round"/>
</svg>
