<svg width="18" height="18" viewBox="0 0 18 18" fill="none" xmlns="http://www.w3.org/2000/svg">
<path d="M15.0901 13.0627H10.9137C10.8128 12.7793 10.6501 12.5219 10.4373 12.3091C10.2246 12.0964 9.96717 11.9337 9.68374 11.8328V9.68374H14.4143C14.5935 9.68374 14.7654 9.61254 14.8922 9.48581C15.0189 9.35907 15.0901 9.18718 15.0901 9.00795C15.0901 8.82872 15.0189 8.65683 14.8922 8.53009C14.7654 8.40335 14.5935 8.33215 14.4143 8.33215H13.7385V4.27738C13.7385 3.73969 13.5249 3.22402 13.1447 2.84381C12.7645 2.4636 12.2488 2.25 11.7111 2.25H6.30477C5.76707 2.25 5.2514 2.4636 4.87119 2.84381C4.49098 3.22402 4.27738 3.73969 4.27738 4.27738V8.33215H3.60159C3.42236 8.33215 3.25047 8.40335 3.12373 8.53009C2.99699 8.65683 2.92579 8.82872 2.92579 9.00795C2.92579 9.18718 2.99699 9.35907 3.12373 9.48581C3.25047 9.61254 3.42236 9.68374 3.60159 9.68374H8.33215V11.8328C8.04873 11.9337 7.79131 12.0964 7.57858 12.3091C7.36584 12.5219 7.20312 12.7793 7.10221 13.0627H2.92579C2.74656 13.0627 2.57467 13.1339 2.44794 13.2607C2.3212 13.3874 2.25 13.5593 2.25 13.7385C2.25 13.9177 2.3212 14.0896 2.44794 14.2164C2.57467 14.3431 2.74656 14.4143 2.92579 14.4143H7.10221C7.24426 14.8057 7.50338 15.1439 7.84434 15.3828C8.18531 15.6218 8.59158 15.75 9.00795 15.75C9.42432 15.75 9.83059 15.6218 10.1716 15.3828C10.5125 15.1439 10.7716 14.8057 10.9137 14.4143H15.0901C15.2693 14.4143 15.4412 14.3431 15.568 14.2164C15.6947 14.0896 15.7659 13.9177 15.7659 13.7385C15.7659 13.5593 15.6947 13.3874 15.568 13.2607C15.4412 13.1339 15.2693 13.0627 15.0901 13.0627ZM5.62897 8.33215V4.27738C5.62897 4.09815 5.70017 3.92626 5.82691 3.79953C5.95365 3.67279 6.12554 3.60159 6.30477 3.60159H11.7111C11.8904 3.60159 12.0623 3.67279 12.189 3.79953C12.3157 3.92626 12.3869 4.09815 12.3869 4.27738V8.33215H5.62897ZM9.00795 14.4143C8.87429 14.4143 8.74363 14.3747 8.6325 14.3004C8.52136 14.2262 8.43475 14.1206 8.3836 13.9971C8.33245 13.8736 8.31906 13.7378 8.34514 13.6067C8.37122 13.4756 8.43558 13.3552 8.53009 13.2607C8.6246 13.1661 8.74502 13.1018 8.87611 13.0757C9.0072 13.0496 9.14308 13.063 9.26657 13.1142C9.39005 13.1653 9.49559 13.2519 9.56985 13.3631C9.64411 13.4742 9.68374 13.6049 9.68374 13.7385C9.68374 13.9177 9.61254 14.0896 9.48581 14.2164C9.35907 14.3431 9.18718 14.4143 9.00795 14.4143Z" fill="#637F8A"/>
</svg>
