<svg width="18" height="18" viewBox="0 0 18 18" fill="none" xmlns="http://www.w3.org/2000/svg">
<path fill-rule="evenodd" clip-rule="evenodd" d="M14.1617 1.21401C13.1894 0.774026 12.1061 0.640808 11.0562 0.832107C10.0063 1.0234 9.0396 1.53013 8.28497 2.28476C7.53034 3.03939 7.02362 4.00608 6.83232 5.056C6.67278 5.93159 6.73894 6.83039 7.0205 7.66865L2.18468 12.5045C1.74566 12.9435 1.49902 13.5389 1.49902 14.1598C1.49902 14.7807 1.74566 15.3761 2.18468 15.8151C2.6237 16.2542 3.21914 16.5008 3.84001 16.5008C4.46088 16.5008 5.05632 16.2542 5.49534 15.8151L10.3312 10.9793C11.1694 11.2609 12.0682 11.327 12.9438 11.1675C13.9937 10.9762 14.9604 10.4695 15.7151 9.71484C16.4697 8.96021 16.9764 7.99352 17.1677 6.9436C17.359 5.89368 17.2258 4.81039 16.7858 3.8381C16.6843 3.61379 16.4792 3.45358 16.237 3.40945C15.9947 3.36532 15.7463 3.44288 15.5722 3.61697L12.75 6.43914L11.5607 5.2498L14.3828 2.42763C14.5569 2.25354 14.6345 2.00508 14.5904 1.76286C14.5462 1.52064 14.386 1.31551 14.1617 1.21401ZM11.3251 2.30781C11.6878 2.24172 12.0561 2.22986 12.4184 2.27079L10.4947 4.19447L10.4894 4.1998C10.2146 4.48019 10.0606 4.85717 10.0606 5.2498C10.0606 5.64243 10.2146 6.01941 10.4894 6.2998L10.4947 6.30513L11.6947 7.50513L11.7 7.51041C11.9804 7.78525 12.3574 7.9392 12.75 7.9392C13.1426 7.9392 13.5196 7.78525 13.8 7.51041L13.8053 7.50513L15.729 5.58145C15.77 5.94367 15.7581 6.31199 15.692 6.67472C15.5554 7.42467 15.1934 8.11516 14.6544 8.65418C14.1154 9.1932 13.4249 9.55515 12.6749 9.69179C11.925 9.82843 11.1512 9.73328 10.4567 9.41901C10.1723 9.29031 9.83792 9.35123 9.61718 9.57197L4.43468 14.7545C4.27697 14.9122 4.06306 15.0008 3.84001 15.0008C3.61697 15.0008 3.40306 14.9122 3.24534 14.7545C3.08763 14.5968 2.99902 14.3828 2.99902 14.1598C2.99902 13.9368 3.08763 13.7228 3.24534 13.5651L8.42784 8.38263C8.64858 8.16189 8.70951 7.82751 8.58081 7.5431C8.26654 6.8486 8.17138 6.07483 8.30802 5.32488C8.44466 4.57494 8.80661 3.88444 9.34563 3.34542C9.88465 2.8064 10.5751 2.44445 11.3251 2.30781Z" fill="#00CE88"/>
</svg>
