<svg width="246" height="86" viewBox="0 0 246 86" fill="none" xmlns="http://www.w3.org/2000/svg">
<path d="M149.12 43.896L150.445 43.1922L150.441 43.1853L149.12 43.896ZM149.368 44.432L147.976 44.9891L147.985 45.0134L147.996 45.0375L149.368 44.432ZM149.6 44.984L148.208 45.5411L149.62 49.072L150.998 45.5277L149.6 44.984ZM149.832 44.416L148.454 43.8251L148.454 43.8251L149.832 44.416ZM150.088 43.88L148.765 43.1731L148.764 43.1763L150.088 43.88ZM153.512 37.472L154.835 38.1789L154.836 38.1779L153.512 37.472ZM153.64 37.28L152.58 36.2193L152.549 36.2505L152.519 36.2834L153.64 37.28ZM153.792 37.176L153.28 35.7663L153.257 35.7744L153.235 35.7833L153.792 37.176ZM153.984 37.136L154.099 38.6316L154.099 38.6316L153.984 37.136ZM155.856 37.128H157.356V35.628H155.856V37.128ZM155.856 48.696V50.196H157.356V48.696H155.856ZM153.96 48.696H152.46V50.196H153.96V48.696ZM153.968 40.768L152.471 40.6714L152.47 40.6955L152.469 40.7196L153.968 40.768ZM154.008 40.264L155.502 40.404L152.685 39.5585L154.008 40.264ZM150.512 46.824L151.835 47.5323L151.836 47.5295L150.512 46.824ZM150.2 47.176L150.995 48.448L151.014 48.4363L151.032 48.4241L150.2 47.176ZM149.008 47.176L148.176 48.4241L148.195 48.4363L148.213 48.448L149.008 47.176ZM148.696 46.824L150.019 46.1157L150.017 46.113L148.696 46.824ZM145.152 40.24L146.473 39.529L143.663 40.4205L145.152 40.24ZM145.192 40.76L143.693 40.8068L143.694 40.8317L143.695 40.8566L145.192 40.76ZM145.208 48.696V50.196H146.708V48.696H145.208ZM143.312 48.696H141.812V50.196H143.312V48.696ZM143.312 37.128V35.628H141.812V37.128H143.312ZM145.184 37.136L145.069 38.6316L145.069 38.6316L145.184 37.136ZM145.368 37.176L144.811 38.5687L144.833 38.5775L144.856 38.5857L145.368 37.176ZM145.528 37.28L144.468 38.3406L144.468 38.3407L145.528 37.28ZM145.664 37.472L144.341 38.1779L144.343 38.1827L145.664 37.472ZM141.188 45.272L142.584 45.8202L142.585 45.8167L141.188 45.272ZM139.996 47.144L141.072 48.1882L141.072 48.1882L139.996 47.144ZM138.148 48.384L138.714 49.7732L138.722 49.7695L138.148 48.384ZM133.356 48.384L132.781 49.7696L132.793 49.7746L133.356 48.384ZM131.5 47.144L130.423 48.1882L130.428 48.1938L131.5 47.144ZM130.308 45.272L128.91 45.8167L128.911 45.8202L130.308 45.272ZM130.308 40.56L131.704 41.1082L131.705 41.1047L130.308 40.56ZM131.5 38.68L130.428 37.6302L130.423 37.6358L131.5 38.68ZM133.356 37.448L133.922 38.8371L133.927 38.835L133.356 37.448ZM139.996 38.688L138.919 39.7322L138.924 39.7377L139.996 38.688ZM141.188 40.56L139.79 41.1047L139.791 41.1082L141.188 40.56ZM139.148 41.208L137.722 41.6733L137.725 41.6824L137.728 41.6914L139.148 41.208ZM138.428 39.92L139.546 38.9203L139.546 38.9203L138.428 39.92ZM137.276 39.112L136.699 40.4966L136.705 40.499L137.276 39.112ZM134.228 39.112L133.657 37.725L133.657 37.725L134.228 39.112ZM133.068 39.92L131.958 38.911L131.949 38.9203L133.068 39.92ZM132.34 41.208L133.76 41.6914L133.761 41.6868L132.34 41.208ZM132.34 44.624L130.918 45.1028L130.92 45.1074L132.34 44.624ZM133.068 45.904L131.949 46.9037L131.957 46.9126L131.965 46.9214L133.068 45.904ZM134.228 46.704L133.657 48.091L133.657 48.091L134.228 46.704ZM137.276 46.704L136.705 45.317L136.699 45.3194L137.276 46.704ZM138.428 45.904L139.538 46.9122L139.546 46.9037L138.428 45.904ZM139.148 44.624L137.726 44.1452L137.723 44.1542L139.148 44.624ZM129.777 37.128H131.277V35.628H129.777V37.128ZM129.777 38.896V40.396H131.277V38.896H129.777ZM126.297 38.896V37.396H124.797V38.896H126.297ZM126.297 48.696V50.196H127.797V48.696H126.297ZM124.145 48.696H122.645V50.196H124.145V48.696ZM124.145 38.896H125.645V37.396H124.145V38.896ZM120.649 38.896H119.149V40.396H120.649V38.896ZM120.649 37.128V35.628H119.149V37.128H120.649ZM119.247 39.232L117.916 38.5403L117.91 38.5507L117.905 38.5612L119.247 39.232ZM119.039 39.48L118.267 38.1938L118.247 38.2057L118.228 38.2182L119.039 39.48ZM118.407 39.432L117.598 40.6954L117.617 40.7071L117.635 40.7182L118.407 39.432ZM117.935 39.152L118.667 37.8426L118.667 37.8426L117.935 39.152ZM117.295 38.88L116.792 40.2933L116.811 40.3L116.83 40.3061L117.295 38.88ZM115.655 38.864L116.108 40.2938L116.119 40.2905L116.129 40.287L115.655 38.864ZM115.095 39.16L114.138 38.0044L114.128 38.0127L114.119 38.0211L115.095 39.16ZM114.759 39.624L116.14 40.2098L116.143 40.2025L116.146 40.1951L114.759 39.624ZM114.871 40.888L113.713 41.8416L113.721 41.8516L113.73 41.8614L114.871 40.888ZM116.335 41.696L116.788 40.266L116.788 40.266L116.335 41.696ZM117.311 42.024L116.809 43.4376L116.823 43.4425L116.836 43.447L117.311 42.024ZM118.295 42.424L117.642 43.7745L117.651 43.779L117.661 43.7833L118.295 42.424ZM119.151 43L118.126 44.095L118.132 44.1009L118.138 44.1067L119.151 43ZM119.751 43.848L118.38 44.4572L118.384 44.4662L118.388 44.4752L119.751 43.848ZM119.711 46.544L118.316 45.9925L118.313 46.0011L119.711 46.544ZM118.927 47.736L119.979 48.805L119.979 48.8049L118.927 47.736ZM117.671 48.536L118.212 49.9349L118.225 49.9297L117.671 48.536ZM114.879 48.712L115.186 47.2437L115.175 47.2415L115.165 47.2395L114.879 48.712ZM113.847 48.408L113.278 49.796L113.286 49.7992L113.847 48.408ZM112.927 47.928L112.1 49.1797L112.111 49.1867L112.927 47.928ZM112.167 47.304L110.883 46.5279L110.282 47.5215L111.094 48.3521L112.167 47.304ZM112.791 46.272L111.611 45.3453L111.555 45.4174L111.507 45.4959L112.791 46.272ZM112.999 46.088L113.771 47.3742L113.782 47.3672L113.794 47.36L112.999 46.088ZM113.711 46.176L112.831 47.3909L112.845 47.401L112.859 47.4108L113.711 46.176ZM114.255 46.536L113.445 47.7988L113.453 47.8034L113.46 47.808L114.255 46.536ZM114.999 46.904L114.446 48.2985L114.462 48.3048L114.478 48.3106L114.999 46.904ZM117.455 46.632L118.431 47.7709L118.441 47.762L117.455 46.632ZM117.727 44.632L116.543 45.5529L116.551 45.563L116.559 45.573L117.727 44.632ZM117.127 44.152L116.422 45.4763L116.433 45.4822L116.445 45.4879L117.127 44.152ZM116.271 43.816L115.862 45.2592L115.862 45.2592L116.271 43.816ZM115.295 43.52L114.834 44.9476L114.834 44.9476L115.295 43.52ZM113.463 42.552L112.425 43.6355L112.425 43.6355L113.463 42.552ZM112.855 41.656L111.468 42.2271L111.473 42.2395L111.478 42.2518L112.855 41.656ZM112.879 39.088L111.499 38.4993L111.496 38.5072L111.493 38.515L112.879 39.088ZM113.615 38.024L112.581 36.9369L112.572 36.9455L113.615 38.024ZM118.303 37.32L117.782 38.7266L117.782 38.7266L118.303 37.32ZM119.775 38.216L121.106 38.9077L121.627 37.9046L120.806 37.1271L119.775 38.216ZM107.174 46.752L106.594 45.3687L106.586 45.3721L107.174 46.752ZM108.006 46.168L106.9 45.1555L106.894 45.1619L106.888 45.1685L108.006 46.168ZM108.526 45.256L107.108 44.769L107.104 44.7785L107.101 44.788L108.526 45.256ZM108.71 37.128V35.628H107.21V37.128H108.71ZM110.862 37.128H112.362V35.628H110.862V37.128ZM110.526 45.968L109.125 45.4329L109.122 45.4399L110.526 45.968ZM109.574 47.48L110.642 48.5339L110.648 48.5271L109.574 47.48ZM108.062 48.472L108.615 49.8665L108.626 49.8621L108.062 48.472ZM104.062 48.472L103.499 49.8621L103.51 49.8664L104.062 48.472ZM102.55 47.48L101.47 48.5202L101.476 48.5271L101.483 48.5339L102.55 47.48ZM101.598 45.968L100.193 46.4919L100.196 46.4996L100.199 46.5073L101.598 45.968ZM101.27 37.128V35.628H99.7703V37.128H101.27ZM103.422 37.128H104.922V35.628H103.422V37.128ZM103.598 45.248L102.173 45.7159L102.176 45.7255L102.18 45.735L103.598 45.248ZM104.118 46.168L102.989 47.1557L102.995 47.1616L103 47.1675L104.118 46.168ZM104.942 46.752L104.354 48.1319L104.362 48.1353L104.942 46.752ZM98.9278 46.104L100.031 45.0874L100.025 45.0816L100.02 45.076L98.9278 46.104ZM99.7758 47.024L100.943 47.9663L101.756 46.9591L100.879 46.0074L99.7758 47.024ZM98.0398 48.36L97.4247 46.9919L97.4207 46.9937L98.0398 48.36ZM93.2558 48.384L92.6637 49.7622L92.6675 49.7638L93.2558 48.384ZM91.5038 47.16L90.4047 48.1807L90.4047 48.1807L91.5038 47.16ZM90.3838 45.288L88.9693 45.7872L88.9726 45.7964L90.3838 45.288ZM90.4318 40.528L91.8246 41.0851L91.826 41.0815L90.4318 40.528ZM91.6478 38.656L90.5872 37.5953L90.5872 37.5953L91.6478 38.656ZM93.5198 37.44L94.0734 38.8341L94.0787 38.832L93.5198 37.44ZM98.1838 37.416L97.5874 38.7923L97.5943 38.7953L97.6012 38.7982L98.1838 37.416ZM99.8398 38.504L101.057 39.3805L101.807 38.3391L100.894 37.4372L99.8398 38.504ZM99.1198 39.504L97.9025 38.6275L97.8868 38.6495L97.8718 38.6719L99.1198 39.504ZM98.9518 39.672L98.098 38.4387L98.0746 38.4549L98.0519 38.472L98.9518 39.672ZM98.3038 39.6L97.4038 40.8L97.4038 40.8L98.3038 39.6ZM97.8158 39.288L97.0754 40.5925L97.0754 40.5925L97.8158 39.288ZM97.0638 38.976L96.6048 40.4041L96.6121 40.4064L97.0638 38.976ZM94.4158 39.12L94.987 40.507L94.995 40.5037L94.4158 39.12ZM93.2398 39.928L92.1465 38.901L92.1383 38.9099L93.2398 39.928ZM92.4718 41.216L91.0643 40.6974L91.0613 40.7058L92.4718 41.216ZM92.4718 44.648L91.0595 45.1535L91.0643 45.1666L92.4718 44.648ZM94.3358 46.728L93.7346 48.1022L93.7419 48.1054L93.7491 48.1085L94.3358 46.728ZM96.5038 46.952L96.3056 45.4652L96.3012 45.4658L96.5038 46.952ZM97.1598 46.8L96.6743 45.3807L96.6626 45.3848L97.1598 46.8ZM97.7278 46.536L98.5053 47.8188L98.5161 47.8122L97.7278 46.536ZM98.2638 46.128L97.2604 45.013L97.2548 45.0181L98.2638 46.128ZM98.4318 46.016L99.0525 47.3815L99.1022 47.359L99.1501 47.3328L98.4318 46.016ZM173 21.5C172.171 21.5 171.5 22.1716 171.5 23C171.5 23.8284 172.171 24.5 173 24.5V21.5ZM200.895 23C200.895 27.4183 204.477 31 208.895 31C213.314 31 216.895 27.4183 216.895 23C216.895 18.5817 213.314 15 208.895 15C204.477 15 200.895 18.5817 200.895 23ZM182.701 41.5C181.873 41.5 181.201 42.1716 181.201 43C181.201 43.8284 181.873 44.5 182.701 44.5V41.5ZM230 43C230 47.4183 233.581 51 238 51C242.418 51 246 47.4183 246 43C246 38.5817 242.418 35 238 35C233.581 35 230 38.5817 230 43ZM173 61.5C172.171 61.5 171.5 62.1716 171.5 63C171.5 63.8284 172.171 64.5 173 64.5V61.5ZM200.895 63C200.895 67.4183 204.477 71 208.895 71C213.314 71 216.895 67.4183 216.895 63C216.895 58.5817 213.314 55 208.895 55C204.477 55 200.895 58.5817 200.895 63ZM72.9998 24.5C73.8283 24.5 74.4998 23.8284 74.4998 23C74.4998 22.1716 73.8283 21.5 72.9998 21.5V24.5ZM29.1043 23C29.1043 27.4183 32.686 31 37.1043 31C41.5226 31 45.1043 27.4183 45.1043 23C45.1043 18.5817 41.5226 15 37.1043 15C32.686 15 29.1043 18.5817 29.1043 23ZM63.2985 44.5C64.1269 44.5 64.7985 43.8284 64.7985 43C64.7985 42.1716 64.1269 41.5 63.2985 41.5V44.5ZM0 43C0 47.4183 3.58172 51 8 51C12.4183 51 16 47.4183 16 43C16 38.5817 12.4183 35 8 35C3.58172 35 0 38.5817 0 43ZM72.9998 64.5C73.8283 64.5 74.4998 63.8284 74.4998 63C74.4998 62.1716 73.8283 61.5 72.9998 61.5V64.5ZM29.1043 63C29.1043 67.4183 32.686 71 37.1043 71C41.5226 71 45.1043 67.4183 45.1043 63C45.1043 58.5817 41.5226 55 37.1043 55C32.686 55 29.1043 58.5817 29.1043 63ZM162.5 42.9999C162.5 64.8151 144.815 82.4998 123 82.4998V85.4998C146.472 85.4998 165.5 66.472 165.5 42.9999H162.5ZM123 82.4998C101.185 82.4998 83.4998 64.8151 83.4998 42.9999H80.4998C80.4998 66.472 99.5277 85.4998 123 85.4998V82.4998ZM83.4998 42.9999C83.4998 21.1847 101.185 3.5 123 3.5V0.5C99.5277 0.5 80.4998 19.5279 80.4998 42.9999H83.4998ZM123 3.5C144.815 3.5 162.5 21.1847 162.5 42.9999H165.5C165.5 19.5279 146.472 0.5 123 0.5V3.5ZM147.796 44.5997C147.86 44.7209 147.92 44.8505 147.976 44.9891L150.761 43.8749C150.667 43.6402 150.562 43.4124 150.445 43.1923L147.796 44.5997ZM147.996 45.0375C148.069 45.2025 148.139 45.3704 148.208 45.5411L150.993 44.4269C150.912 44.2243 150.828 44.0241 150.741 43.8265L147.996 45.0375ZM150.998 45.5277C151.067 45.3513 151.138 45.1777 151.211 45.0069L148.454 43.8251C148.367 44.0277 148.283 44.2327 148.202 44.4403L150.998 45.5277ZM151.211 45.0069C151.275 44.8567 151.343 44.7158 151.413 44.5837L148.764 43.1763C148.652 43.3855 148.549 43.602 148.454 43.8251L151.211 45.0069ZM151.411 44.5869L154.835 38.1789L152.189 36.7651L148.765 43.1731L151.411 44.5869ZM154.836 38.1779C154.838 38.1738 154.835 38.1808 154.824 38.1961C154.815 38.2109 154.794 38.2398 154.761 38.2765L152.519 36.2834C152.373 36.4479 152.266 36.6207 152.189 36.7661L154.836 38.1779ZM154.701 38.3407C154.631 38.4105 154.516 38.5021 154.349 38.5687L153.235 35.7833C152.962 35.8925 152.746 36.0535 152.58 36.2193L154.701 38.3407ZM154.305 38.5857C154.222 38.6158 154.151 38.6276 154.099 38.6316L153.869 35.6404C153.679 35.655 153.48 35.6935 153.28 35.7663L154.305 38.5857ZM154.099 38.6316C154.119 38.6301 154.161 38.628 154.232 38.628V35.628C154.111 35.628 153.988 35.6313 153.869 35.6404L154.099 38.6316ZM154.232 38.628H155.856V35.628H154.232V38.628ZM154.356 37.128V48.696H157.356V37.128H154.356ZM155.856 47.196H153.96V50.196H155.856V47.196ZM155.46 48.696V41.224H152.46V48.696H155.46ZM155.46 41.224C155.46 41.1041 155.463 40.9685 155.468 40.8163L152.469 40.7196C152.463 40.8981 152.46 41.0665 152.46 41.224H155.46ZM155.465 40.8646C155.475 40.7143 155.487 40.5608 155.502 40.404L152.515 40.124C152.498 40.3086 152.483 40.491 152.471 40.6714L155.465 40.8646ZM152.685 39.5585L149.189 46.1185L151.836 47.5295L155.332 40.9695L152.685 39.5585ZM149.19 46.1157C149.215 46.07 149.271 45.9929 149.368 45.9279L151.032 48.4241C151.386 48.1884 151.65 47.8767 151.835 47.5323L149.19 46.1157ZM149.405 45.904C149.546 45.8162 149.68 45.796 149.752 45.796V48.796C150.166 48.796 150.599 48.6958 150.995 48.448L149.405 45.904ZM149.752 45.796H149.456V48.796H149.752V45.796ZM149.456 45.796C149.529 45.796 149.663 45.8162 149.803 45.904L148.213 48.448C148.61 48.6958 149.042 48.796 149.456 48.796V45.796ZM149.84 45.9279C149.938 45.9929 149.994 46.07 150.019 46.1157L147.374 47.5323C147.559 47.8767 147.823 48.1884 148.176 48.4241L149.84 45.9279ZM150.017 46.113L146.473 39.529L143.832 40.9509L147.376 47.5349L150.017 46.113ZM143.663 40.4205C143.679 40.5538 143.689 40.6825 143.693 40.8068L146.692 40.7131C146.685 40.4962 146.668 40.2782 146.641 40.0595L143.663 40.4205ZM143.695 40.8566C143.704 40.9945 143.708 41.1166 143.708 41.224H146.708C146.708 41.0434 146.702 40.8562 146.689 40.6634L143.695 40.8566ZM143.708 41.224V48.696H146.708V41.224H143.708ZM145.208 47.196H143.312V50.196H145.208V47.196ZM144.812 48.696V37.128H141.812V48.696H144.812ZM143.312 38.628H144.936V35.628H143.312V38.628ZM144.936 38.628C145.007 38.628 145.05 38.6301 145.069 38.6316L145.299 35.6404C145.18 35.6313 145.057 35.628 144.936 35.628V38.628ZM145.069 38.6316C145.018 38.6276 144.925 38.6143 144.811 38.5687L145.925 35.7833C145.705 35.695 145.49 35.655 145.299 35.6404L145.069 38.6316ZM144.856 38.5857C144.691 38.5257 144.561 38.4338 144.468 38.3406L146.589 36.2193C146.4 36.0302 146.163 35.8689 145.881 35.7663L144.856 38.5857ZM144.468 38.3407C144.383 38.2556 144.346 38.1876 144.341 38.1779L146.988 36.7661C146.897 36.5964 146.77 36.4003 146.589 36.2193L144.468 38.3407ZM144.343 38.1827L147.799 44.6067L150.441 43.1853L146.985 36.7613L144.343 38.1827ZM140.112 42.912C140.112 43.5904 139.999 44.1905 139.79 44.7273L142.585 45.8167C142.941 44.9028 143.112 43.9296 143.112 42.912H140.112ZM139.791 44.7238C139.577 45.2687 139.285 45.7217 138.919 46.0998L141.072 48.1882C141.73 47.5103 142.232 46.7153 142.584 45.8202L139.791 44.7238ZM138.919 46.0998C138.558 46.4723 138.116 46.7734 137.573 46.9985L138.722 49.7695C139.62 49.3973 140.41 48.8717 141.072 48.1882L138.919 46.0998ZM137.582 46.9949C137.062 47.2064 136.46 47.324 135.756 47.324V50.324C136.8 50.324 137.793 50.1483 138.714 49.7731L137.582 46.9949ZM135.756 47.324C135.051 47.324 134.445 47.2064 133.918 46.9934L132.793 49.7746C133.717 50.1482 134.711 50.324 135.756 50.324V47.324ZM133.93 46.9985C133.386 46.7729 132.939 46.4702 132.571 46.0942L130.428 48.1938C131.094 48.8738 131.885 49.3978 132.781 49.7695L133.93 46.9985ZM132.576 46.0998C132.21 45.7217 131.918 45.2687 131.704 44.7238L128.911 45.8202C129.263 46.7153 129.765 47.5103 130.423 48.1882L132.576 46.0998ZM131.705 44.7273C131.496 44.1905 131.384 43.5904 131.384 42.912H128.384C128.384 43.9296 128.554 44.9028 128.91 45.8167L131.705 44.7273ZM131.384 42.912C131.384 42.2335 131.496 41.6374 131.704 41.1082L128.911 40.0118C128.554 40.9226 128.384 41.8945 128.384 42.912H131.384ZM131.705 41.1047C131.92 40.5545 132.212 40.1005 132.576 39.7242L130.423 37.6358C129.764 38.3155 129.261 39.1148 128.91 40.0153L131.705 41.1047ZM132.571 39.7298C132.937 39.3558 133.381 39.0572 133.922 38.8371L132.79 36.0589C131.89 36.4255 131.096 36.9482 130.428 37.6302L132.571 39.7298ZM133.927 38.835C134.451 38.6191 135.054 38.5 135.756 38.5V35.5C134.708 35.5 133.711 35.6796 132.785 36.061L133.927 38.835ZM135.756 38.5C136.457 38.5 137.056 38.6191 137.573 38.8335L138.722 36.0625C137.799 35.6795 136.803 35.5 135.756 35.5V38.5ZM137.573 38.8335C138.115 39.0586 138.558 39.3597 138.919 39.7322L141.072 37.6438C140.41 36.9603 139.62 36.4347 138.722 36.0625L137.573 38.8335ZM138.924 39.7377C139.286 40.1066 139.576 40.5557 139.79 41.1047L142.585 40.0153C142.234 39.1136 141.73 38.3147 141.067 37.6383L138.924 39.7377ZM139.791 41.1082C139.999 41.6374 140.112 42.2335 140.112 42.912H143.112C143.112 41.8945 142.941 40.9226 142.584 40.0118L139.791 41.1082ZM140.904 42.912C140.904 42.1446 140.801 41.409 140.568 40.7246L137.728 41.6914C137.836 42.0097 137.904 42.4101 137.904 42.912H140.904ZM140.574 40.7427C140.352 40.0639 140.016 39.446 139.546 38.9203L137.309 40.9197C137.469 41.098 137.612 41.3387 137.722 41.6733L140.574 40.7427ZM139.546 38.9203C139.075 38.393 138.501 37.9944 137.847 37.725L136.705 40.499C136.957 40.6029 137.151 40.743 137.309 40.9197L139.546 38.9203ZM137.853 37.7274C137.194 37.4531 136.487 37.332 135.756 37.332V40.332C136.155 40.332 136.461 40.3976 136.699 40.4966L137.853 37.7274ZM135.756 37.332C135.024 37.332 134.317 37.4532 133.657 37.725L134.799 40.499C135.045 40.3975 135.357 40.332 135.756 40.332V37.332ZM133.657 37.725C133.004 37.9935 132.432 38.3896 131.958 38.911L134.178 40.929C134.344 40.7464 134.544 40.6038 134.799 40.499L133.657 37.725ZM131.949 38.9203C131.483 39.4424 131.145 40.0555 130.918 40.7292L133.761 41.6868C133.876 41.3471 134.023 41.1016 134.186 40.9197L131.949 38.9203ZM130.92 40.7246C130.687 41.409 130.584 42.1446 130.584 42.912H133.584C133.584 42.4101 133.651 42.0097 133.76 41.6914L130.92 40.7246ZM130.584 42.912C130.584 43.6798 130.687 44.4161 130.918 45.1028L133.761 44.1452C133.651 43.8186 133.584 43.4135 133.584 42.912H130.584ZM130.92 45.1074C131.147 45.7762 131.485 46.3844 131.949 46.9037L134.186 44.9043C134.021 44.7196 133.873 44.4745 133.76 44.1406L130.92 45.1074ZM131.965 46.9214C132.439 47.4348 133.009 47.8246 133.657 48.091L134.799 45.317C134.539 45.2101 134.336 45.0666 134.17 44.8866L131.965 46.9214ZM133.657 48.091C134.317 48.3628 135.024 48.484 135.756 48.484V45.484C135.357 45.484 135.045 45.4185 134.799 45.317L133.657 48.091ZM135.756 48.484C136.487 48.484 137.194 48.3629 137.853 48.0886L136.699 45.3194C136.461 45.4184 136.155 45.484 135.756 45.484V48.484ZM137.847 48.091C138.496 47.8237 139.067 47.4313 139.538 46.9122L137.317 44.8958C137.159 45.07 136.962 45.2109 136.705 45.317L137.847 48.091ZM139.546 46.9037C140.013 46.3808 140.35 45.7678 140.572 45.0938L137.723 44.1542C137.615 44.4829 137.471 44.7232 137.309 44.9043L139.546 46.9037ZM140.569 45.1028C140.8 44.4161 140.904 43.6798 140.904 42.912H137.904C137.904 43.4135 137.836 43.8186 137.726 44.1452L140.569 45.1028ZM128.277 37.128V38.896H131.277V37.128H128.277ZM129.777 37.396H126.297V40.396H129.777V37.396ZM124.797 38.896V48.696H127.797V38.896H124.797ZM126.297 47.196H124.145V50.196H126.297V47.196ZM125.645 48.696V38.896H122.645V48.696H125.645ZM124.145 37.396H120.649V40.396H124.145V37.396ZM122.149 38.896V37.128H119.149V38.896H122.149ZM120.649 38.628H129.777V35.628H120.649V38.628ZM117.905 38.5612C117.925 38.5225 118.022 38.3407 118.267 38.1938L119.811 40.7662C120.215 40.5233 120.452 40.1761 120.588 39.9028L117.905 38.5612ZM118.228 38.2182C118.44 38.0818 118.644 38.052 118.767 38.052V41.052C119.103 41.052 119.488 40.9742 119.85 40.7418L118.228 38.2182ZM118.767 38.052C118.902 38.052 119.006 38.0772 119.071 38.099C119.135 38.1204 119.172 38.1417 119.179 38.1458L117.635 40.7182C117.901 40.878 118.291 41.052 118.767 41.052V38.052ZM119.215 38.1686C119.051 38.0631 118.866 37.9543 118.667 37.8426L117.203 40.4614C117.366 40.5524 117.496 40.6302 117.598 40.6954L119.215 38.1686ZM118.667 37.8426C118.383 37.684 118.076 37.5571 117.76 37.4539L116.83 40.3061C117.004 40.3628 117.124 40.4173 117.203 40.4614L118.667 37.8426ZM117.797 37.4667C117.356 37.3098 116.892 37.252 116.439 37.252V40.252C116.647 40.252 116.754 40.2796 116.792 40.2933L117.797 37.4667ZM116.439 37.252C116.02 37.252 115.592 37.3039 115.18 37.441L116.129 40.287C116.166 40.2748 116.261 40.252 116.439 40.252V37.252ZM115.201 37.4342C114.825 37.5535 114.461 37.7373 114.138 38.0044L116.051 40.3156C116.045 40.3203 116.045 40.32 116.052 40.3161C116.059 40.3121 116.077 40.3037 116.108 40.2938L115.201 37.4342ZM114.119 38.0211C113.79 38.3028 113.537 38.6518 113.372 39.0529L116.146 40.1951C116.139 40.2108 116.129 40.2308 116.114 40.2518C116.099 40.2727 116.083 40.2885 116.071 40.2989L114.119 38.0211ZM113.378 39.0382C113.216 39.4198 113.147 39.8167 113.147 40.208H116.147C116.147 40.189 116.148 40.182 116.148 40.1845C116.147 40.1874 116.145 40.1967 116.14 40.2098L113.378 39.0382ZM113.147 40.208C113.147 40.7701 113.308 41.3502 113.713 41.8416L116.029 39.9344C116.074 39.9896 116.108 40.0523 116.128 40.1127C116.147 40.1703 116.147 40.2065 116.147 40.208H113.147ZM113.73 41.8614C114.033 42.2171 114.402 42.4863 114.797 42.6879L116.161 40.0161C116.054 39.9617 116.018 39.9216 116.012 39.9146L113.73 41.8614ZM114.797 42.6879C115.134 42.8599 115.498 43.0043 115.882 43.126L116.788 40.266C116.532 40.185 116.326 40.1001 116.161 40.0161L114.797 42.6879ZM115.882 43.126C116.185 43.2219 116.494 43.3258 116.809 43.4376L117.812 40.6104C117.466 40.4875 117.125 40.3727 116.788 40.266L115.882 43.126ZM116.836 43.447C117.111 43.5386 117.38 43.6477 117.642 43.7745L118.948 41.0735C118.57 40.8909 118.182 40.7334 117.785 40.601L116.836 43.447ZM117.661 43.7833C117.841 43.8676 117.994 43.9716 118.126 44.095L120.176 41.905C119.807 41.5591 119.388 41.2791 118.929 41.0647L117.661 43.7833ZM118.138 44.1067C118.224 44.1855 118.308 44.2942 118.38 44.4572L121.122 43.2388C120.895 42.7298 120.579 42.2732 120.163 41.8933L118.138 44.1067ZM118.388 44.4752C118.43 44.5652 118.483 44.7467 118.483 45.072H121.483C121.483 44.4373 121.381 43.8028 121.113 43.2208L118.388 44.4752ZM118.483 45.072C118.483 45.4173 118.424 45.7197 118.316 45.9925L121.106 47.0955C121.361 46.4509 121.483 45.7721 121.483 45.072H118.483ZM118.313 46.0011C118.213 46.2565 118.07 46.4746 117.874 46.6671L119.979 48.8049C120.477 48.3147 120.856 47.7381 121.109 47.0869L118.313 46.0011ZM117.875 46.667C117.691 46.8474 117.448 47.0104 117.116 47.1423L118.225 49.9297C118.886 49.6669 119.48 49.2966 119.979 48.805L117.875 46.667ZM117.129 47.1371C116.837 47.2502 116.458 47.324 115.967 47.324V50.324C116.755 50.324 117.512 50.2058 118.212 49.9349L117.129 47.1371ZM115.967 47.324C115.701 47.324 115.441 47.2971 115.186 47.2437L114.572 50.1803C115.031 50.2762 115.497 50.324 115.967 50.324V47.324ZM115.165 47.2395C114.899 47.188 114.648 47.1136 114.408 47.0168L113.286 49.7992C113.707 49.9691 114.144 50.0973 114.593 50.1845L115.165 47.2395ZM114.416 47.02C114.174 46.9212 113.951 46.8041 113.743 46.6693L112.111 49.1867C112.479 49.4253 112.869 49.6282 113.278 49.796L114.416 47.02ZM113.753 46.6763C113.555 46.5452 113.385 46.4046 113.24 46.2559L111.094 48.3521C111.397 48.6621 111.733 48.9375 112.1 49.1797L113.753 46.6763ZM113.45 48.0801L114.074 47.0481L111.507 45.4959L110.883 46.5279L113.45 48.0801ZM113.97 47.1987C113.918 47.2651 113.85 47.3266 113.771 47.3742L112.227 44.8018C111.988 44.9455 111.781 45.1295 111.611 45.3453L113.97 47.1987ZM113.794 47.36C113.639 47.4568 113.457 47.508 113.279 47.508V44.508C112.898 44.508 112.529 44.6126 112.204 44.816L113.794 47.36ZM113.279 47.508C113.132 47.508 113.017 47.4769 112.943 47.448C112.872 47.4202 112.834 47.3932 112.831 47.3909L114.591 44.9611C114.287 44.7409 113.838 44.508 113.279 44.508V47.508ZM112.859 47.4108C113.031 47.5295 113.227 47.659 113.445 47.7988L115.064 45.2732C114.866 45.1463 114.7 45.0359 114.562 44.9412L112.859 47.4108ZM113.46 47.808C113.764 47.9981 114.096 48.1597 114.446 48.2985L115.551 45.5095C115.336 45.4243 115.172 45.3405 115.05 45.264L113.46 47.808ZM114.478 48.3106C114.975 48.4946 115.504 48.564 116.031 48.564V45.564C115.758 45.564 115.599 45.5268 115.52 45.4974L114.478 48.3106ZM116.031 48.564C116.865 48.564 117.734 48.3681 118.431 47.7709L116.479 45.4931C116.503 45.4719 116.424 45.564 116.031 45.564V48.564ZM118.441 47.762C119.174 47.1221 119.459 46.2495 119.459 45.376H116.459C116.459 45.4351 116.454 45.4764 116.45 45.5026C116.445 45.5285 116.441 45.5394 116.441 45.5394C116.441 45.5395 116.441 45.5376 116.443 45.5342C116.445 45.5307 116.448 45.5265 116.451 45.5219C116.458 45.5118 116.465 45.505 116.468 45.502L118.441 47.762ZM119.459 45.376C119.459 44.8117 119.311 44.2072 118.895 43.691L116.559 45.573C116.512 45.5144 116.483 45.4547 116.469 45.4085C116.456 45.3658 116.459 45.3503 116.459 45.376H119.459ZM118.911 43.7111C118.607 43.3204 118.225 43.0284 117.809 42.8161L116.445 45.4879C116.53 45.5316 116.548 45.5596 116.543 45.5529L118.911 43.7111ZM117.831 42.8277C117.472 42.6367 117.085 42.4877 116.68 42.3728L115.862 45.2592C116.096 45.3256 116.28 45.4006 116.422 45.4763L117.831 42.8277ZM116.68 42.3728C116.378 42.2873 116.07 42.1938 115.755 42.0924L114.834 44.9476C115.181 45.0595 115.524 45.1634 115.862 45.2592L116.68 42.3728ZM115.755 42.0924C115.485 42.0052 115.218 41.9001 114.953 41.7767L113.685 44.4953C114.06 44.6705 114.443 44.8215 114.834 44.9476L115.755 42.0924ZM114.953 41.7767C114.779 41.6955 114.63 41.5932 114.5 41.4685L112.425 43.6355C112.797 43.9908 113.219 44.2779 113.685 44.4953L114.953 41.7767ZM114.5 41.4685C114.411 41.3828 114.316 41.2563 114.231 41.0602L111.478 42.2518C111.703 42.7703 112.014 43.2412 112.425 43.6355L114.5 41.4685ZM114.242 41.0849C114.188 40.9543 114.131 40.716 114.131 40.32H111.131C111.131 40.98 111.223 41.6323 111.468 42.2271L114.242 41.0849ZM114.131 40.32C114.131 40.1007 114.173 39.8844 114.265 39.661L111.493 38.515C111.254 39.0916 111.131 39.6967 111.131 40.32H114.131ZM114.259 39.6767C114.349 39.4652 114.478 39.276 114.657 39.1025L112.572 36.9455C112.112 37.3907 111.75 37.9108 111.499 38.4993L114.259 39.6767ZM114.648 39.1111C114.819 38.9491 115.048 38.7985 115.361 38.6738L114.252 35.8862C113.627 36.1348 113.062 36.4802 112.581 36.9369L114.648 39.1111ZM115.361 38.6738C115.624 38.5694 115.966 38.5 116.415 38.5V35.5C115.658 35.5 114.929 35.6172 114.252 35.8862L115.361 38.6738ZM116.415 38.5C116.939 38.5 117.39 38.5815 117.782 38.7266L118.824 35.9134C118.064 35.6318 117.256 35.5 116.415 35.5V38.5ZM117.782 38.7266C118.187 38.8767 118.499 39.0736 118.743 39.3049L120.806 37.1271C120.24 36.5904 119.571 36.19 118.824 35.9134L117.782 38.7266ZM118.444 37.5243L117.916 38.5403L120.578 39.9237L121.106 38.9077L118.444 37.5243ZM106.062 48.46C106.645 48.46 107.221 48.3625 107.763 48.1319L106.586 45.3721C106.477 45.4188 106.311 45.46 106.062 45.46V48.46ZM107.754 48.1353C108.277 47.9162 108.742 47.5955 109.125 47.1675L106.888 45.1685C106.822 45.2418 106.733 45.3105 106.594 45.3687L107.754 48.1353ZM109.113 47.1805C109.501 46.7569 109.775 46.2615 109.951 45.7239L107.101 44.788C107.043 44.9651 106.971 45.0778 106.9 45.1555L109.113 47.1805ZM109.945 45.743C110.13 45.2046 110.21 44.6366 110.21 44.056H107.21C107.21 44.3607 107.168 44.5927 107.108 44.769L109.945 45.743ZM110.21 44.056V37.128H107.21V44.056H110.21ZM108.71 38.628H110.862V35.628H108.71V38.628ZM109.362 37.128V44.056H112.362V37.128H109.362ZM109.362 44.056C109.362 44.5786 109.278 45.0327 109.125 45.4329L111.928 46.503C112.223 45.7299 112.362 44.9094 112.362 44.056H109.362ZM109.122 45.4399C108.974 45.8357 108.766 46.1608 108.5 46.4328L110.648 48.5271C111.215 47.9458 111.642 47.263 111.93 46.4961L109.122 45.4399ZM108.507 46.4261C108.245 46.6911 107.917 46.9124 107.499 47.0819L108.626 49.8621C109.392 49.5516 110.071 49.1115 110.642 48.5339L108.507 46.4261ZM107.51 47.0776C107.12 47.232 106.645 47.324 106.062 47.324V50.324C106.962 50.324 107.821 50.1813 108.615 49.8664L107.51 47.0776ZM106.062 47.324C105.48 47.324 105.005 47.232 104.615 47.0776L103.51 49.8664C104.304 50.1813 105.162 50.324 106.062 50.324V47.324ZM104.626 47.0819C104.208 46.9124 103.879 46.6911 103.618 46.4261L101.483 48.5339C102.053 49.1115 102.733 49.5516 103.499 49.8621L104.626 47.0819ZM103.631 46.4398C103.366 46.1646 103.154 45.8333 102.998 45.4287L100.199 46.5073C100.491 47.2653 100.913 47.9421 101.47 48.5202L103.631 46.4398ZM103.004 45.4441C102.854 45.0408 102.77 44.5828 102.77 44.056H99.7703C99.7703 44.9052 99.9058 45.7218 100.193 46.4919L103.004 45.4441ZM102.77 44.056V37.128H99.7703V44.056H102.77ZM101.27 38.628H103.422V35.628H101.27V38.628ZM101.922 37.128V44.048H104.922V37.128H101.922ZM101.922 44.048C101.922 44.6222 101.998 45.1836 102.173 45.7159L105.023 44.78C104.964 44.5977 104.922 44.3591 104.922 44.048H101.922ZM102.18 45.735C102.358 46.2561 102.624 46.7378 102.989 47.1557L105.247 45.1802C105.165 45.0861 105.084 44.9545 105.017 44.761L102.18 45.735ZM103 47.1675C103.378 47.5909 103.837 47.9115 104.354 48.1319L105.531 45.3721C105.397 45.3152 105.306 45.2464 105.237 45.1685L103 47.1675ZM104.362 48.1353C104.904 48.3623 105.479 48.46 106.062 48.46V45.46C105.814 45.46 105.642 45.419 105.522 45.3687L104.362 48.1353ZM98.6238 47.468C98.4836 47.468 98.3282 47.4396 98.1753 47.3712C98.0243 47.3037 97.9122 47.2135 97.8355 47.132L100.02 45.076C99.6708 44.7048 99.1823 44.468 98.6238 44.468V47.468ZM97.8249 47.1206L98.6729 48.0406L100.879 46.0074L100.031 45.0874L97.8249 47.1206ZM98.6087 46.0817C98.2889 46.4779 97.9 46.7782 97.4247 46.9919L98.6549 49.7281C99.5557 49.3231 100.324 48.7327 100.943 47.9663L98.6087 46.0817ZM97.4207 46.9937C96.9791 47.1939 96.3801 47.324 95.5758 47.324V50.324C96.6916 50.324 97.7353 50.1448 98.6589 49.7263L97.4207 46.9937ZM95.5758 47.324C94.8896 47.324 94.3206 47.2073 93.8441 47.0042L92.6675 49.7638C93.5671 50.1473 94.5447 50.324 95.5758 50.324V47.324ZM93.848 47.0058C93.3492 46.7915 92.9402 46.5024 92.603 46.1393L90.4047 48.1807C91.0382 48.8629 91.7971 49.3898 92.6637 49.7622L93.848 47.0058ZM92.603 46.1393C92.2659 45.7763 91.9935 45.3304 91.795 44.7796L88.9726 45.7964C89.2968 46.6963 89.7711 47.4984 90.4047 48.1807L92.603 46.1393ZM91.7983 44.7888C91.6051 44.2413 91.4998 43.6202 91.4998 42.912H88.4998C88.4998 43.9211 88.6506 44.884 88.9694 45.7872L91.7983 44.7888ZM91.4998 42.912C91.4998 42.2105 91.6155 41.6077 91.8246 41.0851L89.0391 39.9709C88.6722 40.8883 88.4998 41.8749 88.4998 42.912H91.4998ZM91.826 41.0815C92.0428 40.5354 92.3384 40.0868 92.7085 39.7167L90.5872 37.5953C89.912 38.2705 89.3969 39.0699 89.0377 39.9745L91.826 41.0815ZM92.7085 39.7167C93.0786 39.3465 93.5273 39.051 94.0734 38.8341L92.9663 36.0459C92.0618 36.405 91.2624 36.9201 90.5872 37.5953L92.7085 39.7167ZM94.0787 38.832C94.6119 38.6179 95.2248 38.5 95.9358 38.5V35.5C94.8869 35.5 93.8891 35.6754 92.961 36.048L94.0787 38.832ZM95.9358 38.5C96.6355 38.5 97.1738 38.6131 97.5874 38.7923L98.7803 36.0397C97.9139 35.6642 96.9536 35.5 95.9358 35.5V38.5ZM97.6012 38.7982C98.0859 39.0025 98.4738 39.2628 98.7854 39.5708L100.894 37.4372C100.289 36.8385 99.5725 36.3735 98.7664 36.0338L97.6012 38.7982ZM98.6225 37.6275L97.9025 38.6275L100.337 40.3805L101.057 39.3805L98.6225 37.6275ZM97.8718 38.6719C97.9437 38.564 98.0268 38.488 98.098 38.4387L99.8057 40.9053C100.016 40.76 100.211 40.572 100.368 40.3361L97.8718 38.6719ZM98.0519 38.472C98.3436 38.2532 98.6179 38.244 98.6798 38.244V41.244C98.9765 41.244 99.4321 41.1868 99.8518 40.872L98.0519 38.472ZM98.6798 38.244C98.9683 38.244 99.1513 38.3606 99.2038 38.4L97.4038 40.8C97.7124 41.0314 98.146 41.244 98.6798 41.244V38.244ZM99.2038 38.4C99.0088 38.2537 98.7881 38.115 98.5562 37.9835L97.0754 40.5925C97.2383 40.685 97.3429 40.7543 97.4038 40.8L99.2038 38.4ZM98.5563 37.9835C98.2389 37.8034 97.883 37.6617 97.5155 37.5456L96.6121 40.4064C96.8527 40.4823 96.9981 40.5486 97.0754 40.5925L98.5563 37.9835ZM97.5229 37.548C97.0231 37.3873 96.4724 37.332 95.9198 37.332V40.332C96.2953 40.332 96.5072 40.3727 96.6048 40.404L97.5229 37.548ZM95.9198 37.332C95.1958 37.332 94.4953 37.4606 93.8366 37.7363L94.995 40.5037C95.2537 40.3954 95.5559 40.332 95.9198 40.332V37.332ZM93.8447 37.733C93.1967 37.9998 92.6259 38.3907 92.1466 38.901L94.3331 40.955C94.5151 40.7613 94.7283 40.6135 94.987 40.507L93.8447 37.733ZM92.1383 38.9099C91.6632 39.4239 91.3106 40.0291 91.0643 40.6974L93.8794 41.7346C94.0065 41.3896 94.1658 41.1361 94.3414 40.9461L92.1383 38.9099ZM91.0613 40.7058C90.8112 41.3973 90.6998 42.1394 90.6998 42.912H93.6998C93.6998 42.4259 93.7699 42.0374 93.8824 41.7262L91.0613 40.7058ZM90.6998 42.912C90.6998 43.7 90.8095 44.4547 91.0596 45.1534L93.8841 44.1426C93.7715 43.828 93.6998 43.4253 93.6998 42.912H90.6998ZM91.0643 45.1666C91.3075 45.8266 91.6508 46.4267 92.1132 46.9362L94.3345 44.9198C94.1676 44.7359 94.0095 44.4828 93.8794 44.1294L91.0643 45.1666ZM92.1132 46.9362C92.5692 47.4385 93.1132 47.8304 93.7346 48.1022L94.9371 45.3538C94.7052 45.2523 94.5079 45.1108 94.3345 44.9198L92.1132 46.9362ZM93.7491 48.1085C94.3721 48.3732 95.0315 48.5 95.7118 48.5V45.5C95.4108 45.5 95.153 45.4454 94.9226 45.3475L93.7491 48.1085ZM95.7118 48.5C96.0577 48.5 96.3911 48.4813 96.7065 48.4382L96.3012 45.4658C96.1473 45.4867 95.9527 45.5 95.7118 45.5V48.5ZM96.7021 48.4388C97.0284 48.3953 97.349 48.3234 97.6571 48.2152L96.6626 45.3848C96.576 45.4152 96.4593 45.4447 96.3056 45.4652L96.7021 48.4388ZM97.6454 48.2192C97.9458 48.1165 98.2335 47.9835 98.5053 47.8188L96.9504 45.2532C96.8702 45.3018 96.7792 45.3449 96.6743 45.3808L97.6454 48.2192ZM98.5161 47.8122C98.7844 47.6465 99.0363 47.453 99.2728 47.2379L97.2548 45.0181C97.1394 45.123 97.0339 45.2015 96.9396 45.2598L98.5161 47.8122ZM99.2673 47.2429C99.2194 47.286 99.1484 47.338 99.0525 47.3815L97.8111 44.6504C97.598 44.7473 97.415 44.874 97.2604 45.0131L99.2673 47.2429ZM99.1501 47.3328C98.98 47.4256 98.7957 47.468 98.6238 47.468V44.468C98.3133 44.468 98.001 44.5424 97.7136 44.6992L99.1501 47.3328ZM173 24.5H208.895V21.5H173V24.5ZM182.701 44.5H238V41.5H182.701V44.5ZM173 64.5H208.895V61.5H173V64.5ZM72.9998 21.5H37.1043V24.5H72.9998V21.5ZM63.2985 41.5H8V44.5H63.2985V41.5ZM72.9998 61.5H37.1043V64.5H72.9998V61.5Z" fill="#18EFB1" fill-opacity="0.05"/>
</svg>
