<svg width="230" height="82" viewBox="0 0 230 82" fill="none" xmlns="http://www.w3.org/2000/svg">
<path fill-rule="evenodd" clip-rule="evenodd" d="M115 81.9998C137.644 81.9998 156 63.6435 156 40.9999C156 18.3563 137.644 0 115 0C92.3563 0 74 18.3563 74 40.9999C74 63.6435 92.3563 81.9998 115 81.9998ZM116.372 38.0844L94.7724 17.7305L93.9474 63.5721L104.927 63.758L105.392 37.8986L116.372 38.0844ZM113.631 43.917L135.231 64.2709L136.056 18.4293L125.076 18.2434L124.611 44.1028L113.631 43.917Z" fill="#18EFB1" fill-opacity="0.05"/>
<path d="M168 25.5V8.5H208.621V0L230 17L208.621 34V25.5H168Z" fill="#18EFB1" fill-opacity="0.05"/>
<path d="M62 73.5V56.5H21.3793V48L0 65L21.3793 82V73.5H62Z" fill="#18EFB1" fill-opacity="0.05"/>
</svg>
