<svg width="230" height="82" viewBox="0 0 230 82" fill="none" xmlns="http://www.w3.org/2000/svg">
<path fill-rule="evenodd" clip-rule="evenodd" d="M4.34932 -0.000183105H62.3402C64.7425 -0.000183105 66.6895 1.37816 66.6895 3.07876V35.9209C66.6895 37.6215 64.7425 38.9998 62.3402 38.9998H4.34932C1.94704 38.9998 0 37.6215 0 35.9209V3.07876C0 1.37816 1.94704 -0.000183105 4.34932 -0.000183105ZM27.7346 11.7018C27.7346 13.7461 25.818 15.4035 23.4538 15.4035C21.0896 15.4035 19.173 13.7461 19.173 11.7018C19.173 9.65737 21.0896 8 23.4538 8C25.818 8 27.7346 9.65737 27.7346 11.7018ZM40.4389 14.0244L50.0707 28.8314C50.258 29.1174 50.2548 29.4681 50.0632 29.7523C49.8716 30.0364 49.5195 30.2104 49.1396 30.2104H17.0336C16.6387 30.2104 16.2759 30.0225 16.0897 29.7217C15.9035 29.421 15.9249 29.0563 16.1432 28.7722L22.5644 20.4433C22.7421 20.2128 23.03 20.0629 23.3489 20.0361C23.6764 20.0139 23.9846 20.1073 24.2115 20.3026L29.7251 25.0705L38.6271 13.9513C38.8368 13.6885 39.191 13.5339 39.5571 13.5534C39.9252 13.5691 40.258 13.7459 40.4389 14.0244Z" fill="#18EFB1" fill-opacity="0.05"/>
<path fill-rule="evenodd" clip-rule="evenodd" d="M79.1779 -0.000183105H137.169C139.571 -0.000183105 141.518 1.37816 141.518 3.07876V35.9209C141.518 37.6215 139.571 38.9998 137.169 38.9998H79.1779C76.7757 38.9998 74.8286 37.6215 74.8286 35.9209V3.07876C74.8286 1.37816 76.7757 -0.000183105 79.1779 -0.000183105ZM114.701 10H109.98L102.19 28.9805H106.911L114.701 10ZM126.868 21.7067V18.1202L114.829 14.3926V17.8179L121.981 19.9134L114.829 22.0089V25.4343L126.868 21.7067ZM101.833 17.8179L94.6808 19.9134L101.833 22.0089V25.4343L89.7945 21.7067V18.1201L101.833 14.3926V17.8179Z" fill="#18EFB1" fill-opacity="0.05"/>
<path d="M174.402 26.9837C175.195 26.7427 175.946 26.7202 176.489 26.8304C176.805 26.8948 176.968 26.9816 177.045 27.036C177.02 27.0803 176.978 27.1422 176.906 27.2237C176.633 27.5335 176.089 27.907 175.289 28.1499C174.496 28.3909 173.745 28.4134 173.203 28.3032C172.886 28.2388 172.723 28.152 172.646 28.0976C172.671 28.0533 172.714 27.9914 172.785 27.9099C173.058 27.6001 173.603 27.2266 174.402 26.9837Z" fill="#18EFB1" fill-opacity="0.05"/>
<path d="M177.078 26.9496C177.079 26.9493 177.08 26.9575 177.074 26.975C177.073 26.9585 177.076 26.9498 177.078 26.9496Z" fill="#18EFB1" fill-opacity="0.05"/>
<path d="M172.613 28.1841C172.612 28.1843 172.612 28.1761 172.617 28.1586C172.618 28.1751 172.615 28.1838 172.613 28.1841Z" fill="#18EFB1" fill-opacity="0.05"/>
<path d="M192.863 24.552C192.32 24.4417 191.569 24.4643 190.776 24.7053C189.977 24.9482 189.432 25.3217 189.16 25.6314C189.088 25.7129 189.045 25.7749 189.02 25.8191C189.098 25.8735 189.26 25.9604 189.577 26.0247C190.119 26.135 190.87 26.1124 191.663 25.8714C192.463 25.6285 193.007 25.2551 193.28 24.9453C193.352 24.8638 193.394 24.8018 193.419 24.7576C193.342 24.7032 193.179 24.6164 192.863 24.552Z" fill="#18EFB1" fill-opacity="0.05"/>
<path d="M193.452 24.6711C193.454 24.6709 193.454 24.6791 193.448 24.6966C193.448 24.6801 193.45 24.6714 193.452 24.6711Z" fill="#18EFB1" fill-opacity="0.05"/>
<path d="M188.988 25.9056C188.986 25.9059 188.986 25.8976 188.992 25.8802C188.992 25.8966 188.989 25.9054 188.988 25.9056Z" fill="#18EFB1" fill-opacity="0.05"/>
<path fill-rule="evenodd" clip-rule="evenodd" d="M154.007 -0.000183105H211.998C214.4 -0.000183105 216.347 1.37816 216.347 3.07876V35.9209C216.347 37.6215 214.4 38.9998 211.998 38.9998H154.007C151.605 38.9998 149.658 37.6215 149.658 35.9209V3.07876C149.658 1.37816 151.605 -0.000183105 154.007 -0.000183105ZM196.401 9.63678C196.401 9.18519 196.198 8.75763 195.847 8.47279C195.497 8.18796 195.037 8.07615 194.595 8.16842L178.221 11.5861C177.525 11.7312 177.027 12.3441 177.027 13.0544V23.8789C175.952 23.6721 174.717 23.7524 173.53 24.1133C172.326 24.479 171.255 25.1083 170.533 25.9278C169.824 26.7336 169.28 27.9737 169.844 29.2681C170.37 30.4743 171.575 31.0335 172.605 31.243C173.693 31.4644 174.952 31.3878 176.162 31.0203C177.365 30.6546 178.436 30.0253 179.158 29.2058C179.762 28.5189 180.247 27.5164 180.027 26.4337V14.2737L193.401 11.4822V21.6004C192.326 21.3937 191.091 21.474 189.904 21.8349C188.7 22.2006 187.629 22.8298 186.908 23.6493C186.198 24.4551 185.654 25.6952 186.219 26.9897C186.744 28.1958 187.949 28.7551 188.979 28.9645C190.068 29.1859 191.326 29.1094 192.536 28.7418C193.739 28.3762 194.811 27.7469 195.532 26.9274C196.137 26.2403 196.621 25.2375 196.401 24.1545V9.63678Z" fill="#18EFB1" fill-opacity="0.05"/>
<path fill-rule="evenodd" clip-rule="evenodd" d="M48.1377 52H40.1581C39.8287 52 39.5123 52.1311 39.2787 52.3653C39.045 52.5996 38.9132 52.9177 38.9132 53.25V71.25C38.9132 71.5823 39.045 71.9004 39.2787 72.1347C39.5123 72.3689 39.8287 72.5 40.1581 72.5H53.6273C53.9567 72.5 54.2731 72.3689 54.5067 72.1347C54.7404 71.9004 54.8722 71.5823 54.8722 71.25V58.75H49.1377C48.5854 58.75 48.1377 58.3023 48.1377 57.75V52ZM41.4031 67.875C41.4031 67.3227 41.8509 66.875 42.4031 66.875H51.3826C51.9349 66.875 52.3826 67.3227 52.3826 67.875C52.3826 68.4273 51.9349 68.875 51.3826 68.875H42.4031C41.8509 68.875 41.4031 68.4273 41.4031 67.875ZM42.4031 62.375C41.8509 62.375 41.4031 62.8227 41.4031 63.375C41.4031 63.9273 41.8509 64.375 42.4031 64.375H51.3826C51.9349 64.375 52.3826 63.9273 52.3826 63.375C52.3826 62.8227 51.9349 62.375 51.3826 62.375H42.4031ZM41.4031 58.875C41.4031 58.3227 41.8509 57.875 42.4031 57.875H44.648C45.2003 57.875 45.648 58.3227 45.648 58.875C45.648 59.4273 45.2003 59.875 44.648 59.875H42.4031C41.8509 59.875 41.4031 59.4273 41.4031 58.875Z" fill="#18EFB1" fill-opacity="0.05"/>
<path d="M53.4618 56.75L50.1377 53.4183V56.75H53.4618Z" fill="#18EFB1" fill-opacity="0.05"/>
<path fill-rule="evenodd" clip-rule="evenodd" d="M18.3176 43H76.3084C78.7107 43 80.6578 44.3783 80.6578 46.0789V78.9211C80.6578 80.6217 78.7107 82 76.3084 82H18.3176C15.9153 82 13.9683 80.6217 13.9683 78.9211V46.0789C13.9683 44.3783 15.9153 43 18.3176 43ZM40.1581 50C39.2968 50 38.4712 50.343 37.8628 50.9527C37.2546 51.5624 36.9132 52.3888 36.9132 53.25V71.25C36.9132 72.1112 37.2546 72.9376 37.8628 73.5473C38.4712 74.157 39.2968 74.5 40.1581 74.5H53.6273C54.4886 74.5 55.3142 74.157 55.9226 73.5473C56.5308 72.9376 56.8722 72.1112 56.8722 71.25V57.7683C56.8723 57.7622 56.8723 57.7561 56.8723 57.75C56.8723 57.4688 56.7563 57.2147 56.5695 57.0331L49.8562 50.3045C49.6744 50.1167 49.4197 50 49.1377 50C49.1377 50 49.1378 50 49.1377 50H40.1581Z" fill="#18EFB1" fill-opacity="0.05"/>
<path d="M125.033 67.18L122.785 68.38C122.309 68.63 121.844 68.76 121.412 68.76C121.088 68.76 120.796 68.69 120.526 68.55C119.899 68.22 119.553 67.54 119.553 66.66V64.26C119.553 63.38 119.899 62.7 120.526 62.37C121.153 62.03 121.952 62.09 122.785 62.54L125.033 63.74C125.865 64.18 126.319 64.8 126.319 65.47C126.319 66.14 125.854 66.73 125.033 67.18Z" fill="#18EFB1" fill-opacity="0.05"/>
<path fill-rule="evenodd" clip-rule="evenodd" d="M150.98 43H92.989C90.5867 43 88.6396 44.3783 88.6396 46.0789V78.9211C88.6396 80.6217 90.5867 82 92.989 82H150.98C153.382 82 155.329 80.6217 155.329 78.9211V46.0789C155.329 44.3783 153.382 43 150.98 43ZM125.346 53H119.445V57.36H125.346V53ZM126.968 57.36V53C130.318 53.01 132.513 54.61 133.064 57.36H126.968ZM111.587 58.86V67.19C111.587 70.83 113.932 73 117.867 73H126.924C130.859 73 133.204 70.83 133.204 67.19V58.86H111.587ZM111.728 57.36C112.279 54.61 114.473 53.01 117.824 53V57.36H111.728Z" fill="#18EFB1" fill-opacity="0.05"/>
<path d="M194.562 63V61.8033C194.562 61.486 194.693 61.1816 194.926 60.9572C195.159 60.7327 195.476 60.6067 195.805 60.6067H197.049V59.41H193.318V63H194.562Z" fill="#18EFB1" fill-opacity="0.05"/>
<path d="M197.049 66.59H200.78V63H197.049V66.59Z" fill="#18EFB1" fill-opacity="0.05"/>
<path fill-rule="evenodd" clip-rule="evenodd" d="M204.859 71.3767C205.071 71.0168 205.381 70.719 205.755 70.5151V55.4849C205.381 55.281 205.071 54.9832 204.859 54.6233H189.239C189.027 54.9832 188.717 55.281 188.343 55.4849V70.5151C188.717 70.719 189.027 71.0168 189.239 71.3767H204.859ZM199.536 60.6067H202.024C202.354 60.6067 202.67 60.7327 202.903 60.9572C203.137 61.1816 203.268 61.486 203.268 61.8033V67.7867C203.268 68.1041 203.137 68.4084 202.903 68.6329C202.67 68.8573 202.354 68.9834 202.024 68.9834H195.805C195.476 68.9834 195.159 68.8573 194.926 68.6329C194.693 68.4084 194.562 68.1041 194.562 67.7867V65.3933H192.074C191.745 65.3933 191.428 65.2673 191.195 65.0428C190.962 64.8184 190.831 64.514 190.831 64.1967V58.2133C190.831 57.8959 190.962 57.5916 191.195 57.3671C191.428 57.1427 191.745 57.0166 192.074 57.0166H198.293C198.623 57.0166 198.939 57.1427 199.172 57.3671C199.405 57.5916 199.536 57.8959 199.536 58.2133V60.6067Z" fill="#18EFB1" fill-opacity="0.05"/>
<path fill-rule="evenodd" clip-rule="evenodd" d="M167.66 43H225.651C228.053 43 230 44.3783 230 46.0789V78.9211C230 80.6217 228.053 82 225.651 82H167.66C165.258 82 163.311 80.6217 163.311 78.9211V46.0789C163.311 44.3783 165.258 43 167.66 43ZM208.242 55.4849V70.5151C208.579 70.6951 208.867 70.9478 209.085 71.2532C209.302 71.5587 209.443 71.9085 209.497 72.2753C209.55 72.6421 209.514 73.0158 209.392 73.3669C209.269 73.7181 209.064 74.0371 208.792 74.299C208.52 74.5609 208.188 74.7584 207.823 74.876C207.458 74.9937 207.07 75.0282 206.689 74.977C206.308 74.9257 205.944 74.79 205.627 74.5806C205.309 74.3711 205.047 74.0937 204.859 73.77H189.239C189.052 74.0937 188.789 74.3711 188.472 74.5806C188.154 74.79 187.791 74.9257 187.409 74.977C187.028 75.0282 186.64 74.9937 186.275 74.876C185.91 74.7584 185.578 74.5609 185.306 74.299C185.034 74.0371 184.829 73.7181 184.706 73.3669C184.584 73.0158 184.548 72.6421 184.602 72.2753C184.655 71.9085 184.796 71.5587 185.014 71.2532C185.231 70.9478 185.52 70.6951 185.856 70.5151V55.4849C185.52 55.3049 185.231 55.0522 185.014 54.7468C184.796 54.4413 184.655 54.0915 184.602 53.7247C184.548 53.3579 184.584 52.9843 184.706 52.6331C184.829 52.2819 185.034 51.9629 185.306 51.701C185.578 51.4391 185.91 51.2416 186.275 51.124C186.64 51.0063 187.028 50.9718 187.409 51.023C187.791 51.0743 188.154 51.21 188.472 51.4194C188.789 51.6289 189.052 51.9063 189.239 52.23H204.859C205.047 51.9063 205.309 51.6289 205.627 51.4194C205.944 51.21 206.308 51.0743 206.689 51.023C207.07 50.9718 207.458 51.0063 207.823 51.124C208.188 51.2416 208.52 51.4391 208.792 51.701C209.064 51.9629 209.269 52.2819 209.392 52.6331C209.514 52.9843 209.55 53.3579 209.497 53.7247C209.443 54.0915 209.302 54.4413 209.085 54.7468C208.867 55.0522 208.579 55.3049 208.242 55.4849Z" fill="#18EFB1" fill-opacity="0.05"/>
</svg>
