<svg width="230" height="82" viewBox="0 0 230 82" fill="none" xmlns="http://www.w3.org/2000/svg">
<path fill-rule="evenodd" clip-rule="evenodd" d="M126 8C126 3.58172 129.582 0 134 0H222C226.418 0 230 3.58172 230 8V42C230 46.4183 226.418 50 222 50H134C129.582 50 126 46.4183 126 42V8ZM141 17C141 15.3431 142.343 14 144 14H212C213.657 14 215 15.3431 215 17C215 18.6569 213.657 20 212 20H144C142.343 20 141 18.6569 141 17ZM144 30C142.343 30 141 31.3431 141 33C141 34.6569 142.343 36 144 36H177C178.657 36 180 34.6569 180 33C180 31.3431 178.657 30 177 30H144Z" fill="#18EFB1" fill-opacity="0.05"/>
<path d="M179 52.5C179.828 52.5 180.5 53.1716 180.5 54L180.5 68.5H131V75.6603L116 67L131 58.3397V65.5H177.5L177.5 54C177.5 53.1716 178.172 52.5 179 52.5Z" fill="#18EFB1" fill-opacity="0.05"/>
<path fill-rule="evenodd" clip-rule="evenodd" d="M0 74C0 78.4183 3.58172 82 8 82H24C28.4183 82 32 78.4183 32 74V58C32 53.5817 28.4183 50 24 50H8C3.58172 50 0 53.5817 0 58V74ZM8 79H24C26.7614 79 29 76.7614 29 74V58C29 55.2386 26.7614 53 24 53H8C5.23858 53 3 55.2386 3 58V74C3 76.7614 5.23858 79 8 79Z" fill="#18EFB1" fill-opacity="0.05"/>
<path d="M43.04 66C43.0411 67.3151 43.564 68.5761 44.4939 69.5061C45.4239 70.436 46.6849 70.9589 48 70.96H54.4V74H48C45.8783 74 43.8434 73.1571 42.3431 71.6569C40.8429 70.1566 40 68.1217 40 66C40 63.8783 40.8429 61.8434 42.3431 60.3431C43.8434 58.8429 45.8783 58 48 58H54.4V61.04H48C46.6849 61.0411 45.4239 61.564 44.4939 62.4939C43.564 63.4239 43.0411 64.6849 43.04 66Z" fill="#18EFB1" fill-opacity="0.05"/>
<path d="M49.6 64.4H62.4V67.6H49.6V64.4Z" fill="#18EFB1" fill-opacity="0.05"/>
<path d="M64 74H57.6V70.96H64C65.3155 70.96 66.5771 70.4374 67.5072 69.5072C68.4374 68.5771 68.96 67.3155 68.96 66C68.96 64.6845 68.4374 63.4229 67.5072 62.4928C66.5771 61.5626 65.3155 61.04 64 61.04H57.6V58H64C66.1217 58 68.1566 58.8429 69.6569 60.3431C71.1571 61.8434 72 63.8783 72 66C72 68.1217 71.1571 70.1566 69.6569 71.6569C68.1566 73.1571 66.1217 74 64 74Z" fill="#18EFB1" fill-opacity="0.05"/>
<path fill-rule="evenodd" clip-rule="evenodd" d="M80 74C80 78.4183 83.5817 82 88 82H104C108.418 82 112 78.4183 112 74V58C112 53.5817 108.418 50 104 50H88C83.5817 50 80 53.5817 80 58V74ZM88 79H104C106.761 79 109 76.7614 109 74V58C109 55.2386 106.761 53 104 53H88C85.2386 53 83 55.2386 83 58V74C83 76.7614 85.2386 79 88 79Z" fill="#18EFB1" fill-opacity="0.05"/>
</svg>
