<svg width="417" height="350" viewBox="0 0 417 350" fill="none" xmlns="http://www.w3.org/2000/svg">
<g clip-path="url(#clip0_28003_10931)">
<path d="M171 339.853V258.853L209 236.853L247 258.853V339.853L209 317.853L171 339.853Z" fill="url(#paint0_linear_28003_10931)" fill-opacity="0.85"/>
<path d="M171 226.853V145.853L209 123.853L247 145.853V226.853L209 204.853L171 226.853Z" fill="url(#paint1_linear_28003_10931)"/>
<path d="M171 113.853V32.853L209 10.853L247 32.853V113.853L209 91.853L171 113.853Z" fill="url(#paint2_linear_28003_10931)" fill-opacity="0.85"/>
<path d="M233 71H290" stroke="#18EFB1" stroke-width="6" stroke-linecap="round"/>
<path d="M184 182.353H88" stroke="#C5D8E1" stroke-width="6" stroke-linecap="round"/>
<circle cx="72" cy="181.853" r="16" transform="rotate(-180 72 181.853)" fill="#C5D8E1"/>
<path d="M233 296.353H329" stroke="#18EFB1" stroke-width="6" stroke-linecap="round"/>
<circle cx="345" cy="294.853" r="16" fill="#18EFB1"/>
<g filter="url(#filter0_bdd_28003_10931)">
<circle cx="347" cy="71" r="60" fill="#E4F7FF" fill-opacity="0.06" shape-rendering="crispEdges"/>
<circle cx="347" cy="71" r="57" stroke="#18EFB1" stroke-width="6" shape-rendering="crispEdges"/>
</g>
<path d="M328 78.2C328 78.2 330.4 75.8 337.6 75.8C344.8 75.8 349.6 80.6 356.8 80.6C364 80.6 366.4 78.2 366.4 78.2V49.4C366.4 49.4 364 51.8 356.8 51.8C349.6 51.8 344.8 47 337.6 47C330.4 47 328 49.4 328 49.4V78.2Z" fill="#18EFB1"/>
<path d="M328 78.2C328 78.2 330.4 75.8 337.6 75.8C344.8 75.8 349.6 80.6 356.8 80.6C364 80.6 366.4 78.2 366.4 78.2V49.4C366.4 49.4 364 51.8 356.8 51.8C349.6 51.8 344.8 47 337.6 47C330.4 47 328 49.4 328 49.4V78.2ZM328 78.2V95" stroke="#18EFB1" stroke-width="4" stroke-linecap="round" stroke-linejoin="round"/>
</g>
<defs>
<filter id="filter0_bdd_28003_10931" x="257" y="-19" width="180" height="180" filterUnits="userSpaceOnUse" color-interpolation-filters="sRGB">
<feFlood flood-opacity="0" result="BackgroundImageFix"/>
<feGaussianBlur in="BackgroundImageFix" stdDeviation="15"/>
<feComposite in2="SourceAlpha" operator="in" result="effect1_backgroundBlur_28003_10931"/>
<feColorMatrix in="SourceAlpha" type="matrix" values="0 0 0 0 0 0 0 0 0 0 0 0 0 0 0 0 0 0 127 0" result="hardAlpha"/>
<feOffset dx="4" dy="4"/>
<feGaussianBlur stdDeviation="5.5"/>
<feComposite in2="hardAlpha" operator="out"/>
<feColorMatrix type="matrix" values="0 0 0 0 0.027451 0 0 0 0 0.109804 0 0 0 0 0.152941 0 0 0 0.16 0"/>
<feBlend mode="normal" in2="effect1_backgroundBlur_28003_10931" result="effect2_dropShadow_28003_10931"/>
<feColorMatrix in="SourceAlpha" type="matrix" values="0 0 0 0 0 0 0 0 0 0 0 0 0 0 0 0 0 0 127 0" result="hardAlpha"/>
<feOffset dx="-2" dy="-2"/>
<feGaussianBlur stdDeviation="2"/>
<feComposite in2="hardAlpha" operator="out"/>
<feColorMatrix type="matrix" values="0 0 0 0 0.894118 0 0 0 0 0.968627 0 0 0 0 1 0 0 0 0.1 0"/>
<feBlend mode="normal" in2="effect2_dropShadow_28003_10931" result="effect3_dropShadow_28003_10931"/>
<feBlend mode="normal" in="SourceGraphic" in2="effect3_dropShadow_28003_10931" result="shape"/>
</filter>
<linearGradient id="paint0_linear_28003_10931" x1="209" y1="336.202" x2="209" y2="248.383" gradientUnits="userSpaceOnUse">
<stop stop-color="#E4F7FF"/>
<stop offset="1" stop-color="#E4F7FF" stop-opacity="0.5"/>
</linearGradient>
<linearGradient id="paint1_linear_28003_10931" x1="209" y1="123.853" x2="209" y2="226.853" gradientUnits="userSpaceOnUse">
<stop stop-color="#02C381" stop-opacity="0.3"/>
<stop offset="1" stop-color="#02C381"/>
</linearGradient>
<linearGradient id="paint2_linear_28003_10931" x1="209" y1="110.202" x2="209" y2="22.3829" gradientUnits="userSpaceOnUse">
<stop stop-color="#E4F7FF"/>
<stop offset="1" stop-color="#E4F7FF" stop-opacity="0.5"/>
</linearGradient>
<clipPath id="clip0_28003_10931">
<rect width="417" height="349" fill="white" transform="translate(0 0.853027)"/>
</clipPath>
</defs>
</svg>
