<svg width="48" height="48" viewBox="0 0 48 48" fill="none" xmlns="http://www.w3.org/2000/svg">
<path d="M32.9778 23.4859C34.1491 23.4859 35.0988 22.5368 35.0988 21.3665C35.0988 20.1959 34.1491 19.2471 32.9778 19.2471C31.8064 19.2471 30.8569 20.1959 30.8569 21.3665C30.8569 22.5368 31.8064 23.4859 32.9778 23.4859Z" fill="#8CDD00"/>
<path d="M18.6989 19.2471C17.6373 19.2471 16.7754 20.1082 16.7754 21.1692C16.7754 22.23 17.6373 23.0912 18.6989 23.0912C19.7607 23.0912 20.6226 22.23 20.6226 21.1692C20.6202 20.1082 19.7607 19.2471 18.6989 19.2471Z" fill="#8CDD00"/>
<path d="M24.4962 17.6699L22.3706 27.769C22.1731 28.712 21.3282 29.3954 20.3652 29.3954C19.7416 29.3954 19.1614 29.1163 18.769 28.6326C18.4633 28.255 18.3091 27.7908 18.3165 27.3143L14.4766 28.3056C14.6403 29.311 15.0544 30.271 15.7139 31.0913C16.8527 32.5034 18.5476 33.3141 20.3628 33.3141C23.1699 33.3141 25.6254 31.3222 26.2032 28.5773L28.4999 17.6723H24.4962V17.6699Z" fill="#C1C1C1"/>
<path d="M42.4897 10.4947C41.2016 8.90926 39.2901 8 37.2463 8H32.5156L31.6899 11.9163H37.2463C38.1034 11.9163 38.905 12.2964 39.4442 12.963C39.9834 13.6269 40.193 14.4904 40.0172 15.3277L39.1913 19.2466H43.1974L43.8546 16.136C44.2734 14.1369 43.7776 12.0799 42.4897 10.4947Z" fill="#8CDD00"/>
<path d="M36.5189 31.943C35.9411 34.6856 33.488 36.675 30.6833 36.675H26.4727L25.647 40.5916H30.6833C35.3298 40.5916 39.3982 37.2932 40.3541 32.7489L41.0474 29.4531H37.0413L36.5189 31.943Z" fill="#8CDD00"/>
<path d="M7.64702 15.8422L6.92969 19.2486H10.9356L11.4822 16.6505C12.06 13.908 14.5131 11.9185 17.3178 11.9185H21.3527L22.1784 8.00195H17.3178C12.6714 7.99956 8.60287 11.2977 7.64702 15.8422Z" fill="#8CDD00"/>
<path d="M8.55678 35.6263C8.01758 34.9621 7.80807 34.0986 7.9838 33.2613L8.71573 29.79L4.4785 30.8822L4.14642 32.4554C3.72498 34.4547 4.2234 36.5115 5.51132 38.0967C6.79944 39.6822 8.71093 40.5916 10.7548 40.5916H15.3097L16.1354 36.6751H10.7548C9.89768 36.6727 9.09598 36.2926 8.55678 35.6263Z" fill="#8CDD00"/>
</svg>
