<svg width="48" height="48" viewBox="0 0 48 48" fill="none" xmlns="http://www.w3.org/2000/svg">
<mask id="mask0_25813_1359" style="mask-type:luminance" maskUnits="userSpaceOnUse" x="4" y="4" width="40" height="40">
<path d="M44 4H4V44H44V4Z" fill="white"/>
</mask>
<g mask="url(#mask0_25813_1359)">
<path d="M43.8961 10.9683C45.2152 28.837 33.7304 37.2828 23.4347 38.1834C13.8626 39.0208 4.85256 33.1384 4.06212 24.1006C3.41009 16.6338 8.02435 13.455 11.6497 13.1381C15.3785 12.8112 18.5119 15.383 18.7837 18.4967C19.0455 21.4904 17.1778 22.853 15.8787 22.9665C14.8515 23.0565 13.5591 22.4328 13.4424 21.0935C13.3423 19.9427 13.7792 19.786 13.6725 18.5635C13.4824 16.387 11.5847 16.1335 10.5457 16.2235C9.28839 16.3336 7.00711 17.8013 7.32729 21.4571C7.64913 25.1446 11.1845 28.0583 15.8187 27.653C20.8198 27.2161 24.3018 23.3217 24.5636 17.8596C24.5612 17.5703 24.6222 17.284 24.742 17.0207L24.7436 17.0141C24.7976 16.8997 24.8606 16.7898 24.9321 16.6855C25.0388 16.5254 25.1756 16.3486 25.3524 16.1552C25.354 16.1502 25.354 16.1502 25.3574 16.1502C25.4857 16.0051 25.6409 15.8483 25.8159 15.6798C28.0005 13.6184 35.8683 8.7568 43.3091 10.2962C43.4664 10.3299 43.6086 10.4136 43.7143 10.5347C43.8202 10.6558 43.8838 10.8079 43.8961 10.9683Z" fill="url(#paint0_linear_25813_1359)"/>
</g>
<defs>
<linearGradient id="paint0_linear_25813_1359" x1="42.8817" y1="10.7902" x2="16.9871" y2="47.4389" gradientUnits="userSpaceOnUse">
<stop stop-color="#11C4D1"/>
<stop offset="1" stop-color="#0062AD"/>
</linearGradient>
</defs>
</svg>
