<svg width="48" height="48" viewBox="0 0 48 48" fill="none" xmlns="http://www.w3.org/2000/svg">
<mask id="mask0_25813_1351" style="mask-type:luminance" maskUnits="userSpaceOnUse" x="4" y="4" width="40" height="40">
<path d="M44 4H4V44H44V4Z" fill="white"/>
</mask>
<g mask="url(#mask0_25813_1351)">
<path fill-rule="evenodd" clip-rule="evenodd" d="M24 44.001C37.8071 44.001 44 37.8081 44 24.001C44 10.1939 37.8071 4.00098 24 4.00098C10.1929 4.00098 4 10.1939 4 24.001C4 37.8081 10.1929 44.001 24 44.001ZM20.245 12.4813H25.809V21.6501H22.3593V15.4329H19.2689L20.245 12.4813ZM24.0018 35.5199C27.5062 35.5199 30.3471 32.6789 30.3471 29.1745C30.3471 25.67 27.5062 22.8292 24.0018 22.8292C20.4974 22.8292 17.6564 25.67 17.6564 29.1745C17.6564 32.6789 20.4974 35.5199 24.0018 35.5199ZM24.0018 32.6391C25.9152 32.6391 27.4664 31.088 27.4664 29.1745C27.4664 27.261 25.9152 25.7098 24.0018 25.7098C22.0883 25.7098 20.5371 27.261 20.5371 29.1745C20.5371 31.088 22.0883 32.6391 24.0018 32.6391Z" fill="#19D345"/>
</g>
</svg>
