<svg width="48" height="48" viewBox="0 0 48 48" fill="none" xmlns="http://www.w3.org/2000/svg">
<path fill-rule="evenodd" clip-rule="evenodd" d="M13.6826 23.5268C13.7819 19.193 15.2218 15.3076 17.4066 12.7173C20.2369 9.03112 24.5072 6.6401 29.274 6.6401C32.2035 6.6401 34.9345 7.53671 37.2682 9.08087C32.1539 6.59034 27.3871 8.3338 25.7982 9.42967C30.8133 10.5255 34.6367 16.6526 34.6367 24.0249C34.6367 31.3973 30.8133 37.5243 25.7982 38.6202C27.3574 39.6955 31.9765 41.3944 36.9813 39.1044C34.7118 40.5348 32.0843 41.3599 29.274 41.3599C24.5072 41.3599 20.2866 39.0187 17.4066 35.2827C15.2218 32.6924 13.7819 28.807 13.6826 24.4732V23.5268ZM37.1485 39.0265C33.6374 42.1496 29.0176 44 23.961 44H23.0176C12.4412 43.5517 4 34.7846 4 24.0249C4 12.9664 12.9378 4 23.961 4H24.0603C29.125 4 33.7428 5.9427 37.2682 9.08089C37.2682 9.08091 37.2683 9.08093 37.2683 9.08095C41.34 12.7671 43.922 18.0971 43.922 24.0249C43.922 29.9527 41.34 35.2827 37.2683 38.9689C37.2284 38.9883 37.1884 39.0075 37.1485 39.0265Z" fill="#FF1B2D"/>
</svg>
