<svg width="48" height="48" viewBox="0 0 144 144">
    <defs>
        <linearGradient id="A" gradientUnits="userSpaceOnUse" x1="216.98" y1="-423.81" x2="170.95" y2="319.28"
            gradientTransform="matrix(0.146872,0,0,-0.182039,30.908432,59.146042)">
            <stop offset="0" stop-color="rgb(0.392157%,95.294118%,58.431373%)" />
            <stop offset="1" stop-color="rgb(0.392157%,70.980392%,41.568627%)" />
        </linearGradient>
    </defs>
    <path d="M31.137.246H7.996l81.27 143.508h23.156zm0 0" fill="url(#A)" />
    <path
        d="M112.734 89.406c16.203-5.746 27.609-19.926 27.609-43.488v-.406c0-12.5-3.457-23.137-9.578-30.926-7.441-9-18.832-14.32-33.391-14.32H39.313l13.008 23h43.391c15.047 0 23.988 8.332 23.988 23.703v.406c0 14.543-9.27 23.988-23.824 23.988H79.59l40.977 72.391h23.449L112.75 89.406zM0 41.023l58.16 102.711h23.156L23.156 41.023zm0 0"
        fill="rgb(0%,0%,0%)" />
</svg>