<svg width="24" height="24" viewBox="0 0 24 24" fill="none" xmlns="http://www.w3.org/2000/svg">
<path d="M8.83852 12.4444C8.72864 12.6089 8.66999 12.8022 8.66999 13C8.66999 13.1313 8.69586 13.2614 8.74611 13.3827C8.79637 13.504 8.87003 13.6142 8.96289 13.7071C9.05574 13.8 9.16598 13.8736 9.28731 13.9239C9.40864 13.9741 9.53867 14 9.66999 14C9.86777 14 10.0611 13.9414 10.2256 13.8315C10.39 13.7216 10.5182 13.5654 10.5939 13.3827C10.6696 13.2 10.6894 12.9989 10.6508 12.8049C10.6122 12.6109 10.517 12.4327 10.3771 12.2929C10.2372 12.153 10.0591 12.0578 9.86508 12.0192C9.6711 11.9806 9.47004 12.0004 9.28731 12.0761C9.10458 12.1518 8.9484 12.28 8.83852 12.4444Z" fill="#E4F7FF"/>
<path d="M12.01 16.52C12.8976 16.5568 13.7705 16.2847 14.48 15.75V15.79C14.5063 15.7644 14.5272 15.7339 14.5417 15.7002C14.5562 15.6664 14.5638 15.6302 14.5643 15.5935C14.5648 15.5569 14.558 15.5204 14.5444 15.4864C14.5308 15.4523 14.5106 15.4213 14.485 15.395C14.4594 15.3687 14.4289 15.3478 14.3951 15.3333C14.3614 15.3188 14.3252 15.3112 14.2885 15.3107C14.2145 15.3098 14.143 15.3383 14.09 15.39C13.4831 15.8254 12.7458 16.0406 12 16C11.2551 16.0333 10.5212 15.811 9.91999 15.37C9.86818 15.3275 9.8024 15.3057 9.73546 15.309C9.66851 15.3123 9.60518 15.3404 9.55778 15.3878C9.51039 15.4352 9.48231 15.4985 9.47903 15.5655C9.47574 15.6324 9.49747 15.6982 9.53999 15.75C10.2495 16.2847 11.1224 16.5568 12.01 16.52Z" fill="#E4F7FF"/>
<path d="M13.7444 13.8715C13.9089 13.9814 14.1022 14.04 14.3 14.04L14.29 14.08C14.4256 14.0815 14.5601 14.0553 14.6852 14.0032C14.8104 13.9511 14.9237 13.874 15.0182 13.7767C15.1126 13.6795 15.1863 13.564 15.2348 13.4373C15.2832 13.3107 15.3054 13.1755 15.3 13.04C15.3 12.8422 15.2413 12.6489 15.1315 12.4844C15.0216 12.32 14.8654 12.1918 14.6827 12.1161C14.4999 12.0404 14.2989 12.0206 14.1049 12.0592C13.9109 12.0978 13.7327 12.193 13.5929 12.3329C13.453 12.4727 13.3578 12.6509 13.3192 12.8449C13.2806 13.0389 13.3004 13.24 13.3761 13.4227C13.4518 13.6054 13.58 13.7616 13.7444 13.8715Z" fill="#E4F7FF"/>
<path fill-rule="evenodd" clip-rule="evenodd" d="M22 12C22 17.5228 17.5228 22 12 22C6.47715 22 2 17.5228 2 12C2 6.47715 6.47715 2 12 2C17.5228 2 22 6.47715 22 12ZM18.4065 11.2154C18.5682 11.446 18.6597 11.7185 18.67 12C18.6743 12.2755 18.6005 12.5467 18.4571 12.782C18.3138 13.0174 18.1068 13.2073 17.86 13.33C17.8713 13.4765 17.8713 13.6236 17.86 13.77C17.86 16.01 15.25 17.83 12.03 17.83C8.80999 17.83 6.19999 16.01 6.19999 13.77C6.18873 13.6236 6.18873 13.4765 6.19999 13.33C6.00765 13.2416 5.83683 13.1125 5.69935 12.9515C5.56188 12.7906 5.46105 12.6017 5.40384 12.3979C5.34664 12.1941 5.33443 11.9803 5.36807 11.7713C5.4017 11.5623 5.48038 11.3632 5.59864 11.1876C5.71689 11.0121 5.87191 10.8643 6.05294 10.7546C6.23397 10.645 6.43669 10.5759 6.64705 10.5524C6.8574 10.5288 7.07036 10.5513 7.27117 10.6182C7.47198 10.6852 7.65583 10.795 7.80999 10.94C8.96227 10.1585 10.3179 9.73099 11.71 9.71L12.45 6.24C12.4583 6.19983 12.4745 6.16171 12.4977 6.12784C12.5208 6.09398 12.5505 6.06505 12.5849 6.04272C12.6193 6.0204 12.6578 6.00513 12.6981 5.99779C12.7385 5.99046 12.7799 5.99121 12.82 6L15.27 6.49C15.3896 6.28444 15.5786 6.12825 15.8031 6.04948C16.0275 5.9707 16.2726 5.9745 16.4945 6.06019C16.7164 6.14587 16.9005 6.30784 17.0137 6.51701C17.1269 6.72617 17.1619 6.96885 17.1123 7.20147C17.0627 7.4341 16.9319 7.64143 16.7432 7.78627C16.5545 7.9311 16.3204 8.00394 16.0829 7.99172C15.8453 7.9795 15.6199 7.88301 15.4471 7.71958C15.2743 7.55615 15.1654 7.33648 15.14 7.1L13 6.65L12.35 9.77C13.7252 9.7995 15.0624 10.2267 16.2 11C16.4032 10.805 16.6585 10.6729 16.9351 10.6196C17.2117 10.5664 17.4978 10.5943 17.7589 10.7C18.0199 10.8057 18.2449 10.9847 18.4065 11.2154Z" fill="#E4F7FF"/>
</svg>
