<svg width="24" height="24" viewBox="0 0 24 24" fill="none" xmlns="http://www.w3.org/2000/svg">
<path fill-rule="evenodd" clip-rule="evenodd" d="M12 22C17.5228 22 22 17.5228 22 12C22 6.47715 17.5228 2 12 2C6.47715 2 2 6.47715 2 12C2 17.5228 6.47715 22 12 22ZM16.6756 7L12.9525 11.2348L17 17H14.0221L11.2955 13.1169L7.88214 17H7L10.9043 12.5596L7 7H9.97792L12.5592 10.6762L15.7935 7H16.6756ZM11.3477 12.0544L11.7439 12.6084L14.4379 16.381H15.7931L12.4908 11.7599L12.0962 11.206L9.55542 7.65073H8.20027L11.3477 12.0544Z" fill="#E4F7FF"/>
</svg>
