<svg width="48" height="48" viewBox="0 0 48 48" fill="none" xmlns="http://www.w3.org/2000/svg">
<rect x="4" y="4" width="40" height="40" rx="4" fill="#2D29E7"/>
<path fill-rule="evenodd" clip-rule="evenodd" d="M19.432 9.07556C20.1207 8.38689 21.0547 8 22.0286 8L39.9995 8.00011L32.2959 15.7037H17.3935C16.4569 15.7037 15.7036 16.463 15.7036 17.3996V29.9498L8.61458 22.8607C8.20487 22.451 8 21.914 8 21.3769C8 20.8399 8.20485 20.303 8.61457 19.8932L19.432 9.07556ZM30.6005 32.2954H15.704L8.00044 39.999L25.9714 39.9991C26.9453 39.9991 27.8793 39.6122 28.568 38.9236L39.3854 28.1059C39.7952 27.6962 40 27.1591 40 26.6222C40 26.0852 39.7952 25.5481 39.3854 25.1384L32.2964 18.0494V30.5995C32.2964 31.5362 31.5372 32.2954 30.6005 32.2954Z" fill="#F7F6FF"/>
</svg>
