<svg width="48" height="48" viewBox="0 0 48 48" fill="none" xmlns="http://www.w3.org/2000/svg">
<defs>
<clipPath id="rounded">
<rect x="4" y="4" width="40" height="40" rx="4"/>
</clipPath>
</defs>
<g clip-path="url(#rounded)">
<rect x="4" y="4" width="40" height="40" fill="#000000"/>
<g transform="translate(7.5,4.5) scale(0.0322)">
<path d="M424 387 C423.67 404.49 423.34 421.98 423 440 C416.73 435.38 410.46 430.76 404 426 C361.16197171 395.86816654 307.92556461 381.03570331 255.625 389.5625 C218.65372483 396.31171379 182.13228246 411.39989763 154.66015625 437.4921875 C152.51138687 439.5178996 150.33177144 441.42696757 148.0625 443.3125 C130.74626938 458.48651652 117.3965147 477.5929201 107 498 C106.51974365 498.91797363 106.51974365 498.91797363 106.02978516 499.85449219 C82.56573488 544.98247381 79.64084797 601.25767576 94.765625 649.43896484 C103.69654604 676.52176401 117.58835946 700.78097073 136.92578125 721.73828125 C138.80121586 723.78324667 140.59032533 725.87619475 142.375 728 C155.07283708 742.46222902 171.32877818 753.61856018 188 763 C188.59071289 763.3398291 189.18142578 763.6796582 189.79003906 764.02978516 C203.74312736 772.03195401 218.52114045 777.96498709 234 782.3125 C234.80381104 782.54275879 235.60762207 782.77301758 236.43579102 783.01025391 C252.18076063 787.19887371 268.08232522 788.50156581 284.31884766 788.39111328 C287.1310237 788.37496541 289.94177187 788.39111245 292.75390625 788.41015625 C308.22629069 788.4289902 322.96269459 786.49959095 337.875 782.3125 C339.2508728 781.92795654 339.2508728 781.92795654 340.65454102 781.53564453 C365.52367208 774.35203609 388.32911521 762.48470745 409 747 C413.95 743.37 418.9 739.74 424 736 C424 788.8 424 841.6 424 896 C449.08 896 474.16 896 500 896 C501.15526228 866.31181024 502.11163923 836.63636812 502.65539713 806.93165226 C502.72040261 803.39352315 502.78771035 799.85544134 502.85644531 796.31738281 C502.87690553 795.26122171 502.87690553 795.26122171 502.89777908 794.18372402 C503.09403543 784.29921452 503.41430113 774.425548 503.83418506 764.54811138 C504.55624597 747.55903937 505.0347208 730.58358365 505.078125 713.578125 C505.08147165 712.26693003 505.08481831 710.95573505 505.08826637 709.6048069 C505.04144533 678.61933688 503.81826095 652.00111848 481.16571045 628.99188232 C471.12519844 619.31576329 460.01919467 611.04778533 448 604 C444.06209423 605.82404932 441.36290168 608.37467464 438.34863281 611.44018555 C437.51847153 612.27231819 437.51847153 612.27231819 436.67153931 613.1212616 C434.84409375 614.95519362 433.02373077 616.79599868 431.203125 618.63671875 C429.92814444 619.9179747 428.65264403 621.19871354 427.37664795 622.47895813 C424.01518738 625.85372344 420.65932836 629.23399969 417.30505371 632.61590576 C411.95219116 638.01185194 406.59273603 643.40122712 401.22982025 648.78717995 C399.36636041 650.66077537 397.50640551 652.53779729 395.64678955 654.41520691 C390.41386138 659.68504402 385.19956979 664.90267466 379.52252197 669.70137024 C377.39292007 671.51780669 375.44798913 673.49207275 373.5 675.5 C369.48895157 679.54527239 365.40685872 683.38848595 361 687 C360.24847656 687.62519531 359.49695313 688.25039063 358.72265625 688.89453125 C345.38848792 699.31120821 329.41029116 705.41826778 313 709 C312.18523193 709.18401367 311.37046387 709.36802734 310.53100586 709.55761719 C302.87240416 711.13502905 295.36673144 711.38597571 287.5625 711.375 C286.90625641 711.37445618 286.25001282 711.37391235 285.57388306 711.37335205 C252.85810802 711.24930273 223.79481813 699.47718976 200 677 C199.24976563 676.31421875 198.49953125 675.6284375 197.7265625 674.921875 C174.71644039 653.12281195 163.73114897 621.72337466 162.65039062 590.55664062 C162.22798908 556.34211526 175.25687543 524.48024772 199 500 C219.12470273 479.52279452 248.48289665 466.18346033 277.265625 465.69921875 C279.50395486 465.68163769 281.74159187 465.67781221 283.97998047 465.68432617 C286.23324497 465.68747657 288.48517867 465.66396832 290.73828125 465.63867188 C304.15633073 465.57852055 317.03663725 467.30961544 329.625 472.1875 C330.81536865 472.64032349 330.81536865 472.64032349 332.02978516 473.10229492 C349.63230803 480.02023183 363.6018581 491.13101948 376.61328125 504.60546875 C378.7927305 506.83797634 381.03016539 508.9089389 383.41479492 510.91918945 C388.85395428 515.65278401 393.89521052 520.78347945 398.97229004 525.89712524 C400.78735566 527.72512179 402.60567301 529.54982956 404.42480469 531.3737793 C408.93931916 535.90156143 413.44833337 540.43480807 417.95751953 544.96789551 C421.77945616 548.80966339 425.60350376 552.64930702 429.43029785 556.48623657 C431.20920255 558.27155545 432.98503396 560.05989139 434.76074219 561.84838867 C437.81785724 564.92242948 440.9043474 567.96477988 444 571 C444.64389679 571.65371582 445.28779358 572.30743164 445.95120239 572.98095703 C450.17340042 577.01693472 454.89320652 579.72744574 459.94482422 582.578125 C488.47294832 598.81193055 518.92482666 622.37212834 529 655 C537.54887633 688.94211669 535.39398258 726.49078213 534.75 761.1875 C534.72864581 762.35889526 534.70729162 763.53029053 534.68529034 764.73718262 C534.28221215 786.02063672 533.66247766 807.29741215 532.54733276 828.55619812 C532.4955548 829.56092025 532.44377684 830.56564239 532.39042985 831.60081065 C532.14984094 836.23180227 531.89528337 840.86084773 531.60459709 845.4889679 C530.65773783 862.51414697 531.49153089 878.71205035 532 896 C556.42 896 580.84 896 606 896 C608.32870341 863.39815225 608.12771902 830.84335199 608.07202756 798.17486262 C608.06064528 791.37871382 608.05530027 784.58256374 608.05032361 777.78640771 C608.03999562 763.8575946 608.02251831 749.92879838 608 736 C608.53596298 736.39660828 609.07192596 736.79321655 609.62413025 737.20184326 C612.09102835 739.02632569 614.55917686 740.84910941 617.02734375 742.671875 C617.87018921 743.29562012 618.71303467 743.91936523 619.5814209 744.56201172 C645.73310175 763.86429224 672.99791349 778.12152896 705 785 C705.80034668 785.17789062 706.60069336 785.35578125 707.42529297 785.5390625 C756.3844103 795.92214482 810.68168578 784.83012214 852.65234375 758.25390625 C863.27686606 751.20601904 873.27294045 743.38774741 882.43115234 734.51318359 C883.52760661 733.45563246 884.63286379 732.40716622 885.74462891 731.36572266 C917.21691094 701.88398091 937.27813654 661.43748672 944 619 C944.11569336 618.31518555 944.23138672 617.63037109 944.35058594 616.92480469 C952.47365504 567.68020473 939.09759975 514.88593847 910.72607422 474.171875 C907.9558636 470.33602957 905.01997377 466.64199166 902 463 C901.50822266 462.40670898 901.01644531 461.81341797 900.50976562 461.20214844 C892.57195417 451.68573834 884.56050389 443.08077578 874.86328125 435.3125 C873.04388182 433.84308054 871.24642531 432.3457336 869.48046875 430.8125 C856.84868779 419.94645186 842.03050317 412.02956532 827 405 C825.88753906 404.46761719 824.77507813 403.93523437 823.62890625 403.38671875 C802.1694534 393.60484802 777.52010722 388.60040229 754 388 C752.91984619 387.9693042 752.91984619 387.9693042 751.81787109 387.93798828 C731.31221871 387.42650942 711.76137845 389.41204467 692 395 C690.7325293 395.35723145 690.7325293 395.35723145 689.43945312 395.72167969 C667.23078404 402.16304463 646.67149827 412.41120898 628 426 C627.13955078 426.62358398 626.27910156 427.24716797 625.39257812 427.88964844 C619.89657071 431.88441334 614.44130211 435.93118134 609 440 C608.98969254 439.43481155 608.97938507 438.86962311 608.96876526 438.28730774 C608.86048552 432.39853855 608.74590537 426.50991574 608.62768555 420.62133789 C608.58440548 418.42442898 608.54272555 416.22748793 608.50268555 414.03051758 C608.44481513 410.87050701 608.38116893 407.71065716 608.31640625 404.55078125 C608.29969376 403.57039383 608.28298126 402.59000641 608.26576233 401.57991028 C608.24581711 400.65933334 608.22587189 399.73875641 608.20532227 398.7902832 C608.18977798 397.9842012 608.1742337 397.1781192 608.15821838 396.34761047 C607.98857745 393.83051467 607.54479549 391.46092213 607 389 C598.89558932 386.74030421 591.02583991 386.74179611 582.68359375 386.8046875 C581.21672256 386.80842478 579.74984884 386.81126837 578.28297424 386.81326294 C574.45088624 386.82084315 570.61895356 386.84044232 566.78692627 386.8626709 C562.86513367 386.88325132 558.94331559 386.89229055 555.02148438 386.90234375 C547.34758599 386.92369442 539.67381489 386.95776119 532 387 C531.44911525 401.56471926 530.95575579 416.1263901 530.68359375 430.69921875 C530.65981155 431.91401413 530.63602936 433.12880951 530.61152649 434.38041687 C530.50616362 440.16138973 530.42804904 445.94042113 530.42441273 451.7222929 C530.40852914 476.29170056 530.40852914 476.29170056 528.109375 488.4609375 C526.2656548 499.51129366 524.54578818 510.70364696 531.05753326 520.60860443 C543.59769313 537.93480188 566.10011199 564.32868641 586 573 C586.85920044 572.13857895 587.71840088 571.2771579 588.6036377 570.38963318 C596.72181309 562.25114004 604.84266268 554.11532368 612.9661026 545.98208523 C617.14182479 541.80115611 621.31661643 537.61930674 625.48925781 533.43530273 C629.5200391 529.39361456 633.55329541 525.35441127 637.58824158 521.31688118 C639.12319885 519.78008369 640.65727927 518.24240986 642.19044495 516.703825 C644.34661652 514.54033936 646.50595379 512.38005961 648.66601562 510.22045898 C649.29180511 509.59107422 649.9175946 508.96168945 650.56234741 508.31323242 C654.33316764 504.55105172 658.22517256 500.98390314 662.26255035 497.50895786 C664.46840118 495.5931982 666.56928755 493.5742314 668.6875 491.5625 C686.66267906 475.49377933 712.78395086 465.94652151 736.8125 465.796875 C737.90957275 465.78832489 737.90957275 465.78832489 739.02880859 465.77960205 C740.57176291 465.7702068 742.11473679 465.76364002 743.65771484 465.75976562 C745.96619849 465.75014093 748.27375885 465.71909988 750.58203125 465.6875 C763.83463164 465.59119757 776.1783081 467.44251849 788.625 472.25 C789.42639404 472.55446045 790.22778809 472.8589209 791.0534668 473.17260742 C815.10696814 482.54269192 836.86969949 499.54640919 850 522 C850.40943848 522.69432129 850.81887695 523.38864258 851.24072266 524.10400391 C869.11752482 554.93365862 873.38583436 589.14796225 864.4074707 623.56567383 C861.77108266 632.96774544 857.75907808 641.49811757 853 650 C852.44441406 650.99773437 851.88882813 651.99546875 851.31640625 653.0234375 C847.45061693 659.49423113 842.72963246 664.85427529 837.55859375 670.28515625 C835.59551154 672.36812135 833.77996376 674.4535165 832 676.6875 C815.48912345 696.06778815 786.83192019 707.84913662 762 711 C729.86299847 712.66578438 696.92712782 708.74560786 671.3984375 687.203125 C667.7540234 683.85548729 664.27262724 680.36688943 660.8359375 676.80859375 C658.78449136 674.77692739 656.76358915 672.92546372 654.5703125 671.06640625 C647.16591588 664.65932584 640.43689887 657.48893143 633.55419922 650.53369141 C631.65284433 648.61408658 629.74836336 646.69762101 627.84375 644.78125 C627.27579712 644.20499878 626.70784424 643.62874756 626.12268066 643.03503418 C619.4684847 636.3411752 612.27586237 630.37805796 604.90798187 624.48860168 C588.28616681 611.16660624 572.25837591 597.2114602 556.5625 582.8125 C555.9027203 582.20886124 555.2429406 581.60522247 554.56316757 580.98329163 C521.07155149 550.26905406 495.21181274 522.36780242 492.97749704 475.30891675 C492.61115618 465.51880424 492.94074845 455.77587249 493.5 446 C493.54121176 445.25869606 493.58242352 444.51739213 493.62488413 443.75362444 C494.71176509 424.6369743 497.16584809 406.00548927 500 387 C474.92 387 449.84 387 424 387 Z" fill="#FFFFFF"/>
</g>
</g>
</svg>
