<svg width="160" height="159" viewBox="0 0 160 159" fill="none" xmlns="http://www.w3.org/2000/svg">
<g filter="url(#filter0_d_26403_5350)">
<path d="M87.0534 102.875C82.8476 105.931 77.1524 105.931 72.9466 102.875L56.6196 91.0132C52.4138 87.9574 50.6539 82.541 52.2604 77.5967L58.4967 58.4033C60.1032 53.459 64.7107 50.1115 69.9094 50.1115L90.0906 50.1115C95.2893 50.1115 99.8968 53.459 101.503 58.4033L107.74 77.5968C109.346 82.541 107.586 87.9574 103.38 91.0132L87.0534 102.875Z" fill="#18EFB1"/>
<path d="M72.5057 103.482C76.9744 106.729 83.0255 106.729 87.4943 103.482L103.821 91.6199C108.29 88.3732 110.16 82.6183 108.453 77.365L102.217 58.1715C100.51 52.9182 95.6143 49.3615 90.0906 49.3615L69.9094 49.3615C64.3857 49.3615 59.4903 52.9182 57.7834 58.1715L51.5471 77.365C49.8402 82.6183 51.7101 88.3732 56.1788 91.6199L72.5057 103.482Z" stroke="url(#paint0_linear_26403_5350)" stroke-width="1.5" stroke-linecap="square"/>
</g>
<path d="M89.3334 69.3333H88.0001V68C88.0001 66.9391 87.5787 65.9217 86.8285 65.1716C86.0784 64.4214 85.0609 64 84.0001 64H70.6667C69.6059 64 68.5885 64.4214 67.8383 65.1716C67.0882 65.9217 66.6667 66.9391 66.6667 68V84C66.6667 85.0609 67.0882 86.0783 67.8383 86.8284C68.5885 87.5786 69.6059 88 70.6667 88H89.3334C90.3943 88 91.4117 87.5786 92.1618 86.8284C92.912 86.0783 93.3334 85.0609 93.3334 84V73.3333C93.3334 72.2725 92.912 71.2551 92.1618 70.5049C91.4117 69.7548 90.3943 69.3333 89.3334 69.3333ZM70.6667 66.6667H84.0001C84.3537 66.6667 84.6928 66.8071 84.9429 67.0572C85.1929 67.3072 85.3334 67.6464 85.3334 68V69.3333H70.6667C70.3131 69.3333 69.974 69.1929 69.7239 68.9428C69.4739 68.6928 69.3334 68.3536 69.3334 68C69.3334 67.6464 69.4739 67.3072 69.7239 67.0572C69.974 66.8071 70.3131 66.6667 70.6667 66.6667ZM90.6667 80H89.3334C88.9798 80 88.6407 79.8595 88.3906 79.6095C88.1406 79.3594 88.0001 79.0203 88.0001 78.6667C88.0001 78.313 88.1406 77.9739 88.3906 77.7239C88.6407 77.4738 88.9798 77.3333 89.3334 77.3333H90.6667V80ZM90.6667 74.6667H89.3334C88.2725 74.6667 87.2551 75.0881 86.505 75.8382C85.7548 76.5884 85.3334 77.6058 85.3334 78.6667C85.3334 79.7275 85.7548 80.7449 86.505 81.4951C87.2551 82.2452 88.2725 82.6667 89.3334 82.6667H90.6667V84C90.6667 84.3536 90.5263 84.6928 90.2762 84.9428C90.0262 85.1929 89.687 85.3333 89.3334 85.3333H70.6667C70.3131 85.3333 69.974 85.1929 69.7239 84.9428C69.4739 84.6928 69.3334 84.3536 69.3334 84V71.7733C69.7618 71.924 70.2127 72.0007 70.6667 72H89.3334C89.687 72 90.0262 72.1405 90.2762 72.3905C90.5263 72.6406 90.6667 72.9797 90.6667 73.3333V74.6667Z" fill="#E4F7FF"/>
<defs>
<filter id="filter0_d_26403_5350" x="0.172119" y="0.61145" width="159.656" height="158.056" filterUnits="userSpaceOnUse" color-interpolation-filters="sRGB">
<feFlood flood-opacity="0" result="BackgroundImageFix"/>
<feColorMatrix in="SourceAlpha" type="matrix" values="0 0 0 0 0 0 0 0 0 0 0 0 0 0 0 0 0 0 127 0" result="hardAlpha"/>
<feOffset dy="2"/>
<feGaussianBlur stdDeviation="25"/>
<feColorMatrix type="matrix" values="0 0 0 0 0 0 0 0 0 0.807843 0 0 0 0 0.533333 0 0 0 0.3 0"/>
<feBlend mode="normal" in2="BackgroundImageFix" result="effect1_dropShadow_26403_5350"/>
<feBlend mode="normal" in="SourceGraphic" in2="effect1_dropShadow_26403_5350" result="shape"/>
</filter>
<linearGradient id="paint0_linear_26403_5350" x1="95.8393" y1="86.0759" x2="69.0096" y2="43.0819" gradientUnits="userSpaceOnUse">
<stop stop-color="#00CE88"/>
<stop offset="1" stop-color="white" stop-opacity="0"/>
</linearGradient>
</defs>
</svg>
