<svg width="160" height="159" viewBox="0 0 160 159" fill="none" xmlns="http://www.w3.org/2000/svg">
<g filter="url(#filter0_d_26403_5354)">
<path d="M87.0534 102.875C82.8476 105.931 77.1524 105.931 72.9466 102.875L56.6196 91.0132C52.4138 87.9574 50.6539 82.541 52.2604 77.5967L58.4967 58.4033C60.1032 53.459 64.7107 50.1115 69.9094 50.1115L90.0906 50.1115C95.2893 50.1115 99.8968 53.459 101.503 58.4033L107.74 77.5968C109.346 82.541 107.586 87.9574 103.38 91.0132L87.0534 102.875Z" fill="#18EFB1"/>
<path d="M72.5057 103.482C76.9744 106.729 83.0255 106.729 87.4943 103.482L103.821 91.6199C108.29 88.3732 110.16 82.6183 108.453 77.365L102.217 58.1715C100.51 52.9182 95.6143 49.3615 90.0906 49.3615L69.9094 49.3615C64.3857 49.3615 59.4903 52.9182 57.7834 58.1715L51.5471 77.365C49.8402 82.6183 51.7101 88.3732 56.1788 91.6199L72.5057 103.482Z" stroke="url(#paint0_linear_26403_5354)" stroke-width="1.5" stroke-linecap="square"/>
</g>
<path fill-rule="evenodd" clip-rule="evenodd" d="M89.1765 61.4919C87.448 60.7097 85.5221 60.4728 83.6556 60.8129C81.7891 61.153 80.0705 62.0539 78.729 63.3954C77.3874 64.737 76.4865 66.4555 76.1465 68.3221C75.8628 69.8787 75.9805 71.4765 76.481 72.9668L67.884 81.5638C67.1035 82.3443 66.665 83.4028 66.665 84.5066C66.665 85.6104 67.1035 86.6689 67.884 87.4494C68.6645 88.2299 69.723 88.6684 70.8268 88.6684C71.9306 88.6684 72.9891 88.2299 73.7696 87.4494L82.3666 78.8524C83.8569 79.3529 85.4547 79.4706 87.0113 79.187C88.8779 78.8469 90.5964 77.946 91.938 76.6044C93.2795 75.2629 94.1804 73.5443 94.5205 71.6778C94.8606 69.8113 94.6237 67.8854 93.8415 66.1569C93.6611 65.7581 93.2964 65.4733 92.8658 65.3949C92.4352 65.3164 91.9935 65.4543 91.684 65.7638L86.6668 70.781L84.5524 68.6666L89.5696 63.6494C89.8791 63.3399 90.017 62.8982 89.9385 62.4676C89.8601 62.037 89.5753 61.6723 89.1765 61.4919ZM84.1336 63.4364C84.7785 63.3189 85.4333 63.2978 86.0772 63.3706L82.6573 66.7905L82.6479 66.7999C82.1593 67.2984 81.8857 67.9686 81.8857 68.6666C81.8857 69.3646 82.1593 70.0348 82.6479 70.5333L82.6573 70.5427L84.7907 72.6761L84.8001 72.6855C85.2986 73.1741 85.9688 73.4477 86.6668 73.4477C87.3648 73.4477 88.035 73.1741 88.5335 72.6855L88.5429 72.6761L91.9628 69.2562C92.0356 69.9001 92.0145 70.5549 91.897 71.1998C91.6541 72.533 91.0106 73.7606 90.0524 74.7188C89.0941 75.6771 87.8666 76.3206 86.5333 76.5635C85.2001 76.8064 83.8245 76.6372 82.5898 76.0785C82.0842 75.8497 81.4898 75.958 81.0973 76.3505L71.884 85.5638C71.6036 85.8442 71.2233 86.0017 70.8268 86.0017C70.4303 86.0017 70.05 85.8442 69.7696 85.5638C69.4892 85.2834 69.3317 84.9031 69.3317 84.5066C69.3317 84.1101 69.4892 83.7298 69.7696 83.4494L78.9829 74.2361C79.3754 73.8437 79.4837 73.2492 79.2549 72.7436C78.6962 71.5089 78.527 70.1333 78.7699 68.8001C79.0128 67.4668 79.6563 66.2393 80.6146 65.281C81.5728 64.3228 82.8004 63.6793 84.1336 63.4364Z" fill="#E4F7FF"/>
<defs>
<filter id="filter0_d_26403_5354" x="0.172119" y="0.61145" width="159.656" height="158.056" filterUnits="userSpaceOnUse" color-interpolation-filters="sRGB">
<feFlood flood-opacity="0" result="BackgroundImageFix"/>
<feColorMatrix in="SourceAlpha" type="matrix" values="0 0 0 0 0 0 0 0 0 0 0 0 0 0 0 0 0 0 127 0" result="hardAlpha"/>
<feOffset dy="2"/>
<feGaussianBlur stdDeviation="25"/>
<feColorMatrix type="matrix" values="0 0 0 0 0 0 0 0 0 0.807843 0 0 0 0 0.533333 0 0 0 0.3 0"/>
<feBlend mode="normal" in2="BackgroundImageFix" result="effect1_dropShadow_26403_5354"/>
<feBlend mode="normal" in="SourceGraphic" in2="effect1_dropShadow_26403_5354" result="shape"/>
</filter>
<linearGradient id="paint0_linear_26403_5354" x1="95.8393" y1="86.0759" x2="69.0096" y2="43.0819" gradientUnits="userSpaceOnUse">
<stop stop-color="#00CE88"/>
<stop offset="1" stop-color="white" stop-opacity="0"/>
</linearGradient>
</defs>
</svg>
