<svg width="161" height="159" viewBox="0 0 161 159" fill="none" xmlns="http://www.w3.org/2000/svg">
<g filter="url(#filter0_d_26265_273)">
<path d="M87.3935 102.375C83.1877 105.431 77.4925 105.431 73.2867 102.375L56.9597 90.5132C52.7539 87.4574 50.994 82.041 52.6004 77.0967L58.8368 57.9033C60.4433 52.959 65.0508 49.6115 70.2495 49.6115L90.4307 49.6115C95.6294 49.6115 100.237 52.959 101.843 57.9033L108.08 77.0968C109.686 82.041 107.926 87.4574 103.72 90.5132L87.3935 102.375Z" fill="#00CE88"/>
<path d="M72.8458 102.982C77.3145 106.229 83.3656 106.229 87.8343 102.982L104.161 91.1199C108.63 87.8732 110.5 82.1183 108.793 76.865L102.557 57.6715C100.85 52.4182 95.9543 48.8615 90.4307 48.8615L70.2495 48.8615C64.7258 48.8615 59.8304 52.4182 58.1235 57.6715L51.8872 76.865C50.1803 82.1183 52.0501 87.8732 56.5189 91.1199L72.8458 102.982Z" stroke="url(#paint0_linear_26265_273)" stroke-width="1.5" stroke-linecap="square"/>
</g>
<path d="M86.3289 63.3179C85.1584 62.3552 83.7878 61.666 82.317 61.3005C80.8463 60.935 79.3125 60.9025 77.8276 61.2053C75.8503 61.6047 74.0363 62.5824 72.6156 64.0144C71.195 65.4464 70.2317 67.2681 69.848 69.2484C69.5678 70.7333 69.6188 72.2616 69.9971 73.7245C70.3755 75.1874 71.072 76.5488 72.037 77.7116C72.9325 78.7221 73.4459 80.0145 73.4878 81.3641V85.182C73.4878 86.1946 73.8901 87.1657 74.6061 87.8817C75.3221 88.5978 76.2932 89 77.3058 89H82.3964C83.409 89 84.3801 88.5978 85.0961 87.8817C85.8121 87.1657 86.2143 86.1946 86.2143 85.182V81.6059C86.257 80.1158 86.8045 78.6844 87.767 77.5461C89.4534 75.46 90.2483 72.7925 89.9791 70.1235C89.7098 67.4545 88.398 64.9997 86.3289 63.2924V63.3179ZM83.669 85.182C83.669 85.5196 83.5349 85.8433 83.2963 86.0819C83.0576 86.3206 82.7339 86.4547 82.3964 86.4547H77.3058C76.9682 86.4547 76.6445 86.3206 76.4059 86.0819C76.1672 85.8433 76.0331 85.5196 76.0331 85.182V83.9094H83.669V85.182ZM85.7944 75.968C84.5147 77.4858 83.7681 79.3813 83.669 81.3641H81.1237V77.5461C81.1237 77.2086 80.9896 76.8849 80.751 76.6462C80.5123 76.4076 80.1886 76.2735 79.8511 76.2735C79.5135 76.2735 79.1898 76.4076 78.9512 76.6462C78.7125 76.8849 78.5784 77.2086 78.5784 77.5461V81.3641H76.0331C75.9995 79.4145 75.2784 77.5395 73.9969 76.0698C73.1514 75.0568 72.5828 73.842 72.3466 72.5438C72.1105 71.2456 72.2147 69.9083 72.6492 68.6624C73.0838 67.4165 73.8337 66.3045 74.826 65.4347C75.8183 64.565 77.0191 63.9672 78.3112 63.6997C79.4216 63.471 80.5691 63.4925 81.6702 63.7626C82.7713 64.0327 83.7984 64.5446 84.677 65.2611C85.5556 65.9777 86.2637 66.8809 86.7497 67.9052C87.2358 68.9295 87.4876 70.0491 87.487 71.1829C87.4964 72.9262 86.8979 74.6183 85.7944 75.968Z" fill="#E4F7FF"/>
<defs>
<filter id="filter0_d_26265_273" x="0.512207" y="0.11145" width="159.656" height="158.056" filterUnits="userSpaceOnUse" color-interpolation-filters="sRGB">
<feFlood flood-opacity="0" result="BackgroundImageFix"/>
<feColorMatrix in="SourceAlpha" type="matrix" values="0 0 0 0 0 0 0 0 0 0 0 0 0 0 0 0 0 0 127 0" result="hardAlpha"/>
<feOffset dy="2"/>
<feGaussianBlur stdDeviation="25"/>
<feColorMatrix type="matrix" values="0 0 0 0 0 0 0 0 0 0.807843 0 0 0 0 0.533333 0 0 0 0.3 0"/>
<feBlend mode="normal" in2="BackgroundImageFix" result="effect1_dropShadow_26265_273"/>
<feBlend mode="normal" in="SourceGraphic" in2="effect1_dropShadow_26265_273" result="shape"/>
</filter>
<linearGradient id="paint0_linear_26265_273" x1="96.1794" y1="85.5759" x2="69.3497" y2="42.5819" gradientUnits="userSpaceOnUse">
<stop stop-color="#00CE88"/>
<stop offset="1" stop-color="white" stop-opacity="0"/>
</linearGradient>
</defs>
</svg>
