<svg width="160" height="159" viewBox="0 0 160 159" fill="none" xmlns="http://www.w3.org/2000/svg">
<g filter="url(#filter0_d_26292_96)">
<path d="M87.0584 102.672C82.8526 105.728 77.1574 105.728 72.9516 102.672L56.6246 90.81C52.4188 87.7543 50.6589 82.3379 52.2654 77.3936L58.5017 58.2001C60.1082 53.2559 64.7157 49.9083 69.9144 49.9083L90.0956 49.9083C95.2943 49.9083 99.9018 53.2559 101.508 58.2001L107.745 77.3936C109.351 82.3379 107.591 87.7543 103.385 90.81L87.0584 102.672Z" fill="#00CE88"/>
<path d="M56.1838 91.4168L72.5107 103.279C76.9795 106.526 83.0305 106.526 87.4993 103.279L103.826 91.4168C108.295 88.1701 110.165 82.4152 108.458 77.1619L102.222 57.9684C100.515 52.7151 95.6193 49.1583 90.0956 49.1583L69.9144 49.1583C64.3908 49.1583 59.4953 52.7151 57.7884 57.9684L51.5521 77.1619C49.8452 82.4151 51.7151 88.1701 56.1838 91.4168Z" stroke="url(#paint0_linear_26292_96)" stroke-width="1.5" stroke-linecap="square"/>
</g>
<path fill-rule="evenodd" clip-rule="evenodd" d="M89.1815 61.2888C87.453 60.5066 85.5271 60.2697 83.6606 60.6098C81.7941 60.9499 80.0755 61.8508 78.734 63.1923C77.3924 64.5339 76.4915 66.2525 76.1515 68.119C75.8678 69.6756 75.9855 71.2734 76.486 72.7637L67.889 81.3607C67.1085 82.1412 66.67 83.1997 66.67 84.3035C66.67 85.4073 67.1085 86.4658 67.889 87.2463C68.6695 88.0268 69.728 88.4653 70.8318 88.4653C71.9356 88.4653 72.9941 88.0268 73.7746 87.2463L82.3716 78.6493C83.8619 79.1499 85.4597 79.2675 87.0163 78.9839C88.8829 78.6438 90.6014 77.7429 91.943 76.4014C93.2845 75.0598 94.1854 73.3412 94.5255 71.4747C94.8656 69.6082 94.6287 67.6823 93.8465 65.9538C93.6661 65.555 93.3014 65.2702 92.8708 65.1918C92.4402 65.1133 91.9985 65.2512 91.689 65.5607L86.6718 70.5779L84.5574 68.4635L89.5746 63.4463C89.8841 63.1368 90.022 62.6951 89.9435 62.2645C89.8651 61.8339 89.5803 61.4692 89.1815 61.2888ZM84.1386 63.2333C84.7835 63.1158 85.4383 63.0947 86.0822 63.1675L82.6623 66.5874L82.6529 66.5968C82.1643 67.0953 81.8907 67.7655 81.8907 68.4635C81.8907 69.1615 82.1643 69.8317 82.6529 70.3302L82.6623 70.3397L84.7957 72.473L84.8051 72.4824C85.3036 72.971 85.9738 73.2447 86.6718 73.2447C87.3698 73.2447 88.04 72.971 88.5385 72.4824L88.5479 72.473L91.9678 69.0531C92.0406 69.6971 92.0195 70.3518 91.902 70.9967C91.6591 72.3299 91.0156 73.5575 90.0574 74.5157C89.0991 75.474 87.8716 76.1175 86.5383 76.3604C85.2051 76.6033 83.8295 76.4341 82.5948 75.8754C82.0892 75.6466 81.4948 75.7549 81.1023 76.1474L71.889 85.3607C71.6086 85.6411 71.2283 85.7986 70.8318 85.7986C70.4353 85.7986 70.055 85.6411 69.7746 85.3607C69.4942 85.0803 69.3367 84.7 69.3367 84.3035C69.3367 83.907 69.4942 83.5267 69.7746 83.2463L78.9879 74.033C79.3804 73.6406 79.4887 73.0461 79.2599 72.5405C78.7012 71.3058 78.532 69.9302 78.7749 68.597C79.0178 67.2638 79.6613 66.0362 80.6196 65.078C81.5778 64.1197 82.8054 63.4762 84.1386 63.2333Z" fill="#E4F7FF"/>
<defs>
<filter id="filter0_d_26292_96" x="0.177124" y="0.408333" width="159.656" height="158.056" filterUnits="userSpaceOnUse" color-interpolation-filters="sRGB">
<feFlood flood-opacity="0" result="BackgroundImageFix"/>
<feColorMatrix in="SourceAlpha" type="matrix" values="0 0 0 0 0 0 0 0 0 0 0 0 0 0 0 0 0 0 127 0" result="hardAlpha"/>
<feOffset dy="2"/>
<feGaussianBlur stdDeviation="25"/>
<feColorMatrix type="matrix" values="0 0 0 0 0 0 0 0 0 0.807843 0 0 0 0 0.533333 0 0 0 0.3 0"/>
<feBlend mode="normal" in2="BackgroundImageFix" result="effect1_dropShadow_26292_96"/>
<feBlend mode="normal" in="SourceGraphic" in2="effect1_dropShadow_26292_96" result="shape"/>
</filter>
<linearGradient id="paint0_linear_26292_96" x1="95.8443" y1="85.8728" x2="69.0146" y2="42.8788" gradientUnits="userSpaceOnUse">
<stop stop-color="#00CE88"/>
<stop offset="1" stop-color="white" stop-opacity="0"/>
</linearGradient>
</defs>
</svg>
