<svg width="160" height="159" viewBox="0 0 160 159" fill="none" xmlns="http://www.w3.org/2000/svg">
<g filter="url(#filter0_d_26954_4423)">
<path d="M87.0534 102.375C82.8476 105.431 77.1524 105.431 72.9466 102.375L56.6196 90.5132C52.4138 87.4574 50.6539 82.041 52.2604 77.0967L58.4967 57.9033C60.1032 52.959 64.7107 49.6115 69.9094 49.6115L90.0906 49.6115C95.2893 49.6115 99.8968 52.959 101.503 57.9033L107.74 77.0967C109.346 82.041 107.586 87.4574 103.38 90.5132L87.0534 102.375Z" fill="#18EFB1"/>
<path d="M56.1788 91.1199L72.5057 102.982C76.9745 106.229 83.0255 106.229 87.4943 102.982L103.821 91.1199C108.29 87.8732 110.16 82.1183 108.453 76.865L102.217 57.6715C100.51 52.4182 95.6143 48.8615 90.0906 48.8615L69.9094 48.8615C64.3857 48.8615 59.4903 52.4182 57.7834 57.6715L51.5471 76.865C49.8402 82.1183 51.7101 87.8732 56.1788 91.1199Z" stroke="url(#paint0_linear_26954_4423)" stroke-width="1.5" stroke-linecap="square"/>
</g>
<path d="M94 63H85.6C84.1148 63 82.6904 63.59 81.6402 64.6402C80.59 65.6904 80 67.1148 80 68.6V88.2C80 87.0861 80.4425 86.0178 81.2302 85.2302C82.0178 84.4425 83.0861 84 84.2 84H94V63Z" stroke="#E4F7FF" stroke-width="2" stroke-linecap="round" stroke-linejoin="round"/>
<path d="M66 63H74.4C75.8852 63 77.3096 63.59 78.3598 64.6402C79.41 65.6904 80 67.1148 80 68.6V88.2C80 87.0861 79.5575 86.0178 78.7698 85.2302C77.9822 84.4425 76.9139 84 75.8 84H66V63Z" stroke="#E4F7FF" stroke-width="2" stroke-linecap="round" stroke-linejoin="round"/>
<defs>
<filter id="filter0_d_26954_4423" x="0.172119" y="0.11145" width="159.656" height="158.056" filterUnits="userSpaceOnUse" color-interpolation-filters="sRGB">
<feFlood flood-opacity="0" result="BackgroundImageFix"/>
<feColorMatrix in="SourceAlpha" type="matrix" values="0 0 0 0 0 0 0 0 0 0 0 0 0 0 0 0 0 0 127 0" result="hardAlpha"/>
<feOffset dy="2"/>
<feGaussianBlur stdDeviation="25"/>
<feColorMatrix type="matrix" values="0 0 0 0 0 0 0 0 0 0.807843 0 0 0 0 0.533333 0 0 0 0.3 0"/>
<feBlend mode="normal" in2="BackgroundImageFix" result="effect1_dropShadow_26954_4423"/>
<feBlend mode="normal" in="SourceGraphic" in2="effect1_dropShadow_26954_4423" result="shape"/>
</filter>
<linearGradient id="paint0_linear_26954_4423" x1="95.8393" y1="85.5759" x2="69.0096" y2="42.5819" gradientUnits="userSpaceOnUse">
<stop stop-color="#00CE88"/>
<stop offset="1" stop-color="white" stop-opacity="0"/>
</linearGradient>
</defs>
</svg>
