<svg width="161" height="159" viewBox="0 0 161 159" fill="none" xmlns="http://www.w3.org/2000/svg">
<g filter="url(#filter0_d_26265_278)">
<path d="M87.7235 102.375C83.5176 105.431 77.8225 105.431 73.6166 102.375L57.2897 90.5132C53.0838 87.4574 51.3239 82.041 52.9304 77.0967L59.1667 57.9033C60.7732 52.959 65.3807 49.6115 70.5794 49.6115L90.7607 49.6115C95.9594 49.6115 100.567 52.959 102.173 57.9033L108.41 77.0968C110.016 82.041 108.256 87.4574 104.05 90.5132L87.7235 102.375Z" fill="#00CE88"/>
<path d="M73.1758 102.982C77.6445 106.229 83.6956 106.229 88.1643 102.982L104.491 91.1199C108.96 87.8732 110.83 82.1183 109.123 76.865L102.887 57.6715C101.18 52.4182 96.2843 48.8615 90.7607 48.8615L70.5794 48.8615C65.0558 48.8615 60.1604 52.4182 58.4535 57.6715L52.2171 76.865C50.5102 82.1183 52.3801 87.8732 56.8488 91.1199L73.1758 102.982Z" stroke="url(#paint0_linear_26265_278)" stroke-width="1.5" stroke-linecap="square"/>
</g>
<path d="M88.0883 71.4417C85.7666 71.4417 83.8883 69.5517 83.8883 67.2417C83.8883 66.2967 84.2033 65.3984 84.7866 64.6517C84.81 64.6167 84.845 64.5934 84.8683 64.5584C85.6616 63.59 86.8283 63.0417 88.0883 63.0417C90.3983 63.0417 92.2883 64.9317 92.2883 67.2417C92.2883 68.5367 91.705 69.7384 90.6783 70.5434C89.9316 71.1267 89.0333 71.4417 88.0883 71.4417ZM86.105 65.8067C85.8016 66.2267 85.6383 66.7167 85.6383 67.2417C85.6383 68.595 86.735 69.6917 88.0883 69.6917C88.6366 69.6917 89.1616 69.505 89.5933 69.1667C90.1883 68.7 90.5383 68 90.5383 67.2417C90.5383 65.8884 89.4416 64.7917 88.0883 64.7917C87.33 64.7917 86.63 65.13 86.175 65.725C86.1516 65.76 86.1283 65.7834 86.105 65.8067Z" fill="#E4F7FF"/>
<path d="M72.5716 71.4417C71.6266 71.4417 70.7282 71.1267 69.9816 70.5434C68.9549 69.7384 68.3716 68.5367 68.3716 67.2417C68.3716 64.9317 70.2616 63.0417 72.5716 63.0417C73.8666 63.0417 75.0682 63.625 75.8732 64.6517C76.4566 65.3984 76.7716 66.2967 76.7716 67.2417C76.7716 69.5517 74.8816 71.4417 72.5716 71.4417ZM72.5716 64.7917C71.2182 64.7917 70.1216 65.8884 70.1216 67.2417C70.1216 68 70.4599 68.7 71.0666 69.1667C71.4982 69.505 72.0232 69.6917 72.5716 69.6917C73.9249 69.6917 75.0216 68.595 75.0216 67.2417C75.0216 66.6934 74.8349 66.1684 74.4966 65.7367C74.0299 65.13 73.3299 64.7917 72.5716 64.7917Z" fill="#E4F7FF"/>
<path d="M88.0883 86.9583C86.8283 86.9583 85.6616 86.41 84.8683 85.4417C84.8333 85.4184 84.81 85.3833 84.7866 85.3484C84.2033 84.6017 83.8883 83.7033 83.8883 82.7583C83.8883 80.4367 85.7783 78.5583 88.0883 78.5583C89.0333 78.5583 89.9316 78.8733 90.6783 79.4567C90.7133 79.48 90.7366 79.515 90.7716 79.5383C91.74 80.3317 92.2883 81.4983 92.2883 82.7583C92.2883 85.0683 90.3983 86.9583 88.0883 86.9583ZM86.105 84.1933C86.1283 84.2167 86.1516 84.24 86.175 84.275C86.63 84.87 87.33 85.2083 88.0883 85.2083C89.4416 85.2083 90.5383 84.1117 90.5383 82.7583C90.5383 82 90.2 81.3 89.605 80.845C89.57 80.8217 89.5466 80.7984 89.5233 80.775C89.1033 80.4717 88.6133 80.3083 88.0883 80.3083C86.735 80.3083 85.6383 81.405 85.6383 82.7583C85.6383 83.2833 85.8016 83.7733 86.105 84.1933Z" fill="#E4F7FF"/>
<path d="M72.5716 86.9583C70.2616 86.9583 68.3716 85.0683 68.3716 82.7583C68.3716 81.4983 68.9199 80.3317 69.8882 79.5383C69.9116 79.5033 69.9466 79.48 69.9816 79.4567C70.7282 78.8733 71.6266 78.5583 72.5716 78.5583C74.8932 78.5583 76.7716 80.4483 76.7716 82.7583C76.7716 83.7033 76.4566 84.6017 75.8732 85.3484C75.0682 86.375 73.8666 86.9583 72.5716 86.9583ZM71.1366 80.775C71.1132 80.7984 71.0899 80.8217 71.0549 80.845C70.4599 81.3 70.1216 82 70.1216 82.7583C70.1216 84.1117 71.2182 85.2083 72.5716 85.2083C73.3299 85.2083 74.0299 84.87 74.4966 84.2634C74.8349 83.8317 75.0216 83.3067 75.0216 82.7583C75.0216 81.405 73.9249 80.3083 72.5716 80.3083C72.0466 80.3083 71.5566 80.4717 71.1366 80.775Z" fill="#E4F7FF"/>
<path d="M80.3299 86.9584C78.3932 86.9584 76.4682 86.48 74.7766 85.5817C74.5432 85.465 74.3916 85.2434 74.3332 84.9867C74.2749 84.73 74.3332 84.4734 74.4966 84.2634C74.8349 83.8317 75.0216 83.3067 75.0216 82.7584C75.0216 81.405 73.9249 80.3084 72.5716 80.3084C72.0232 80.3084 71.4982 80.495 71.0666 80.8334C70.8682 80.9967 70.5999 81.055 70.3432 80.9967C70.0866 80.9384 69.8766 80.7867 69.7482 80.5534C68.8382 78.8384 68.3716 76.9717 68.3716 75C68.3716 73.0634 68.8499 71.1384 69.7482 69.4467C69.8649 69.2134 70.0866 69.0617 70.3432 69.0034C70.5999 68.945 70.8566 69.015 71.0666 69.1667C71.4982 69.505 72.0232 69.6917 72.5716 69.6917C73.9249 69.6917 75.0216 68.595 75.0216 67.2417C75.0216 66.6934 74.8349 66.1684 74.4966 65.7367C74.3332 65.5384 74.2749 65.27 74.3332 65.0134C74.3916 64.7567 74.5432 64.5467 74.7766 64.4184C76.4682 63.52 78.3932 63.0417 80.3299 63.0417C82.3016 63.0417 84.1683 63.5084 85.8832 64.4184C86.1166 64.535 86.2682 64.7567 86.3266 65.0134C86.3849 65.27 86.3149 65.5267 86.1632 65.7367C85.8249 66.1684 85.6382 66.6934 85.6382 67.2417C85.6382 68.595 86.7349 69.6917 88.0882 69.6917C88.6366 69.6917 89.1616 69.505 89.5933 69.1667C89.7916 69.0034 90.0599 68.945 90.3166 69.0034C90.5732 69.0617 90.7833 69.2134 90.9116 69.4467C91.8099 71.1384 92.2882 73.0634 92.2882 75C92.2882 76.9717 91.8216 78.8384 90.9116 80.5534C90.7949 80.7867 90.5732 80.9384 90.3166 80.9967C90.0599 81.055 89.8033 80.985 89.5933 80.8334C89.1616 80.495 88.6366 80.3084 88.0882 80.3084C86.7349 80.3084 85.6382 81.405 85.6382 82.7584C85.6382 83.3067 85.8249 83.8317 86.1632 84.2634C86.3266 84.4617 86.3849 84.73 86.3266 84.9867C86.2682 85.2434 86.1166 85.4534 85.8832 85.5817C84.1683 86.4917 82.3016 86.9584 80.3299 86.9584ZM76.4216 84.4267C78.8949 85.465 81.7882 85.4534 84.2266 84.4267C83.9932 83.9017 83.8766 83.3417 83.8766 82.7584C83.8766 80.4367 85.7666 78.5584 88.0766 78.5584C88.6599 78.5584 89.2199 78.675 89.7449 78.9084C90.2582 77.6834 90.5266 76.3767 90.5266 75C90.5266 73.6584 90.2582 72.3167 89.7449 71.0917C89.2199 71.325 88.6599 71.4417 88.0766 71.4417C85.7549 71.4417 83.8766 69.5517 83.8766 67.2417C83.8766 66.6584 83.9932 66.0984 84.2266 65.5734C81.7882 64.5467 78.8832 64.5467 76.4216 65.5734C76.6549 66.0984 76.7716 66.6584 76.7716 67.2417C76.7716 69.5634 74.8816 71.4417 72.5716 71.4417C71.9882 71.4417 71.4282 71.325 70.9032 71.0917C70.3899 72.3167 70.1216 73.6584 70.1216 75C70.1216 76.365 70.3782 77.6717 70.9032 78.9084C71.4282 78.675 71.9882 78.5584 72.5716 78.5584C74.8932 78.5584 76.7716 80.4484 76.7716 82.7584C76.7716 83.3417 76.6549 83.9017 76.4216 84.4267Z" fill="#E4F7FF"/>
<defs>
<filter id="filter0_d_26265_278" x="0.842163" y="0.11145" width="159.656" height="158.056" filterUnits="userSpaceOnUse" color-interpolation-filters="sRGB">
<feFlood flood-opacity="0" result="BackgroundImageFix"/>
<feColorMatrix in="SourceAlpha" type="matrix" values="0 0 0 0 0 0 0 0 0 0 0 0 0 0 0 0 0 0 127 0" result="hardAlpha"/>
<feOffset dy="2"/>
<feGaussianBlur stdDeviation="25"/>
<feColorMatrix type="matrix" values="0 0 0 0 0 0 0 0 0 0.807843 0 0 0 0 0.533333 0 0 0 0.3 0"/>
<feBlend mode="normal" in2="BackgroundImageFix" result="effect1_dropShadow_26265_278"/>
<feBlend mode="normal" in="SourceGraphic" in2="effect1_dropShadow_26265_278" result="shape"/>
</filter>
<linearGradient id="paint0_linear_26265_278" x1="96.5093" y1="85.5759" x2="69.6796" y2="42.5819" gradientUnits="userSpaceOnUse">
<stop stop-color="#00CE88"/>
<stop offset="1" stop-color="white" stop-opacity="0"/>
</linearGradient>
</defs>
</svg>
