<svg width="160" height="159" viewBox="0 0 160 159" fill="none" xmlns="http://www.w3.org/2000/svg">
<g filter="url(#filter0_d_26591_14098)">
<path d="M87.0534 102.375C82.8476 105.431 77.1524 105.431 72.9466 102.375L56.6196 90.5132C52.4138 87.4574 50.6539 82.041 52.2604 77.0967L58.4967 57.9033C60.1032 52.959 64.7107 49.6115 69.9094 49.6115L90.0906 49.6115C95.2893 49.6115 99.8968 52.959 101.503 57.9033L107.74 77.0968C109.346 82.041 107.586 87.4574 103.38 90.5132L87.0534 102.375Z" fill="#18EFB1"/>
<path d="M72.5057 102.982C76.9744 106.229 83.0255 106.229 87.4943 102.982L103.821 91.1199C108.29 87.8732 110.16 82.1183 108.453 76.865L102.217 57.6715C100.51 52.4182 95.6143 48.8615 90.0906 48.8615L69.9094 48.8615C64.3857 48.8615 59.4903 52.4182 57.7834 57.6715L51.5471 76.865C49.8402 82.1183 51.7101 87.8732 56.1788 91.1199L72.5057 102.982Z" stroke="url(#paint0_linear_26591_14098)" stroke-width="1.5" stroke-linecap="square"/>
</g>
<path d="M89.3202 68.3198L88.6131 69.0269L89.3202 68.3198ZM84.4583 63.458L85.1654 62.7508L84.4583 63.458ZM73.9781 90V89V90ZM85.8003 90V91V90ZM69.3391 88.3013L70.2301 87.8473H70.2301L69.3391 88.3013ZM70.6984 89.6609L71.1523 88.7699L70.6984 89.6609ZM70.6984 62.3391L71.1523 63.2301L71.1523 63.2301L70.6984 62.3391ZM69.3391 63.6987L68.4481 63.2447L68.4481 63.2447L69.3391 63.6987ZM83.3372 62.4585L82.8147 63.3111L83.3372 62.4585ZM82.4381 62.086L82.6715 61.1136L82.6715 61.1136L82.4381 62.086ZM90.6912 70.3401L91.6636 70.1067L90.6912 70.3401ZM90.319 69.4409L89.4663 69.9634L90.319 69.4409ZM90.439 88.3013L91.33 88.7553L90.439 88.3013ZM89.0788 89.6609L88.6248 88.7699L89.0788 89.6609ZM83.7071 76.8484C83.3166 76.4579 82.6834 76.4579 82.2929 76.8484C81.9024 77.239 81.9024 77.8721 82.2929 78.2627L83.7071 76.8484ZM86.1111 80.6667L86.8182 81.3738C87.2087 80.9832 87.2087 80.3501 86.8182 79.9596L86.1111 80.6667ZM82.2929 83.0707C81.9024 83.4612 81.9024 84.0944 82.2929 84.4849C82.6834 84.8754 83.3166 84.8754 83.7071 84.4849L82.2929 83.0707ZM76.0707 84.4849C76.4612 84.8754 77.0944 84.8754 77.4849 84.4849C77.8754 84.0944 77.8754 83.4612 77.4849 83.0707L76.0707 84.4849ZM73.6667 80.6667L72.9596 79.9596C72.772 80.1471 72.6667 80.4015 72.6667 80.6667C72.6667 80.9319 72.772 81.1862 72.9596 81.3738L73.6667 80.6667ZM77.4849 78.2627C77.8754 77.8721 77.8754 77.239 77.4849 76.8484C77.0944 76.4579 76.4612 76.4579 76.0707 76.8484L77.4849 78.2627ZM90.7781 72.3333C91.3304 72.3333 91.7781 71.8856 91.7781 71.3333C91.7781 70.781 91.3304 70.3333 90.7781 70.3333V72.3333ZM86.4225 71.3333V70.3333V70.3333V71.3333ZM82.4444 62C82.4444 61.4477 81.9967 61 81.4444 61C80.8922 61 80.4444 61.4477 80.4444 62H82.4444ZM83.1428 70.9942L83.5968 70.1032L83.1428 70.9942ZM81.7835 69.6346L82.6745 69.1806V69.1806L81.7835 69.6346ZM91.7778 85.0222V71.8397H89.7778V85.0222H91.7778ZM90.0273 67.6127L85.1654 62.7508L83.7512 64.1651L88.6131 69.0269L90.0273 67.6127ZM80.9384 61H73.9781V63H80.9384V61ZM68 66.9778V85.0222H70V66.9778H68ZM73.9781 91H85.8003V89H73.9781V91ZM68 85.0222C68 85.8769 67.9992 86.5781 68.0457 87.147C68.0931 87.7276 68.1947 88.2581 68.4481 88.7553L70.2301 87.8473C70.1444 87.679 70.0764 87.4411 70.0391 86.9842C70.0008 86.5156 70 85.9099 70 85.0222H68ZM73.9781 89C73.0904 89 72.4846 88.9992 72.0158 88.9609C71.5586 88.9236 71.3206 88.8556 71.1523 88.7699L70.2444 90.5519C70.7416 90.8052 71.2722 90.9068 71.853 90.9543C72.4221 91.0008 73.1234 91 73.9781 91V89ZM68.4481 88.7553C68.8421 89.5286 69.4706 90.1576 70.2444 90.5519L71.1523 88.7699C70.7553 88.5676 70.4326 88.2447 70.2301 87.8473L68.4481 88.7553ZM73.9781 61C73.1234 61 72.4221 60.9992 71.853 61.0457C71.2723 61.0931 70.7416 61.1947 70.2444 61.4481L71.1523 63.2301C71.3206 63.1444 71.5586 63.0764 72.0158 63.0391C72.4846 63.0008 73.0904 63 73.9781 63V61ZM70 66.9778C70 66.0901 70.0008 65.4845 70.0391 65.0159C70.0764 64.5589 70.1444 64.321 70.2301 64.1527L68.4481 63.2447C68.1947 63.742 68.0931 64.2724 68.0457 64.853C67.9992 65.4219 68 66.1231 68 66.9778H70ZM70.2444 61.4481C69.4705 61.8424 68.8421 62.4714 68.4481 63.2447L70.2301 64.1527C70.4326 63.7552 70.7554 63.4324 71.1523 63.2301L70.2444 61.4481ZM85.1654 62.7508C84.661 62.2464 84.2981 61.8745 83.8597 61.6058L82.8147 63.3111C83.0043 63.4273 83.1796 63.5934 83.7512 64.1651L85.1654 62.7508ZM80.9384 63C81.747 63 81.9884 63.0064 82.2046 63.0583L82.6715 61.1136C82.1716 60.9936 81.6518 61 80.9384 61V63ZM83.8597 61.6058C83.492 61.3805 83.0911 61.2143 82.6715 61.1136L82.2046 63.0583C82.4199 63.11 82.6257 63.1953 82.8147 63.3111L83.8597 61.6058ZM91.7778 71.8397C91.7778 71.1249 91.7835 70.6063 91.6636 70.1067L89.7188 70.5736C89.7708 70.7901 89.7778 71.0325 89.7778 71.8397H91.7778ZM88.6131 69.0269C89.1839 69.5977 89.35 69.7736 89.4663 69.9634L91.1716 68.9184C90.9031 68.4803 90.5326 68.118 90.0273 67.6127L88.6131 69.0269ZM91.6636 70.1067C91.563 69.6876 91.3972 69.2866 91.1716 68.9184L89.4663 69.9634C89.5818 70.1519 89.667 70.3577 89.7188 70.5736L91.6636 70.1067ZM89.7778 85.0222C89.7778 85.91 89.7771 86.5156 89.7389 86.9843C89.7016 87.4413 89.6337 87.6791 89.548 87.8473L91.33 88.7553C91.5834 88.2579 91.6849 87.7274 91.7323 87.1469C91.7786 86.578 91.7778 85.8768 91.7778 85.0222H89.7778ZM85.8003 91C86.655 91 87.356 91.0008 87.9249 90.9543C88.5054 90.9068 89.0356 90.8052 89.5328 90.5519L88.6248 88.7699C88.4564 88.8556 88.2186 88.9236 87.7619 88.9609C87.2935 88.9992 86.688 89 85.8003 89V91ZM89.548 87.8473C89.3458 88.2441 89.0225 88.5672 88.6248 88.7699L89.5328 90.5519C90.3059 90.158 90.9357 89.5293 91.33 88.7553L89.548 87.8473ZM82.2929 78.2627L85.404 81.3738L86.8182 79.9596L83.7071 76.8484L82.2929 78.2627ZM85.404 79.9596L82.2929 83.0707L83.7071 84.4849L86.8182 81.3738L85.404 79.9596ZM77.4849 83.0707L74.3738 79.9596L72.9596 81.3738L76.0707 84.4849L77.4849 83.0707ZM74.3738 81.3738L77.4849 78.2627L76.0707 76.8484L72.9596 79.9596L74.3738 81.3738ZM90.7781 70.3333H86.4225V72.3333H90.7781V70.3333ZM82.4444 66.3556V62H80.4444V66.3556H82.4444ZM86.4225 70.3333C85.5349 70.3333 84.929 70.3325 84.4603 70.2942C84.0031 70.2569 83.765 70.1889 83.5968 70.1032L82.6888 71.8852C83.1861 72.1386 83.7167 72.2402 84.2974 72.2876C84.8665 72.3341 85.5678 72.3333 86.4225 72.3333L86.4225 70.3333ZM80.4444 66.3556C80.4444 67.2102 80.4437 67.9114 80.4902 68.4803C80.5376 69.061 80.6392 69.5914 80.8925 70.0886L82.6745 69.1806C82.5888 69.0123 82.5208 68.7744 82.4835 68.3175C82.4452 67.8489 82.4444 67.2432 82.4444 66.3556H80.4444ZM83.5968 70.1032C83.1998 69.9009 82.8771 69.5781 82.6745 69.1806L80.8925 70.0886C81.2866 70.8619 81.915 71.4909 82.6888 71.8852L83.5968 70.1032Z" fill="#E4F7FF"/>
<defs>
<filter id="filter0_d_26591_14098" x="0.172119" y="0.11145" width="159.656" height="158.056" filterUnits="userSpaceOnUse" color-interpolation-filters="sRGB">
<feFlood flood-opacity="0" result="BackgroundImageFix"/>
<feColorMatrix in="SourceAlpha" type="matrix" values="0 0 0 0 0 0 0 0 0 0 0 0 0 0 0 0 0 0 127 0" result="hardAlpha"/>
<feOffset dy="2"/>
<feGaussianBlur stdDeviation="25"/>
<feColorMatrix type="matrix" values="0 0 0 0 0 0 0 0 0 0.807843 0 0 0 0 0.533333 0 0 0 0.3 0"/>
<feBlend mode="normal" in2="BackgroundImageFix" result="effect1_dropShadow_26591_14098"/>
<feBlend mode="normal" in="SourceGraphic" in2="effect1_dropShadow_26591_14098" result="shape"/>
</filter>
<linearGradient id="paint0_linear_26591_14098" x1="95.8393" y1="85.5759" x2="69.0096" y2="42.5819" gradientUnits="userSpaceOnUse">
<stop stop-color="#00CE88"/>
<stop offset="1" stop-color="white" stop-opacity="0"/>
</linearGradient>
</defs>
</svg>
