<svg width="160" height="159" viewBox="0 0 160 159" fill="none" xmlns="http://www.w3.org/2000/svg">
<g filter="url(#filter0_d_26798_9210)">
<path d="M87.0534 102.375C82.8476 105.431 77.1524 105.431 72.9466 102.375L56.6196 90.5132C52.4138 87.4574 50.6539 82.041 52.2604 77.0967L58.4967 57.9033C60.1032 52.959 64.7107 49.6115 69.9094 49.6115L90.0906 49.6115C95.2893 49.6115 99.8968 52.959 101.503 57.9033L107.74 77.0967C109.346 82.041 107.586 87.4574 103.38 90.5132L87.0534 102.375Z" fill="#18EFB1"/>
<path d="M56.1788 91.1199L72.5057 102.982C76.9745 106.229 83.0255 106.229 87.4943 102.982L103.821 91.1199C108.29 87.8732 110.16 82.1183 108.453 76.865L102.217 57.6715C100.51 52.4182 95.6143 48.8615 90.0906 48.8615L69.9094 48.8615C64.3857 48.8615 59.4903 52.4182 57.7834 57.6715L51.5471 76.865C49.8402 82.1183 51.7101 87.8732 56.1788 91.1199Z" stroke="url(#paint0_linear_26798_9210)" stroke-width="1.5" stroke-linecap="square"/>
</g>
<path fill-rule="evenodd" clip-rule="evenodd" d="M77.6586 61.5065C78.2341 61.1747 78.8868 61 79.5511 61C80.2155 61 80.8682 61.1747 81.4437 61.5065L81.4457 61.5076L91.2077 67.0859C91.6849 67.3614 92.095 67.7369 92.4107 68.1851C92.4802 68.2504 92.5414 68.3267 92.5915 68.4135C92.6355 68.4895 92.6683 68.5688 92.6906 68.6497C92.9602 69.1798 93.1017 69.7669 93.1023 70.3635V81.5222C93.1016 82.1867 92.9262 82.8393 92.5937 83.4145C92.2611 83.9898 91.7832 84.4676 91.2077 84.7998L91.2039 84.802L81.4457 90.3781L81.444 90.3791C81.0224 90.6222 80.5594 90.781 80.0807 90.8485C79.9272 90.9445 79.7457 91 79.5513 91C79.3569 91 79.1754 90.9446 79.0219 90.8486C78.5431 90.781 78.08 90.6222 77.6583 90.3791L77.6566 90.3781L67.8984 84.802L67.8946 84.7998C67.3191 84.4676 66.8412 83.9898 66.5086 83.4145C66.1761 82.8393 66.0007 82.1867 66 81.5222V70.3635C66.0006 69.7663 66.1424 69.1787 66.4125 68.6482C66.4347 68.5679 66.4674 68.489 66.5111 68.4135C66.561 68.3272 66.6219 68.2511 66.6909 68.1861C67.0067 67.7374 67.4171 67.3616 67.8946 67.0859L67.8984 67.0837L77.6566 61.5076L77.6586 61.5065ZM80.5513 88.5857L90.2077 83.0677L90.2093 83.0668C90.4803 82.91 90.7054 82.6848 90.8621 82.4137C91.0192 82.142 91.102 81.8339 91.1023 81.5201V70.4302L80.5513 76.5336V88.5857ZM78.5513 76.5335V88.5858L68.8946 83.0677L68.893 83.0668C68.622 82.91 68.3969 82.6848 68.2402 82.4137C68.0832 82.1422 68.0004 81.8342 68 81.5206V70.43L78.5513 76.5335ZM80.4496 63.2419L90.0505 68.7281L79.5513 74.8015L69.052 68.728L78.6527 63.2419L78.6566 63.2397C78.9286 63.0827 79.2371 63 79.5511 63C79.8652 63 80.1737 63.0827 80.4457 63.2397L80.4496 63.2419Z" fill="#E4F7FF"/>
<defs>
<filter id="filter0_d_26798_9210" x="0.172119" y="0.11145" width="159.656" height="158.056" filterUnits="userSpaceOnUse" color-interpolation-filters="sRGB">
<feFlood flood-opacity="0" result="BackgroundImageFix"/>
<feColorMatrix in="SourceAlpha" type="matrix" values="0 0 0 0 0 0 0 0 0 0 0 0 0 0 0 0 0 0 127 0" result="hardAlpha"/>
<feOffset dy="2"/>
<feGaussianBlur stdDeviation="25"/>
<feColorMatrix type="matrix" values="0 0 0 0 0 0 0 0 0 0.807843 0 0 0 0 0.533333 0 0 0 0.3 0"/>
<feBlend mode="normal" in2="BackgroundImageFix" result="effect1_dropShadow_26798_9210"/>
<feBlend mode="normal" in="SourceGraphic" in2="effect1_dropShadow_26798_9210" result="shape"/>
</filter>
<linearGradient id="paint0_linear_26798_9210" x1="95.8393" y1="85.5759" x2="69.0096" y2="42.5819" gradientUnits="userSpaceOnUse">
<stop stop-color="#00CE88"/>
<stop offset="1" stop-color="white" stop-opacity="0"/>
</linearGradient>
</defs>
</svg>
