<svg width="160" height="159" viewBox="0 0 160 159" fill="none" xmlns="http://www.w3.org/2000/svg">
<g filter="url(#filter0_d_26798_9188)">
<path d="M87.0534 102.375C82.8476 105.431 77.1524 105.431 72.9466 102.375L56.6196 90.5132C52.4138 87.4574 50.6539 82.041 52.2604 77.0967L58.4967 57.9033C60.1032 52.959 64.7107 49.6115 69.9094 49.6115L90.0906 49.6115C95.2893 49.6115 99.8968 52.959 101.503 57.9033L107.74 77.0967C109.346 82.041 107.586 87.4574 103.38 90.5132L87.0534 102.375Z" fill="#18EFB1"/>
<path d="M56.1788 91.1199L72.5057 102.982C76.9745 106.229 83.0255 106.229 87.4943 102.982L103.821 91.1199C108.29 87.8732 110.16 82.1183 108.453 76.865L102.217 57.6715C100.51 52.4182 95.6143 48.8615 90.0906 48.8615L69.9094 48.8615C64.3857 48.8615 59.4903 52.4182 57.7834 57.6715L51.5471 76.865C49.8402 82.1183 51.7101 87.8732 56.1788 91.1199Z" stroke="url(#paint0_linear_26798_9188)" stroke-width="1.5" stroke-linecap="square"/>
</g>
<path fill-rule="evenodd" clip-rule="evenodd" d="M82.1993 68.5978C79.7319 66.7144 77.1108 65.393 74.5801 64.6676C74.0105 64.5043 73.6851 63.9998 73.678 63.4946C73.6707 62.9727 74.0078 62.4337 74.6251 62.2903C78.1339 61.4755 82.2307 62.399 85.8105 64.7704C86.1954 64.5181 86.7172 64.5612 87.0555 64.8995L91.1011 68.9451C91.4394 69.2834 91.4824 69.8053 91.23 70.1902C93.6008 73.7697 94.5241 77.8658 93.7096 81.3741C93.5663 81.9914 93.0273 82.3285 92.5054 82.3212C92.0001 82.3142 91.4956 81.9889 91.3323 81.4193C90.6069 78.889 89.2857 76.2683 87.4026 73.8013C87.092 73.8589 86.7591 73.7676 86.5188 73.5273L86.3535 73.362L82.2558 77.4597C82.5258 77.8467 82.4881 78.3831 82.1428 78.7284L71.1619 89.7093C70.7743 90.0969 70.1459 90.0969 69.7583 89.7093L66.2907 86.2417C65.9031 85.8541 65.9031 85.2257 66.2907 84.8381L77.2716 73.8572C77.6169 73.5118 78.1535 73.4742 78.5405 73.7443L82.6382 69.6466L82.4732 69.4817C82.2329 69.2414 82.1416 68.9085 82.1993 68.5978ZM84.0417 71.0502L79.955 75.137L80.8632 76.0452L84.9499 71.9584L84.0417 71.0502ZM88.9251 72.5246C90.1374 74.1025 91.1432 75.7502 91.9296 77.4153C91.6979 75.5252 90.9897 73.535 89.8057 71.644L88.9251 72.5246ZM88.9954 69.6465L86.3537 67.0048L84.8481 68.5105C84.9137 68.5506 84.9757 68.5991 85.0325 68.6559L87.3443 70.9677C87.4011 71.0245 87.4496 71.0865 87.4897 71.1521L88.9954 69.6465ZM68.396 85.5399L77.9733 75.9627L80.0373 78.0267L70.4601 87.604L68.396 85.5399ZM83.4756 67.0751C81.8974 65.8626 80.2494 64.8566 78.584 64.0701C80.4744 64.3018 82.465 65.01 84.3563 66.1944L83.4756 67.0751Z" fill="#E4F7FF"/>
<defs>
<filter id="filter0_d_26798_9188" x="0.172119" y="0.11145" width="159.656" height="158.056" filterUnits="userSpaceOnUse" color-interpolation-filters="sRGB">
<feFlood flood-opacity="0" result="BackgroundImageFix"/>
<feColorMatrix in="SourceAlpha" type="matrix" values="0 0 0 0 0 0 0 0 0 0 0 0 0 0 0 0 0 0 127 0" result="hardAlpha"/>
<feOffset dy="2"/>
<feGaussianBlur stdDeviation="25"/>
<feColorMatrix type="matrix" values="0 0 0 0 0 0 0 0 0 0.807843 0 0 0 0 0.533333 0 0 0 0.3 0"/>
<feBlend mode="normal" in2="BackgroundImageFix" result="effect1_dropShadow_26798_9188"/>
<feBlend mode="normal" in="SourceGraphic" in2="effect1_dropShadow_26798_9188" result="shape"/>
</filter>
<linearGradient id="paint0_linear_26798_9188" x1="95.8393" y1="85.5759" x2="69.0096" y2="42.5819" gradientUnits="userSpaceOnUse">
<stop stop-color="#00CE88"/>
<stop offset="1" stop-color="white" stop-opacity="0"/>
</linearGradient>
</defs>
</svg>
