<svg width="160" height="159" viewBox="0 0 160 159" fill="none" xmlns="http://www.w3.org/2000/svg">
<g filter="url(#filter0_d_26403_5358)">
<path d="M87.0534 102.875C82.8476 105.931 77.1524 105.931 72.9466 102.875L56.6196 91.0132C52.4138 87.9574 50.6539 82.541 52.2604 77.5967L58.4967 58.4033C60.1032 53.459 64.7107 50.1115 69.9094 50.1115L90.0906 50.1115C95.2893 50.1115 99.8968 53.459 101.503 58.4033L107.74 77.5968C109.346 82.541 107.586 87.9574 103.38 91.0132L87.0534 102.875Z" fill="#18EFB1"/>
<path d="M72.5057 103.482C76.9744 106.729 83.0255 106.729 87.4943 103.482L103.821 91.6199C108.29 88.3732 110.16 82.6183 108.453 77.365L102.217 58.1715C100.51 52.9182 95.6143 49.3615 90.0906 49.3615L69.9094 49.3615C64.3857 49.3615 59.4903 52.9182 57.7834 58.1715L51.5471 77.365C49.8402 82.6183 51.7101 88.3732 56.1788 91.6199L72.5057 103.482Z" stroke="url(#paint0_linear_26403_5358)" stroke-width="1.5" stroke-linecap="square"/>
</g>
<path d="M87.9999 86H71.9999C70.9391 86 69.9216 85.5785 69.1715 84.8284C68.4213 84.0782 67.9999 83.0608 67.9999 82V71.3333C67.9999 70.9797 67.8594 70.6405 67.6094 70.3905C67.3593 70.1404 67.0202 70 66.6666 70C66.313 70 65.9738 70.1404 65.7238 70.3905C65.4737 70.6405 65.3333 70.9797 65.3333 71.3333V82C65.3333 83.7681 66.0356 85.4638 67.2859 86.714C67.9049 87.3331 68.6399 87.8241 69.4487 88.1592C70.2575 88.4942 71.1244 88.6666 71.9999 88.6666H87.9999C88.3535 88.6666 88.6927 88.5262 88.9427 88.2761C89.1928 88.0261 89.3333 87.6869 89.3333 87.3333C89.3333 86.9797 89.1928 86.6405 88.9427 86.3905C88.6927 86.1404 88.3535 86 87.9999 86ZM82.6666 75.3333H77.3333C76.9796 75.3333 76.6405 75.4738 76.3904 75.7238C76.1404 75.9739 75.9999 76.313 75.9999 76.6666C75.9999 77.0202 76.1404 77.3594 76.3904 77.6094C76.6405 77.8595 76.9796 78 77.3333 78H82.6666C83.0202 78 83.3593 77.8595 83.6094 77.6094C83.8594 77.3594 83.9999 77.0202 83.9999 76.6666C83.9999 76.313 83.8594 75.9739 83.6094 75.7238C83.3593 75.4738 83.0202 75.3333 82.6666 75.3333ZM94.6666 73.92C94.6527 73.7975 94.6259 73.6768 94.5866 73.56V73.44C94.5225 73.3029 94.437 73.1768 94.3333 73.0666L86.3333 65.0666C86.223 64.9629 86.097 64.8774 85.9599 64.8133H85.8399C85.7045 64.7356 85.5549 64.6858 85.3999 64.6666H74.6666C73.6057 64.6666 72.5883 65.0881 71.8382 65.8382C71.088 66.5883 70.6666 67.6058 70.6666 68.6666V79.3333C70.6666 80.3942 71.088 81.4116 71.8382 82.1617C72.5883 82.9119 73.6057 83.3333 74.6666 83.3333H90.6666C91.7275 83.3333 92.7449 82.9119 93.495 82.1617C94.2452 81.4116 94.6666 80.3942 94.6666 79.3333V74C94.6666 74 94.6666 74 94.6666 73.92ZM86.6666 69.2133L90.1199 72.6666H87.9999C87.6463 72.6666 87.3072 72.5262 87.0571 72.2761C86.8071 72.0261 86.6666 71.6869 86.6666 71.3333V69.2133ZM91.9999 79.3333C91.9999 79.6869 91.8594 80.0261 91.6094 80.2761C91.3593 80.5262 91.0202 80.6666 90.6666 80.6666H74.6666C74.313 80.6666 73.9738 80.5262 73.7238 80.2761C73.4737 80.0261 73.3333 79.6869 73.3333 79.3333V68.6666C73.3333 68.313 73.4737 67.9739 73.7238 67.7238C73.9738 67.4738 74.313 67.3333 74.6666 67.3333H83.9999V71.3333C83.9999 72.3942 84.4213 73.4116 85.1715 74.1617C85.9216 74.9119 86.9391 75.3333 87.9999 75.3333H91.9999V79.3333ZM77.3333 72.6666H79.9999C80.3535 72.6666 80.6927 72.5262 80.9427 72.2761C81.1928 72.0261 81.3333 71.6869 81.3333 71.3333C81.3333 70.9797 81.1928 70.6405 80.9427 70.3905C80.6927 70.1404 80.3535 70 79.9999 70H77.3333C76.9796 70 76.6405 70.1404 76.3904 70.3905C76.1404 70.6405 75.9999 70.9797 75.9999 71.3333C75.9999 71.6869 76.1404 72.0261 76.3904 72.2761C76.6405 72.5262 76.9796 72.6666 77.3333 72.6666Z" fill="#E4F7FF"/>
<defs>
<filter id="filter0_d_26403_5358" x="0.172119" y="0.61145" width="159.656" height="158.056" filterUnits="userSpaceOnUse" color-interpolation-filters="sRGB">
<feFlood flood-opacity="0" result="BackgroundImageFix"/>
<feColorMatrix in="SourceAlpha" type="matrix" values="0 0 0 0 0 0 0 0 0 0 0 0 0 0 0 0 0 0 127 0" result="hardAlpha"/>
<feOffset dy="2"/>
<feGaussianBlur stdDeviation="25"/>
<feColorMatrix type="matrix" values="0 0 0 0 0 0 0 0 0 0.807843 0 0 0 0 0.533333 0 0 0 0.3 0"/>
<feBlend mode="normal" in2="BackgroundImageFix" result="effect1_dropShadow_26403_5358"/>
<feBlend mode="normal" in="SourceGraphic" in2="effect1_dropShadow_26403_5358" result="shape"/>
</filter>
<linearGradient id="paint0_linear_26403_5358" x1="95.8393" y1="86.0759" x2="69.0096" y2="43.0819" gradientUnits="userSpaceOnUse">
<stop stop-color="#00CE88"/>
<stop offset="1" stop-color="white" stop-opacity="0"/>
</linearGradient>
</defs>
</svg>
