<svg width="160" height="159" viewBox="0 0 160 159" fill="none" xmlns="http://www.w3.org/2000/svg">
<g filter="url(#filter0_d_26403_5346)">
<path d="M87.0534 102.375C82.8476 105.431 77.1524 105.431 72.9466 102.375L56.6196 90.5132C52.4138 87.4574 50.6539 82.041 52.2604 77.0967L58.4967 57.9033C60.1032 52.959 64.7107 49.6115 69.9094 49.6115L90.0906 49.6115C95.2893 49.6115 99.8968 52.959 101.503 57.9033L107.74 77.0968C109.346 82.041 107.586 87.4574 103.38 90.5132L87.0534 102.375Z" fill="#18EFB1"/>
<path d="M72.5057 102.982C76.9744 106.229 83.0255 106.229 87.4943 102.982L103.821 91.1199C108.29 87.8732 110.16 82.1183 108.453 76.865L102.217 57.6715C100.51 52.4182 95.6143 48.8615 90.0906 48.8615L69.9094 48.8615C64.3857 48.8615 59.4903 52.4182 57.7834 57.6715L51.5471 76.865C49.8402 82.1183 51.7101 87.8732 56.1788 91.1199L72.5057 102.982Z" stroke="url(#paint0_linear_26403_5346)" stroke-width="1.5" stroke-linecap="square"/>
</g>
<path d="M93.4143 62.3655C93.357 62.1478 93.2429 61.9492 93.0837 61.79C92.9245 61.6308 92.7259 61.5167 92.5082 61.4593C89.9007 60.7821 87.1549 60.855 84.5871 61.6698C82.0193 62.4845 79.7337 64.0079 77.9937 66.0646L76.5765 67.7473L73.2656 66.9484C72.4606 66.6678 71.5813 66.6879 70.7901 67.005C69.9988 67.3222 69.349 67.9149 68.9607 68.6738L66.1641 73.6309C66.0661 73.8045 66.0103 73.9988 66.0013 74.1979C65.9923 74.3971 66.0302 74.5956 66.1121 74.7774C66.194 74.9592 66.3174 75.1192 66.4726 75.2444C66.6277 75.3697 66.8101 75.4567 67.0051 75.4984L70.9108 76.3356C70.58 77.3428 70.3437 78.3786 70.2051 79.4296C70.18 79.6227 70.1996 79.8189 70.2623 80.0033C70.3251 80.1876 70.4293 80.3551 70.567 80.4927L74.5075 84.4332C74.6255 84.5513 74.7656 84.645 74.9198 84.7089C75.0739 84.7728 75.2392 84.8057 75.4061 84.8057C75.4428 84.8057 75.4794 84.8038 75.5166 84.8007C76.5911 84.7041 77.6526 84.4954 78.6836 84.1779L79.5018 87.9952C79.5436 88.1901 79.6307 88.3724 79.7559 88.5275C79.8812 88.6826 80.0412 88.806 80.2229 88.8879C80.4047 88.9697 80.6032 89.0077 80.8023 88.9987C81.0014 88.9897 81.1957 88.934 81.3693 88.8362L86.3333 86.0364C87.0319 85.6119 87.5777 84.9764 87.8918 84.2217C88.2059 83.467 88.2722 82.6319 88.081 81.8371L87.2311 78.3302L88.8035 76.8843C90.8678 75.1491 92.3971 72.8634 93.2133 70.2932C94.0296 67.723 94.0993 64.9738 93.4143 62.3655ZM69.227 73.3746L71.205 69.8667C71.3279 69.6285 71.5372 69.4464 71.79 69.3576C72.0429 69.2689 72.3201 69.2802 72.5648 69.3894L74.7478 69.9184L73.9216 70.8994C73.1383 71.8382 72.4608 72.8605 71.9015 73.9476L69.227 73.3746ZM85.0778 83.8257L81.6257 85.7726L81.0798 83.2245C82.1864 82.6726 83.2174 81.9806 84.1474 81.1655L85.0925 80.2965L85.6053 82.4124C85.6718 82.6737 85.6569 82.949 85.5627 83.2016C85.4684 83.4541 85.2992 83.6719 85.0778 83.8257ZM87.1296 74.9721L82.4462 79.2763C80.5924 80.8795 78.3058 81.8986 75.8742 82.2052L72.8181 79.1491C73.2285 76.7111 74.282 74.4268 75.8698 72.5318L78.0031 69.9989C78.0387 69.9618 78.0718 69.9224 78.1024 69.881L79.9264 67.7155C81.275 66.1227 83.0221 64.9163 84.9894 64.2195C86.9567 63.5228 89.0737 63.3606 91.1241 63.7495C91.5225 65.8064 91.362 67.9325 90.6595 69.9063C89.9569 71.8802 88.738 73.6295 87.1296 74.9721ZM85.9564 67.1374C85.5793 67.1374 85.2107 67.2493 84.8971 67.4588C84.5836 67.6683 84.3392 67.9661 84.1949 68.3144C84.0506 68.6628 84.0128 69.0462 84.0864 69.416C84.16 69.7859 84.3416 70.1256 84.6082 70.3923C84.8749 70.6589 85.2146 70.8405 85.5844 70.9141C85.9543 70.9876 86.3377 70.9499 86.6861 70.8056C87.0344 70.6613 87.3322 70.4169 87.5417 70.1034C87.7512 69.7898 87.863 69.4212 87.863 69.0441C87.8631 68.7937 87.8138 68.5457 87.7179 68.3144C87.6221 68.0831 87.4817 67.8729 87.3046 67.6958C87.1276 67.5188 86.9174 67.3783 86.686 67.2825C86.4547 67.1867 86.2068 67.1374 85.9564 67.1374L85.9564 67.1374Z" fill="#E4F7FF"/>
<defs>
<filter id="filter0_d_26403_5346" x="0.172119" y="0.11145" width="159.656" height="158.056" filterUnits="userSpaceOnUse" color-interpolation-filters="sRGB">
<feFlood flood-opacity="0" result="BackgroundImageFix"/>
<feColorMatrix in="SourceAlpha" type="matrix" values="0 0 0 0 0 0 0 0 0 0 0 0 0 0 0 0 0 0 127 0" result="hardAlpha"/>
<feOffset dy="2"/>
<feGaussianBlur stdDeviation="25"/>
<feColorMatrix type="matrix" values="0 0 0 0 0 0 0 0 0 0.807843 0 0 0 0 0.533333 0 0 0 0.3 0"/>
<feBlend mode="normal" in2="BackgroundImageFix" result="effect1_dropShadow_26403_5346"/>
<feBlend mode="normal" in="SourceGraphic" in2="effect1_dropShadow_26403_5346" result="shape"/>
</filter>
<linearGradient id="paint0_linear_26403_5346" x1="95.8393" y1="85.5759" x2="69.0096" y2="42.5819" gradientUnits="userSpaceOnUse">
<stop stop-color="#00CE88"/>
<stop offset="1" stop-color="white" stop-opacity="0"/>
</linearGradient>
</defs>
</svg>
