<svg width="160" height="159" viewBox="0 0 160 159" fill="none" xmlns="http://www.w3.org/2000/svg">
<g filter="url(#filter0_d_26292_97)">
<path d="M87.0584 102.672C82.8526 105.728 77.1574 105.728 72.9516 102.672L56.6246 90.81C52.4188 87.7543 50.6589 82.3379 52.2654 77.3936L58.5017 58.2001C60.1082 53.2559 64.7157 49.9083 69.9144 49.9083L90.0956 49.9083C95.2943 49.9083 99.9018 53.2559 101.508 58.2001L107.745 77.3936C109.351 82.3379 107.591 87.7543 103.385 90.81L87.0584 102.672Z" fill="#00CE88"/>
<path d="M56.1838 91.4168L72.5107 103.279C76.9795 106.526 83.0305 106.526 87.4993 103.279L103.826 91.4168C108.295 88.1701 110.165 82.4152 108.458 77.1619L102.222 57.9684C100.515 52.7151 95.6193 49.1583 90.0956 49.1583L69.9144 49.1583C64.3908 49.1583 59.4953 52.7151 57.7884 57.9684L51.5521 77.1619C49.8452 82.4151 51.7151 88.1701 56.1838 91.4168Z" stroke="url(#paint0_linear_26292_97)" stroke-width="1.5" stroke-linecap="square"/>
</g>
<path d="M89.3383 69.1302H88.005V67.7969C88.005 66.736 87.5835 65.7186 86.8334 64.9684C86.0832 64.2183 85.0658 63.7969 84.005 63.7969H70.6716C69.6108 63.7969 68.5933 64.2183 67.8432 64.9684C67.0931 65.7186 66.6716 66.736 66.6716 67.7969V67.7969V83.7969C66.6716 84.8577 67.0931 85.8752 67.8432 86.6253C68.5933 87.3754 69.6108 87.7969 70.6716 87.7969H89.3383C90.3992 87.7969 91.4166 87.3754 92.1667 86.6253C92.9169 85.8752 93.3383 84.8577 93.3383 83.7969V73.1302C93.3383 72.0693 92.9169 71.0519 92.1667 70.3018C91.4166 69.5516 90.3992 69.1302 89.3383 69.1302ZM70.6716 66.4635H84.005C84.3586 66.4635 84.6977 66.604 84.9478 66.8541C85.1978 67.1041 85.3383 67.4433 85.3383 67.7969V69.1302H70.6716C70.318 69.1302 69.9789 68.9897 69.7288 68.7397C69.4788 68.4896 69.3383 68.1505 69.3383 67.7969C69.3383 67.4433 69.4788 67.1041 69.7288 66.8541C69.9789 66.604 70.318 66.4635 70.6716 66.4635V66.4635ZM90.6716 79.7969H89.3383C88.9847 79.7969 88.6455 79.6564 88.3955 79.4064C88.1454 79.1563 88.005 78.8172 88.005 78.4635C88.005 78.1099 88.1454 77.7708 88.3955 77.5207C88.6455 77.2707 88.9847 77.1302 89.3383 77.1302H90.6716V79.7969ZM90.6716 74.4635H89.3383C88.2774 74.4635 87.26 74.885 86.5099 75.6351C85.7597 76.3853 85.3383 77.4027 85.3383 78.4635C85.3383 79.5244 85.7597 80.5418 86.5099 81.292C87.26 82.0421 88.2774 82.4635 89.3383 82.4635H90.6716V83.7969C90.6716 84.1505 90.5312 84.4896 90.2811 84.7397C90.0311 84.9897 89.6919 85.1302 89.3383 85.1302H70.6716C70.318 85.1302 69.9789 84.9897 69.7288 84.7397C69.4788 84.4896 69.3383 84.1505 69.3383 83.7969V71.5702C69.7667 71.7209 70.2175 71.7975 70.6716 71.7969H89.3383C89.6919 71.7969 90.0311 71.9374 90.2811 72.1874C90.5312 72.4374 90.6716 72.7766 90.6716 73.1302V74.4635Z" fill="#E4F7FF"/>
<defs>
<filter id="filter0_d_26292_97" x="0.177124" y="0.408333" width="159.656" height="158.056" filterUnits="userSpaceOnUse" color-interpolation-filters="sRGB">
<feFlood flood-opacity="0" result="BackgroundImageFix"/>
<feColorMatrix in="SourceAlpha" type="matrix" values="0 0 0 0 0 0 0 0 0 0 0 0 0 0 0 0 0 0 127 0" result="hardAlpha"/>
<feOffset dy="2"/>
<feGaussianBlur stdDeviation="25"/>
<feColorMatrix type="matrix" values="0 0 0 0 0 0 0 0 0 0.807843 0 0 0 0 0.533333 0 0 0 0.3 0"/>
<feBlend mode="normal" in2="BackgroundImageFix" result="effect1_dropShadow_26292_97"/>
<feBlend mode="normal" in="SourceGraphic" in2="effect1_dropShadow_26292_97" result="shape"/>
</filter>
<linearGradient id="paint0_linear_26292_97" x1="95.8443" y1="85.8728" x2="69.0146" y2="42.8788" gradientUnits="userSpaceOnUse">
<stop stop-color="#00CE88"/>
<stop offset="1" stop-color="white" stop-opacity="0"/>
</linearGradient>
</defs>
</svg>
