<svg width="160" height="159" viewBox="0 0 160 159" fill="none" xmlns="http://www.w3.org/2000/svg">
<g filter="url(#filter0_d_26403_5333)">
<path d="M87.0534 102.375C82.8476 105.431 77.1524 105.431 72.9466 102.375L56.6196 90.5132C52.4138 87.4574 50.6539 82.041 52.2604 77.0967L58.4967 57.9033C60.1032 52.959 64.7107 49.6115 69.9094 49.6115L90.0906 49.6115C95.2893 49.6115 99.8968 52.959 101.503 57.9033L107.74 77.0968C109.346 82.041 107.586 87.4574 103.38 90.5132L87.0534 102.375Z" fill="#18EFB1"/>
<path d="M72.5057 102.982C76.9744 106.229 83.0255 106.229 87.4943 102.982L103.821 91.1199C108.29 87.8732 110.16 82.1183 108.453 76.865L102.217 57.6715C100.51 52.4182 95.6143 48.8615 90.0906 48.8615L69.9094 48.8615C64.3857 48.8615 59.4903 52.4182 57.7834 57.6715L51.5471 76.865C49.8402 82.1183 51.7101 87.8732 56.1788 91.1199L72.5057 102.982Z" stroke="url(#paint0_linear_26403_5333)" stroke-width="1.5" stroke-linecap="square"/>
</g>
<path d="M85.989 63.3179C84.8186 62.3552 83.4479 61.666 81.9772 61.3005C80.5064 60.935 78.9726 60.9025 77.4877 61.2053C75.5105 61.6047 73.6965 62.5824 72.2758 64.0144C70.8551 65.4464 69.8918 67.2681 69.5082 69.2484C69.228 70.7333 69.2789 72.2616 69.6573 73.7245C70.0357 75.1874 70.7322 76.5488 71.6971 77.7116C72.5927 78.7221 73.106 80.0145 73.148 81.3641V85.182C73.148 86.1946 73.5502 87.1657 74.2662 87.8817C74.9822 88.5978 75.9533 89 76.9659 89H82.0565C83.0691 89 84.0402 88.5978 84.7562 87.8817C85.4722 87.1657 85.8745 86.1946 85.8745 85.182V81.6059C85.9172 80.1158 86.4646 78.6844 87.4271 77.5461C89.1135 75.46 89.9085 72.7925 89.6392 70.1235C89.3699 67.4545 88.0582 64.9997 85.989 63.2924V63.3179ZM83.3292 85.182C83.3292 85.5196 83.1951 85.8433 82.9564 86.0819C82.7178 86.3206 82.3941 86.4547 82.0565 86.4547H76.9659C76.6284 86.4547 76.3047 86.3206 76.066 86.0819C75.8274 85.8433 75.6933 85.5196 75.6933 85.182V83.9094H83.3292V85.182ZM85.4545 75.968C84.1749 77.4858 83.4283 79.3813 83.3292 81.3641H80.7839V77.5461C80.7839 77.2086 80.6498 76.8849 80.4111 76.6462C80.1725 76.4076 79.8488 76.2735 79.5112 76.2735C79.1737 76.2735 78.85 76.4076 78.6113 76.6462C78.3727 76.8849 78.2386 77.2086 78.2386 77.5461V81.3641H75.6933C75.6597 79.4145 74.9385 77.5395 73.657 76.0698C72.8115 75.0568 72.243 73.842 72.0068 72.5438C71.7706 71.2456 71.8749 69.9083 72.3094 68.6624C72.7439 67.4165 73.4939 66.3045 74.4862 65.4347C75.4785 64.565 76.6792 63.9672 77.9713 63.6997C79.0818 63.471 80.2292 63.4925 81.3303 63.7626C82.4314 64.0327 83.4586 64.5446 84.3372 65.2611C85.2158 65.9777 85.9238 66.8809 86.4099 67.9052C86.8959 68.9295 87.1478 70.0491 87.1471 71.1829C87.1566 72.9262 86.558 74.6183 85.4545 75.968Z" fill="#E4F7FF"/>
<defs>
<filter id="filter0_d_26403_5333" x="0.172119" y="0.11145" width="159.656" height="158.056" filterUnits="userSpaceOnUse" color-interpolation-filters="sRGB">
<feFlood flood-opacity="0" result="BackgroundImageFix"/>
<feColorMatrix in="SourceAlpha" type="matrix" values="0 0 0 0 0 0 0 0 0 0 0 0 0 0 0 0 0 0 127 0" result="hardAlpha"/>
<feOffset dy="2"/>
<feGaussianBlur stdDeviation="25"/>
<feColorMatrix type="matrix" values="0 0 0 0 0 0 0 0 0 0.807843 0 0 0 0 0.533333 0 0 0 0.3 0"/>
<feBlend mode="normal" in2="BackgroundImageFix" result="effect1_dropShadow_26403_5333"/>
<feBlend mode="normal" in="SourceGraphic" in2="effect1_dropShadow_26403_5333" result="shape"/>
</filter>
<linearGradient id="paint0_linear_26403_5333" x1="95.8393" y1="85.5759" x2="69.0096" y2="42.5819" gradientUnits="userSpaceOnUse">
<stop stop-color="#00CE88"/>
<stop offset="1" stop-color="white" stop-opacity="0"/>
</linearGradient>
</defs>
</svg>
