<svg width="160" height="159" viewBox="0 0 160 159" fill="none" xmlns="http://www.w3.org/2000/svg">
<g filter="url(#filter0_d_26292_99)">
<path d="M87.0584 102.672C82.8526 105.728 77.1574 105.728 72.9516 102.672L56.6246 90.81C52.4188 87.7543 50.6589 82.3379 52.2654 77.3936L58.5017 58.2001C60.1082 53.2559 64.7157 49.9083 69.9144 49.9083L90.0956 49.9083C95.2943 49.9083 99.9018 53.2559 101.508 58.2001L107.745 77.3936C109.351 82.3379 107.591 87.7543 103.385 90.81L87.0584 102.672Z" fill="#00CE88"/>
<path d="M56.1838 91.4168L72.5107 103.279C76.9795 106.526 83.0305 106.526 87.4993 103.279L103.826 91.4168C108.295 88.1701 110.165 82.4152 108.458 77.1619L102.222 57.9684C100.515 52.7151 95.6193 49.1583 90.0956 49.1583L69.9144 49.1583C64.3908 49.1583 59.4953 52.7151 57.7884 57.9684L51.5521 77.1619C49.8452 82.4151 51.7151 88.1701 56.1838 91.4168Z" stroke="url(#paint0_linear_26292_99)" stroke-width="1.5" stroke-linecap="square"/>
</g>
<path d="M88.005 85.7969H72.005C70.9442 85.7969 69.9268 85.3754 69.1766 84.6253C68.4265 83.8751 68.005 82.8577 68.005 81.7969V71.1302C68.005 70.7766 67.8646 70.4374 67.6145 70.1874C67.3645 69.9373 67.0253 69.7969 66.6717 69.7969C66.3181 69.7969 65.979 69.9373 65.7289 70.1874C65.4789 70.4374 65.3384 70.7766 65.3384 71.1302V81.7969C65.3384 83.565 66.0408 85.2607 67.291 86.5109C67.9101 87.13 68.645 87.621 69.4538 87.9561C70.2627 88.2911 71.1296 88.4635 72.005 88.4635H88.005C88.3587 88.4635 88.6978 88.3231 88.9479 88.073C89.1979 87.823 89.3384 87.4838 89.3384 87.1302C89.3384 86.7766 89.1979 86.4374 88.9479 86.1874C88.6978 85.9373 88.3587 85.7969 88.005 85.7969ZM82.6717 75.1302H77.3384C76.9848 75.1302 76.6456 75.2707 76.3956 75.5207C76.1455 75.7708 76.005 76.1099 76.005 76.4635C76.005 76.8172 76.1455 77.1563 76.3956 77.4063C76.6456 77.6564 76.9848 77.7969 77.3384 77.7969H82.6717C83.0253 77.7969 83.3645 77.6564 83.6145 77.4063C83.8646 77.1563 84.005 76.8172 84.005 76.4635C84.005 76.1099 83.8646 75.7708 83.6145 75.5207C83.3645 75.2707 83.0253 75.1302 82.6717 75.1302ZM94.6717 73.7169C94.6578 73.5944 94.631 73.4737 94.5917 73.3569V73.2369C94.5276 73.0998 94.4421 72.9738 94.3384 72.8635V72.8635L86.3384 64.8635C86.2282 64.7598 86.1021 64.6743 85.965 64.6102H85.845C85.7096 64.5325 85.56 64.4827 85.405 64.4635H74.6717C73.6108 64.4635 72.5934 64.885 71.8433 65.6351C71.0931 66.3853 70.6717 67.4027 70.6717 68.4635V79.1302C70.6717 80.1911 71.0931 81.2085 71.8433 81.9586C72.5934 82.7088 73.6108 83.1302 74.6717 83.1302H90.6717C91.7326 83.1302 92.75 82.7088 93.5001 81.9586C94.2503 81.2085 94.6717 80.1911 94.6717 79.1302V73.7969C94.6717 73.7969 94.6717 73.7969 94.6717 73.7169ZM86.6717 69.0102L90.125 72.4635H88.005C87.6514 72.4635 87.3123 72.3231 87.0622 72.073C86.8122 71.823 86.6717 71.4838 86.6717 71.1302V69.0102ZM92.005 79.1302C92.005 79.4838 91.8646 79.823 91.6145 80.073C91.3645 80.3231 91.0253 80.4635 90.6717 80.4635H74.6717C74.3181 80.4635 73.979 80.3231 73.7289 80.073C73.4789 79.823 73.3384 79.4838 73.3384 79.1302V68.4635C73.3384 68.1099 73.4789 67.7708 73.7289 67.5207C73.979 67.2707 74.3181 67.1302 74.6717 67.1302H84.005V71.1302C84.005 72.1911 84.4265 73.2085 85.1766 73.9586C85.9268 74.7088 86.9442 75.1302 88.005 75.1302H92.005V79.1302ZM77.3384 72.4635H80.005C80.3587 72.4635 80.6978 72.3231 80.9479 72.073C81.1979 71.823 81.3384 71.4838 81.3384 71.1302C81.3384 70.7766 81.1979 70.4374 80.9479 70.1874C80.6978 69.9373 80.3587 69.7969 80.005 69.7969H77.3384C76.9848 69.7969 76.6456 69.9373 76.3956 70.1874C76.1455 70.4374 76.005 70.7766 76.005 71.1302C76.005 71.4838 76.1455 71.823 76.3956 72.073C76.6456 72.3231 76.9848 72.4635 77.3384 72.4635V72.4635Z" fill="#E4F7FF"/>
<defs>
<filter id="filter0_d_26292_99" x="0.177124" y="0.408325" width="159.656" height="158.056" filterUnits="userSpaceOnUse" color-interpolation-filters="sRGB">
<feFlood flood-opacity="0" result="BackgroundImageFix"/>
<feColorMatrix in="SourceAlpha" type="matrix" values="0 0 0 0 0 0 0 0 0 0 0 0 0 0 0 0 0 0 127 0" result="hardAlpha"/>
<feOffset dy="2"/>
<feGaussianBlur stdDeviation="25"/>
<feColorMatrix type="matrix" values="0 0 0 0 0 0 0 0 0 0.807843 0 0 0 0 0.533333 0 0 0 0.3 0"/>
<feBlend mode="normal" in2="BackgroundImageFix" result="effect1_dropShadow_26292_99"/>
<feBlend mode="normal" in="SourceGraphic" in2="effect1_dropShadow_26292_99" result="shape"/>
</filter>
<linearGradient id="paint0_linear_26292_99" x1="95.8443" y1="85.8728" x2="69.0146" y2="42.8788" gradientUnits="userSpaceOnUse">
<stop stop-color="#00CE88"/>
<stop offset="1" stop-color="white" stop-opacity="0"/>
</linearGradient>
</defs>
</svg>
