<svg width="70" height="70" viewBox="0 0 70 70" fill="none" xmlns="http://www.w3.org/2000/svg">
<g filter="url(#filter0_d_26256_3476)">
<path d="M42.0534 58.3754C37.8476 61.4311 32.1524 61.4311 27.9466 58.3754L11.6196 46.5132C7.41376 43.4574 5.65387 38.041 7.26036 33.0967L13.4967 13.9033C15.1032 8.95898 19.7107 5.61146 24.9094 5.61146L45.0906 5.61146C50.2893 5.61146 54.8968 8.95898 56.5033 13.9033L62.7396 33.0968C64.3461 38.041 62.5862 43.4574 58.3804 46.5132L42.0534 58.3754Z" fill="#00CE88"/>
<path d="M27.5057 58.9822C31.9744 62.2289 38.0255 62.2289 42.4943 58.9822L58.8212 47.1199C63.2899 43.8732 65.1598 38.1183 63.4529 32.865L57.2166 13.6715C55.5097 8.4182 50.6143 4.86146 45.0906 4.86146L24.9094 4.86146C19.3857 4.86146 14.4903 8.4182 12.7834 13.6715L6.54707 32.865C4.84017 38.1183 6.71006 43.8732 11.1788 47.1199L27.5057 58.9822Z" stroke="url(#paint0_linear_26256_3476)" stroke-width="1.5" stroke-linecap="square"/>
</g>
<path d="M48.4143 18.3655C48.357 18.1478 48.2429 17.9492 48.0837 17.79C47.9245 17.6308 47.7259 17.5167 47.5082 17.4593C44.9007 16.7821 42.1549 16.855 39.5871 17.6698C37.0193 18.4845 34.7337 20.0079 32.9937 22.0646L31.5765 23.7473L28.2656 22.9484C27.4606 22.6678 26.5813 22.6879 25.7901 23.005C24.9988 23.3222 24.349 23.9149 23.9607 24.6738L21.1641 29.6309C21.0661 29.8045 21.0103 29.9988 21.0013 30.1979C20.9923 30.3971 21.0302 30.5956 21.1121 30.7774C21.194 30.9592 21.3174 31.1192 21.4726 31.2444C21.6277 31.3697 21.8101 31.4567 22.0051 31.4984L25.9108 32.3356C25.58 33.3428 25.3437 34.3786 25.2051 35.4296C25.18 35.6227 25.1996 35.8189 25.2623 36.0033C25.3251 36.1876 25.4293 36.3551 25.567 36.4927L29.5075 40.4332C29.6255 40.5513 29.7656 40.645 29.9198 40.7089C30.0739 40.7728 30.2392 40.8057 30.4061 40.8057C30.4428 40.8057 30.4794 40.8038 30.5166 40.8007C31.5911 40.7041 32.6526 40.4954 33.6836 40.1779L34.5018 43.9952C34.5436 44.1901 34.6307 44.3724 34.7559 44.5275C34.8812 44.6826 35.0412 44.806 35.2229 44.8879C35.4047 44.9697 35.6032 45.0077 35.8023 44.9987C36.0014 44.9897 36.1957 44.934 36.3693 44.8362L41.3333 42.0364C42.0319 41.6119 42.5777 40.9764 42.8918 40.2217C43.2059 39.467 43.2722 38.6319 43.081 37.8371L42.2311 34.3302L43.8035 32.8843C45.8678 31.1491 47.3971 28.8634 48.2133 26.2932C49.0296 23.723 49.0993 20.9738 48.4143 18.3655ZM24.227 29.3746L26.205 25.8667C26.3279 25.6285 26.5372 25.4464 26.79 25.3576C27.0429 25.2689 27.3201 25.2802 27.5648 25.3894L29.7478 25.9184L28.9216 26.8994C28.1383 27.8382 27.4608 28.8605 26.9015 29.9476L24.227 29.3746ZM40.0778 39.8257L36.6257 41.7726L36.0798 39.2245C37.1864 38.6726 38.2174 37.9806 39.1474 37.1655L40.0925 36.2965L40.6053 38.4124C40.6718 38.6737 40.6569 38.949 40.5627 39.2016C40.4684 39.4541 40.2992 39.6719 40.0778 39.8257ZM42.1296 30.9721L37.4462 35.2763C35.5924 36.8795 33.3058 37.8986 30.8742 38.2052L27.8181 35.1491C28.2285 32.7111 29.282 30.4268 30.8698 28.5318L33.0031 25.9989C33.0387 25.9618 33.0718 25.9224 33.1024 25.881L34.9264 23.7155C36.275 22.1227 38.0221 20.9163 39.9894 20.2195C41.9567 19.5228 44.0737 19.3606 46.1241 19.7495C46.5225 21.8064 46.362 23.9325 45.6595 25.9063C44.9569 27.8802 43.738 29.6295 42.1296 30.9721ZM40.9564 23.1374C40.5793 23.1374 40.2107 23.2493 39.8971 23.4588C39.5836 23.6683 39.3392 23.9661 39.1949 24.3144C39.0506 24.6628 39.0128 25.0462 39.0864 25.416C39.16 25.7859 39.3416 26.1256 39.6082 26.3923C39.8749 26.6589 40.2146 26.8405 40.5844 26.9141C40.9543 26.9876 41.3377 26.9499 41.6861 26.8056C42.0344 26.6613 42.3322 26.4169 42.5417 26.1034C42.7512 25.7898 42.863 25.4212 42.863 25.0441C42.8631 24.7937 42.8138 24.5457 42.7179 24.3144C42.6221 24.0831 42.4817 23.8729 42.3046 23.6958C42.1276 23.5188 41.9174 23.3783 41.686 23.2825C41.4547 23.1867 41.2068 23.1374 40.9564 23.1374L40.9564 23.1374Z" fill="#E4F7FF"/>
<defs>
<filter id="filter0_d_26256_3476" x="0.172119" y="1.11145" width="69.6558" height="68.0557" filterUnits="userSpaceOnUse" color-interpolation-filters="sRGB">
<feFlood flood-opacity="0" result="BackgroundImageFix"/>
<feColorMatrix in="SourceAlpha" type="matrix" values="0 0 0 0 0 0 0 0 0 0 0 0 0 0 0 0 0 0 127 0" result="hardAlpha"/>
<feOffset dy="2"/>
<feGaussianBlur stdDeviation="2.5"/>
<feColorMatrix type="matrix" values="0 0 0 0 0 0 0 0 0 0.807843 0 0 0 0 0.533333 0 0 0 0.3 0"/>
<feBlend mode="normal" in2="BackgroundImageFix" result="effect1_dropShadow_26256_3476"/>
<feBlend mode="normal" in="SourceGraphic" in2="effect1_dropShadow_26256_3476" result="shape"/>
</filter>
<linearGradient id="paint0_linear_26256_3476" x1="50.8393" y1="41.5759" x2="24.0096" y2="-1.41805" gradientUnits="userSpaceOnUse">
<stop stop-color="#00CE88"/>
<stop offset="1" stop-color="white" stop-opacity="0"/>
</linearGradient>
</defs>
</svg>
