<svg width="160" height="159" viewBox="0 0 160 159" fill="none" xmlns="http://www.w3.org/2000/svg">
<g filter="url(#filter0_d_26403_5337)">
<path d="M87.0534 102.375C82.8476 105.431 77.1524 105.431 72.9466 102.375L56.6196 90.5132C52.4138 87.4574 50.6539 82.041 52.2604 77.0967L58.4967 57.9033C60.1032 52.959 64.7107 49.6115 69.9094 49.6115L90.0906 49.6115C95.2893 49.6115 99.8968 52.959 101.503 57.9033L107.74 77.0968C109.346 82.041 107.586 87.4574 103.38 90.5132L87.0534 102.375Z" fill="#18EFB1"/>
<path d="M72.5057 102.982C76.9744 106.229 83.0255 106.229 87.4943 102.982L103.821 91.1199C108.29 87.8732 110.16 82.1183 108.453 76.865L102.217 57.6715C100.51 52.4182 95.6143 48.8615 90.0906 48.8615L69.9094 48.8615C64.3857 48.8615 59.4903 52.4182 57.7834 57.6715L51.5471 76.865C49.8402 82.1183 51.7101 87.8732 56.1788 91.1199L72.5057 102.982Z" stroke="url(#paint0_linear_26403_5337)" stroke-width="1.5" stroke-linecap="square"/>
</g>
<path d="M87.3088 67.7222C90.1229 69.6958 92.0647 72.8337 92.4586 76.4543" stroke="#E4F7FF" stroke-width="2" stroke-linecap="round" stroke-linejoin="round"/>
<path d="M68.3564 76.5253C68.7223 72.9188 70.6359 69.7809 73.4218 67.7931" stroke="#E4F7FF" stroke-width="2" stroke-linecap="round" stroke-linejoin="round"/>
<path d="M74.9692 88.6937C76.6014 89.5314 78.4587 90 80.4145 90C82.3 90 84.0729 89.574 85.6628 88.7931" stroke="#E4F7FF" stroke-width="2" stroke-linecap="round" stroke-linejoin="round"/>
<path d="M80.4148 69.8945C82.5751 69.8945 84.3264 68.1272 84.3264 65.9472C84.3264 63.7672 82.5751 62 80.4148 62C78.2545 62 76.5032 63.7672 76.5032 65.9472C76.5032 68.1272 78.2545 69.8945 80.4148 69.8945Z" stroke="#E4F7FF" stroke-width="2" stroke-linecap="round" stroke-linejoin="round"/>
<path d="M70.2417 87.2455C72.402 87.2455 74.1533 85.4783 74.1533 83.2983C74.1533 81.1183 72.402 79.3511 70.2417 79.3511C68.0814 79.3511 66.3301 81.1183 66.3301 83.2983C66.3301 85.4783 68.0814 87.2455 70.2417 87.2455Z" stroke="#E4F7FF" stroke-width="2" stroke-linecap="round" stroke-linejoin="round"/>
<path d="M90.4187 87.2455C92.579 87.2455 94.3303 85.4783 94.3303 83.2983C94.3303 81.1183 92.579 79.3511 90.4187 79.3511C88.2584 79.3511 86.5071 81.1183 86.5071 83.2983C86.5071 85.4783 88.2584 87.2455 90.4187 87.2455Z" stroke="#E4F7FF" stroke-width="2" stroke-linecap="round" stroke-linejoin="round"/>
<defs>
<filter id="filter0_d_26403_5337" x="0.172119" y="0.11145" width="159.656" height="158.056" filterUnits="userSpaceOnUse" color-interpolation-filters="sRGB">
<feFlood flood-opacity="0" result="BackgroundImageFix"/>
<feColorMatrix in="SourceAlpha" type="matrix" values="0 0 0 0 0 0 0 0 0 0 0 0 0 0 0 0 0 0 127 0" result="hardAlpha"/>
<feOffset dy="2"/>
<feGaussianBlur stdDeviation="25"/>
<feColorMatrix type="matrix" values="0 0 0 0 0 0 0 0 0 0.807843 0 0 0 0 0.533333 0 0 0 0.3 0"/>
<feBlend mode="normal" in2="BackgroundImageFix" result="effect1_dropShadow_26403_5337"/>
<feBlend mode="normal" in="SourceGraphic" in2="effect1_dropShadow_26403_5337" result="shape"/>
</filter>
<linearGradient id="paint0_linear_26403_5337" x1="95.8393" y1="85.5759" x2="69.0096" y2="42.5819" gradientUnits="userSpaceOnUse">
<stop stop-color="#00CE88"/>
<stop offset="1" stop-color="white" stop-opacity="0"/>
</linearGradient>
</defs>
</svg>
