<svg width="56" height="56" viewBox="0 0 56 56" fill="none" xmlns="http://www.w3.org/2000/svg">
<rect x="0.5" y="0.5" width="55" height="55" rx="7.5" fill="url(#paint0_linear_28159_10361)" fill-opacity="0.2" stroke="url(#paint1_linear_28159_10361)"/>
<path d="M18.2832 32.7843L18.2867 32.7825L18.2885 32.779L18.2832 32.7843ZM38.5985 32.7543L38.5968 32.7578L38.5897 32.7631C38.5854 32.7673 38.5806 32.7724 38.5755 32.7772C38.5652 32.787 38.5534 32.7988 38.5402 32.8107C38.5138 32.8346 38.4812 32.8622 38.4429 32.8936C38.3662 32.9567 38.2647 33.0327 38.1369 33.1177C37.8808 33.288 37.5207 33.4909 37.0369 33.684C36.0669 34.071 34.6256 34.4125 32.5713 34.4125C30.3719 34.4125 28.5551 33.6731 26.9951 33.0507C25.3861 32.4087 24.0322 31.8846 22.4287 31.8846C20.6804 31.8846 19.5857 32.1739 18.9712 32.4191C18.8748 32.4576 18.7911 32.4982 18.7165 32.5338V40.6452C18.7165 41.3934 18.1084 42 17.3582 42C16.6081 42 16 41.3934 16 40.6452V16.6197C16 16.2605 16.1433 15.9159 16.3979 15.6618C16.4103 15.6494 16.4245 15.6353 16.3997 15.66L16.4015 15.6583L16.4032 15.6547L16.4103 15.6494C16.4147 15.6451 16.4193 15.6402 16.4245 15.6353C16.4348 15.6255 16.4466 15.6138 16.4598 15.6018C16.4861 15.578 16.519 15.5502 16.5571 15.5189C16.6338 15.4559 16.7354 15.3797 16.8631 15.2949C17.1192 15.1246 17.4795 14.9215 17.9631 14.7286C18.9331 14.3416 20.3744 14 22.4287 14C24.6281 14 26.4449 14.7394 28.0049 15.3619C29.6138 16.0038 30.9679 16.5297 32.5713 16.5297C34.3189 16.5297 35.4125 16.2386 36.0271 15.9934C36.3351 15.8705 36.5297 15.7568 36.6301 15.69C36.6806 15.6565 36.7094 15.6344 36.7168 15.6283L36.7133 15.6318C36.7104 15.6344 36.7059 15.6376 36.7009 15.6424L36.6867 15.6565L36.6832 15.6583C37.0717 15.2722 37.6549 15.1578 38.1617 15.3672C38.6691 15.577 39 16.0718 39 16.6197V31.7928C39 32.1519 38.8565 32.4967 38.6021 32.7508L38.5985 32.7543ZM22.4287 16.7097C20.6804 16.7097 19.5857 16.999 18.9712 17.2442C18.8745 17.2828 18.7913 17.325 18.7165 17.3606V29.6459C19.6352 29.377 20.851 29.1749 22.4287 29.1749C24.6281 29.1749 26.4449 29.9126 28.0049 30.535C29.614 31.177 30.9678 31.7029 32.5713 31.7029C34.3187 31.7028 35.4125 31.4135 36.0271 31.1683C36.1243 31.1295 36.2084 31.086 36.2835 31.0502V18.7649C35.3647 19.0339 34.1494 19.2394 32.5713 19.2394C30.3719 19.2394 28.5551 18.5 26.9951 17.8775C25.386 17.2355 24.0323 16.7097 22.4287 16.7097Z" fill="url(#paint2_linear_28159_10361)"/>
<defs>
<linearGradient id="paint0_linear_28159_10361" x1="0" y1="0" x2="56" y2="56" gradientUnits="userSpaceOnUse">
<stop stop-color="#00CE88"/>
<stop offset="1" stop-color="#205C47"/>
</linearGradient>
<linearGradient id="paint1_linear_28159_10361" x1="0" y1="0" x2="56" y2="56" gradientUnits="userSpaceOnUse">
<stop stop-color="#32FBB6"/>
<stop offset="1" stop-color="#205C47"/>
</linearGradient>
<linearGradient id="paint2_linear_28159_10361" x1="4.45107" y1="-2.05246e-07" x2="59.4296" y2="45.3531" gradientUnits="userSpaceOnUse">
<stop stop-color="#32FBB6"/>
<stop offset="1" stop-color="#205C47"/>
</linearGradient>
</defs>
</svg>
