<svg width="56" height="56" viewBox="0 0 56 56" fill="none" xmlns="http://www.w3.org/2000/svg">
<rect x="0.5" y="0.5" width="55" height="55" rx="7.5" fill="url(#paint0_linear_28166_10615)" fill-opacity="0.2" stroke="url(#paint1_linear_28166_10615)"/>
<path d="M39.5762 14C40.6807 14 41.5762 14.8954 41.5762 16V31.9326L41.5664 32.1367C41.4708 33.0782 40.7218 33.8265 39.7803 33.9219L39.5762 33.9326H31.6104V39.627H35.5928C36.145 39.627 36.5927 40.0747 36.5928 40.627V41C36.5928 41.5523 36.1451 42 35.5928 42H21.8135C21.2612 42 20.8135 41.5523 20.8135 41V40.627C20.8136 40.0748 21.2613 39.627 21.8135 39.627H25.7969V33.9326H17L16.7959 33.9219C15.8545 33.8265 15.1064 33.0781 15.0107 32.1367L15 31.9326V16C15 14.8954 15.8954 14 17 14H39.5762ZM28.2969 39.0254H29.1104V34.7715H28.2969V39.0254ZM17.5 31.4326H39.0762V16.5H17.5V31.4326ZM28.5 19C28.7698 19 29.0348 19.0708 29.2686 19.2051L29.2695 19.2061L32.7305 21.1777C32.9188 21.2863 33.0812 21.4335 33.208 21.6084C33.2401 21.6409 33.269 21.6784 33.293 21.7197C33.3133 21.755 33.329 21.7919 33.3408 21.8291C33.4449 22.0396 33.4997 22.2713 33.5 22.5068V26.4531C33.4996 26.7223 33.428 26.9866 33.293 27.2197C33.1579 27.4528 32.9641 27.6466 32.7305 27.7812L32.7275 27.7822L29.2695 29.7539H29.2686C29.1087 29.8458 28.9345 29.9084 28.7539 29.9385C28.678 29.9777 28.5914 30 28.5 30C28.4088 30 28.3229 29.9776 28.2471 29.9385C28.0663 29.9084 27.8914 29.8459 27.7314 29.7539H27.7305L24.2725 27.7822L24.2695 27.7812C24.0359 27.6466 23.8421 27.4528 23.707 27.2197C23.572 26.9866 23.5004 26.7223 23.5 26.4531V22.5068C23.5003 22.271 23.5549 22.0388 23.6592 21.8281C23.671 21.791 23.6877 21.7548 23.708 21.7197C23.7318 21.6787 23.7602 21.6417 23.792 21.6094C23.9188 21.4342 24.0809 21.2864 24.2695 21.1777L24.2725 21.1768L27.7314 19.2051C27.9652 19.0708 28.2302 19 28.5 19ZM24.6025 26.4521C24.6027 26.5283 24.623 26.603 24.6611 26.6689C24.6993 26.7348 24.7544 26.7899 24.8203 26.8281L24.8213 26.8291L27.9482 28.6113V24.8018L24.6025 22.8711V26.4521ZM29.0518 24.8018V28.6113L32.1787 26.8291L32.1797 26.8281C32.2456 26.7899 32.3007 26.7348 32.3389 26.6689C32.377 26.603 32.3973 26.5283 32.3975 26.4521V22.8711L29.0518 24.8018ZM28.5 20.0996C28.4232 20.0996 28.3477 20.1199 28.2812 20.1582L28.2793 20.1592L25.1738 21.9297L28.5 23.8496L31.8262 21.9297L28.7207 20.1592L28.7188 20.1582C28.6523 20.1199 28.5768 20.0996 28.5 20.0996Z" fill="url(#paint2_linear_28166_10615)"/>
<defs>
<linearGradient id="paint0_linear_28166_10615" x1="0" y1="0" x2="56" y2="56" gradientUnits="userSpaceOnUse">
<stop stop-color="#00CE88"/>
<stop offset="1" stop-color="#205C47"/>
</linearGradient>
<linearGradient id="paint1_linear_28166_10615" x1="0" y1="0" x2="56" y2="56" gradientUnits="userSpaceOnUse">
<stop stop-color="#32FBB6"/>
<stop offset="1" stop-color="#205C47"/>
</linearGradient>
<linearGradient id="paint2_linear_28166_10615" x1="1.65537" y1="-2.05246e-07" x2="57.5911" y2="53.3172" gradientUnits="userSpaceOnUse">
<stop stop-color="#32FBB6"/>
<stop offset="1" stop-color="#205C47"/>
</linearGradient>
</defs>
</svg>
