<svg width="56" height="56" viewBox="0 0 56 56" fill="none" xmlns="http://www.w3.org/2000/svg">
<rect x="0.5" y="0.5" width="55" height="55" rx="7.5" fill="url(#paint0_linear_27067_6976)" fill-opacity="0.2" stroke="url(#paint1_linear_27067_6976)"/>
<path d="M41.4143 15.3655C41.357 15.1478 41.2429 14.9492 41.0837 14.79C40.9245 14.6308 40.7259 14.5167 40.5082 14.4593C37.9007 13.7821 35.1549 13.855 32.5871 14.6698C30.0193 15.4845 27.7337 17.0079 25.9937 19.0646L24.5765 20.7473L21.2656 19.9484C20.4606 19.6678 19.5813 19.6879 18.7901 20.005C17.9988 20.3222 17.349 20.9149 16.9607 21.6738L14.1641 26.6309C14.0661 26.8045 14.0103 26.9988 14.0013 27.1979C13.9923 27.3971 14.0302 27.5956 14.1121 27.7774C14.194 27.9592 14.3174 28.1192 14.4726 28.2444C14.6277 28.3697 14.8101 28.4567 15.0051 28.4984L18.9108 29.3356C18.58 30.3428 18.3437 31.3786 18.2051 32.4296C18.18 32.6227 18.1996 32.8189 18.2623 33.0033C18.3251 33.1876 18.4293 33.3551 18.567 33.4927L22.5075 37.4332C22.6255 37.5513 22.7656 37.645 22.9197 37.7089C23.0739 37.7728 23.2392 37.8057 23.4061 37.8057C23.4428 37.8057 23.4794 37.8038 23.5166 37.8007C24.5911 37.7041 25.6526 37.4954 26.6836 37.1779L27.5018 40.9952C27.5436 41.1901 27.6307 41.3724 27.7559 41.5275C27.8812 41.6826 28.0412 41.806 28.2229 41.8879C28.4047 41.9697 28.6032 42.0077 28.8023 41.9987C29.0014 41.9897 29.1957 41.934 29.3693 41.8362L34.3333 39.0364C35.0319 38.6119 35.5777 37.9764 35.8918 37.2217C36.2059 36.467 36.2722 35.6319 36.081 34.8371L35.2311 31.3302L36.8035 29.8843C38.8678 28.1491 40.3971 25.8634 41.2133 23.2932C42.0296 20.723 42.0993 17.9738 41.4143 15.3655V15.3655ZM17.227 26.3746L19.205 22.8667C19.3279 22.6285 19.5372 22.4464 19.79 22.3576C20.0429 22.2689 20.3201 22.2802 20.5648 22.3894L22.7478 22.9184L21.9216 23.8994C21.1383 24.8382 20.4608 25.8605 19.9015 26.9476L17.227 26.3746ZM33.0778 36.8257L29.6257 38.7726L29.0798 36.2245C30.1864 35.6726 31.2174 34.9806 32.1474 34.1655L33.0925 33.2965L33.6053 35.4124C33.6718 35.6737 33.6569 35.949 33.5627 36.2016C33.4684 36.4541 33.2992 36.6719 33.0778 36.8257V36.8257ZM35.1296 27.9721L30.4462 32.2763C28.5924 33.8795 26.3058 34.8986 23.8742 35.2052L20.8181 32.1491C21.2285 29.7111 22.282 27.4268 23.8698 25.5318L26.0031 22.9989C26.0387 22.9618 26.0718 22.9224 26.1024 22.881L27.9264 20.7155C29.275 19.1227 31.0221 17.9163 32.9894 17.2195C34.9567 16.5228 37.0737 16.3606 39.1241 16.7495C39.5225 18.8064 39.362 20.9325 38.6595 22.9063C37.9569 24.8802 36.738 26.6295 35.1296 27.9721V27.9721ZM33.9564 20.1374C33.5793 20.1374 33.2107 20.2493 32.8971 20.4588C32.5836 20.6683 32.3392 20.9661 32.1949 21.3144C32.0506 21.6628 32.0128 22.0462 32.0864 22.416C32.16 22.7859 32.3416 23.1256 32.6082 23.3923C32.8749 23.6589 33.2146 23.8405 33.5844 23.9141C33.9543 23.9877 34.3377 23.9499 34.6861 23.8056C35.0344 23.6613 35.3322 23.4169 35.5417 23.1034C35.7512 22.7898 35.863 22.4212 35.863 22.0441C35.8631 21.7937 35.8138 21.5457 35.7179 21.3144C35.6221 21.0831 35.4817 20.8729 35.3046 20.6958C35.1276 20.5188 34.9174 20.3783 34.686 20.2825C34.4547 20.1867 34.2068 20.1374 33.9564 20.1374L33.9564 20.1374Z" fill="url(#paint2_linear_27067_6976)"/>
<defs>
<linearGradient id="paint0_linear_27067_6976" x1="0" y1="0" x2="56" y2="56" gradientUnits="userSpaceOnUse">
<stop stop-color="#00CE88"/>
<stop offset="1" stop-color="#205C47"/>
</linearGradient>
<linearGradient id="paint1_linear_27067_6976" x1="0" y1="0" x2="56" y2="56" gradientUnits="userSpaceOnUse">
<stop stop-color="#32FBB6"/>
<stop offset="1" stop-color="#205C47"/>
</linearGradient>
<linearGradient id="paint2_linear_27067_6976" x1="2.05246e-07" y1="-2.05246e-07" x2="56" y2="56" gradientUnits="userSpaceOnUse">
<stop stop-color="#32FBB6"/>
<stop offset="1" stop-color="#205C47"/>
</linearGradient>
</defs>
</svg>
