<svg width="56" height="56" viewBox="0 0 56 56" fill="none" xmlns="http://www.w3.org/2000/svg">
<rect x="0.5" y="0.5" width="55" height="55" rx="7.5" fill="url(#paint0_linear_27067_6999)" fill-opacity="0.2" stroke="url(#paint1_linear_27067_6999)"/>
<path fill-rule="evenodd" clip-rule="evenodd" d="M36.5022 14.8836C34.7741 14.1016 32.8487 13.8648 30.9826 14.2049C29.1166 14.5449 27.3984 15.4455 26.0572 16.7867C24.7159 18.128 23.8153 19.8461 23.4753 21.7122C23.1917 23.2685 23.3093 24.8659 23.8097 26.3558L15.2148 34.9508C14.4345 35.7311 13.9961 36.7894 13.9961 37.8929C13.9961 38.9964 14.4345 40.0548 15.2148 40.835C15.9951 41.6153 17.0534 42.0537 18.1569 42.0537C19.2604 42.0537 20.3187 41.6153 21.099 40.835L29.694 32.2401C31.1839 32.7405 32.7813 32.8581 34.3376 32.5745C36.2037 32.2345 37.9218 31.3339 39.2631 29.9927C40.6043 28.6514 41.505 26.9333 41.845 25.0672C42.185 23.2011 41.9482 21.2757 41.1662 19.5476C40.9858 19.1489 40.6212 18.8642 40.1907 18.7857C39.7602 18.7073 39.3186 18.8451 39.0091 19.1546L33.9931 24.1706L31.8792 22.0567L36.8953 17.0407C37.2047 16.7312 37.3425 16.2897 37.2641 15.8591C37.1857 15.4286 36.9009 15.064 36.5022 14.8836ZM31.4605 16.8277C32.1053 16.7102 32.7599 16.6892 33.4037 16.7619L29.9846 20.181L29.9752 20.1905C29.4867 20.6888 29.2131 21.3588 29.2131 22.0567C29.2131 22.7545 29.4867 23.4245 29.9752 23.9229L29.9846 23.9324L32.1174 26.0652L32.1269 26.0746C32.6253 26.5631 33.2953 26.8367 33.9931 26.8367C34.691 26.8367 35.361 26.5631 35.8594 26.0746L35.8688 26.0652L39.2879 22.6461C39.3607 23.2899 39.3396 23.9446 39.2221 24.5893C38.9792 25.9222 38.3359 27.1494 37.3779 28.1075C36.4199 29.0655 35.1926 29.7088 33.8597 29.9517C32.5268 30.1945 31.1515 30.0254 29.9171 29.4668C29.4116 29.2381 28.8173 29.3464 28.425 29.7387L19.2138 38.9499C18.9335 39.2302 18.5533 39.3877 18.1569 39.3877C17.7604 39.3877 17.3802 39.2302 17.0999 38.9499C16.8196 38.6696 16.6621 38.2894 16.6621 37.8929C16.6621 37.4965 16.8196 37.1163 17.0999 36.836L26.3111 27.6248C26.7034 27.2325 26.8117 26.6382 26.583 26.1327C26.0244 24.8983 25.8553 23.523 26.0981 22.1901C26.341 20.8572 26.9843 19.6299 27.9423 18.6719C28.9004 17.7139 30.1276 17.0706 31.4605 16.8277Z" fill="url(#paint2_linear_27067_6999)"/>
<defs>
<linearGradient id="paint0_linear_27067_6999" x1="0" y1="0" x2="56" y2="56" gradientUnits="userSpaceOnUse">
<stop stop-color="#00CE88"/>
<stop offset="1" stop-color="#205C47"/>
</linearGradient>
<linearGradient id="paint1_linear_27067_6999" x1="0" y1="0" x2="56" y2="56" gradientUnits="userSpaceOnUse">
<stop stop-color="#32FBB6"/>
<stop offset="1" stop-color="#205C47"/>
</linearGradient>
<linearGradient id="paint2_linear_27067_6999" x1="-0.0634799" y1="0.0537107" x2="55.936" y2="56.2915" gradientUnits="userSpaceOnUse">
<stop stop-color="#32FBB6"/>
<stop offset="1" stop-color="#205C47"/>
</linearGradient>
</defs>
</svg>
