<svg width="56" height="56" viewBox="0 0 56 56" fill="none" xmlns="http://www.w3.org/2000/svg">
<rect x="0.5" y="0.5" width="55" height="55" rx="7.5" fill="url(#paint0_linear_28159_9983)" fill-opacity="0.2" stroke="url(#paint1_linear_28159_9983)"/>
<path d="M27.5 14C28.0017 14 28.4605 14.2877 28.6825 14.7423L32.4481 22.4537L40.8717 23.6974C41.3679 23.7706 41.7809 24.1225 41.9358 24.6045C42.0905 25.0867 41.9605 25.6175 41.6011 25.9712L35.5065 31.969L36.9448 40.4435C37.0293 40.943 36.827 41.4482 36.4213 41.7461C36.0154 42.0441 35.4769 42.0826 35.0328 41.8467L27.5 37.8419L19.9672 41.8467C19.5231 42.0826 18.9846 42.0441 18.5787 41.7461C18.173 41.4482 17.9707 40.943 18.0552 40.4435L19.4917 31.969L13.3989 25.9712C13.0395 25.6175 12.9095 25.0867 13.0642 24.6045C13.2191 24.1225 13.6321 23.7706 14.1283 23.6974L22.5502 22.4537L26.3175 14.7423L26.4119 14.5793C26.6552 14.2199 27.0612 14 27.5 14ZM24.6098 24.2611C24.4179 24.6537 24.0465 24.9262 23.6177 24.9895L17.1507 25.9435L21.8293 30.5485C22.1401 30.8543 22.2818 31.2958 22.2086 31.7279L21.1034 38.2321L26.8873 35.1604L27.0332 35.0927C27.3835 34.9586 27.7766 34.9819 28.1127 35.1604L33.8949 38.2321L32.7914 31.7279C32.7182 31.2958 32.8599 30.8543 33.1707 30.5485L37.8476 25.9435L31.3823 24.9895C30.9535 24.9262 30.5821 24.6537 30.3902 24.2611L27.5 18.3431L24.6098 24.2611Z" fill="url(#paint2_linear_28159_9983)"/>
<defs>
<linearGradient id="paint0_linear_28159_9983" x1="0" y1="0" x2="56" y2="56" gradientUnits="userSpaceOnUse">
<stop stop-color="#00CE88"/>
<stop offset="1" stop-color="#205C47"/>
</linearGradient>
<linearGradient id="paint1_linear_28159_9983" x1="0" y1="0" x2="56" y2="56" gradientUnits="userSpaceOnUse">
<stop stop-color="#32FBB6"/>
<stop offset="1" stop-color="#205C47"/>
</linearGradient>
<linearGradient id="paint2_linear_28159_9983" x1="-1.5617" y1="-2.05246e-07" x2="54.395" y2="58.2018" gradientUnits="userSpaceOnUse">
<stop stop-color="#32FBB6"/>
<stop offset="1" stop-color="#205C47"/>
</linearGradient>
</defs>
</svg>
