<svg width="56" height="56" viewBox="0 0 56 56" fill="none" xmlns="http://www.w3.org/2000/svg">
<rect x="0.5" y="0.5" width="55" height="55" rx="7.5" fill="url(#paint0_linear_28166_10589)" fill-opacity="0.2" stroke="url(#paint1_linear_28166_10589)"/>
<path d="M39.6923 12C40.372 12 40.9231 12.551 40.9231 13.2308C40.9231 13.9105 40.372 14.4615 39.6923 14.4615C39.2281 14.4615 38.825 14.204 38.6154 13.8245C38.566 13.8373 38.5149 13.8462 38.4615 13.8462H34.7692V15.6923H40.3077V21.2308H42.1538V17.5385C42.1538 17.4851 42.1627 17.434 42.1755 17.3846C41.796 17.175 41.5385 16.7719 41.5385 16.3077C41.5385 15.628 42.0895 15.0769 42.7692 15.0769C43.449 15.0769 44 15.628 44 16.3077C44 16.7715 43.7431 17.1748 43.3642 17.3846C43.3769 17.4339 43.3846 17.4852 43.3846 17.5385V21.8462C43.3846 22.186 43.1091 22.4615 42.7692 22.4615H40.3077V33.5385H42.7692C43.1091 33.5385 43.3846 33.814 43.3846 34.1538V38.4615C43.3846 38.5148 43.3769 38.5661 43.3642 38.6154C43.7431 38.8252 44 39.2285 44 39.6923C44 40.372 43.449 40.9231 42.7692 40.9231C42.0895 40.9231 41.5385 40.372 41.5385 39.6923C41.5385 39.2281 41.796 38.825 42.1755 38.6154C42.1627 38.566 42.1538 38.5149 42.1538 38.4615V34.7692H40.3077V40.3077H34.7692V42.1538H38.4615C38.5149 42.1538 38.566 42.1627 38.6154 42.1755C38.825 41.796 39.2281 41.5385 39.6923 41.5385C40.372 41.5385 40.9231 42.0895 40.9231 42.7692C40.9231 43.449 40.372 44 39.6923 44C39.2285 44 38.8252 43.7431 38.6154 43.3642C38.5661 43.3769 38.5148 43.3846 38.4615 43.3846H34.1538C33.814 43.3846 33.5385 43.1091 33.5385 42.7692V40.3077H21.2308V42.7692C21.2308 43.1091 20.9553 43.3846 20.6154 43.3846H16.3077C16.2545 43.3846 16.2031 43.3769 16.1538 43.3642C15.9441 43.7431 15.5407 44 15.0769 44C14.3972 44 13.8462 43.449 13.8462 42.7692C13.8462 42.0895 14.3972 41.5385 15.0769 41.5385C15.5411 41.5385 15.9442 41.796 16.1538 42.1755C16.2032 42.1627 16.2544 42.1538 16.3077 42.1538H20V40.3077H15.6923V34.7692H13.8462V38.4615C13.8462 38.5149 13.8373 38.566 13.8245 38.6154C14.204 38.825 14.4615 39.2281 14.4615 39.6923C14.4615 40.372 13.9105 40.9231 13.2308 40.9231C12.551 40.9231 12 40.372 12 39.6923C12 39.2285 12.2569 38.8252 12.6358 38.6154C12.6231 38.5661 12.6154 38.5148 12.6154 38.4615V34.1538C12.6154 33.814 12.8909 33.5385 13.2308 33.5385H15.6923V22.4615H13.2308C12.8909 22.4615 12.6154 22.186 12.6154 21.8462V17.5385C12.6154 17.4852 12.6231 17.4339 12.6358 17.3846C12.2569 17.1748 12 16.7715 12 16.3077C12 15.628 12.551 15.0769 13.2308 15.0769C13.9105 15.0769 14.4615 15.628 14.4615 16.3077C14.4615 16.7719 14.204 17.175 13.8245 17.3846C13.8373 17.434 13.8462 17.4851 13.8462 17.5385V21.2308H15.6923V15.6923H21.2308V13.8462H17.5385C17.4851 13.8462 17.434 13.8373 17.3846 13.8245C17.175 14.204 16.7719 14.4615 16.3077 14.4615C15.628 14.4615 15.0769 13.9105 15.0769 13.2308C15.0769 12.551 15.628 12 16.3077 12C16.7715 12 17.1748 12.2569 17.3846 12.6358C17.4339 12.6231 17.4852 12.6154 17.5385 12.6154H21.8462C22.186 12.6154 22.4615 12.8909 22.4615 13.2308V15.6923H33.5385V13.2308C33.5385 12.8909 33.814 12.6154 34.1538 12.6154H38.4615C38.5148 12.6154 38.5661 12.6231 38.6154 12.6358C38.8252 12.2569 39.2285 12 39.6923 12ZM15.0769 42.1538C14.7371 42.1538 14.4615 42.4294 14.4615 42.7692C14.4615 43.1091 14.7371 43.3846 15.0769 43.3846C15.4168 43.3846 15.6923 43.1091 15.6923 42.7692C15.6923 42.4294 15.4168 42.1538 15.0769 42.1538ZM39.6923 42.1538C39.3524 42.1538 39.0769 42.4294 39.0769 42.7692C39.0769 43.1091 39.3524 43.3846 39.6923 43.3846C40.0322 43.3846 40.3077 43.1091 40.3077 42.7692C40.3077 42.4294 40.0322 42.1538 39.6923 42.1538ZM13.2308 39.0769C12.8909 39.0769 12.6154 39.3524 12.6154 39.6923C12.6154 40.0322 12.8909 40.3077 13.2308 40.3077C13.5706 40.3077 13.8462 40.0322 13.8462 39.6923C13.8462 39.3524 13.5706 39.0769 13.2308 39.0769ZM42.7692 39.0769C42.4294 39.0769 42.1538 39.3524 42.1538 39.6923C42.1538 40.0322 42.4294 40.3077 42.7692 40.3077C43.1091 40.3077 43.3846 40.0322 43.3846 39.6923C43.3846 39.3524 43.1091 39.0769 42.7692 39.0769ZM17.5385 38.4615H38.4615V17.5385H17.5385V38.4615ZM28 20.9231C29.0609 20.9231 30.078 21.3448 30.8281 22.095C31.5783 22.8451 32 23.8622 32 24.9231V26.4615H32.3077C33.4972 26.4615 34.4615 27.4258 34.4615 28.6154V32.9231C34.4615 34.1126 33.4972 35.0769 32.3077 35.0769H23.6923C22.5028 35.0769 21.5385 34.1126 21.5385 32.9231V28.6154C21.5385 27.4258 22.5028 26.4615 23.6923 26.4615H24V24.9231C24 23.8622 24.4217 22.8451 25.1719 22.095C25.922 21.3448 26.9391 20.9231 28 20.9231ZM23.6923 28.3077C23.5224 28.3077 23.3846 28.4455 23.3846 28.6154V32.9231C23.3846 33.093 23.5224 33.2308 23.6923 33.2308H32.3077C32.4776 33.2308 32.6154 33.093 32.6154 32.9231V28.6154C32.6154 28.4455 32.4776 28.3077 32.3077 28.3077H23.6923ZM28 22.7692C27.4288 22.7692 26.8811 22.9963 26.4772 23.4002C26.0732 23.8042 25.8462 24.3518 25.8462 24.9231V26.4615H30.1538V24.9231C30.1538 24.3518 29.9268 23.8042 29.5228 23.4002C29.1189 22.9963 28.5712 22.7692 28 22.7692ZM13.2308 15.6923C12.8909 15.6923 12.6154 15.9678 12.6154 16.3077C12.6154 16.6476 12.8909 16.9231 13.2308 16.9231C13.5706 16.9231 13.8462 16.6476 13.8462 16.3077C13.8462 15.9678 13.5706 15.6923 13.2308 15.6923ZM42.7692 15.6923C42.4294 15.6923 42.1538 15.9678 42.1538 16.3077C42.1538 16.6476 42.4294 16.9231 42.7692 16.9231C43.1091 16.9231 43.3846 16.6476 43.3846 16.3077C43.3846 15.9678 43.1091 15.6923 42.7692 15.6923ZM16.3077 12.6154C15.9678 12.6154 15.6923 12.8909 15.6923 13.2308C15.6923 13.5706 15.9678 13.8462 16.3077 13.8462C16.6476 13.8462 16.9231 13.5706 16.9231 13.2308C16.9231 12.8909 16.6476 12.6154 16.3077 12.6154ZM39.6923 12.6154C39.3524 12.6154 39.0769 12.8909 39.0769 13.2308C39.0769 13.5706 39.3524 13.8462 39.6923 13.8462C40.0322 13.8462 40.3077 13.5706 40.3077 13.2308C40.3077 12.8909 40.0322 12.6154 39.6923 12.6154Z" fill="url(#paint2_linear_28166_10589)"/>
<defs>
<linearGradient id="paint0_linear_28166_10589" x1="0" y1="0" x2="56" y2="56" gradientUnits="userSpaceOnUse">
<stop stop-color="#00CE88"/>
<stop offset="1" stop-color="#205C47"/>
</linearGradient>
<linearGradient id="paint1_linear_28166_10589" x1="0" y1="0" x2="56" y2="56" gradientUnits="userSpaceOnUse">
<stop stop-color="#32FBB6"/>
<stop offset="1" stop-color="#205C47"/>
</linearGradient>
<linearGradient id="paint2_linear_28166_10589" x1="-4.06808" y1="-4" x2="59.9313" y2="60.2718" gradientUnits="userSpaceOnUse">
<stop stop-color="#32FBB6"/>
<stop offset="1" stop-color="#205C47"/>
</linearGradient>
</defs>
</svg>
