<svg width="56" height="56" viewBox="0 0 56 56" fill="none" xmlns="http://www.w3.org/2000/svg">
<rect x="0.5" y="0.5" width="55" height="55" rx="7.5" fill="url(#paint0_linear_27067_7003)" fill-opacity="0.2" stroke="url(#paint1_linear_27067_7003)"/>
<path d="M35.6623 37.387H19.6623C18.6014 37.387 17.584 36.9656 16.8338 36.2155C16.0837 35.4653 15.6623 34.4479 15.6623 33.387V22.7204C15.6623 22.3668 15.5218 22.0276 15.2717 21.7776C15.0217 21.5275 14.6826 21.387 14.3289 21.387C13.9753 21.387 13.6362 21.5275 13.3861 21.7776C13.1361 22.0276 12.9956 22.3668 12.9956 22.7204V33.387C12.9956 35.1552 13.698 36.8508 14.9482 38.1011C15.5673 38.7201 16.3022 39.2112 17.111 39.5462C17.9199 39.8813 18.7868 40.0537 19.6623 40.0537H35.6623C36.0159 40.0537 36.355 39.9132 36.6051 39.6632C36.8551 39.4131 36.9956 39.074 36.9956 38.7204C36.9956 38.3668 36.8551 38.0276 36.6051 37.7776C36.355 37.5275 36.0159 37.387 35.6623 37.387ZM30.3289 26.7204H24.9956C24.642 26.7204 24.3028 26.8609 24.0528 27.1109C23.8027 27.361 23.6623 27.7001 23.6623 28.0537C23.6623 28.4073 23.8027 28.7465 24.0528 28.9965C24.3028 29.2466 24.642 29.387 24.9956 29.387H30.3289C30.6826 29.387 31.0217 29.2466 31.2717 28.9965C31.5218 28.7465 31.6623 28.4073 31.6623 28.0537C31.6623 27.7001 31.5218 27.361 31.2717 27.1109C31.0217 26.8609 30.6826 26.7204 30.3289 26.7204ZM42.3289 25.307C42.3151 25.1846 42.2882 25.0639 42.2489 24.947V24.827C42.1848 24.69 42.0993 24.5639 41.9956 24.4537V24.4537L33.9956 16.4537C33.8854 16.35 33.7594 16.2645 33.6223 16.2004H33.5023C33.3668 16.1227 33.2172 16.0728 33.0623 16.0537H22.3289C21.2681 16.0537 20.2507 16.4751 19.5005 17.2253C18.7504 17.9754 18.3289 18.9928 18.3289 20.0537V30.7204C18.3289 31.7812 18.7504 32.7987 19.5005 33.5488C20.2507 34.299 21.2681 34.7204 22.3289 34.7204H38.3289C39.3898 34.7204 40.4072 34.299 41.1574 33.5488C41.9075 32.7987 42.3289 31.7812 42.3289 30.7204V25.387C42.3289 25.387 42.3289 25.387 42.3289 25.307ZM34.3289 20.6004L37.7823 24.0537H35.6623C35.3087 24.0537 34.9695 23.9132 34.7195 23.6632C34.4694 23.4131 34.3289 23.074 34.3289 22.7204V20.6004ZM39.6623 30.7204C39.6623 31.074 39.5218 31.4131 39.2717 31.6632C39.0217 31.9132 38.6826 32.0537 38.3289 32.0537H22.3289C21.9753 32.0537 21.6362 31.9132 21.3861 31.6632C21.1361 31.4131 20.9956 31.074 20.9956 30.7204V20.0537C20.9956 19.7001 21.1361 19.361 21.3861 19.1109C21.6362 18.8609 21.9753 18.7204 22.3289 18.7204H31.6623V22.7204C31.6623 23.7812 32.0837 24.7987 32.8338 25.5488C33.584 26.299 34.6014 26.7204 35.6623 26.7204H39.6623V30.7204ZM24.9956 24.0537H27.6623C28.0159 24.0537 28.355 23.9132 28.6051 23.6632C28.8551 23.4131 28.9956 23.074 28.9956 22.7204C28.9956 22.3668 28.8551 22.0276 28.6051 21.7776C28.355 21.5275 28.0159 21.387 27.6623 21.387H24.9956C24.642 21.387 24.3028 21.5275 24.0528 21.7776C23.8027 22.0276 23.6623 22.3668 23.6623 22.7204C23.6623 23.074 23.8027 23.4131 24.0528 23.6632C24.3028 23.9132 24.642 24.0537 24.9956 24.0537V24.0537Z" fill="url(#paint2_linear_27067_7003)"/>
<defs>
<linearGradient id="paint0_linear_27067_7003" x1="0" y1="0" x2="56" y2="56" gradientUnits="userSpaceOnUse">
<stop stop-color="#00CE88"/>
<stop offset="1" stop-color="#205C47"/>
</linearGradient>
<linearGradient id="paint1_linear_27067_7003" x1="0" y1="0" x2="56" y2="56" gradientUnits="userSpaceOnUse">
<stop stop-color="#32FBB6"/>
<stop offset="1" stop-color="#205C47"/>
</linearGradient>
<linearGradient id="paint2_linear_27067_7003" x1="-1.73347" y1="4.05371" x2="45.2761" y2="61.7543" gradientUnits="userSpaceOnUse">
<stop stop-color="#32FBB6"/>
<stop offset="1" stop-color="#205C47"/>
</linearGradient>
</defs>
</svg>
