<svg width="33" height="32" viewBox="0 0 33 32" fill="none" xmlns="http://www.w3.org/2000/svg">
<path fill-rule="evenodd" clip-rule="evenodd" d="M21.8768 5.78603C20.3251 5.12065 18.6261 4.7138 17.0717 4.45793C14.2979 4.00133 11.7145 3.98529 10.6009 4.00495C9.18907 4.02988 8.7128 5.68582 9.58008 6.55311L15.3449 12.3179L6.13573 21.5271C4.62142 23.0414 4.62142 25.4966 6.13574 27.0109C7.65005 28.5252 10.1052 28.5252 11.6195 27.0109L20.8287 17.8017L26.7198 23.6928C27.5912 24.5642 29.2641 24.0777 29.268 22.6502C29.2713 21.4947 29.2135 18.7857 28.6783 15.8985C28.4014 14.4051 27.9838 12.787 27.3374 11.293L27.3996 11.2308C27.7902 10.8403 27.7902 10.2071 27.3996 9.81658L23.33 5.74698C22.9395 5.35645 22.3064 5.35645 21.9158 5.74697L21.8768 5.78603ZM19.9424 7.72038C18.9213 7.37175 17.8033 7.112 16.6657 6.92474C15.3956 6.71567 14.1618 6.60611 13.1135 6.55102L17.1127 10.5502L19.9424 7.72038ZM17.1127 14.0857L7.9035 23.2948C7.3655 23.8328 7.3655 24.7051 7.9035 25.2431C8.44151 25.7811 9.31378 25.7811 9.85178 25.2431L19.0609 16.034L17.1127 14.0857ZM20.8287 14.2662L18.8804 12.3179L22.3479 8.85043C22.6864 9.07121 22.9949 9.31084 23.2673 9.57059C23.6385 9.92457 23.9737 10.3456 24.2757 10.8192L20.8287 14.2662ZM22.5965 16.034L26.6827 20.1202C26.6076 19.0116 26.4697 17.7 26.2202 16.3542C26.0188 15.268 25.7523 14.203 25.408 13.2225L22.5965 16.034Z" fill="url(#paint0_linear_27067_7010)"/>
<defs>
<linearGradient id="paint0_linear_27067_7010" x1="-7.56745" y1="-7.21111" x2="40.7276" y2="40.8934" gradientUnits="userSpaceOnUse">
<stop stop-color="#FEF8C3"/>
<stop offset="1" stop-color="#676135"/>
</linearGradient>
</defs>
</svg>
