<svg width="56" height="56" viewBox="0 0 56 56" fill="none" xmlns="http://www.w3.org/2000/svg">
<rect x="0.5" y="0.5" width="55" height="55" rx="7.5" fill="url(#paint0_linear_28159_10016)" fill-opacity="0.2" stroke="url(#paint1_linear_28159_10016)"/>
<path fill-rule="evenodd" clip-rule="evenodd" d="M38.1818 42C36.0731 42 34.3636 40.2905 34.3636 38.1818C34.3636 36.5194 35.4261 35.1051 36.9091 34.5809V28H29.2727V34.5809C30.7557 35.1051 31.8182 36.5194 31.8182 38.1818C31.8182 40.2905 30.1087 42 28 42C25.8913 42 24.1818 40.2905 24.1818 38.1818C24.1818 36.5194 25.2443 35.1051 26.7273 34.5809V28H19.0909V34.5809C20.5739 35.1051 21.6364 36.5194 21.6364 38.1818C21.6364 40.2905 19.9269 42 17.8182 42C15.7095 42 14 40.2905 14 38.1818C14 36.5194 15.0625 35.1051 16.5455 34.5809V28C16.5455 26.5942 17.6851 25.4545 19.0909 25.4545H26.7273V21.4191C25.2443 20.8949 24.1818 19.4806 24.1818 17.8182C24.1818 15.7095 25.8913 14 28 14C30.1087 14 31.8182 15.7095 31.8182 17.8182C31.8182 19.4806 30.7557 20.8949 29.2727 21.4191V25.4545H36.9091C38.3149 25.4545 39.4545 26.5942 39.4545 28V34.5809C40.9375 35.1051 42 36.5194 42 38.1818C42 40.2905 40.2905 42 38.1818 42ZM38.1818 39.4545C37.4789 39.4545 36.9091 38.8847 36.9091 38.1818C36.9091 37.4789 37.4789 36.9091 38.1818 36.9091C38.8847 36.9091 39.4545 37.4789 39.4545 38.1818C39.4545 38.8847 38.8847 39.4545 38.1818 39.4545ZM26.7273 17.8182C26.7273 18.5211 27.2971 19.0909 28 19.0909C28.7029 19.0909 29.2727 18.5211 29.2727 17.8182C29.2727 17.1153 28.7029 16.5455 28 16.5455C27.2971 16.5455 26.7273 17.1153 26.7273 17.8182ZM26.7273 38.1818C26.7273 38.8847 27.2971 39.4545 28 39.4545C28.7029 39.4545 29.2727 38.8847 29.2727 38.1818C29.2727 37.4789 28.7029 36.9091 28 36.9091C27.2971 36.9091 26.7273 37.4789 26.7273 38.1818ZM16.5455 38.1818C16.5455 38.8847 17.1153 39.4545 17.8182 39.4545C18.5211 39.4545 19.0909 38.8847 19.0909 38.1818C19.0909 37.4789 18.5211 36.9091 17.8182 36.9091C17.1153 36.9091 16.5455 37.4789 16.5455 38.1818Z" fill="url(#paint2_linear_28159_10016)"/>
<defs>
<linearGradient id="paint0_linear_28159_10016" x1="0" y1="0" x2="56" y2="56" gradientUnits="userSpaceOnUse">
<stop stop-color="#00CE88"/>
<stop offset="1" stop-color="#205C47"/>
</linearGradient>
<linearGradient id="paint1_linear_28159_10016" x1="0" y1="0" x2="56" y2="56" gradientUnits="userSpaceOnUse">
<stop stop-color="#32FBB6"/>
<stop offset="1" stop-color="#205C47"/>
</linearGradient>
<linearGradient id="paint2_linear_28159_10016" x1="-0.0595727" y1="-2.05246e-07" x2="55.9399" y2="56.2378" gradientUnits="userSpaceOnUse">
<stop stop-color="#32FBB6"/>
<stop offset="1" stop-color="#205C47"/>
</linearGradient>
</defs>
</svg>
