<svg width="32" height="32" viewBox="0 0 32 32" fill="none" xmlns="http://www.w3.org/2000/svg">
<path fill-rule="evenodd" clip-rule="evenodd" d="M16.3157 4.00024C14.0194 4.00024 12.1733 5.87626 12.1733 8.17128C12.1733 10.4663 14.0194 12.3423 16.3157 12.3423C18.612 12.3423 20.4581 10.4663 20.4581 8.17128C20.4581 5.87626 18.612 4.00024 16.3157 4.00024ZM14.1733 8.17128C14.1733 6.96367 15.1411 6.00024 16.3157 6.00024C17.4904 6.00024 18.4581 6.96367 18.4581 8.17128C18.4581 9.37889 17.4904 10.3423 16.3157 10.3423C15.1411 10.3423 14.1733 9.37889 14.1733 8.17128Z" fill="url(#paint0_linear_27067_7009)"/>
<path d="M22.4274 8.77906C21.9752 8.46194 21.3516 8.57141 21.0345 9.02358C20.7174 9.47574 20.8268 10.0994 21.279 10.4165C23.3097 11.8407 24.7115 14.1055 24.9962 16.721C25.0559 17.2701 25.5494 17.6667 26.0985 17.607C26.6475 17.5472 27.0442 17.0537 26.9844 16.5047C26.636 13.3028 24.9181 10.5259 22.4274 8.77906Z" fill="url(#paint1_linear_27067_7009)"/>
<path d="M11.2783 10.4684C11.7279 10.1477 11.8323 9.52316 11.5115 9.07358C11.1908 8.62401 10.5663 8.5196 10.1167 8.84038C7.65093 10.5997 5.95707 13.3772 5.63335 16.5685C5.57761 17.118 5.97786 17.6086 6.52733 17.6644C7.07679 17.7201 7.5674 17.3198 7.62314 16.7704C7.8872 14.1672 9.2679 11.9029 11.2783 10.4684Z" fill="url(#paint2_linear_27067_7009)"/>
<path d="M11.0503 25.9882C11.3025 25.4969 11.9052 25.303 12.3966 25.5552C13.5681 26.1565 14.9038 26.4942 16.3144 26.4942C17.6759 26.4942 18.9494 26.1872 20.0898 25.6271C20.5855 25.3836 21.1847 25.5881 21.4282 26.0838C21.6717 26.5795 21.4672 27.1788 20.9715 27.4223C19.5573 28.1169 17.9822 28.4942 16.3144 28.4942C14.5826 28.4942 12.9342 28.0792 11.4833 27.3345C10.992 27.0823 10.7981 26.4796 11.0503 25.9882Z" fill="url(#paint3_linear_27067_7009)"/>
<path fill-rule="evenodd" clip-rule="evenodd" d="M4.00024 22.1102C4.00024 19.8152 5.84631 17.9392 8.14262 17.9392C10.4389 17.9392 12.285 19.8152 12.285 22.1102C12.285 24.4053 10.4389 26.2813 8.14262 26.2813C5.84631 26.2813 4.00024 24.4053 4.00024 22.1102ZM8.14262 19.9392C6.96796 19.9392 6.00024 20.9026 6.00024 22.1102C6.00024 23.3178 6.96796 24.2813 8.14262 24.2813C9.31729 24.2813 10.285 23.3178 10.285 22.1102C10.285 20.9026 9.31729 19.9392 8.14262 19.9392Z" fill="url(#paint4_linear_27067_7009)"/>
<path fill-rule="evenodd" clip-rule="evenodd" d="M24.3517 17.9392C22.0553 17.9392 20.2093 19.8152 20.2093 22.1102C20.2093 24.4053 22.0553 26.2813 24.3517 26.2813C26.648 26.2813 28.494 24.4053 28.494 22.1102C28.494 19.8152 26.648 17.9392 24.3517 17.9392ZM22.2093 22.1102C22.2093 20.9026 23.177 19.9392 24.3517 19.9392C25.5263 19.9392 26.494 20.9026 26.494 22.1102C26.494 23.3178 25.5263 24.2813 24.3517 24.2813C23.177 24.2813 22.2093 23.3178 22.2093 22.1102Z" fill="url(#paint5_linear_27067_7009)"/>
<defs>
<linearGradient id="paint0_linear_27067_7009" x1="-6.20552" y1="-6.61395" x2="39.1089" y2="38.6996" gradientUnits="userSpaceOnUse">
<stop stop-color="#65F6FF"/>
<stop offset="1" stop-color="#428392"/>
</linearGradient>
<linearGradient id="paint1_linear_27067_7009" x1="-6.20552" y1="-6.61395" x2="39.1089" y2="38.6996" gradientUnits="userSpaceOnUse">
<stop stop-color="#65F6FF"/>
<stop offset="1" stop-color="#428392"/>
</linearGradient>
<linearGradient id="paint2_linear_27067_7009" x1="-6.20552" y1="-6.61395" x2="39.1089" y2="38.6996" gradientUnits="userSpaceOnUse">
<stop stop-color="#65F6FF"/>
<stop offset="1" stop-color="#428392"/>
</linearGradient>
<linearGradient id="paint3_linear_27067_7009" x1="-6.20552" y1="-6.61395" x2="39.1089" y2="38.6996" gradientUnits="userSpaceOnUse">
<stop stop-color="#65F6FF"/>
<stop offset="1" stop-color="#428392"/>
</linearGradient>
<linearGradient id="paint4_linear_27067_7009" x1="-6.20552" y1="-6.61395" x2="39.1089" y2="38.6996" gradientUnits="userSpaceOnUse">
<stop stop-color="#65F6FF"/>
<stop offset="1" stop-color="#428392"/>
</linearGradient>
<linearGradient id="paint5_linear_27067_7009" x1="-6.20552" y1="-6.61395" x2="39.1089" y2="38.6996" gradientUnits="userSpaceOnUse">
<stop stop-color="#65F6FF"/>
<stop offset="1" stop-color="#428392"/>
</linearGradient>
</defs>
</svg>
