<svg width="32" height="32" viewBox="0 0 32 32" fill="none" xmlns="http://www.w3.org/2000/svg">
<path fill-rule="evenodd" clip-rule="evenodd" d="M14.2407 4.42465C15.0841 3.8578 16.1866 3.8578 17.03 4.42465L26.4861 10.7806C27.0151 11.1362 27.3543 11.6435 27.5035 12.1937C27.6592 12.37 27.7536 12.6016 27.7536 12.8552V19.2044C27.7536 19.7567 27.3059 20.2044 26.7536 20.2044C26.2013 20.2044 25.7536 19.7567 25.7536 19.2044V15.4226L23.9229 16.6531V22.8322C23.9229 23.7629 23.4059 24.6166 22.5812 25.0477L16.7672 28.0872C16.0667 28.4534 15.2343 28.4667 14.5224 28.1232L8.15508 25.0505C7.29086 24.6335 6.74161 23.7586 6.74161 22.799V16.2457L4.78459 14.9303C3.31074 13.9396 3.31074 11.7712 4.78459 10.7806L14.2407 4.42465ZM15.9143 6.08454C15.7456 5.97117 15.5251 5.97117 15.3564 6.08454L5.90028 12.4405C5.60551 12.6386 5.60551 13.0723 5.90028 13.2704L15.3564 19.6263C15.5251 19.7397 15.7456 19.7397 15.9143 19.6263L25.3704 13.2704C25.6652 13.0723 25.6652 12.6386 25.3704 12.4405L15.9143 6.08454ZM8.74161 17.59V22.799C8.74161 22.9909 8.85146 23.1659 9.0243 23.2493L15.3916 26.322C15.534 26.3907 15.7005 26.388 15.8406 26.3148L21.6546 23.2753C21.8195 23.1891 21.9229 23.0184 21.9229 22.8322V17.9974L17.03 21.2862C16.1866 21.8531 15.0841 21.8531 14.2407 21.2862L8.74161 17.59Z" fill="url(#paint0_linear_27067_7011)"/>
<defs>
<linearGradient id="paint0_linear_27067_7011" x1="-9.84187" y1="-8.88125" x2="39.3598" y2="43.6969" gradientUnits="userSpaceOnUse">
<stop stop-color="#B3BAF7"/>
<stop offset="1" stop-color="#4B5394"/>
</linearGradient>
</defs>
</svg>
