<svg width="56" height="56" viewBox="0 0 56 56" fill="none" xmlns="http://www.w3.org/2000/svg">
<rect x="0.5" y="0.5" width="55" height="55" rx="7.5" fill="url(#paint0_linear_28159_10136)" fill-opacity="0.2" stroke="url(#paint1_linear_28159_10136)"/>
<path fill-rule="evenodd" clip-rule="evenodd" d="M33.472 16.0712C31.6817 15.2996 29.7214 14.8278 27.928 14.5311C24.7277 14.0017 21.747 13.9831 20.4622 14.0059C18.8332 14.0348 18.2837 15.955 19.2844 16.9607L25.9357 23.6454L15.3104 34.3241C13.5632 36.0801 13.5632 38.9271 15.3104 40.683C17.0576 42.439 19.8903 42.439 21.6375 40.683L32.2628 30.0043L39.0597 36.8354C40.0651 37.8459 41.9953 37.2818 41.9999 35.6265C42.0036 34.2866 41.9369 31.1453 41.3194 27.7973C41 26.0656 40.5181 24.1893 39.7723 22.457L39.8441 22.3848C40.2947 21.932 40.2947 21.1977 39.8441 20.7449L35.1487 16.0259C34.6982 15.5731 33.9676 15.573 33.5171 16.0259L33.472 16.0712ZM31.2402 18.3142C30.0621 17.9099 28.7721 17.6087 27.4595 17.3916C25.9941 17.1492 24.5707 17.0221 23.3612 16.9582L27.9753 21.5955L31.2402 18.3142ZM27.9753 25.6953L17.35 36.374C16.7293 36.9978 16.7293 38.0093 17.35 38.6332C17.9707 39.257 18.9771 39.257 19.5979 38.6332L30.2232 27.9544L27.9753 25.6953ZM32.2628 25.9046L30.0149 23.6454L34.0156 19.6246C34.4062 19.8806 34.7621 20.1585 35.0764 20.4597C35.5047 20.8701 35.8914 21.3583 36.2398 21.9076L32.2628 25.9046ZM34.3024 27.9544L39.0169 32.6927C38.9303 31.4072 38.7712 29.8864 38.4833 28.3257C38.251 27.0662 37.9435 25.8313 37.5462 24.6943L34.3024 27.9544Z" fill="url(#paint2_linear_28159_10136)"/>
<defs>
<linearGradient id="paint0_linear_28159_10136" x1="0" y1="0" x2="56" y2="56" gradientUnits="userSpaceOnUse">
<stop stop-color="#00CE88"/>
<stop offset="1" stop-color="#205C47"/>
</linearGradient>
<linearGradient id="paint1_linear_28159_10136" x1="0" y1="0" x2="56" y2="56" gradientUnits="userSpaceOnUse">
<stop stop-color="#32FBB6"/>
<stop offset="1" stop-color="#205C47"/>
</linearGradient>
<linearGradient id="paint2_linear_28159_10136" x1="-0.0595727" y1="-2.05246e-07" x2="55.9399" y2="56.2378" gradientUnits="userSpaceOnUse">
<stop stop-color="#32FBB6"/>
<stop offset="1" stop-color="#205C47"/>
</linearGradient>
</defs>
</svg>
