<svg width="56" height="56" viewBox="0 0 56 56" fill="none" xmlns="http://www.w3.org/2000/svg">
<rect x="0.5" y="0.5" width="55" height="55" rx="7.5" fill="url(#paint0_linear_27067_6986)" fill-opacity="0.2" stroke="url(#paint1_linear_27067_6986)"/>
<path d="M21.6578 15H28.1241V18.3556V18.3971C28.1241 19.233 28.1241 19.9206 28.1698 20.4804C28.2173 21.061 28.3189 21.5914 28.5722 22.0886C28.9663 22.8619 29.5947 23.4909 30.3685 23.8852C30.8658 24.1386 31.3964 24.2402 31.9771 24.2876C32.5371 24.3334 33.2251 24.3333 34.0614 24.3333H34.1022H37.4575V37.0222V37.0274C37.4575 37.9133 37.4567 38.5178 37.4184 38.9856C37.3812 39.4418 37.3133 39.6793 37.2277 39.8473C37.0255 40.2441 36.7022 40.5672 36.3045 40.7699C36.1361 40.8556 35.8983 40.9236 35.4416 40.9609C34.9731 40.9992 34.3677 41 33.48 41H21.6578C20.7701 41 20.1643 40.9992 19.6955 40.9609C19.2383 40.9236 19.0003 40.8556 18.832 40.7699C18.435 40.5676 18.1123 40.2447 17.9098 39.8473C17.824 39.679 17.7561 39.4411 17.7188 38.9842C17.6805 38.5156 17.6797 37.9099 17.6797 37.0222V18.9778C17.6797 18.0901 17.6805 17.4845 17.7188 17.0159C17.7561 16.5589 17.824 16.321 17.9098 16.1527C18.1123 15.7552 18.4351 15.4324 18.832 15.2301C19.0003 15.1444 19.2383 15.0764 19.6955 15.0391C20.1643 15.0008 20.7701 15 21.6578 15ZM30.1241 18.3556V15.1312C30.2529 15.1789 30.3769 15.2391 30.4944 15.3111C30.684 15.4273 30.8593 15.5934 31.4309 16.1651L36.2928 21.0269C36.8636 21.5977 37.0297 21.7736 37.146 21.9634C37.2178 22.0806 37.2779 22.2045 37.3256 22.3333H34.1022C33.2145 22.3333 32.6087 22.3325 32.1399 22.2942C31.6828 22.2569 31.4447 22.1889 31.2765 22.1032C30.8795 21.9009 30.5567 21.5781 30.3542 21.1806C30.2685 21.0123 30.2005 20.7744 30.1632 20.3175C30.1249 19.8489 30.1241 19.2432 30.1241 18.3556ZM25.1646 35.0707C23.8369 33.743 23.8369 31.5904 25.1646 30.2627L23.7504 28.8484C21.6416 30.9572 21.6416 34.3761 23.7504 36.4849L25.1646 35.0707ZM29.9726 30.2627C31.3003 31.5904 31.3003 33.743 29.9726 35.0707L31.3868 36.4849C33.4955 34.3761 33.4955 30.9572 31.3868 28.8484L29.9726 30.2627Z" stroke="url(#paint2_linear_27067_6986)" stroke-width="2"/>
<defs>
<linearGradient id="paint0_linear_27067_6986" x1="0" y1="0" x2="56" y2="56" gradientUnits="userSpaceOnUse">
<stop stop-color="#00CE88"/>
<stop offset="1" stop-color="#205C47"/>
</linearGradient>
<linearGradient id="paint1_linear_27067_6986" x1="0" y1="0" x2="56" y2="56" gradientUnits="userSpaceOnUse">
<stop stop-color="#32FBB6"/>
<stop offset="1" stop-color="#205C47"/>
</linearGradient>
<linearGradient id="paint2_linear_27067_6986" x1="0.679688" y1="0.499999" x2="65.4687" y2="39.0466" gradientUnits="userSpaceOnUse">
<stop stop-color="#32F3B1"/>
<stop offset="1" stop-color="#21634D"/>
</linearGradient>
</defs>
</svg>
