<svg width="56" height="56" viewBox="0 0 56 56" fill="none" xmlns="http://www.w3.org/2000/svg">
<rect x="0.5" y="0.5" width="55" height="55" rx="7.5" fill="url(#paint0_linear_28159_10004)" fill-opacity="0.2" stroke="url(#paint1_linear_28159_10004)"/>
<path fill-rule="evenodd" clip-rule="evenodd" d="M37.2691 28.6146L38.0575 28.0568V31.4058C38.0575 32.1722 38.6848 32.7936 39.4585 32.7936C40.2323 32.7936 40.8595 32.1722 40.8595 31.4058V25.1678C41.2558 23.8192 40.8137 22.2722 39.5333 21.3662L30.0358 14.6462C28.818 13.7846 27.182 13.7846 25.9642 14.6462L16.4667 21.3662C14.5111 22.7499 14.5111 25.6289 16.4667 27.0126L18.0758 28.1512V35.2884C18.0758 36.5898 18.811 37.7817 19.9801 38.3756L26.3625 41.6177C27.4025 42.146 28.64 42.1257 29.6617 41.5634L35.4676 38.3683C36.5795 37.7564 37.2691 36.5954 37.2691 35.3354V28.6146ZM28.4072 16.9048C28.1636 16.7325 27.8364 16.7325 27.5928 16.9048L18.0953 23.6248C17.7042 23.9015 17.7042 24.4773 18.0953 24.7541L27.5928 31.474C27.8364 31.6464 28.1636 31.6464 28.4072 31.474L37.9047 24.7541C37.9649 24.7115 38.0158 24.6618 38.0575 24.6071V24.1895C38.0575 24.0683 38.0732 23.9508 38.1026 23.8387C38.0547 23.7575 37.9887 23.6843 37.9047 23.6248L28.4072 16.9048ZM34.4671 30.5972L30.0358 33.7326C28.818 34.5943 27.182 34.5943 25.9642 33.7326L20.8778 30.1337V35.2884C20.8778 35.5487 21.0249 35.7871 21.2587 35.9058L27.641 39.148C27.8491 39.2536 28.0966 39.2496 28.3009 39.1371L34.1068 35.942C34.3292 35.8196 34.4671 35.5874 34.4671 35.3354V30.5972Z" fill="url(#paint2_linear_28159_10004)"/>
<defs>
<linearGradient id="paint0_linear_28159_10004" x1="0" y1="0" x2="56" y2="56" gradientUnits="userSpaceOnUse">
<stop stop-color="#00CE88"/>
<stop offset="1" stop-color="#205C47"/>
</linearGradient>
<linearGradient id="paint1_linear_28159_10004" x1="0" y1="0" x2="56" y2="56" gradientUnits="userSpaceOnUse">
<stop stop-color="#32FBB6"/>
<stop offset="1" stop-color="#205C47"/>
</linearGradient>
<linearGradient id="paint2_linear_28159_10004" x1="1.94468" y1="-2.05246e-07" x2="57.8083" y2="52.0941" gradientUnits="userSpaceOnUse">
<stop stop-color="#32FBB6"/>
<stop offset="1" stop-color="#205C47"/>
</linearGradient>
</defs>
</svg>
