<svg width="56" height="56" viewBox="0 0 56 56" fill="none" xmlns="http://www.w3.org/2000/svg">
<rect x="0.5" y="0.5" width="55" height="55" rx="7.5" fill="url(#paint0_linear_28159_10124)" fill-opacity="0.2" stroke="url(#paint1_linear_28159_10124)"/>
<path fill-rule="evenodd" clip-rule="evenodd" d="M28.0784 14C25.4534 14 23.3431 16.1445 23.3431 18.7681C23.3431 21.3916 25.4534 23.5361 28.0784 23.5361C30.7034 23.5361 32.8138 21.3916 32.8138 18.7681C32.8138 16.1445 30.7034 14 28.0784 14ZM25.6293 18.7681C25.6293 17.3876 26.7356 16.2863 28.0784 16.2863C29.4212 16.2863 30.5275 17.3876 30.5275 18.7681C30.5275 20.1485 29.4212 21.2499 28.0784 21.2499C26.7356 21.2499 25.6293 20.1485 25.6293 18.7681Z" fill="url(#paint2_linear_28159_10124)"/>
<path d="M35.0649 19.4628C34.548 19.1003 33.8351 19.2255 33.4726 19.7424C33.1101 20.2592 33.2353 20.9721 33.7521 21.3346C36.0735 22.9627 37.6761 25.5516 38.0014 28.5416C38.0697 29.1692 38.6339 29.6226 39.2615 29.5543C39.8891 29.4861 40.3426 28.9219 40.2743 28.2943C39.876 24.6342 37.9122 21.4597 35.0649 19.4628Z" fill="url(#paint3_linear_28159_10124)"/>
<path d="M22.3199 21.394C22.8339 21.0273 22.9532 20.3134 22.5865 19.7995C22.2198 19.2856 21.5059 19.1662 20.992 19.5329C18.1733 21.5441 16.2369 24.7192 15.8669 28.3673C15.8032 28.9954 16.2607 29.5562 16.8888 29.62C17.5169 29.6837 18.0778 29.2261 18.1415 28.598C18.4434 25.6222 20.0217 23.0338 22.3199 21.394Z" fill="url(#paint4_linear_28159_10124)"/>
<path d="M22.0592 39.1353C22.3475 38.5736 23.0365 38.352 23.5982 38.6402C24.9375 39.3276 26.4644 39.7137 28.0769 39.7137C29.6333 39.7137 31.0891 39.3628 32.3927 38.7225C32.9594 38.4441 33.6444 38.6779 33.9227 39.2446C34.201 39.8112 33.9673 40.4962 33.4006 40.7746C31.7839 41.5686 29.9835 42 28.0769 42C26.0972 42 24.2128 41.5255 22.5542 40.6742C21.9926 40.386 21.7709 39.6969 22.0592 39.1353Z" fill="url(#paint5_linear_28159_10124)"/>
<path fill-rule="evenodd" clip-rule="evenodd" d="M14 34.7022C14 32.0787 16.1103 29.9341 18.7353 29.9341C21.3604 29.9341 23.4707 32.0787 23.4707 34.7022C23.4707 37.3257 21.3604 39.4703 18.7353 39.4703C16.1103 39.4703 14 37.3257 14 34.7022ZM18.7353 32.2204C17.3925 32.2204 16.2863 33.3217 16.2863 34.7022C16.2863 36.0827 17.3925 37.184 18.7353 37.184C20.0782 37.184 21.1844 36.0827 21.1844 34.7022C21.1844 33.3217 20.0782 32.2204 18.7353 32.2204Z" fill="url(#paint6_linear_28159_10124)"/>
<path fill-rule="evenodd" clip-rule="evenodd" d="M37.2647 29.9341C34.6396 29.9341 32.5293 32.0787 32.5293 34.7022C32.5293 37.3257 34.6396 39.4703 37.2647 39.4703C39.8897 39.4703 42 37.3257 42 34.7022C42 32.0787 39.8897 29.9341 37.2647 29.9341ZM34.8156 34.7022C34.8156 33.3217 35.9218 32.2204 37.2647 32.2204C38.6075 32.2204 39.7137 33.3217 39.7137 34.7022C39.7137 36.0827 38.6075 37.184 37.2647 37.184C35.9218 37.184 34.8156 36.0827 34.8156 34.7022Z" fill="url(#paint7_linear_28159_10124)"/>
<defs>
<linearGradient id="paint0_linear_28159_10124" x1="0" y1="0" x2="56" y2="56" gradientUnits="userSpaceOnUse">
<stop stop-color="#00CE88"/>
<stop offset="1" stop-color="#205C47"/>
</linearGradient>
<linearGradient id="paint1_linear_28159_10124" x1="0" y1="0" x2="56" y2="56" gradientUnits="userSpaceOnUse">
<stop stop-color="#32FBB6"/>
<stop offset="1" stop-color="#205C47"/>
</linearGradient>
<linearGradient id="paint2_linear_28159_10124" x1="-0.0595727" y1="-2.05246e-07" x2="55.9399" y2="56.2378" gradientUnits="userSpaceOnUse">
<stop stop-color="#32FBB6"/>
<stop offset="1" stop-color="#205C47"/>
</linearGradient>
<linearGradient id="paint3_linear_28159_10124" x1="-0.0595727" y1="-2.05246e-07" x2="55.9399" y2="56.2378" gradientUnits="userSpaceOnUse">
<stop stop-color="#32FBB6"/>
<stop offset="1" stop-color="#205C47"/>
</linearGradient>
<linearGradient id="paint4_linear_28159_10124" x1="-0.0595727" y1="-2.05246e-07" x2="55.9399" y2="56.2378" gradientUnits="userSpaceOnUse">
<stop stop-color="#32FBB6"/>
<stop offset="1" stop-color="#205C47"/>
</linearGradient>
<linearGradient id="paint5_linear_28159_10124" x1="-0.0595727" y1="-2.05246e-07" x2="55.9399" y2="56.2378" gradientUnits="userSpaceOnUse">
<stop stop-color="#32FBB6"/>
<stop offset="1" stop-color="#205C47"/>
</linearGradient>
<linearGradient id="paint6_linear_28159_10124" x1="-0.0595727" y1="-2.05246e-07" x2="55.9399" y2="56.2378" gradientUnits="userSpaceOnUse">
<stop stop-color="#32FBB6"/>
<stop offset="1" stop-color="#205C47"/>
</linearGradient>
<linearGradient id="paint7_linear_28159_10124" x1="-0.0595727" y1="-2.05246e-07" x2="55.9399" y2="56.2378" gradientUnits="userSpaceOnUse">
<stop stop-color="#32FBB6"/>
<stop offset="1" stop-color="#205C47"/>
</linearGradient>
</defs>
</svg>
