<svg width="56" height="56" viewBox="0 0 56 56" fill="none" xmlns="http://www.w3.org/2000/svg">
<rect x="0.5" y="0.5" width="55" height="55" rx="7.5" fill="url(#paint0_linear_28159_10349)" fill-opacity="0.2" stroke="url(#paint1_linear_28159_10349)"/>
<path fill-rule="evenodd" clip-rule="evenodd" d="M25.5781 14.5221C26.1626 14.1801 26.8254 14 27.5 14C28.1747 14 28.8375 14.1801 29.422 14.5222L29.4249 14.5239L38.0751 19.5443C38.5462 19.8206 38.953 20.1943 39.2701 20.6397C39.3502 20.7224 39.4214 20.8166 39.4813 20.9217C39.5326 21.0118 39.5729 21.1053 39.6027 21.2006C39.863 21.7364 39.9994 22.3268 40 22.9266V32.9704C39.9993 33.6561 39.8211 34.3295 39.4832 34.9232C39.1454 35.5168 38.6597 36.0098 38.0751 36.3527L38.0698 36.3558L29.4249 41.3731L29.4224 41.3746C29.0224 41.6087 28.5857 41.767 28.1336 41.8437C27.9439 41.9436 27.7285 42 27.5001 42C27.2716 42 27.0562 41.9436 26.8665 41.8437C26.4144 41.7671 25.9777 41.6088 25.5776 41.3746L25.5751 41.3731L16.9303 36.3558L16.9249 36.3527C16.3403 36.0098 15.8546 35.5168 15.5168 34.9232C15.1789 34.3295 15.0007 33.6561 15 32.9704V22.9266C15.0006 22.3261 15.1374 21.7349 15.3983 21.1985C15.428 21.104 15.4681 21.0112 15.5191 20.9217C15.5786 20.8172 15.6494 20.7235 15.7289 20.6411C16.0461 20.1951 16.4533 19.8209 16.9249 19.5443L16.9302 19.5412L25.5781 14.5221ZM28.8784 38.4654L36.6967 33.9278L36.6988 33.9266C36.8639 33.8293 37.001 33.6898 37.0965 33.5219C37.1923 33.3537 37.2429 33.1628 37.2432 32.9684L37.2432 23.854L28.8784 28.7686V38.4654ZM26.1217 28.7685V38.4655L18.3033 33.9278L18.3012 33.9266C18.1361 33.8293 17.999 33.6898 17.9035 33.5219C17.8077 33.3536 17.7571 33.1626 17.7568 32.9681V23.8538L26.1217 28.7685ZM28.0519 16.9518L35.8158 21.4579L27.5002 26.3437L19.1843 21.4578L26.9481 16.9518L26.9535 16.9487C27.1196 16.8513 27.3081 16.8 27.5 16.8C27.6919 16.8 27.8804 16.8513 28.0465 16.9487L28.0519 16.9518Z" fill="url(#paint2_linear_28159_10349)"/>
<defs>
<linearGradient id="paint0_linear_28159_10349" x1="0" y1="0" x2="56" y2="56" gradientUnits="userSpaceOnUse">
<stop stop-color="#00CE88"/>
<stop offset="1" stop-color="#205C47"/>
</linearGradient>
<linearGradient id="paint1_linear_28159_10349" x1="0" y1="0" x2="56" y2="56" gradientUnits="userSpaceOnUse">
<stop stop-color="#32FBB6"/>
<stop offset="1" stop-color="#205C47"/>
</linearGradient>
<linearGradient id="paint2_linear_28159_10349" x1="2.44681" y1="-2.05246e-07" x2="58.1153" y2="49.9155" gradientUnits="userSpaceOnUse">
<stop stop-color="#32FBB6"/>
<stop offset="1" stop-color="#205C47"/>
</linearGradient>
</defs>
</svg>
