<svg width="56" height="56" viewBox="0 0 56 56" fill="none" xmlns="http://www.w3.org/2000/svg">
<rect x="0.5" y="0.5" width="55" height="55" rx="7.5" fill="url(#paint0_linear_27067_6995)" fill-opacity="0.2" stroke="url(#paint1_linear_27067_6995)"/>
<path d="M37.7956 20.6537H36.3956V19.2537C36.3956 18.1398 35.9531 17.0715 35.1655 16.2839C34.3778 15.4962 33.3095 15.0537 32.1956 15.0537H18.1956C17.0817 15.0537 16.0134 15.4962 15.2258 16.2839C14.4381 17.0715 13.9956 18.1398 13.9956 19.2537V19.2537V36.0537C13.9956 37.1676 14.4381 38.2359 15.2258 39.0236C16.0134 39.8112 17.0817 40.2537 18.1956 40.2537H37.7956C38.9095 40.2537 39.9778 39.8112 40.7655 39.0236C41.5531 38.2359 41.9956 37.1676 41.9956 36.0537V24.8537C41.9956 23.7398 41.5531 22.6715 40.7655 21.8839C39.9778 21.0962 38.9095 20.6537 37.7956 20.6537ZM18.1956 17.8537H32.1956C32.5669 17.8537 32.923 18.0012 33.1856 18.2638C33.4481 18.5263 33.5956 18.8824 33.5956 19.2537V20.6537H18.1956C17.8243 20.6537 17.4682 20.5062 17.2057 20.2437C16.9431 19.9811 16.7956 19.625 16.7956 19.2537C16.7956 18.8824 16.9431 18.5263 17.2057 18.2638C17.4682 18.0012 17.8243 17.8537 18.1956 17.8537V17.8537ZM39.1956 31.8537H37.7956C37.4243 31.8537 37.0682 31.7062 36.8057 31.4437C36.5431 31.1811 36.3956 30.825 36.3956 30.4537C36.3956 30.0824 36.5431 29.7263 36.8057 29.4638C37.0682 29.2012 37.4243 29.0537 37.7956 29.0537H39.1956V31.8537ZM39.1956 26.2537H37.7956C36.6817 26.2537 35.6134 26.6962 34.8258 27.4839C34.0381 28.2715 33.5956 29.3398 33.5956 30.4537C33.5956 31.5676 34.0381 32.6359 34.8258 33.4236C35.6134 34.2112 36.6817 34.6537 37.7956 34.6537H39.1956V36.0537C39.1956 36.425 39.0481 36.7811 38.7856 37.0437C38.523 37.3062 38.1669 37.4537 37.7956 37.4537H18.1956C17.8243 37.4537 17.4682 37.3062 17.2057 37.0437C16.9431 36.7811 16.7956 36.425 16.7956 36.0537V23.2157C17.2454 23.3739 17.7188 23.4544 18.1956 23.4537H37.7956C38.1669 23.4537 38.523 23.6012 38.7856 23.8638C39.0481 24.1263 39.1956 24.4824 39.1956 24.8537V26.2537Z" fill="url(#paint2_linear_27067_6995)"/>
<defs>
<linearGradient id="paint0_linear_27067_6995" x1="0" y1="0" x2="56" y2="56" gradientUnits="userSpaceOnUse">
<stop stop-color="#00CE88"/>
<stop offset="1" stop-color="#205C47"/>
</linearGradient>
<linearGradient id="paint1_linear_27067_6995" x1="0" y1="0" x2="56" y2="56" gradientUnits="userSpaceOnUse">
<stop stop-color="#32FBB6"/>
<stop offset="1" stop-color="#205C47"/>
</linearGradient>
<linearGradient id="paint2_linear_27067_6995" x1="-0.0639672" y1="2.45371" x2="50.0348" y2="58.3559" gradientUnits="userSpaceOnUse">
<stop stop-color="#32FBB6"/>
<stop offset="1" stop-color="#205C47"/>
</linearGradient>
</defs>
</svg>
